<svg width="118" height="96" viewBox="0 0 118 96" fill="none" xmlns="http://www.w3.org/2000/svg">
<path d="M116.111 44.831C117.869 46.5819 117.869 49.4193 116.111 51.1686C114.354 52.9194 111.505 52.9194 109.749 51.1686C103.386 44.831 94.9247 41.3417 85.9303 41.3417C76.9323 41.3417 68.4731 44.8309 62.112 51.1686C54.0498 59.199 43.3317 63.6232 31.931 63.6232C20.532 63.6232 9.8107 59.199 1.75006 51.1686C-0.00775543 49.4177 -0.00775543 46.5803 1.75006 44.831C3.50788 43.0801 6.35654 43.0801 8.11275 44.831C14.4754 51.1686 22.9367 54.6579 31.931 54.6579C40.929 54.6579 49.3883 51.1687 55.7493 44.831C63.8116 36.8006 74.5296 32.3764 85.9303 32.3764C97.3278 32.3764 108.049 36.8006 116.111 44.831ZM31.929 32.2468C43.3297 32.2468 54.0494 27.8226 62.11 19.7922C68.4711 13.4546 76.9307 9.96526 85.9283 9.96526C94.9247 9.96526 103.384 13.4545 109.747 19.7922C111.504 21.543 114.353 21.543 116.109 19.7922C117.867 18.0413 117.867 15.2039 116.109 13.4546C108.047 5.4242 97.3258 1 85.9283 1C74.5276 1 63.808 5.4242 55.7473 13.4546C49.3862 19.7922 40.9266 23.2815 31.929 23.2815C22.9326 23.2815 14.4734 19.7922 8.11074 13.4546C6.35292 11.7037 3.50426 11.7037 1.74805 13.4546C-0.00976634 15.2055 -0.00976634 18.0429 1.74805 19.7922C9.80869 27.8226 20.5299 32.2468 31.929 32.2468ZM85.9291 63.7532C74.5284 63.7532 63.8088 68.1774 55.7481 76.2078C49.3871 82.5454 40.9274 86.0347 31.9298 86.0347C22.9334 86.0347 14.4742 82.5455 8.11154 76.2078C6.35372 74.457 3.50506 74.457 1.74885 76.2078C-0.0089632 77.9587 -0.0089632 80.7961 1.74885 82.5454C9.8111 90.5758 20.5324 95 31.9298 95C43.3305 95 54.0502 90.5758 62.1108 82.5454C68.4719 76.2078 76.9315 72.7185 85.9291 72.7185C94.9255 72.7185 103.385 76.2078 109.747 82.5454C111.505 84.2963 114.354 84.2963 116.11 82.5454C117.868 80.7945 117.868 77.9571 116.11 76.2078C108.049 68.1774 97.3282 63.7532 85.9291 63.7532Z" fill="white" stroke="white" stroke-width="0.5"/>
</svg>
