<svg width="136" height="103" viewBox="0 0 136 103" fill="none" xmlns="http://www.w3.org/2000/svg">
<path d="M121.059 17.1928C121.059 26.6871 113.361 34.3847 103.866 34.3847C94.3712 34.3847 86.6743 26.6871 86.6743 17.1928C86.6743 7.69741 94.3709 0 103.866 0C113.362 0 121.059 7.69767 121.059 17.1928Z" fill="white"/>
<path d="M85.1379 43.1732C85.1379 52.6685 77.4412 60.3659 67.9459 60.3659C58.4505 60.3659 50.7539 52.6683 50.7539 43.1732C50.7539 33.6778 58.4505 25.9812 67.9459 25.9812C77.4412 25.9812 85.1379 33.6778 85.1379 43.1732Z" fill="white"/>
<path d="M80.6948 61.2763C77.0898 63.8224 72.6962 65.3242 67.952 65.3242C63.2101 65.3242 58.813 63.8214 55.2051 61.2742C37.0671 64.9312 36.6325 78.8746 36.625 92.6177C36.625 94.058 37.145 94.5926 37.8235 95.095C45.5772 100.802 58.6704 102.972 67.9397 102.972C77.2214 102.972 90.3132 100.802 98.0693 95.095C98.7488 94.5926 99.2689 94.058 99.2689 92.6198C99.2605 78.8775 98.827 64.9394 80.6962 61.2763L80.6948 61.2763Z" fill="white"/>
<path d="M116.606 35.3043C112.999 37.8514 108.605 39.3532 103.863 39.3532C99.1192 39.3532 94.7242 37.8504 91.1163 35.3032C90.3274 35.4627 89.5801 35.6503 88.8526 35.8473C89.6593 38.1422 90.1033 40.6091 90.1033 43.1738C90.1033 48.5191 88.2023 53.4258 85.0352 57.2557C93.1474 59.684 98.7003 64.5532 101.558 71.7682C102.226 73.4576 102.728 75.2065 103.103 76.9916C103.351 76.9947 103.608 77.0031 103.85 77.0031C113.133 77.0031 126.225 74.8333 133.979 69.1253C134.658 68.6219 135.178 68.0769 135.178 66.6501C135.171 52.9089 134.736 38.9671 116.606 35.304L116.606 35.3043Z" fill="white"/>
<path d="M49.2236 17.1928C49.2236 26.6871 41.5259 34.3847 32.0308 34.3847C22.5365 34.3847 14.8389 26.6871 14.8389 17.1928C14.8389 7.69741 22.5365 0 32.0308 0C41.5262 0 49.2236 7.69767 49.2236 17.1928Z" fill="white"/>
<path d="M50.8562 57.2557C47.6951 53.4266 45.7902 48.5181 45.7902 43.1738C45.7902 40.609 46.2342 38.1423 47.0408 35.8473C46.3144 35.6503 45.5693 35.4637 44.7772 35.3032C41.1701 37.8503 36.7732 39.3532 32.0314 39.3532C27.2896 39.3532 22.8936 37.8514 19.2864 35.3043C1.15666 38.9685 0.722047 52.9098 0.714844 66.6505C0.714844 68.0772 1.23489 68.6223 1.9144 69.1246C9.6681 74.8336 22.7612 77.0024 32.044 77.0024C32.2858 77.0024 32.5432 76.993 32.7912 76.9909C33.1675 75.2056 33.6688 73.458 34.3358 71.7675C37.1924 64.5525 42.7442 59.6834 50.8575 57.255L50.8562 57.2557Z" fill="white"/>
</svg>
