<svg width="129" height="130" viewBox="0 0 129 130" fill="none" xmlns="http://www.w3.org/2000/svg">
<path d="M12.1876 47.1249C12.2159 46.9084 12.3267 46.7112 12.4953 46.5729C12.6638 46.4358 12.8799 46.3711 13.0959 46.3938H13.5982L13.2577 42.9651L3.21951 44.1031L6.26798 74.9781H9.25215L12.1876 47.1249Z" fill="white"/>
<path d="M27.3646 51.8375V95.2076C27.9981 94.5593 28.7254 94.0118 29.5218 93.5822C28.8329 93.0506 28.4313 92.2276 28.4347 91.356C28.4358 90.1998 29.1349 89.1592 30.2028 88.724V86.5465C30.2062 84.5209 30.6428 82.5202 31.4844 80.6794L29.2299 54.0621C29.1926 53.6189 29.5173 53.2279 29.9596 53.1848L36.1709 52.5841L36.4141 43.5331L26.3272 43.2248L26.1168 51.0245H26.5546L26.5535 51.0234C27.0014 51.0234 27.3645 51.3872 27.3645 51.8361L27.3646 51.8375Z" fill="white"/>
<path d="M15.6566 88.8382V51.8375C15.6566 51.3886 16.0197 51.0247 16.4665 51.0247H21.9313L22.1417 49.1068L13.7258 48.0833L10.8559 75.2376C11.0245 75.3906 11.1195 75.6106 11.1161 75.8384C11.1127 80.5628 12.7145 85.1467 15.6568 88.8387L15.6566 88.8382Z" fill="white"/>
<path d="M53.7982 51.1381L51.0086 72.2634H58.2743L60.9496 46.9952L50.9114 45.7767L50.4895 49.8232L53.1161 50.229H53.1173C53.5539 50.2959 53.8559 50.6994 53.7982 51.1381Z" fill="white"/>
<path d="M98.0237 7.24773L95.5747 6.435L76.9416 0L75.4824 4.8425L93.1268 10.9522V30.5506H98.0237L98.0237 7.24773Z" fill="white"/>
<path d="M17.2783 90.6924C19.6481 93.0705 22.5507 94.8478 25.744 95.8759V52.6508H17.2783V90.6924Z" fill="white"/>
<path d="M44.41 72.3125H49.3727L52.0808 51.7075L43.6976 50.3757L41.8164 64.3994L42.4974 72.4429C43.1308 72.3567 43.7709 72.3125 44.41 72.3125Z" fill="white"/>
<path d="M70.2262 72.3124H84.6273C88.3931 72.3169 92.0039 73.8177 94.6678 76.4872C97.3306 79.1554 98.8283 82.7736 98.8329 86.5482V88.7745C99.7797 89.1474 100.452 90.0032 100.592 91.012C100.733 92.022 100.322 93.0296 99.5138 93.6485C101.466 94.6528 102.981 96.344 103.766 98.3967C104.55 100.451 104.55 102.723 103.766 104.777C102.981 106.83 101.466 108.521 99.5138 109.525C100.314 110.145 100.723 111.145 100.59 112.149C100.456 113.154 99.7989 114.012 98.8657 114.399V116.577C98.8577 119.531 97.9336 122.409 96.2232 124.813C94.5117 127.217 92.0978 129.03 89.314 130H118.374L125.656 50.7H68.2481L70.2262 72.3124Z" fill="white"/>
<path d="M65.3288 39.7137V49.0743H128.574V39.7137H65.3288Z" fill="white"/>
<path d="M122.849 32.175H71.0512L68.7164 38.0908H125.183L122.849 32.175Z" fill="white"/>
<path d="M40.9374 72.7506L39.3153 53.9003L30.8823 54.7289L32.8947 78.2276C34.8595 75.5208 37.7033 73.5849 40.9374 72.7506Z" fill="white"/>
<path d="M30.2025 116.576V114.399C29.2681 114.011 28.612 113.153 28.4774 112.149C28.3439 111.145 28.7546 110.145 29.5543 109.525C28.0917 108.777 26.8643 107.64 26.0057 106.238C25.1472 104.836 24.6913 103.222 24.689 101.578C24.6902 100.177 25.0227 98.795 25.6619 97.548C21.1235 96.1969 17.1203 93.4571 14.2119 89.7132C11.3048 85.9681 9.63737 81.4068 9.44508 76.6665H0.574219L7.75854 129.186H37.8407C35.5387 127.985 33.609 126.174 32.2627 123.951C30.9154 121.727 30.2028 119.177 30.2028 116.576L30.2025 116.576Z" fill="white"/>
<path d="M97.2095 114.612H31.824V116.578V116.577C31.8274 119.921 33.1554 123.125 35.5139 125.49C37.8735 127.853 41.0713 129.183 44.4073 129.187H84.6249C87.961 129.183 91.1586 127.853 93.5184 125.49C95.8769 123.126 97.2048 119.921 97.2083 116.577L97.2095 114.612Z" fill="white"/>
<path d="M31.8274 86.5487V88.5629H97.2129V86.5487C97.2095 83.2049 95.8814 80.0005 93.5229 77.6358C91.1633 75.2725 87.9655 73.9427 84.6295 73.9384H44.4119C41.0759 73.9429 37.8783 75.2725 35.5184 77.6358C33.1599 80.0003 31.832 83.2047 31.8285 86.5487H31.8274Z" fill="white"/>
<path d="M33.7068 108.875H95.4927C98.1001 108.875 100.508 107.482 101.813 105.219C103.116 102.957 103.116 100.168 101.813 97.9058C100.508 95.6433 98.1001 94.2502 95.4927 94.2502H33.7068C31.0994 94.2502 28.69 95.6433 27.3869 97.9058C26.0826 100.168 26.0826 102.957 27.3869 105.219C28.69 107.482 31.0994 108.875 33.7068 108.875Z" fill="white"/>
<path d="M31.2745 92.6251H97.7633C98.4352 92.6251 98.9793 92.0798 98.9793 91.4065C98.9793 90.7332 98.4352 90.188 97.7633 90.188H31.2745C30.6026 90.188 30.0585 90.7332 30.0585 91.4065C30.0585 92.0798 30.6026 92.6251 31.2745 92.6251Z" fill="white"/>
<path d="M97.7633 110.5H31.2745C30.6026 110.5 30.0585 111.045 30.0585 111.719C30.0585 112.392 30.6026 112.937 31.2745 112.937H97.7633C98.4352 112.937 98.9793 112.392 98.9793 111.719C98.9793 111.045 98.4352 110.5 97.7633 110.5Z" fill="white"/>
</svg>
