<svg width="141" height="96" viewBox="0 0 141 96" fill="none" xmlns="http://www.w3.org/2000/svg">
<path fill-rule="evenodd" clip-rule="evenodd" d="M110.925 34.0853L141 96H0L30.0632 34.0853H36.7293C38.5099 37.0331 40.3842 39.8888 42.3268 42.5697H35.3312L13.5003 87.518H127.487L105.662 42.5697H98.667C100.609 39.9077 102.483 37.0522 104.257 34.0853H110.925ZM64.1832 6.97766e-05H85.2889C88.0019 6.97766e-05 91.1027 2.48426 92.3343 5.65418L96.3117 15.8669C96.4155 15.8542 96.5162 15.8304 96.6272 15.8304H99.6816C101.408 15.8272 102.812 17.4309 102.812 19.4141C102.812 21.3925 101.408 22.9978 99.6816 22.9978H98.9145C98.9145 23.0034 98.9168 23.0058 98.9168 23.0113C99.3339 24.2498 99.566 25.6002 99.566 27.0174V31.2163C99.566 35.3223 98.5722 38.8664 96.3242 40.5923V45.2048C96.3242 47.5207 94.6805 49.3983 92.66 49.3983H89.2994C87.2788 49.3983 85.6366 47.5183 85.6366 45.2048V41.7061H55.8594V45.2048C55.8594 47.5207 54.2173 49.3983 52.1952 49.3983H48.8324C46.8102 49.3983 45.1682 47.5183 45.1682 45.2048V40.5923C42.9227 38.8664 41.9288 35.3248 41.9288 31.2163V27.0174C41.9288 25.6027 42.1586 24.2523 42.5709 23.0168C42.5709 23.0113 42.5748 23.0057 42.5748 22.9978H41.8069C40.0774 22.9978 38.6769 21.3925 38.6769 19.4165C38.6769 17.4349 40.0774 15.8303 41.8069 15.8303H44.8597C44.9706 15.8303 45.0729 15.8558 45.1776 15.8669L49.1534 5.65655C50.41 2.43175 53.4392 0 56.1993 0L64.1832 6.97766e-05ZM49.9627 18.3249C49.9627 21.5576 92.1157 21.5538 92.1157 18.3233C92.1157 17.9065 92.037 17.3881 92.0315 17.3524C91.2848 14.3221 88.4161 8.05827 88.4161 8.05827C87.7213 6.27517 85.9792 4.89221 84.9447 4.89221H57.1435C56.1088 4.89221 54.3668 6.27519 53.6713 8.06071C53.6713 8.06071 51.148 13.8809 50.051 17.3556C50.0407 17.3882 49.9629 17.9106 49.9629 18.325L49.9627 18.3249ZM58.1458 32.2293C58.1458 29.6864 56.0944 27.616 53.5633 27.616C51.036 27.616 48.984 29.6817 48.984 32.2293C48.984 34.773 51.0345 36.8371 53.5633 36.8371C56.0944 36.8387 58.1458 34.7747 58.1458 32.2293ZM93.6496 32.2293C93.6496 29.6864 91.6007 27.616 89.0695 27.616C86.5406 27.616 84.4878 29.6817 84.4878 32.2293C84.4878 34.773 86.5375 36.8371 89.0695 36.8371C91.6023 36.8371 93.6496 34.7747 93.6496 32.2293ZM63.951 31.0734C63.5457 31.0734 63.2168 31.4052 63.2168 31.8141C63.2168 32.2237 63.5457 32.5556 63.951 32.5556H78.1887C78.5947 32.5556 78.9228 32.2237 78.9228 31.8141C78.9228 31.4052 78.5947 31.0734 78.1887 31.0734H63.951ZM63.951 34.5309C63.5457 34.5309 63.2168 34.8627 63.2168 35.2724C63.2168 35.6812 63.5457 36.0131 63.951 36.0131H78.1887C78.5947 36.0131 78.9228 35.6812 78.9228 35.2724C78.9228 34.8627 78.5947 34.5309 78.1887 34.5309H63.951Z" fill="white"/>
</svg>
