<svg width="117" height="116" viewBox="0 0 117 116" fill="none" xmlns="http://www.w3.org/2000/svg">
<path d="M62.6247 0.000218612C43.7795 0.000218612 27.1363 9.7903 17.4688 24.4749H17.7137C21.8742 24.4749 25.7906 26.1881 28.605 29.0025C36.192 18.4784 48.6743 11.7476 62.6249 11.7476C85.8759 11.7476 104.721 30.5927 104.721 53.844C104.721 67.7946 97.8687 80.2767 87.4665 87.8638C89.4247 89.6991 90.7709 92.0243 91.5049 94.7165C91.8719 96.1847 91.994 97.5309 91.994 99C106.802 89.3329 116.469 72.6897 116.469 53.8442C116.469 24.2299 92.3611 0 62.6243 0L62.6247 0.000218612Z" fill="white"/>
<path d="M81.7058 47.9585H68.2297V29.9585C68.2297 26.6065 65.5344 24 62.3492 24C59.0411 24 56.4688 26.7311 56.4688 29.9585V54.0415C56.4688 57.3935 59.1641 60 62.3492 60H81.5843C84.8924 60 87.4648 57.2689 87.4648 54.0415C87.5862 50.6895 84.8907 47.9585 81.7058 47.9585Z" fill="white"/>
<path d="M79.5113 93.3803L62.7984 84.7854C60.4633 83.5572 57.5147 84.1713 55.9169 86.2586L49.7725 94.1169C43.7507 90.9247 39.204 87.855 33.9203 82.5748C28.2669 76.9262 25.3183 72.3835 22.2461 66.49L29.9883 60.4732C32.0773 58.8767 32.6918 55.9303 31.4627 53.5974L22.8607 37.0207C21.3863 34.0736 17.5769 33.0911 14.8734 34.9335L4.18227 42.0551C1.72472 43.6516 0.249396 46.598 0.495393 49.5451C0.741412 52.6147 1.11001 56.4209 1.72463 59.1224C4.79685 71.0327 12.293 83.3114 22.739 93.7483C33.185 104.186 45.4734 111.676 57.3936 114.745C60.0972 115.482 63.9067 115.85 66.9789 115.973C69.9285 116.219 72.8774 114.745 74.4751 112.167L81.3567 101.362C83.444 98.5371 82.4607 94.8532 79.5111 93.3802L79.5113 93.3803Z" fill="white"/>
</svg>
