<svg width="76" height="127" viewBox="0 0 76 127" fill="none" xmlns="http://www.w3.org/2000/svg">
<path d="M48.8333 8.94948C49.7784 14.7574 45.8236 20.2301 40.0017 21.1726C34.1796 22.1154 28.6936 18.1717 27.7488 12.3635C26.8037 6.55413 30.7585 1.08143 36.5805 0.13887C42.4025 -0.802491 47.8885 3.14165 48.8333 8.94948Z" fill="white"/>
<path d="M17.3963 90.2282V64.3135C17.3963 57.9407 22.482 52.8278 28.8703 52.8278H29.1144C26.2466 50.393 24.4359 46.5568 24.4359 42.4376C24.4359 41.6661 24.497 40.8946 24.619 40.1642C24.6999 39.7183 24.7822 39.2922 24.9042 38.8647C23.847 39.4125 22.6863 39.8386 21.4873 40.102H9.13923C4.52179 40.102 0.859375 43.8149 0.859375 48.4226V74.3373C0.859375 78.5174 3.84922 81.9883 7.91903 82.5971V104.697C7.91903 108.227 10.0546 111.272 12.7196 111.272H24.4573L24.4772 111.131V100.842C20.3861 99.1166 17.3963 94.9363 17.3963 90.2282Z" fill="white"/>
<path d="M75.7402 74.3559V48.4412C75.7402 43.8349 72.0792 40.1205 67.4603 40.1205H55.1123C53.9118 39.8572 52.7525 39.4099 51.6953 38.8621C51.8174 39.2882 51.8982 39.7143 51.9805 40.1814C52.1026 40.9118 52.1636 41.7031 52.1636 42.4746C52.1636 46.5938 50.3529 50.4089 47.4851 52.8449H47.7292C54.1175 52.8449 59.1818 57.9382 59.1818 64.3306V90.2453C59.1818 94.9338 56.192 99.1139 52.1221 100.879V111.167L52.142 111.309H63.8798C66.5446 111.309 68.6603 108.266 68.6603 104.734V82.6155C72.7485 82.0069 75.7402 78.5374 75.7402 74.3559Z" fill="white"/>
<path d="M38.2876 28.576C40.5665 28.576 42.722 29.1238 44.6349 30.1189C44.3298 28.9822 44.1666 27.7648 44.1666 26.5276C44.1666 25.7165 44.2276 24.9649 44.3695 24.1537H32.2242C32.3661 24.9649 32.4271 25.7165 32.4271 26.5276C32.4271 27.7648 32.2639 28.9836 31.9588 30.1189C33.8532 29.1238 36.0085 28.576 38.2876 28.576Z" fill="white"/>
<path d="M56.189 90.2283V64.3136C56.189 59.7073 52.3435 56.0752 47.7261 56.0752H28.8691C24.2517 56.0752 20.3862 59.6877 20.3862 64.3136V90.2283C20.3862 94.4084 23.6414 97.8793 27.7096 98.4881V120.588C27.7096 124.118 29.7643 127 32.4291 127H44.1669C46.8317 127 48.8667 124.118 48.8667 120.588L48.8653 98.4881C52.9335 97.8794 56.189 94.4297 56.189 90.2283Z" fill="white"/>
<path d="M48.9677 42.3975C48.9677 48.2818 44.1871 53.0522 38.2885 53.0522C32.3898 53.0522 27.6092 48.2818 27.6092 42.3975C27.6092 36.5145 32.3898 31.7441 38.2885 31.7441C44.1871 31.7441 48.9677 36.5145 48.9677 42.3975Z" fill="white"/>
<path d="M68.6999 26.525C68.6999 32.4094 63.9193 37.1798 58.0207 37.1798C52.122 37.1798 47.3415 32.4094 47.3415 26.525C47.3415 20.6421 52.122 15.8717 58.0207 15.8717C63.9193 15.8717 68.6999 20.6421 68.6999 26.525Z" fill="white"/>
<path d="M29.2354 26.525C29.2354 32.4094 24.4549 37.1798 18.5562 37.1798C12.6576 37.1798 7.87703 32.4094 7.87703 26.525C7.87703 20.6421 12.6576 15.8717 18.5562 15.8717C24.4549 15.8717 29.2354 20.6421 29.2354 26.525Z" fill="white"/>
</svg>
