<svg width="131" height="100" viewBox="0 0 131 100" fill="none" xmlns="http://www.w3.org/2000/svg">
<path d="M127.739 19.2277C127.689 19.1783 127.631 19.1441 127.578 19.0967V19.0977C125.696 17.274 123.18 16.2534 120.56 16.2503H41.3406V10.1564C41.3376 7.46405 40.2665 4.88283 38.3622 2.97845C36.4578 1.07407 33.8763 0.0030953 31.1842 0H10.8713C8.17889 0.00302282 5.59767 1.0741 3.69329 2.97845C1.78891 4.88281 0.717939 7.46431 0.714844 10.1564V95.4706C0.714844 96.5477 1.14308 97.5815 1.9048 98.3433C2.66653 99.1051 3.70031 99.5332 4.7775 99.5332H59.621C61.0719 99.5332 62.414 98.7594 63.1396 97.502C63.8652 96.2445 63.865 94.6968 63.1396 93.4394C62.4141 92.1819 61.072 91.4081 59.621 91.4081H41.3394V48.7497H120.558C123.251 48.7467 125.832 47.6756 127.736 45.7713C129.641 43.8669 130.712 41.2854 130.715 38.5933V26.4055C130.712 23.788 129.693 21.2738 127.873 19.3926C127.825 19.3392 127.789 19.2778 127.737 19.2264L127.739 19.2277ZM85.6787 40.6258L101.929 24.3754H116.846L100.596 40.6258H85.6787ZM59.2707 40.6258L75.521 24.3754H90.4383L74.1879 40.6258H59.2707ZM25.0883 36.9127V26.4067C25.0893 25.2853 25.9981 24.3765 27.1196 24.3754H37.6255L25.0883 36.9127ZM33.2134 91.408H8.83796V10.1564C8.83897 9.03497 9.7478 8.12614 10.8692 8.12513H31.1821C32.3036 8.12614 33.2124 9.03497 33.2134 10.1564V16.2503H27.1196C24.4272 16.2533 21.8459 17.3244 19.9416 19.2287C18.0372 21.1331 16.9662 23.7146 16.9631 26.4067V38.5945C16.9661 41.2869 18.0372 43.8681 19.9416 45.7725C21.8459 47.6768 24.4274 48.7478 27.1196 48.7509H33.2134V91.408ZM32.8638 40.6245L49.1141 24.3742H64.0314L47.7811 40.6245H32.8638ZM120.559 40.6245H112.084L122.59 30.1185V38.5932C122.589 39.7146 121.68 40.6235 120.559 40.6245Z" fill="white"/>
<path d="M21.0246 54.8442C19.9475 54.8442 18.9137 55.2725 18.1519 56.0342C17.3901 56.7959 16.9619 57.8297 16.9619 58.9069V77.1885C16.9619 78.6394 17.7357 79.9815 18.9932 80.7071C20.2507 81.4327 21.7983 81.4325 23.0558 80.7071C24.3132 79.9816 25.0871 78.6395 25.0871 77.1885V58.9069C25.0871 57.8298 24.6588 56.796 23.8971 56.0342C23.1354 55.2724 22.1016 54.8442 21.0244 54.8442H21.0246Z" fill="white"/>
</svg>
