<svg width="105" height="132" viewBox="0 0 105 132" fill="none" xmlns="http://www.w3.org/2000/svg">
<path d="M36.5926 0C21.7542 0 9.63824 12.1533 9.63824 27.0391C9.63824 41.9242 21.7535 54.0853 36.5926 54.0853C51.431 54.0853 63.547 41.9247 63.547 27.0391C63.547 12.1541 51.4317 0 36.5926 0ZM36.577 61.0531C16.8609 61.0531 0.860293 77.1132 0.860293 96.8892V112.044H0.859375C0.859375 113.138 1.29263 114.188 2.06364 114.961C2.83465 115.735 3.88106 116.169 4.9715 116.169H41.7315C40.217 112.137 39.3542 107.793 39.3542 103.255C39.3542 88.7136 47.8868 76.0669 60.1552 70.0372C53.8566 64.4722 45.626 61.0543 36.5751 61.0543L36.577 61.0531ZM76.2038 74.5156C60.428 74.5156 47.5787 87.4285 47.5787 103.254C47.5787 119.08 60.4273 132 76.2038 132C91.9795 132 104.859 119.079 104.859 103.254C104.859 87.4296 91.9788 74.5156 76.2038 74.5156ZM76.1478 86.2058L76.1469 86.2067C77.2621 86.1874 78.3378 86.6229 79.1273 87.4148C79.9158 88.2057 80.3509 89.2849 80.3307 90.4046V106.792V106.791C80.3252 108.263 79.5385 109.62 78.2673 110.353L69.6172 115.38C68.6728 115.977 67.5263 116.163 66.4422 115.896C65.3582 115.628 64.4293 114.93 63.8685 113.961C63.3077 112.994 63.1636 111.838 63.4692 110.761C63.7749 109.684 64.5037 108.777 65.4886 108.25L72.1065 104.415V90.4043C72.0872 89.3104 72.5021 88.2534 73.2603 87.4661C74.0176 86.6788 75.0557 86.2258 76.147 86.2064L76.1478 86.2058Z" fill="white"/>
</svg>
