<svg width="63" height="81" viewBox="0 0 63 81" fill="none" xmlns="http://www.w3.org/2000/svg">
<path d="M21.6461 0C12.6574 0 5.31797 7.45773 5.31797 16.5922C5.31797 25.7262 12.657 33.1887 21.6461 33.1887C30.6348 33.1887 37.9742 25.7265 37.9742 16.5922C37.9742 7.45817 30.6352 0 21.6461 0ZM21.6366 37.4644C9.69324 37.4644 0.000556026 47.3195 0.000556026 59.4547V68.7544H0C0 69.4256 0.262451 70.0698 0.729506 70.5444C1.19656 71.019 1.83044 71.2857 2.491 71.2857H24.7591C23.8416 68.8115 23.319 66.1457 23.319 63.3607C23.319 54.4379 28.4878 46.6774 35.9196 42.9774C32.1041 39.5625 27.1183 37.4651 21.6355 37.4651L21.6366 37.4644ZM45.6413 45.7255C36.0849 45.7255 28.3011 53.6493 28.3011 63.3606C28.3011 73.0719 36.0844 81 45.6413 81C55.1978 81 63 73.0712 63 63.3606C63 53.65 55.1974 45.7255 45.6413 45.7255V45.7255ZM45.6074 52.899L45.6068 52.8996C46.2824 52.8877 46.9341 53.155 47.4123 53.6409C47.8899 54.1262 48.1535 54.7884 48.1413 55.4756V65.5317V65.5311C48.1379 66.434 47.6614 67.2669 46.8913 67.7166L41.6514 70.8015C41.0793 71.1677 40.3848 71.2818 39.7281 71.1179C39.0714 70.9535 38.5087 70.5252 38.169 69.9308C37.8293 69.337 37.742 68.6279 37.9271 67.9669C38.1123 67.3058 38.5538 66.7498 39.1504 66.4261L43.1593 64.0727V55.4754C43.1477 54.8041 43.399 54.1555 43.8583 53.6724C44.317 53.1893 44.9458 52.9113 45.6069 52.8994L45.6074 52.899Z" fill="#FF5910"/>
</svg>
