<svg width="79" height="67" viewBox="0 0 79 67" fill="none" xmlns="http://www.w3.org/2000/svg">
<path d="M74.5254 26.5502L68.1011 3.3593C67.6332 1.97469 66.4496 0.896482 64.4122 0.896482C64.4122 0.896482 58.003 0.433295 47.4135 0.25H31.0099V0.250826C20.4196 0.434119 14.0112 0.897307 14.0112 0.897307C11.9747 0.897307 10.7685 1.62882 10.3223 3.36013L3.89726 26.551C0.988572 27.2165 0.210938 29.994 0.210938 33.3263V55.5175H5.93638V64.517C5.93638 65.4731 6.87805 66.25 8.04322 66.25H13.6664C14.8316 66.25 15.7758 65.4739 15.7758 64.517V55.5175H62.6461V64.517C62.6461 65.4731 63.5902 66.25 64.7554 66.25H70.3787C71.5413 66.25 72.4855 65.4739 72.4855 64.517V55.5175H78.2109V33.3263C78.2101 29.9957 77.4342 27.2166 74.5255 26.5502L74.5254 26.5502ZM13.7352 5.8274C14.0449 4.94561 15.221 4.15052 17.0517 4.15052C17.0517 4.15052 33.7148 3.77569 39.1851 3.77569C44.6553 3.77569 61.3613 4.15052 61.3613 4.15052C63.1936 4.15052 64.3034 4.90186 64.6801 5.8274L68.2635 22.0389C68.2635 22.966 68.1715 23.7149 66.3392 23.7149L12.0761 23.7141C10.2464 23.7141 10.1518 22.9652 10.1518 22.038L13.7352 5.8274ZM12.5073 43.3763C9.20774 43.3763 6.53498 40.7385 6.53498 37.4845C6.53498 34.2306 9.2086 31.5927 12.5073 31.5927C15.806 31.5927 18.4821 34.2306 18.4821 37.4845C18.4821 40.7376 15.8062 43.3763 12.5073 43.3763ZM65.911 43.3763C62.6121 43.3763 59.9362 40.7385 59.9362 37.4845C59.9362 34.2306 62.6104 31.5927 65.911 31.5927C69.2106 31.5927 71.8859 34.2306 71.8859 37.4845C71.8859 40.7376 69.2108 43.3763 65.911 43.3763Z" fill="#FF5910"/>
</svg>
