<svg width="76" height="76" viewBox="0 0 76 76" fill="none" xmlns="http://www.w3.org/2000/svg">
<path d="M41.2191 27.0022C40.2571 26.9676 39.3261 27.3487 38.6652 28.0482C38.0037 28.7477 37.6756 29.6982 37.7642 30.6568C37.709 31.6067 38.0475 32.5371 38.6998 33.2291C39.3527 33.9211 40.2618 34.3138 41.2134 34.3138C42.1645 34.3138 43.0736 33.9211 43.7265 33.2291C44.3793 32.5371 44.7173 31.6067 44.662 30.6568C44.7507 29.7005 44.4237 28.7523 43.7651 28.0528C43.1064 27.3533 42.1793 26.9711 41.2191 27.0022Z" fill="#FF5910"/>
<path d="M44.9293 65.6699H42.3115V55.6127C42.3115 55.2995 42.1877 55.0001 41.9666 54.7784C41.7455 54.5574 41.4456 54.4336 41.1324 54.4336H34.5772C33.9255 54.4336 33.3981 54.9615 33.3981 55.6127V65.6699H30.7803C30.307 65.667 29.8781 65.9474 29.6904 66.3814C29.5028 66.8155 29.5931 67.3199 29.9196 67.6624L36.994 75.0788C37.2168 75.3171 37.5283 75.4519 37.8547 75.4519C38.1811 75.4519 38.4926 75.3171 38.7154 75.0788L45.7898 67.6624C46.1163 67.3199 46.2067 66.8155 46.019 66.3814C45.8313 65.9474 45.4025 65.667 44.9293 65.6699Z" fill="#FF5910"/>
<path d="M20.1669 59.3709V51.6713C20.1669 51.3586 20.0426 51.0587 19.8215 50.8376C19.6004 50.6166 19.3005 50.4922 18.9879 50.4922H12.4206C11.7694 50.4922 11.2415 51.0201 11.2415 51.6713V59.3703L8.65933 59.3709C8.1861 59.368 7.75718 59.6478 7.5695 60.0825C7.38182 60.5166 7.47163 61.0209 7.79806 61.3634L14.8725 68.7798C15.0953 69.0141 15.4045 69.1466 15.7275 69.1466C16.051 69.1466 16.3596 69.0141 16.5824 68.7798L23.6568 61.3634C23.9821 61.0226 24.0725 60.5212 23.8883 60.0877C23.7035 59.6542 23.2792 59.3726 22.8082 59.3709L20.1669 59.3709Z" fill="#FF5910"/>
<path d="M70.4319 21.4418C70.4129 21.4367 70.3921 21.4367 70.3731 21.4418C66.8129 18.5512 62.0988 17.5074 57.6509 18.6237C57.0862 16.9518 56.0251 15.4924 54.6094 14.4387C53.1942 13.3858 51.4907 12.7888 49.7273 12.7283C47.8297 6.68265 42.9195 2.0626 36.7696 0.535703C30.6197 -0.991197 24.1187 0.796498 19.614 5.25317C19.595 5.24569 19.5743 5.24569 19.5553 5.25317C16.1615 8.65907 14.2392 13.2608 14.2023 18.0693C10.4032 18.1021 6.7721 19.6433 4.10887 22.3525C1.44564 25.0625 -0.03233 28.7194 0.000536655 32.5191C0.0333532 36.3182 1.57401 39.9487 4.28381 42.6126C6.99377 45.2758 10.6507 46.7537 14.4499 46.7209H61.2591C65.1925 46.7042 68.9461 45.0715 71.6394 42.2049C74.3331 39.3384 75.7293 35.4902 75.5013 31.5633C75.2727 27.6363 73.4395 23.9767 70.4319 21.4418ZM30.3434 34.5769C31.2311 34.589 32.1057 34.365 32.8782 33.928C33.2956 33.711 33.8052 33.787 34.1402 34.1169C34.3394 34.3069 34.4505 34.5717 34.4465 34.8475C34.4615 35.2614 34.2364 35.6471 33.869 35.8383C32.7665 36.5015 31.5006 36.8446 30.2138 36.8285C28.6444 36.8918 27.1216 36.2862 26.0242 35.1617C24.9269 34.0379 24.358 32.5007 24.46 30.9331C24.3622 29.3666 24.9321 27.8317 26.0284 26.7085C27.1245 25.5847 28.645 24.9779 30.2138 25.0378C31.5051 25.0251 32.7752 25.3717 33.8805 26.0401C34.4079 26.3136 34.614 26.963 34.3405 27.4903C34.0671 28.0177 33.4177 28.2238 32.8903 27.9503C32.1142 27.5111 31.2352 27.2871 30.3434 27.3015C29.3721 27.2353 28.4198 27.5986 27.7394 28.2952C27.0589 28.9918 26.7175 29.9515 26.8061 30.9216C26.7077 31.8928 27.0405 32.8584 27.7169 33.5618C28.394 34.2659 29.3457 34.6367 30.3197 34.5762L30.3434 34.5769ZM41.2147 36.829C39.6458 36.8849 38.1266 36.2764 37.0293 35.1543C35.932 34.0323 35.3586 32.4996 35.4489 30.9331C35.3775 29.3602 35.9527 27.8271 37.0408 26.6889C38.1283 25.5507 39.6345 24.907 41.209 24.907C42.783 24.907 44.289 25.5507 45.3766 26.6889C46.4647 27.8271 47.0398 29.3602 46.9685 30.9331C47.0554 32.5008 46.4791 34.0333 45.3801 35.1549C44.2811 36.2765 42.7606 36.8837 41.1911 36.8285L41.2147 36.829ZM50.824 35.791C50.9536 35.7697 51.0865 35.8066 51.1867 35.8918C51.2869 35.977 51.3445 36.1013 51.3445 36.2332C51.3445 36.3644 51.2869 36.4894 51.1867 36.5746C51.0865 36.6598 50.9536 36.6966 50.824 36.6753H48.4659C48.33 36.6788 48.1982 36.6281 48.1003 36.5337C48.007 36.4399 47.9558 36.312 47.9587 36.1802C47.9546 35.9315 48.0289 35.688 48.1711 35.4842C48.7134 34.7058 49.8337 34.3051 50.2696 33.7742C50.4267 33.56 50.402 33.2635 50.2108 33.0787C49.8925 32.7955 49.0318 32.9371 48.6546 33.0787C48.4882 33.1553 48.2919 33.1225 48.1595 32.9964C48.0656 32.8985 48.023 32.7621 48.0438 32.6285C48.0645 32.4944 48.1462 32.3775 48.2654 32.3125C48.9488 31.9365 49.7622 31.8766 50.494 32.1472C50.8596 32.3205 51.1296 32.6464 51.2321 33.0379C51.3346 33.4288 51.2586 33.8456 51.0242 34.1755C50.4669 34.7892 49.8187 35.3143 49.1025 35.7317L50.824 35.791Z" fill="#FF5910"/>
<path d="M64.466 59.3709V51.6713C64.466 51.3586 64.3422 51.0587 64.1211 50.8376C63.8995 50.6166 63.6001 50.4922 63.2869 50.4922H56.7196C56.0685 50.4922 55.5405 51.0201 55.5405 51.6713V59.3703L52.97 59.3709C52.4973 59.3709 52.0701 59.6541 51.8853 60.09C51.7028 60.5235 51.7955 61.0238 52.1214 61.3634L59.1958 68.7798C59.4169 69.0118 59.7238 69.1443 60.0444 69.1454C60.3697 69.1471 60.6812 69.0147 60.9051 68.7798L67.9796 61.3634C68.306 61.0209 68.3964 60.5166 68.2087 60.0825C68.021 59.6478 67.5921 59.368 67.1189 59.3709L64.466 59.3709Z" fill="#FF5910"/>
</svg>
