<svg width="62" height="40" viewBox="0 0 62 40" fill="none" xmlns="http://www.w3.org/2000/svg">
<path d="M32.2763 19.6409C29.9454 19.6409 28.048 21.5504 28.048 23.8978C28.048 26.2452 29.9453 28.1552 32.2763 28.1552C34.6073 28.1552 36.5047 26.2457 36.5047 23.8978C36.5047 21.5509 34.6074 19.6409 32.2763 19.6409Z" fill="#FFF744"/>
<path d="M55.0741 17.7396C55.2286 14.5111 54.0961 11.3109 51.9044 8.85198C49.5513 6.21051 46.2202 4.69959 42.7619 4.69959C39.3935 4.71538 36.1371 6.07258 33.7992 8.49288C31.4945 3.3461 26.4336 0 20.6967 0C12.7651 0 6.31293 6.49755 6.31293 14.4838C6.31293 15.6194 6.44395 16.7449 6.70228 17.8419C2.65663 19.7271 0 23.8489 0 28.3803C0 34.7872 5.17674 40 11.54 40L50.46 39.9995C56.8233 39.9995 62 34.7868 62 28.3798C62 23.7542 59.2483 19.5753 55.0744 17.7402L55.0741 17.7396ZM24.9189 29.5831C24.047 30.0165 23.1107 30.2366 22.1326 30.2366C18.6613 30.2366 15.8376 27.3931 15.8376 23.8984C15.8376 20.4037 18.6613 17.5607 22.1326 17.5607C23.0972 17.5607 24.0235 17.7753 24.8853 18.1979C25.3987 18.4492 25.6118 19.0721 25.3627 19.589C25.1122 20.105 24.495 20.3219 23.9811 20.0688C23.4031 19.7859 22.7813 19.642 22.1327 19.642C19.8018 19.642 17.9044 21.5515 17.9044 23.8989C17.9044 26.2463 19.8017 28.1563 22.1327 28.1563C22.7896 28.1563 23.4194 28.009 24.0024 27.7183C24.5158 27.4637 25.1335 27.6751 25.3868 28.1902C25.64 28.7053 25.4302 29.329 24.9186 29.5836L24.9189 29.5831ZM32.2762 30.2366C28.8049 30.2366 25.9813 27.3931 25.9813 23.8984C25.9813 20.4037 28.8049 17.5607 32.2762 17.5607C35.7476 17.5607 38.5712 20.4037 38.5712 23.8984C38.5712 27.3931 35.7476 30.2366 32.2762 30.2366ZM45.1284 35.1522H40.8207C40.4313 35.1522 40.0747 34.932 39.8994 34.5827C39.7228 34.233 39.7574 33.8135 39.9871 33.4977L43.7661 28.2956C43.9455 27.9199 43.862 27.5269 43.7176 27.2789C43.6226 27.114 43.4016 26.8358 42.9929 26.8293C42.3563 26.8293 41.8535 27.3351 41.8535 27.9575C41.8535 28.532 41.3913 28.9979 40.8202 28.9979C40.2491 28.9979 39.7869 28.532 39.7869 27.9575C39.7869 26.1874 41.2169 24.748 42.9745 24.748C44.0502 24.7652 44.9765 25.3202 45.5033 26.2319C46.0573 27.1892 46.0753 28.3815 45.5536 29.3439C45.5315 29.3839 42.8563 33.0713 42.8563 33.0713H45.1278C45.6988 33.0713 46.1611 33.5372 46.1611 34.1118C46.1611 34.6863 45.6988 35.1522 45.1278 35.1522L45.1284 35.1522Z" fill="#FFF744"/>
</svg>
