<svg width="76" height="76" viewBox="0 0 76 76" fill="none" xmlns="http://www.w3.org/2000/svg">
<path d="M45.0211 65.6699H42.4033V55.6127C42.4033 55.2995 42.2795 55.0001 42.0584 54.7784C41.8373 54.5574 41.5374 54.4336 41.2242 54.4336H34.669C34.0173 54.4336 33.4899 54.9615 33.4899 55.6127V65.6699H30.8721C30.3988 65.667 29.9699 65.9474 29.7822 66.3815C29.5946 66.8155 29.6849 67.3199 30.0114 67.6624L37.0858 75.0788C37.3086 75.3171 37.6201 75.4519 37.9465 75.4519C38.2729 75.4519 38.5844 75.3171 38.8072 75.0788L45.8816 67.6624C46.2081 67.3199 46.2985 66.8155 46.1108 66.3815C45.9231 65.9474 45.4943 65.667 45.0211 65.6699Z" fill="#FF5910"/>
<path d="M20.2607 59.3709V51.6713C20.2607 51.3586 20.1363 51.0587 19.9153 50.8376C19.6942 50.6166 19.3942 50.4922 19.0816 50.4922H12.5143C11.8632 50.4922 11.3353 51.0201 11.3353 51.6713V59.3703L8.75308 59.3709C8.27985 59.368 7.85093 59.6478 7.66325 60.0825C7.47557 60.5166 7.56538 61.0209 7.89181 61.3634L14.9663 68.7798C15.1891 69.0141 15.4982 69.1466 15.8212 69.1466C16.1448 69.1466 16.4533 69.0141 16.6761 68.7798L23.7506 61.3634C24.0759 61.0226 24.1663 60.5212 23.982 60.0877C23.7972 59.6541 23.3729 59.3726 22.902 59.3709L20.2607 59.3709Z" fill="#FF5910"/>
<path d="M70.5256 21.4418C70.5066 21.4367 70.4859 21.4367 70.4669 21.4418C66.9067 18.5512 62.1926 17.5074 57.7447 18.6237C57.1799 16.9518 56.1189 15.4924 54.7031 14.4387C53.288 13.3858 51.5845 12.7888 49.821 12.7283C47.9235 6.68265 43.0132 2.0626 36.8633 0.535703C30.7134 -0.991197 24.2124 0.796498 19.7078 5.25317C19.6888 5.24569 19.6681 5.24569 19.6491 5.25317C16.2553 8.65907 14.3329 13.2608 14.2961 18.0693C10.497 18.1021 6.86585 19.6433 4.20262 22.3525C1.53939 25.0625 0.06142 28.7194 0.0942867 32.5191C0.127103 36.3182 1.66776 39.9487 4.37756 42.6126C7.08752 45.2758 10.7444 46.7537 14.5437 46.7209H61.3529C65.2863 46.7042 69.0398 45.0715 71.7331 42.2049C74.4269 39.3384 75.8231 35.4902 75.5951 31.5633C75.3665 27.6363 73.5333 23.9767 70.5256 21.4418ZM30.4371 34.5769C31.3249 34.589 32.1994 34.365 32.972 33.928C33.3894 33.711 33.8989 33.787 34.234 34.1169C34.4332 34.3069 34.5443 34.5717 34.5402 34.8475C34.5552 35.2614 34.3301 35.6471 33.9628 35.8383C32.8603 36.5015 31.5943 36.8446 30.3075 36.8285C28.7382 36.8918 27.2154 36.2862 26.118 35.1617C25.0207 34.0379 24.4518 32.5007 24.5538 30.9331C24.4559 29.3666 25.0259 27.8317 26.1221 26.7085C27.2183 25.5847 28.7388 24.9779 30.3075 25.0378C31.5989 25.0251 32.8689 25.3717 33.9743 26.0401C34.5016 26.3136 34.7078 26.963 34.4343 27.4903C34.1608 28.0177 33.5114 28.2238 32.9841 27.9503C32.208 27.5111 31.3289 27.2871 30.4371 27.3015C29.4659 27.2353 28.5136 27.5986 27.8331 28.2952C27.1526 28.9918 26.8112 29.9515 26.8999 30.9216C26.8014 31.8928 27.1342 32.8584 27.8107 33.5618C28.4877 34.2659 29.4394 34.6367 30.4135 34.5762L30.4371 34.5769ZM41.3085 36.829C39.7396 36.8849 38.2203 36.2764 37.1231 35.1543C36.0257 34.0323 35.4523 32.4997 35.5427 30.9331C35.4713 29.3602 36.0464 27.8271 37.1346 26.6889C38.2221 25.5507 39.7282 24.907 41.3027 24.907C42.8768 24.907 44.3828 25.5507 45.4703 26.6889C46.5584 27.8271 47.1335 29.3602 47.0622 30.9331C47.1491 32.5008 46.5728 34.0333 45.4738 35.1549C44.3748 36.2765 42.8544 36.8837 41.2849 36.8285L41.3085 36.829ZM50.9178 35.791C51.0473 35.7697 51.1803 35.8066 51.2805 35.8918C51.3806 35.977 51.4382 36.1013 51.4382 36.2332C51.4382 36.3644 51.3806 36.4894 51.2805 36.5746C51.1803 36.6598 51.0473 36.6966 50.9178 36.6753H48.5596C48.4238 36.6788 48.2919 36.6281 48.194 36.5337C48.1008 36.4399 48.0495 36.312 48.0524 36.1802C48.0484 35.9315 48.1226 35.688 48.2648 35.4842C48.8072 34.7058 49.9275 34.3051 50.3633 33.7742C50.5205 33.56 50.4957 33.2635 50.3046 33.0787C49.9862 32.7955 49.1255 32.9371 48.7484 33.0787C48.582 33.1553 48.3857 33.1225 48.2532 32.9964C48.1594 32.8985 48.1168 32.7621 48.1375 32.6285C48.1582 32.4944 48.24 32.3775 48.3592 32.3125C49.0425 31.9365 49.856 31.8766 50.5878 32.1472C50.9533 32.3205 51.2233 32.6464 51.3258 33.0379C51.4283 33.4288 51.3523 33.8456 51.118 34.1755C50.5607 34.7892 49.9124 35.3143 49.1962 35.7317L50.9178 35.791Z" fill="#FF5910"/>
<path d="M64.5597 59.3709V51.6713C64.5597 51.3586 64.4359 51.0587 64.2149 50.8376C63.9932 50.6166 63.6938 50.4922 63.3806 50.4922H56.8134C56.1622 50.4922 55.6343 51.0201 55.6343 51.6713V59.3703L53.0637 59.3709C52.5911 59.3709 52.1639 59.6542 51.9791 60.09C51.7966 60.5235 51.8893 61.0238 52.2151 61.3634L59.2896 68.7798C59.5107 69.0118 59.8175 69.1443 60.1382 69.1454C60.4635 69.1471 60.7749 69.0147 60.9989 68.7798L68.0733 61.3634C68.3997 61.0209 68.4901 60.5166 68.3025 60.0825C68.1148 59.6478 67.6859 59.368 67.2126 59.3709L64.5597 59.3709Z" fill="#FF5910"/>
</svg>
