<svg width="55" height="77" viewBox="0 0 55 77" fill="none" xmlns="http://www.w3.org/2000/svg">
<path d="M39.0361 10.2283C39.0361 15.4629 34.7928 19.706 29.5584 19.706C24.3234 19.706 20.0801 15.4627 20.0801 10.2283C20.0801 4.99329 24.3234 0.75 29.5584 0.75C34.793 0.75 39.0361 4.99329 39.0361 10.2283Z" fill="#FF5910"/>
<path d="M54.0866 69.1955L47.7622 60.8187C47.7588 60.8153 47.7571 60.8118 47.7553 60.8083C47.1351 59.974 46.5402 59.168 46.0267 58.4664C44.965 57.017 42.5837 54.0068 38.9919 52.2659V38.1832C41.8266 41.075 46.0301 44.342 51.5098 45.826C51.7354 45.8883 51.9628 45.9172 52.1872 45.9172C53.3262 45.9172 54.3705 45.159 54.681 44.0079C55.0532 42.6277 54.2379 41.2095 52.8595 40.8372C44.2466 38.5074 39.2129 30.2823 39.1627 30.1991C39.1125 30.1149 39.049 30.0456 38.9901 29.9683V28.4364C38.9901 25.4361 36.55 22.9941 33.5497 22.9941C33.5497 22.9941 24.2905 22.9976 24.2802 22.9976C18.4139 22.9976 18.6003 27.5715 18.6003 31.4691V43.2993C18.6003 48.2573 19.9666 53.0188 25.9604 56.4184C28.2835 57.6935 31.5647 58.469 34.5098 59.3911C37.9562 60.4683 40.0535 61.9863 40.4603 62.5363C41.2618 63.6187 48.5614 73.3226 48.5614 73.3226C49.3091 74.3236 50.4967 74.8014 51.6563 74.6889C52.2628 74.6318 52.8611 74.4114 53.385 74.0184C54.9117 72.88 55.2256 70.7209 54.0866 69.1954V69.1955Z" fill="#FF5910"/>
<path d="M35.8711 63.6078C32.7571 68.2537 27.563 71.0303 21.9765 71.0303C12.7585 71.0303 5.26011 63.5305 5.26011 54.3124C5.26011 48.3064 8.51034 42.7303 13.742 39.7628C14.5521 39.303 15.0517 38.4444 15.0517 37.5136V26.7256C15.0517 25.2986 13.8937 24.1406 12.4668 24.1406H2.8263C1.39939 24.1406 0.241362 25.2986 0.241362 26.7256C0.241362 28.1525 1.39939 29.3105 2.8263 29.3105H9.8795V36.0695C3.80489 40.1073 0.0878906 46.9626 0.0878906 54.3118C0.0878906 66.382 9.9055 76.1996 21.9742 76.1996C28.9968 76.1996 35.5158 72.827 39.6345 67.18C38.806 66.0728 36.9209 64.1035 35.8713 63.6072L35.8711 63.6078Z" fill="#FF5910"/>
</svg>
