<svg width="74" height="74" viewBox="0 0 74 74" fill="none" xmlns="http://www.w3.org/2000/svg">
<path d="M37 0C16.5526 0 0 16.5526 0 37C0 57.4474 16.5526 74 37 74C57.4474 74 74 57.4474 74 37C74 16.5526 57.4474 0 37 0ZM47.6292 51.6053C46.0066 53.5528 43.8965 54.8506 41.4627 55.5813C40.4077 55.9056 39.9209 56.4739 40.0025 57.5288C40.0834 58.5838 40.0025 59.7197 40.0025 60.7741C40.0025 61.7476 39.5157 62.2344 38.5423 62.3159H35.0535C33.9985 62.3159 33.5117 61.7477 33.5117 60.6933V58.2589C33.5117 56.4738 33.4308 56.3928 31.7266 56.1494C29.5357 55.8251 27.4262 55.3378 25.4787 54.3643C23.9368 53.6342 23.7744 53.2284 24.1803 51.6057C24.5046 50.3888 24.8295 49.1713 25.2353 47.9545C25.4787 47.062 25.8035 46.6561 26.2088 46.6561C26.4522 46.6561 26.858 46.8186 27.2638 47.062C29.4547 48.1979 31.8075 48.8471 34.2419 49.1715C34.6477 49.2524 35.0535 49.2524 35.4587 49.2524C36.5947 49.2524 37.7307 49.009 38.7856 48.6032C41.4633 47.3863 41.9501 44.3028 39.5973 42.3553C38.7856 41.7061 37.893 41.2193 37.0005 40.8134C34.6477 39.7584 32.1318 38.9474 29.86 37.649C26.2088 35.458 23.8555 32.456 24.1803 27.9931C24.5046 22.9626 27.3448 19.7981 31.9701 18.1749C33.8362 17.4447 33.9176 17.5257 33.9176 15.4972V13.4687C33.9176 12.0085 34.2419 11.6836 35.7027 11.6836H37.4063C40.2465 11.6836 40.2465 11.7646 40.2465 14.8481C40.2465 17.12 40.2465 17.12 42.5185 17.4449C44.2227 17.6883 45.8453 18.2565 47.468 18.9051C48.3606 19.3109 48.6849 19.8786 48.4415 20.8526C48.0357 22.2319 47.7114 23.6113 47.2246 24.9906C46.9813 25.8023 46.6564 26.2075 46.1696 26.2075C45.9263 26.2075 45.6014 26.1266 45.1146 25.8832C42.9237 24.8282 40.6518 24.3414 38.2174 24.3414H37.3249C36.5947 24.3414 35.8646 24.5038 35.2154 24.7472C32.8626 25.8022 32.4567 28.3984 34.4852 30.021C35.5402 30.8327 36.6762 31.4004 37.8931 31.9686C40.0026 32.8611 42.1126 33.6728 44.0596 34.8088C50.388 38.2167 52.0921 46.1691 47.6292 51.6053Z" fill="#FF5910"/>
</svg>
