<svg width="75" height="76" viewBox="0 0 75 76" fill="none" xmlns="http://www.w3.org/2000/svg">
<path fill-rule="evenodd" clip-rule="evenodd" d="M73.5674 56.9712C78.4031 38.9393 61.7974 13.8331 48.8873 2.76578C35.9769 13.8344 19.3714 38.9393 24.2072 56.9712C30.8147 81.6096 66.9615 81.6096 73.5674 56.9712ZM32.7141 15.6014C28.9125 9.27206 24.1356 3.65216 19.8747 0C9.83902 8.6045 -3.0691 28.1214 0.690795 42.1391C3.30976 51.9054 11.8975 56.6894 20.3718 56.4949C17.6561 43.625 24.0435 28.0636 32.7166 15.5986L32.7141 15.6014ZM67.1192 60.3132C70.0479 54.7721 68.4037 43.1592 66.0642 38.9971C64.2825 35.8298 65.0207 37.6999 65.0515 40.5189C65.1224 46.8058 64.4365 52.849 59.9555 57.618C56.3568 61.4453 63.987 66.2341 67.1191 60.3115L67.1192 60.3132Z" fill="#FF5910"/>
</svg>
