<svg width="106" height="75" viewBox="0 0 106 75" fill="none" xmlns="http://www.w3.org/2000/svg">
<path d="M68.2479 73.854C67.8935 73.854 67.5378 73.8357 67.1833 73.8162C66.1566 73.7419 65.3708 72.8454 65.4464 71.8173C65.5207 70.7906 66.4172 70.0426 67.4452 70.0804C70.695 70.3046 73.8719 69.1279 76.1689 66.8307C78.298 64.7198 79.4564 61.8988 79.4564 58.9096C79.4564 55.9205 78.298 53.1008 76.1689 50.9899C74.0384 48.879 71.237 47.7024 68.2478 47.7024H12.2074C11.1806 47.7024 10.3388 46.8619 10.3388 45.8338C10.3388 44.807 11.1793 43.9653 12.2074 43.9653H68.2478C72.2454 43.9653 75.9994 45.5159 78.8205 48.3368C81.6415 51.1578 83.1919 54.9118 83.1919 58.9094C83.1919 62.9069 81.6414 66.661 78.8205 69.482C76.0007 72.2848 72.1894 73.854 68.2479 73.854Z" fill="#FF5910"/>
<path d="M81.3252 38.3631H2.86855C1.84177 38.3631 1 37.5227 1 36.4946C1 35.4678 1.84044 34.626 2.86855 34.626H81.3252C89.5628 34.626 96.2696 27.9195 96.2696 19.6816C96.2696 11.4439 89.5631 4.7371 81.3252 4.7371C80.2984 4.7371 79.4566 3.89666 79.4566 2.86855C79.4566 1.84178 80.2971 1 81.3252 1C91.6176 1 100.005 9.38772 100.005 19.6802C100.005 29.9753 91.6189 38.3631 81.3252 38.3631Z" fill="#FF5910"/>
<path d="M46.7664 27.156C46.7664 28.704 45.5116 29.9575 43.9636 29.9575C42.417 29.9575 41.1621 28.704 41.1621 27.156C41.1621 25.608 42.417 24.3545 43.9636 24.3545C45.5116 24.3545 46.7664 25.608 46.7664 27.156Z" fill="#FF5910"/>
<path d="M63.5778 29.0236C63.5778 30.5702 62.323 31.825 60.7763 31.825C59.2283 31.825 57.9735 30.5702 57.9735 29.0236C57.9735 27.4756 59.2283 26.2208 60.7763 26.2208C62.323 26.2208 63.5778 27.4756 63.5778 29.0236Z" fill="#FF5910"/>
<path d="M78.5229 23.421C78.5229 24.9677 77.2681 26.2225 75.7214 26.2225C74.1734 26.2225 72.9186 24.9677 72.9186 23.421C72.9186 21.873 74.1734 20.6182 75.7214 20.6182C77.2681 20.6182 78.5229 21.873 78.5229 23.421Z" fill="#FF5910"/>
<path d="M39.2944 55.1762C39.2944 56.7241 38.0409 57.9776 36.4929 57.9776C34.945 57.9776 33.6915 56.7241 33.6915 55.1762C33.6915 53.6282 34.945 52.3747 36.4929 52.3747C38.0409 52.3747 39.2944 53.6282 39.2944 55.1762Z" fill="#FF5910"/>
<path d="M52.3708 57.0437C52.3708 58.5904 51.116 59.8452 49.568 59.8452C48.0214 59.8452 46.7666 58.5904 46.7666 57.0437C46.7666 55.4958 48.0214 54.241 49.568 54.241C51.116 54.241 52.3708 55.4958 52.3708 57.0437Z" fill="#FF5910"/>
<path d="M67.3146 58.9124C67.3146 60.4604 66.0611 61.7152 64.5131 61.7152C62.9651 61.7152 61.7116 60.4604 61.7116 58.9124C61.7116 57.3657 62.9651 56.1109 64.5131 56.1109C66.0611 56.1109 67.3146 57.3657 67.3146 58.9124Z" fill="#FF5910"/>
<path d="M95.3348 58.9124C95.3348 60.4604 94.0813 61.7152 92.5333 61.7152C90.9853 61.7152 89.7318 60.4604 89.7318 58.9124C89.7318 57.3657 90.9853 56.1109 92.5333 56.1109C94.0813 56.1109 95.3348 57.3657 95.3348 58.9124Z" fill="#FF5910"/>
<path d="M44.8983 66.3826C44.8983 67.9293 43.6435 69.1841 42.0968 69.1841C40.5488 69.1841 39.294 67.9293 39.294 66.3826C39.294 64.8346 40.5488 63.5798 42.0968 63.5798C43.6435 63.5798 44.8983 64.8346 44.8983 66.3826Z" fill="#FF5910"/>
<path d="M91.598 45.8373C91.598 47.3853 90.3432 48.6388 88.7965 48.6388C87.2485 48.6388 85.9937 47.3853 85.9937 45.8373C85.9937 44.2893 87.2485 43.0358 88.7965 43.0358C90.3432 43.0358 91.598 44.2893 91.598 45.8373Z" fill="#FF5910"/>
<path d="M104.675 43.9673C104.675 45.5153 103.422 46.7701 101.874 46.7701C100.326 46.7701 99.0725 45.5153 99.0725 43.9673C99.0725 42.4207 100.326 41.1658 101.874 41.1658C103.422 41.1658 104.675 42.4207 104.675 43.9673Z" fill="#FF5910"/>
<path d="M69.1841 14.0822C69.1841 15.6288 67.9293 16.8837 66.3826 16.8837C64.8346 16.8837 63.5798 15.6288 63.5798 14.0822C63.5798 12.5342 64.8346 11.2794 66.3826 11.2794C67.9293 11.2794 69.1841 12.5342 69.1841 14.0822Z" fill="#FF5910"/>
<path d="M57.9758 19.6847C57.9758 21.2314 56.7223 22.4862 55.1743 22.4862C53.6263 22.4862 52.3728 21.2314 52.3728 19.6847C52.3728 18.1367 53.6263 16.8819 55.1743 16.8819C56.7223 16.8819 57.9758 18.1367 57.9758 19.6847Z" fill="#FF5910"/>
<path d="M68.2479 73.854C67.8935 73.854 67.5378 73.8357 67.1833 73.8162C66.1566 73.7419 65.3708 72.8454 65.4464 71.8173C65.5207 70.7906 66.4172 70.0426 67.4452 70.0804C70.695 70.3046 73.8719 69.1279 76.1689 66.8307C78.298 64.7198 79.4564 61.8988 79.4564 58.9096C79.4564 55.9205 78.298 53.1008 76.1689 50.9899C74.0384 48.879 71.237 47.7024 68.2478 47.7024H12.2074C11.1806 47.7024 10.3388 46.8619 10.3388 45.8338C10.3388 44.807 11.1793 43.9653 12.2074 43.9653H68.2478C72.2454 43.9653 75.9994 45.5159 78.8205 48.3368C81.6415 51.1578 83.1919 54.9118 83.1919 58.9094C83.1919 62.9069 81.6414 66.661 78.8205 69.482C76.0007 72.2848 72.1894 73.854 68.2479 73.854Z" stroke="#FF5910" stroke-width="1.5"/>
<path d="M81.3252 38.3631H2.86855C1.84177 38.3631 1 37.5227 1 36.4946C1 35.4678 1.84044 34.626 2.86855 34.626H81.3252C89.5628 34.626 96.2696 27.9195 96.2696 19.6816C96.2696 11.4439 89.5631 4.7371 81.3252 4.7371C80.2984 4.7371 79.4566 3.89666 79.4566 2.86855C79.4566 1.84178 80.2971 1 81.3252 1C91.6176 1 100.005 9.38772 100.005 19.6802C100.005 29.9753 91.6189 38.3631 81.3252 38.3631Z" stroke="#FF5910" stroke-width="1.5"/>
<path d="M46.7664 27.156C46.7664 28.704 45.5116 29.9575 43.9636 29.9575C42.417 29.9575 41.1621 28.704 41.1621 27.156C41.1621 25.608 42.417 24.3545 43.9636 24.3545C45.5116 24.3545 46.7664 25.608 46.7664 27.156Z" stroke="#FF5910" stroke-width="1.5"/>
<path d="M63.5778 29.0236C63.5778 30.5702 62.323 31.825 60.7763 31.825C59.2283 31.825 57.9735 30.5702 57.9735 29.0236C57.9735 27.4756 59.2283 26.2208 60.7763 26.2208C62.323 26.2208 63.5778 27.4756 63.5778 29.0236Z" stroke="#FF5910" stroke-width="1.5"/>
<path d="M78.5229 23.421C78.5229 24.9677 77.2681 26.2225 75.7214 26.2225C74.1734 26.2225 72.9186 24.9677 72.9186 23.421C72.9186 21.873 74.1734 20.6182 75.7214 20.6182C77.2681 20.6182 78.5229 21.873 78.5229 23.421Z" stroke="#FF5910" stroke-width="1.5"/>
<path d="M39.2944 55.1762C39.2944 56.7241 38.0409 57.9776 36.4929 57.9776C34.945 57.9776 33.6915 56.7241 33.6915 55.1762C33.6915 53.6282 34.945 52.3747 36.4929 52.3747C38.0409 52.3747 39.2944 53.6282 39.2944 55.1762Z" stroke="#FF5910" stroke-width="1.5"/>
<path d="M52.3708 57.0437C52.3708 58.5904 51.116 59.8452 49.568 59.8452C48.0214 59.8452 46.7666 58.5904 46.7666 57.0437C46.7666 55.4958 48.0214 54.241 49.568 54.241C51.116 54.241 52.3708 55.4958 52.3708 57.0437Z" stroke="#FF5910" stroke-width="1.5"/>
<path d="M67.3146 58.9124C67.3146 60.4604 66.0611 61.7152 64.5131 61.7152C62.9651 61.7152 61.7116 60.4604 61.7116 58.9124C61.7116 57.3657 62.9651 56.1109 64.5131 56.1109C66.0611 56.1109 67.3146 57.3657 67.3146 58.9124Z" stroke="#FF5910" stroke-width="1.5"/>
<path d="M95.3348 58.9124C95.3348 60.4604 94.0813 61.7152 92.5333 61.7152C90.9853 61.7152 89.7318 60.4604 89.7318 58.9124C89.7318 57.3657 90.9853 56.1109 92.5333 56.1109C94.0813 56.1109 95.3348 57.3657 95.3348 58.9124Z" stroke="#FF5910" stroke-width="1.5"/>
<path d="M44.8983 66.3826C44.8983 67.9293 43.6435 69.1841 42.0968 69.1841C40.5488 69.1841 39.294 67.9293 39.294 66.3826C39.294 64.8346 40.5488 63.5798 42.0968 63.5798C43.6435 63.5798 44.8983 64.8346 44.8983 66.3826Z" stroke="#FF5910" stroke-width="1.5"/>
<path d="M91.598 45.8373C91.598 47.3853 90.3432 48.6388 88.7965 48.6388C87.2485 48.6388 85.9937 47.3853 85.9937 45.8373C85.9937 44.2893 87.2485 43.0358 88.7965 43.0358C90.3432 43.0358 91.598 44.2893 91.598 45.8373Z" stroke="#FF5910" stroke-width="1.5"/>
<path d="M104.675 43.9673C104.675 45.5153 103.422 46.7701 101.874 46.7701C100.326 46.7701 99.0725 45.5153 99.0725 43.9673C99.0725 42.4207 100.326 41.1658 101.874 41.1658C103.422 41.1658 104.675 42.4207 104.675 43.9673Z" stroke="#FF5910" stroke-width="1.5"/>
<path d="M69.1841 14.0822C69.1841 15.6288 67.9293 16.8837 66.3826 16.8837C64.8346 16.8837 63.5798 15.6288 63.5798 14.0822C63.5798 12.5342 64.8346 11.2794 66.3826 11.2794C67.9293 11.2794 69.1841 12.5342 69.1841 14.0822Z" stroke="#FF5910" stroke-width="1.5"/>
<path d="M57.9758 19.6847C57.9758 21.2314 56.7223 22.4862 55.1743 22.4862C53.6263 22.4862 52.3728 21.2314 52.3728 19.6847C52.3728 18.1367 53.6263 16.8819 55.1743 16.8819C56.7223 16.8819 57.9758 18.1367 57.9758 19.6847Z" stroke="#FF5910" stroke-width="1.5"/>
</svg>
