<svg width="76" height="76" viewBox="0 0 76 76" fill="none" xmlns="http://www.w3.org/2000/svg">
<path fill-rule="evenodd" clip-rule="evenodd" d="M31.7302 20.5766H43.8064C44.6953 20.5766 45.4621 20.9827 45.9593 21.7211C46.4565 22.4573 46.5471 23.3195 46.2149 24.1441L41.0585 36.9474H44.337C45.3359 36.9474 46.191 37.4708 46.6477 38.357C47.1038 39.2437 47.0321 40.2448 46.4516 41.0571L37.0372 54.2188C36.3466 55.1844 35.1399 55.5544 34.0242 55.1433C32.9108 54.7321 32.2347 53.6643 32.3375 52.4836L33.3959 40.2754H29.1973C28.4039 40.2754 27.7184 39.9576 27.2093 39.3481C26.6982 38.7414 26.5021 38.0125 26.6382 37.2307L29.1733 22.7285C29.3933 21.474 30.4589 20.5778 31.7302 20.5778L31.7302 20.5766ZM35.9143 1.83297C35.9143 0.822326 36.7338 0 37.7472 0C38.7607 0 39.5801 0.81951 39.5801 1.83297V11.8622C39.5801 12.8728 38.7607 13.6951 37.7472 13.6951C36.7338 13.6951 35.9143 12.8756 35.9143 11.8622V1.83297ZM18.2195 7.5512C17.7178 6.67669 18.0189 5.5632 18.8912 5.05884C19.7657 4.55713 20.8791 4.85826 21.3835 5.73056L26.3965 14.4168C26.8982 15.2891 26.5971 16.4048 25.7248 16.9065C24.8503 17.4082 23.7369 17.107 23.2352 16.2347L18.2222 7.5512H18.2195ZM5.75601 21.3607C4.88153 20.859 4.5804 19.7428 5.08209 18.871C5.58378 17.9965 6.69995 17.6954 7.57438 18.1971L16.2577 23.2103C17.1321 23.712 17.4333 24.8282 16.9294 25.7026C16.4277 26.5749 15.3144 26.8761 14.4398 26.3744L5.75601 21.3607ZM1.85635 39.5567C0.84574 39.5567 0.0234375 38.7372 0.0234375 37.7237C0.0234375 36.7103 0.842924 35.8908 1.85635 35.8908H11.8824C12.8958 35.8908 13.7153 36.7103 13.7153 37.7237C13.7153 38.7344 12.8959 39.5567 11.8824 39.5567H1.85635ZM7.57443 57.2534C6.70216 57.7551 5.58648 57.454 5.08483 56.5817C4.58314 55.7072 4.88426 54.5937 5.75654 54.0893L14.4425 49.0762C15.3148 48.5745 16.4305 48.8756 16.9321 49.7479C17.4338 50.6202 17.1327 51.7359 16.2604 52.2376L7.57443 57.2507V57.2534ZM21.3857 69.7245C20.8817 70.5968 19.7605 70.8952 18.8888 70.389C18.0166 69.8851 17.7182 68.7639 18.2243 67.8921L23.2374 59.2086C23.7441 58.3363 24.8625 58.0379 25.7342 58.5441C26.6087 59.048 26.9076 60.1692 26.4009 61.041L21.3879 69.7245H21.3857ZM39.5811 73.617C39.5811 74.6277 38.7617 75.45 37.7482 75.45C36.7348 75.45 35.9153 74.6305 35.9153 73.617V63.5878C35.9153 62.5772 36.7348 61.7549 37.7482 61.7549C38.7588 61.7549 39.5811 62.5744 39.5811 63.5878V73.617ZM57.2774 67.8988C57.7791 68.7733 57.478 69.8868 56.6057 70.3912C55.7312 70.8929 54.6177 70.5917 54.1134 69.7194L49.1003 61.0332C48.5987 60.1609 48.8998 59.0452 49.7721 58.5435C50.6443 58.0418 51.76 58.343 52.2617 59.2153L57.2747 67.8988H57.2774ZM69.7481 54.0893C70.6226 54.5932 70.9187 55.7145 70.4148 56.5862C69.9081 57.4585 68.7897 57.7569 67.918 57.2507L59.232 52.2375C58.3597 51.7308 58.0614 50.6124 58.5675 49.7406C59.0714 48.8661 60.1926 48.5672 61.0643 49.0739L69.7476 54.0871L69.7481 54.0893ZM73.6405 35.8933C74.6511 35.8933 75.4734 36.7128 75.4734 37.7263C75.4734 38.7397 74.654 39.5593 73.6405 39.5593H63.6144C62.6011 39.5593 61.7815 38.7397 61.7815 37.7263C61.7815 36.7156 62.601 35.8933 63.6144 35.8933H73.6405ZM67.9224 18.1966C68.7969 17.6949 69.9104 17.996 70.4147 18.8683C70.9164 19.7428 70.6153 20.8563 69.743 21.3607L61.057 26.3738C60.1848 26.8755 59.0691 26.5744 58.5675 25.7021C58.0658 24.8276 58.3669 23.7141 59.2392 23.2124L67.9224 18.1993V18.1966ZM54.1133 5.72549C54.62 4.85319 55.7385 4.55483 56.6102 5.06098C57.4847 5.56492 57.7808 6.68615 57.2769 7.5579L52.2639 16.2414C51.7572 17.1159 50.6387 17.4121 49.767 16.9081C48.8925 16.4014 48.5936 15.283 49.1003 14.4085L54.1133 5.72549Z" fill="#FF5910"/>
</svg>
