<svg width="60" height="76" viewBox="0 0 60 76" fill="none" xmlns="http://www.w3.org/2000/svg">
<path d="M1.9671 31.5259H16.4662C18.0624 31.5259 18.9271 33.5045 17.7298 34.6257L7.48738 44.7826C6.75578 45.5081 6.75578 46.6293 7.48738 47.3548L9.48266 49.3334C10.2143 50.0589 11.3449 50.0589 12.0765 49.3334L22.3189 39.1764C23.4496 38.0552 25.4448 38.8467 25.4448 40.4296V54.8076C25.4448 55.7969 26.2429 56.5883 27.2405 56.5883H30.1003C31.0979 56.5883 31.896 55.7968 31.896 54.8076V40.4296C31.896 38.8467 33.8913 37.9892 35.0218 39.1764L45.2643 49.3334L45.7299 40.6935L39.611 34.6257C38.4803 33.5044 39.2784 31.5259 40.8747 31.5259H45.5303L45.7299 25.0624H40.9412C39.345 25.0624 38.4803 23.0838 39.6775 21.9626L49.92 11.8057C50.6516 11.0802 50.6516 9.95894 49.92 9.23352L47.9247 7.25489C47.1931 6.52939 46.0624 6.52939 45.3309 7.25489L35.0884 17.4118C33.9578 18.5331 31.9626 17.7416 31.9626 16.1587V1.78069C31.9626 0.791375 31.1644 0 30.1669 0H27.307C26.3094 0 25.5114 0.791451 25.5114 1.78069V16.1587C25.5114 17.7416 23.5161 18.5991 22.3855 17.4118L12.0766 7.25489C11.345 6.52939 10.2143 6.52939 9.48282 7.25489L7.48753 9.23352C6.75593 9.95901 6.75593 11.0802 7.48753 11.8057L17.73 21.9626C18.8606 23.0838 18.0625 25.0624 16.4663 25.0624H1.96725C0.969609 25.0624 0.17157 25.8538 0.17157 26.8431V29.679C0.10506 30.6683 0.969532 31.5259 1.9671 31.5259Z" fill="#FF5910"/>
<path d="M47.647 21.3908V57.6898C43.9777 59.005 41.4224 62.6217 41.6845 66.8303C41.9466 71.4991 45.8124 75.2474 50.3991 75.4446C55.6409 75.6419 59.9 71.4991 59.9 66.3042C59.9 62.3587 57.4101 59.005 53.8719 57.6898V21.3908C53.8719 19.6811 52.4959 18.2344 50.7268 18.2344C48.9577 18.2344 47.647 19.6811 47.647 21.3908ZM55.4442 66.3039C55.4442 68.8684 53.3474 70.9727 50.7921 70.9727C48.2368 70.9727 46.14 68.8684 46.14 66.3039C46.14 63.7394 48.2368 61.6351 50.7921 61.6351C53.3474 61.6351 55.4442 63.7394 55.4442 66.3039Z" fill="#FF5910"/>
</svg>
