<svg width="83" height="71" viewBox="0 0 83 71" fill="none" xmlns="http://www.w3.org/2000/svg">
<path d="M71.6603 33.8172C71.096 23.7507 65.5127 14.4722 56.5521 9.3067C45.9565 3.19972 32.7191 4.05876 22.9991 11.4786C21.8449 12.359 20.1921 12.1383 19.3107 10.9849C18.4288 9.83142 18.6499 8.18188 19.8053 7.30136C31.2215 -1.41169 46.7471 -2.41161 59.1914 4.76001C69.9355 10.9526 76.54 22.1907 76.9457 34.3035C77.3545 34.4665 77.7567 34.6611 78.1506 34.8877C82.619 37.4635 84.1509 43.1683 81.5709 47.6298C78.9902 52.0907 73.2764 53.6201 68.8068 51.0444C64.3384 48.468 62.8064 42.7638 65.3877 38.3016C66.788 35.8794 69.1137 34.3219 71.6616 33.8164L71.6603 33.8172ZM41.4113 13.6865C53.4771 13.6865 63.2583 23.4506 63.2583 35.4969C63.2583 47.5424 53.4766 57.3073 41.4113 57.3073C29.3456 57.3073 19.5644 47.542 19.5644 35.4969C19.5644 23.4518 29.3461 13.6865 41.4113 13.6865ZM42.9398 30.5232V18.0572C42.9398 16.1905 40.8495 16.2149 40.116 17.5825C38.3099 20.95 31.635 38.0802 31.3924 38.7655C31.1279 39.5139 31.3048 40.4687 32.894 40.4687H39.8828V52.9347C39.8828 54.8014 41.9731 54.7781 42.7067 53.41C44.5128 50.0425 51.1877 32.9123 51.4302 32.227C51.6948 31.4774 51.5178 30.5227 49.9286 30.5227H42.9398V30.5232ZM1.25481 23.3627C3.8355 18.9018 9.54925 17.3724 14.0189 19.9482C18.4873 22.5239 20.0192 28.2287 17.4379 32.6909C16.0365 35.1131 13.7107 36.6706 11.1622 37.1761C11.7265 47.2426 17.311 56.5195 26.271 61.6836C36.8667 67.7916 50.1056 66.9333 59.8255 59.5141C60.9797 58.6337 62.6326 58.8544 63.514 60.0078C64.3959 61.1613 64.1748 62.8102 63.0194 63.6913C51.6032 72.4044 36.076 73.4031 23.6317 66.2315C12.8876 60.0389 6.28163 48.8008 5.87587 36.6879C5.46829 36.525 5.06549 36.3304 4.67342 36.105C0.205019 33.5292 -1.32696 27.8244 1.25313 23.3629L1.25481 23.3627Z" fill="white"/>
</svg>
