<svg width="57" height="58" viewBox="0 0 57 58" fill="none" xmlns="http://www.w3.org/2000/svg">
<path fill-rule="evenodd" clip-rule="evenodd" d="M2.1372 52.1353H4.29843L4.39343 15.2618H2.39799C1.0922 15.2618 0.0229871 14.1931 0.0229871 12.8869C0.0229871 11.5811 1.09174 10.5115 2.39799 10.5115H7.41899C4.60721 10.5102 2.32796 8.23024 2.32796 5.41764C2.32796 2.60504 4.60797 0.324653 7.42106 0.324653C10.2341 0.324653 12.5142 2.60504 12.5142 5.41764C12.5142 8.23024 10.2355 10.5102 7.42312 10.5115H12.4441C13.7499 10.5115 14.8191 11.5802 14.8191 12.8865C14.8191 14.1922 13.7504 15.2614 12.4441 15.2614H10.5441L10.5382 17.5872C16.0126 20.6747 22.2596 22.2183 28.484 22.2183C34.7506 22.2183 41.0425 20.6525 46.5438 17.5214L46.5497 15.261H44.5547C43.2489 15.261 42.1797 14.1922 42.1797 12.886C42.1797 11.5803 43.2485 10.5111 44.5547 10.5111H49.5757C46.7639 10.5098 44.4847 8.2298 44.4847 5.41721C44.4847 2.60461 46.7647 0.324219 49.5778 0.324219C52.3909 0.324219 54.6709 2.60461 54.6709 5.41721C54.6709 8.2298 52.3922 10.5098 49.5799 10.5111H54.6009C55.9067 10.5111 56.9759 11.5798 56.9759 12.886C56.9759 14.1918 55.9071 15.261 54.6009 15.261H52.7009L52.6046 52.1344H54.8621C56.0382 52.1344 57 53.0962 57 54.2722V57.3232L42.1561 57.3228V54.2718C42.1561 53.0958 43.118 52.134 44.294 52.134H46.4552L46.5277 24.2067C41.016 26.8395 34.7379 28.155 28.482 28.155C22.2599 28.155 16.0115 26.8526 10.521 24.2482L10.4485 52.1354H12.706C13.8821 52.1354 14.8439 53.0972 14.8439 54.2732V57.3242L0 57.3238V54.2728C0 53.0976 0.96188 52.1357 2.13788 52.1357L2.1372 52.1353Z" fill="white"/>
</svg>
