<svg width="57" height="57" viewBox="0 0 57 57" fill="none" xmlns="http://www.w3.org/2000/svg">
<path fill-rule="evenodd" clip-rule="evenodd" d="M2.1372 51.811H4.29843L4.39343 14.9376H2.39799C1.0922 14.9376 0.0229871 13.8689 0.0229871 12.5627C0.0229871 11.2569 1.09174 10.1873 2.39799 10.1873H7.41899C4.60721 10.186 2.32796 7.90602 2.32796 5.09342C2.32796 2.28082 4.60797 0.000434246 7.42106 0.000434246C10.2341 0.000434246 12.5142 2.28082 12.5142 5.09342C12.5142 7.90602 10.2355 10.186 7.42312 10.1873H12.4441C13.7499 10.1873 14.8191 11.256 14.8191 12.5622C14.8191 13.868 13.7504 14.9372 12.4441 14.9372H10.5441L10.5382 17.263C16.0126 20.3505 22.2596 21.8941 28.484 21.8941C34.7506 21.8941 41.0425 20.3283 46.5438 17.1972L46.5497 14.9368H44.5547C43.2489 14.9368 42.1797 13.868 42.1797 12.5618C42.1797 11.256 43.2485 10.1868 44.5547 10.1868H49.5757C46.7639 10.1856 44.4847 7.90559 44.4847 5.09299C44.4847 2.28039 46.7647 0 49.5778 0C52.3909 0 54.6709 2.28039 54.6709 5.09299C54.6709 7.90559 52.3922 10.1855 49.5799 10.1868H54.6009C55.9067 10.1868 56.9759 11.2556 56.9759 12.5618C56.9759 13.8676 55.9071 14.9368 54.6009 14.9368H52.7009L52.6046 51.8102H54.8621C56.0382 51.8102 57 52.772 57 53.948V56.999L42.1561 56.9986V53.9476C42.1561 52.7716 43.118 51.8097 44.294 51.8097H46.4552L46.5277 23.8824C41.016 26.5152 34.7379 27.8308 28.482 27.8308C22.2599 27.8308 16.0115 26.5284 10.521 23.924L10.4485 51.8111H12.706C13.8821 51.8111 14.8439 52.773 14.8439 53.949V57L0 56.9996V53.9486C0 52.7734 0.96188 51.8115 2.13788 51.8115L2.1372 51.811Z" fill="#FF5910"/>
</svg>
