<svg width="66" height="78" viewBox="0 0 66 78" fill="none" xmlns="http://www.w3.org/2000/svg">
<path d="M43.2825 67.3008H22.6841C21.764 67.3008 20.914 67.7916 20.4542 68.5882C19.9944 69.3848 19.9944 70.3664 20.4542 71.163C20.914 71.9595 21.764 72.4504 22.6841 72.4504H34.2707C34.9816 72.4504 35.5581 73.0268 35.5581 73.7378C35.5581 74.4487 34.9816 75.0252 34.2707 75.0252H23.9715C23.9727 75.7079 24.244 76.362 24.7267 76.8447C25.2095 77.3275 25.8635 77.5988 26.5463 77.5999H39.4203C40.103 77.5988 40.7571 77.3275 41.2398 76.8447C41.7226 76.362 41.9939 75.7079 41.995 75.0252H39.4202C38.7093 75.0252 38.1328 74.4487 38.1328 73.7378C38.1328 73.0268 38.7093 72.4504 39.4202 72.4504H43.2824C44.2026 72.4504 45.0526 71.9596 45.5123 71.163C45.9721 70.3664 45.9721 69.3847 45.5123 68.5882C45.0526 67.7916 44.2026 67.3008 43.2825 67.3008Z" fill="white"/>
<path d="M41.9947 64.7246V26.1027C41.9981 24.4291 41.1866 22.8589 39.8194 21.894C38.4521 20.9285 36.7009 20.69 35.125 21.2532C36.2388 22.6239 36.8463 24.3366 36.8451 26.1028V64.7247L41.9947 64.7246Z" fill="white"/>
<path d="M34.2678 64.7245V26.1026C34.2678 24.2629 33.2863 22.5628 31.6931 21.6428C30.1 20.7232 28.1367 20.7232 26.5435 21.6428C24.9504 22.5629 23.9688 24.2631 23.9688 26.1026V64.7245H27.8308V36.4018C27.8308 35.6909 28.4074 35.1144 29.1183 35.1144C29.8293 35.1144 30.4057 35.6909 30.4057 36.4018V64.7245H34.2678ZM29.1183 32.5396C28.4074 32.5396 27.8308 31.9632 27.8308 31.2522V28.6774C27.8308 27.9665 28.4074 27.39 29.1183 27.39C29.8293 27.39 30.4057 27.9665 30.4057 28.6774V31.2522C30.4057 31.5936 30.2701 31.9212 30.0287 32.1626C29.7873 32.404 29.4597 32.5396 29.1183 32.5396Z" fill="white"/>
<path d="M51.0057 40.2668H56.1553C57.1795 40.2656 58.1612 39.8581 58.8853 39.1345C59.6089 38.4104 60.0165 37.4287 60.0177 36.4045V36.1672C61.1723 35.7591 62.0648 34.8275 62.4235 33.6562C62.7816 32.4855 62.5638 31.2136 61.8356 30.2291C61.1068 29.2446 59.9551 28.6641 58.7304 28.6641C57.5057 28.6641 56.3538 29.2445 55.6251 30.2291C54.8969 31.2136 54.6792 32.4855 55.0372 33.6562C55.3959 34.8275 56.2884 35.7592 57.4431 36.1672V36.4045C57.4426 37.1155 56.8667 37.6913 56.1557 37.6919H51.0061C50.2952 37.6919 49.7188 38.2684 49.7188 38.9793C49.7188 39.6903 50.2948 40.2668 51.0057 40.2668Z" fill="white"/>
<path d="M60.0164 54.666V54.4286C60.0153 53.4045 59.6078 52.4228 58.8842 51.6986C58.16 50.975 57.1784 50.5676 56.1542 50.5664H51.0022C50.2907 50.5664 49.7148 51.1429 49.7148 51.8538C49.7148 52.5647 50.2907 53.1412 51.0022 53.1412H56.1542C56.8651 53.1418 57.441 53.7177 57.4416 54.4286V54.666C56.2869 55.074 55.3944 56.0057 55.0357 57.1769C54.6776 58.3476 54.8955 59.6196 55.6236 60.604C56.3524 61.5885 57.5041 62.1691 58.7288 62.1691C59.9536 62.1691 61.1053 61.5886 61.834 60.604C62.5622 59.6195 62.7801 58.3476 62.422 57.1769C62.0634 56.0056 61.1711 55.074 60.0164 54.666Z" fill="white"/>
<path d="M5.9476 36.1671V36.4045C5.9488 37.4286 6.3562 38.4103 7.0798 39.1345C7.804 39.8581 8.7857 40.2656 9.8099 40.2667H14.9594C15.6704 40.2667 16.2468 39.6903 16.2468 38.9793C16.2468 38.2684 15.6704 37.6919 14.9594 37.6919H9.8099C9.0989 37.6913 8.523 37.1155 8.5225 36.4045V36.1672C9.6771 35.7591 10.5696 34.8275 10.9283 33.6562C11.2864 32.4855 11.0686 31.2135 10.3404 30.2291C9.6116 29.2446 8.4599 28.6641 7.2352 28.6641C6.0105 28.6641 4.85873 29.2445 4.12999 30.2291C3.40181 31.2136 3.18398 32.4855 3.54204 33.6562C3.90067 34.8275 4.79293 35.7591 5.9476 36.1671Z" fill="white"/>
<path d="M17.5334 44.1296H8.2843C7.8763 42.9749 6.9446 42.0824 5.7734 41.7237C4.60268 41.3656 3.33074 41.5834 2.34628 42.3116C1.36177 43.0404 0.78125 44.1921 0.78125 45.4168C0.78125 46.6415 1.36173 47.7933 2.34628 48.522C3.3308 49.2502 4.60268 49.468 5.7734 49.11C6.9447 48.7513 7.8763 47.8588 8.2843 46.7041H17.5334C18.2444 46.7041 18.8208 46.1276 18.8208 45.4167C18.8208 44.7058 18.2444 44.1296 17.5334 44.1296Z" fill="white"/>
<path d="M14.9621 50.5664H9.8102C8.786 50.5676 7.8043 50.975 7.0801 51.6986C6.3566 52.4228 5.9491 53.4045 5.9479 54.4286V54.666C4.79328 55.0741 3.90074 56.0057 3.54204 57.1769C3.18398 58.3477 3.4018 59.6196 4.12999 60.6041C4.85874 61.5886 6.0105 62.1691 7.2352 62.1691C8.4599 62.1691 9.6117 61.5886 10.3404 60.6041C11.0686 59.6196 11.2864 58.3477 10.9283 57.1769C10.5697 56.0056 9.6772 55.074 8.5225 54.666V54.4286C8.523 53.7177 9.0989 53.1418 9.8099 53.1412H14.9618C15.6733 53.1412 16.2492 52.5648 16.2492 51.8538C16.2492 51.1429 15.6736 50.5664 14.9621 50.5664Z" fill="white"/>
<path d="M27.4569 10.1254C28.8644 8.5535 30.8765 7.65758 32.987 7.66273C35.0974 7.66788 37.1049 8.5737 38.505 10.1525C38.9429 10.6433 39.6935 10.6933 40.1924 10.2646C40.6913 9.8358 40.7551 9.0864 40.3355 8.58C38.4786 6.4696 35.8055 5.25694 32.994 5.25003C30.1831 5.24313 27.5037 6.4426 25.6363 8.5439C25.4225 8.7847 25.3138 9.1013 25.3345 9.4226C25.3552 9.7445 25.5035 10.0445 25.7466 10.2554C25.9897 10.4669 26.3075 10.5721 26.6288 10.5474C26.9501 10.5232 27.2483 10.3714 27.4569 10.1254Z" fill="white"/>
<path d="M34.6728 12.5539C34.8326 12.7918 35.0809 12.9556 35.3619 13.009C35.6435 13.0625 35.9343 13.0016 36.1706 12.8395C36.4062 12.678 36.5683 12.428 36.6194 12.1464C36.6706 11.8648 36.6068 11.5745 36.443 11.34C35.6349 10.2371 34.3498 9.58588 32.9831 9.58588C31.6164 9.58588 30.3313 10.2371 29.5231 11.34C29.1938 11.8286 29.3202 12.4912 29.8065 12.8246C30.2921 13.1579 30.9559 13.0372 31.2932 12.5539C31.7007 12.0361 32.3237 11.7332 32.9829 11.7332C33.642 11.7332 34.2654 12.0361 34.6728 12.5539Z" fill="white"/>
<path d="M22.6813 8.4857C23.0957 8.4857 23.4848 8.2868 23.7273 7.9512C26.0286 4.76022 29.5046 2.93035 33.2661 2.93035C36.7146 2.93035 40.0037 4.51716 42.2894 7.28278C42.5032 7.55751 42.8181 7.73395 43.1641 7.77188C43.5101 7.81038 43.8567 7.70636 44.1251 7.48451C44.3934 7.26324 44.5607 6.94197 44.5883 6.5954C44.6164 6.24826 44.5021 5.90458 44.2728 5.64307C41.4968 2.28318 37.4852 0.355469 33.2656 0.355469C28.6666 0.355469 24.4286 2.57509 21.6377 6.44478C21.3549 6.83676 21.3158 7.35401 21.5359 7.78391C21.7555 8.2144 22.1979 8.4851 22.6813 8.4857Z" fill="white"/>
<path d="M61.3059 41.5548C60.5099 41.5571 59.734 41.806 59.0851 42.2669C58.4357 42.7278 57.9454 43.3784 57.681 44.1296H48.4319C47.721 44.1296 47.1445 44.706 47.1445 45.417C47.1445 46.1279 47.721 46.7044 48.4319 46.7044H57.681C57.9989 47.5963 58.6339 48.34 59.465 48.7941C60.296 49.2475 61.265 49.3797 62.1869 49.1653C63.1094 48.9504 63.9203 48.4038 64.4651 47.6296C65.0105 46.8549 65.2513 45.9071 65.1421 44.9668C65.0335 44.026 64.5823 43.1581 63.8749 42.5294C63.1674 41.9001 62.2531 41.5531 61.3059 41.5548Z" fill="white"/>
</svg>
