<svg width="48" height="74" viewBox="0 0 48 74" fill="none" xmlns="http://www.w3.org/2000/svg">
<path d="M33.9586 40.6341C33.9586 46.165 29.475 50.6485 23.9441 50.6485C18.4133 50.6485 13.9297 46.165 13.9297 40.6341C13.9297 35.1032 18.4133 30.6196 23.9441 30.6196C29.475 30.6196 33.9586 35.1032 33.9586 40.6341Z" fill="white"/>
<path d="M42.3601 22.5615C39.5975 22.5615 37.4105 24.7486 37.4105 27.5112V41.5545C37.4105 42.2451 37.1803 42.9358 36.8349 43.5113L35.9141 45.1228C38.5616 46.6192 41.094 48.1156 43.7415 49.497C43.8566 49.6121 44.0868 49.7272 44.2019 49.7272L46.5041 45.6984C47.0796 44.7775 47.3098 43.6264 47.3098 42.5904V27.5119C47.3098 24.7492 45.1228 22.5622 42.3601 22.5622V22.5615Z" fill="white"/>
<path d="M42.7107 51.453L34.7682 46.9637C34.3078 46.7335 33.7322 46.8486 33.3869 47.3091C31.8905 48.9206 30.5092 50.5321 29.1279 52.2587C28.6674 52.2587 28.207 52.3738 27.7466 52.3738C26.2502 52.489 25.0991 52.6041 23.948 52.6041C22.7969 52.6041 21.6458 52.489 20.3796 52.3738C19.9192 52.3738 19.4588 52.2587 18.9983 52.2587C17.617 50.6472 16.1206 48.9206 14.6242 47.3091C14.2789 46.9637 13.7033 46.8486 13.2429 47.0789L5.30039 51.5681C4.95506 51.6832 4.83995 52.0285 4.72485 52.3738C4.60974 52.7192 4.72485 53.0645 4.95506 53.2947C6.10615 54.7911 7.14213 56.1724 8.063 57.784C10.5954 62.1581 11.9767 67.338 12.0918 72.7481C12.0918 73.3236 12.5522 73.8992 13.2429 73.8992H34.8833C35.4589 73.8992 36.0344 73.4387 36.0344 72.7481C36.1495 67.338 37.5308 62.1581 40.0632 57.784C40.9841 56.2875 41.9049 54.7911 43.1711 53.2947C43.4014 53.0645 43.5165 52.7192 43.4014 52.3738C43.1711 51.9134 42.9409 51.6832 42.7107 51.453Z" fill="white"/>
<path d="M11.053 43.5111C10.7077 42.9355 10.4775 42.2449 10.4775 41.5542V27.511C10.4775 25.2088 8.86595 23.2519 6.67888 22.6764V14.0433H20.8366C21.4121 14.0433 21.9877 13.5828 21.9877 12.8922V2.76261C21.9877 2.18706 21.5272 1.61152 20.8366 1.61152H6.67888V1.15109C6.67888 0.575543 6.21845 0 5.5278 0C4.95225 0 4.37671 0.460435 4.37671 1.15109V22.7915C2.18965 23.2519 0.578125 25.2088 0.578125 27.6261V42.8204C0.578125 43.8564 0.923451 45.0075 1.38389 45.9284L3.68606 49.9572C3.80117 49.842 3.91628 49.7269 4.14649 49.6118C6.67888 48.1154 9.32638 46.619 11.9739 45.2377L11.053 43.5111Z" fill="white"/>
<path d="M12.0859 16.2308V17.9574C12.0859 18.5329 12.5464 19.1085 13.237 19.1085H28.5471C29.1227 19.1085 29.6982 18.6481 29.6982 17.9574V7.82784C29.6982 7.2523 29.2378 6.67676 28.5471 6.67676H24.2881V12.8926C24.2881 14.7344 22.7917 16.2308 20.95 16.2308H12.0859Z" fill="white"/>
</svg>
