<svg width="88" height="81" viewBox="0 0 88 81" fill="none" xmlns="http://www.w3.org/2000/svg">
<path d="M38.7538 31.6814H5.04818C4.57197 31.6814 4.19141 32.062 4.19141 32.6338L7.99961 77.8603C8.09459 79.1933 9.2376 80.2407 10.5706 80.2407H33.3266C34.6596 80.2407 35.802 79.1933 35.8976 77.8603L39.7058 32.6338C39.6101 32.1576 39.2296 31.6814 38.7534 31.6814H38.7538Z" fill="#FF5910"/>
<path d="M45.1503 55.8657H86.5682C87.33 55.8657 87.9012 55.1039 87.8062 54.3421C86.9494 49.4864 82.665 45.6775 77.5231 45.6775H54.1958C49.0546 45.6775 44.7694 49.3908 43.9127 54.3421C43.8177 55.1039 44.3889 55.8657 45.1507 55.8657H45.1503Z" fill="#FF5910"/>
<path d="M86.5686 70.1479H45.1507C44.3889 70.1479 43.8177 70.9097 43.9127 71.6715C44.7694 76.5273 49.0539 80.2404 54.1958 80.2404H77.5231C82.6643 80.2404 86.9494 76.5271 87.8062 71.6715C87.9968 70.8141 87.4256 70.1479 86.5689 70.1479H86.5686Z" fill="#FF5910"/>
<path d="M86.7619 59.4836H45.0583C44.3915 59.4836 43.8203 60.0548 43.8203 60.7216V65.2917C43.8203 65.9585 44.3915 66.5297 45.0583 66.5297H86.7619C87.4287 66.5297 87.9999 65.9585 87.9999 65.2917V60.7216C87.9999 60.0555 87.4287 59.4836 86.7619 59.4836Z" fill="#FF5910"/>
<path d="M41.0366 22.4457H23.2316V8.44924L31.42 3.11744C31.8006 2.83185 31.8962 2.35564 31.6106 1.97508L30.5632 0.356531C30.2777 -0.0240349 29.8015 -0.119674 29.4209 0.165916L20.3758 6.069C19.8995 6.44956 19.519 7.02141 19.519 7.59257V22.6363H2.57094C1.14301 22.6363 0 23.7787 0 25.2073V25.7785C0 27.2064 1.14236 28.3494 2.57094 28.3494H40.9421C42.37 28.3494 43.513 27.207 43.513 25.7785V25.2073C43.6073 23.5887 42.4643 22.4457 41.0364 22.4457L41.0366 22.4457Z" fill="#FF5910"/>
</svg>
