<svg width="90" height="80" viewBox="0 0 90 80" fill="none" xmlns="http://www.w3.org/2000/svg">
<path d="M0 59.5692L9.12249 50.3182L29.0455 70.5218L19.923 79.7728L0 59.5692Z" fill="#FF5910"/>
<path d="M88.2412 30.6917C86.1175 28.8605 82.8943 29.0887 81.0474 31.2007L68.3008 45.8079C68.3065 45.8959 68.3065 45.9776 68.3065 46.0655C68.3065 49.5638 65.4417 52.4124 61.9248 52.4124H41.1148C40.7029 52.4124 40.3737 52.0849 40.3737 51.6752C40.3737 51.2655 40.7029 50.9381 41.1148 50.9381H61.9312C64.6369 50.9381 66.8307 48.75 66.8307 46.0655C66.8307 45.9135 66.825 45.767 66.8073 45.6213C66.7075 44.4864 66.2013 43.4219 65.3957 42.6144C64.4719 41.6957 63.2372 41.1874 61.9312 41.1874L22.9852 41.1867C19.9503 41.1867 17.0976 42.3625 14.9504 44.4978L10.2273 49.195L30.2737 69.1365L33.5208 65.9015C34.7207 64.7082 36.1209 63.7782 37.6911 63.1347C39.2556 62.4912 40.9086 62.1638 42.6081 62.1638H62.2243C65.4007 62.1638 68.6889 60.672 71.0179 58.1685L88.7528 37.8457C89.5584 36.9214 90.0001 35.7456 90.0001 34.5291C90.0001 33.0542 89.3588 31.6561 88.241 30.6909L88.2412 30.6917Z" fill="#FF5910"/>
<path d="M44.7938 36C49.616 36 53.9655 34.1774 57.3767 30.7277C60.7877 27.2774 62.5892 22.8781 62.5892 18.0003C62.5892 13.1227 60.7873 8.7234 57.3767 5.27303C53.9656 1.82217 49.6162 0 44.7938 0C39.9715 0 35.6221 1.82201 32.2109 5.27238C28.7998 8.72259 26.9983 13.1219 26.9983 17.9997C26.9983 22.8775 28.8003 27.2766 32.2109 30.727C35.6219 34.1772 39.9713 36 44.7938 36ZM39.7441 21.4145C39.8901 21.1725 40.135 21.0135 40.4149 20.9901C40.4444 20.9901 40.4732 20.9844 40.5026 20.9844C40.864 20.9844 41.1791 21.1966 41.3131 21.5267C41.5349 22.081 41.8493 22.5353 42.2401 22.8774C42.8696 23.426 43.7152 23.7029 44.7475 23.7029C45.8317 23.7029 46.6773 23.4552 47.2604 22.9598C47.8787 22.4409 48.1874 21.8099 48.1874 21.0902C48.1874 20.6005 48.0415 20.176 47.7502 19.8282C47.4759 19.4981 47.0506 19.2327 46.438 19.0141C46.0766 18.8842 45.2893 18.672 44.0296 18.3533C42.5545 17.9821 41.5167 17.5335 40.9567 17.0261C40.1813 16.3241 39.808 15.4986 39.808 14.4956C39.808 13.8646 39.989 13.2627 40.3441 12.7083C40.6999 12.154 41.2248 11.7295 41.9069 11.4343C42.5076 11.1745 43.2304 11.0212 44.0641 10.98V10.4846C44.0641 10.0778 44.3904 9.74142 44.7988 9.74142C45.2071 9.74142 45.5335 10.0715 45.5335 10.4846V11.0098C46.7286 11.1276 47.6618 11.4697 48.3031 12.0361C48.6357 12.325 48.9038 12.6614 49.1018 13.0327C49.2477 13.2981 49.2414 13.6168 49.0961 13.8823C48.9445 14.1534 48.6702 14.3245 48.3614 14.3365H48.2975C47.9361 14.3542 47.6098 14.1534 47.4638 13.829C47.2828 13.4401 47.0442 13.1157 46.7467 12.8794C46.2274 12.4663 45.4814 12.254 44.525 12.254C43.5511 12.254 42.758 12.472 42.1813 12.8971C41.7146 13.2392 41.476 13.7049 41.476 14.2833C41.476 14.8085 41.6915 15.2621 42.1174 15.622C42.5602 15.9995 43.5223 16.3651 45.0618 16.7307C46.4379 17.0607 47.4638 17.3971 48.0996 17.7393C48.6884 18.0516 49.155 18.4881 49.4876 19.031C49.8139 19.5677 49.983 20.2519 49.983 21.0717C49.983 21.7971 49.7789 22.4927 49.3767 23.13C48.9802 23.761 48.409 24.2387 47.6743 24.551C47.0856 24.7987 46.3684 24.9578 45.5403 25.0167V25.5242C45.5403 25.9372 45.2139 26.2673 44.8056 26.2673C44.3972 26.2673 44.0709 25.9372 44.0709 25.5242V25.023C42.6948 24.9343 41.6161 24.5574 40.8583 23.8909C40.3509 23.4487 39.9545 22.8766 39.6864 22.1866C39.5749 21.9332 39.5987 21.6506 39.744 21.4143L39.7441 21.4145Z" fill="#FF5910"/>
</svg>
