<svg width="91" height="64" viewBox="0 0 91 64" fill="none" xmlns="http://www.w3.org/2000/svg">
<path d="M2.65515 58.6827C2.6566 59.9758 3.17037 61.2153 4.08473 62.1297C4.99909 63.0441 6.23859 63.5585 7.53176 63.5593H83.4425C84.7357 63.5585 85.9759 63.044 86.8895 62.1297C87.8039 61.2153 88.3184 59.9758 88.3191 58.6827C88.9853 57.9911 1.96047 57.9853 2.65526 58.6827H2.65515Z" fill="#FF5910"/>
<path d="M86.1236 12.4195H63.3664C62.0754 12.4267 60.8395 12.9434 59.9266 13.8563C59.0137 14.7692 58.4977 16.005 58.4897 17.2961V18.9216H91.0001V17.2961C90.9965 16.0037 90.4812 14.7657 89.5676 13.8521C88.654 12.9377 87.416 12.4232 86.1236 12.4196L86.1236 12.4195Z" fill="#FF5910"/>
<path d="M89.3748 51.8053H88.2369C88.1883 50.5209 88.0744 49.2372 87.9118 47.9695C88.726 48.3896 63.5996 48.1008 63.3674 48.1806H63.3681C61.2122 48.1799 59.1455 47.3229 57.6214 45.799C56.0973 44.2752 55.2405 42.2084 55.2398 40.053V17.2958C55.2362 15.4577 55.8617 13.674 57.0119 12.24C55.8363 11.8967 54.6426 11.6203 53.4358 11.4113C53.7928 10.4773 53.9749 9.48534 53.9721 8.48532C53.9742 5.97515 52.8639 3.59354 50.941 1.98102C49.0173 0.368566 46.4781 -0.308449 44.0072 0.131277C41.5362 0.57104 39.3875 2.08339 38.1386 4.26047C36.8904 6.43754 36.6705 9.05639 37.5384 11.4113C28.0248 13.2175 19.4038 18.195 13.0832 25.5308C6.76264 32.8674 3.11535 42.1293 2.73581 51.8047H1.59795C0.711178 51.8192 0 52.5428 0 53.4303C0 54.3177 0.711159 55.0413 1.59867 55.0558H4.16681C4.85839 55.0703 86.1059 55.0456 86.8082 55.0558H89.377C90.2667 55.0442 90.9815 54.3199 90.9815 53.4303C90.9815 52.5406 90.266 51.8156 89.3763 51.8047L89.3748 51.8053ZM50.119 10.9073V10.9066C47.0407 10.5575 43.9325 10.5575 40.8535 10.9066C40.0045 9.28539 40.0647 7.33841 41.0124 5.77309C41.9595 4.20707 43.656 3.25065 45.4862 3.25065C47.3164 3.25065 49.013 4.20709 49.9608 5.77309C50.9078 7.33838 50.968 9.28532 50.119 10.9066V10.9073Z" fill="#FF5910"/>
<path d="M58.4897 40.0532C58.4934 41.3449 59.0086 42.5828 59.9222 43.4972C60.8359 44.4108 62.0746 44.9253 63.3663 44.9297H86.1235C87.4145 44.9203 88.6497 44.4036 89.5618 43.4914C90.4747 42.5785 90.9914 41.3435 91.0001 40.0531V22.1724H58.4898L58.4897 40.0532Z" fill="#FF5910"/>
</svg>
