<svg width="78" height="66" viewBox="0 0 78 66" fill="none" xmlns="http://www.w3.org/2000/svg">
<path d="M74.3144 26.3002L67.8902 3.1093C67.4223 1.72469 66.2387 0.646482 64.2013 0.646482C64.2013 0.646482 57.7921 0.183295 47.2026 0H30.799V0.000825643C20.2087 0.184119 13.8003 0.647307 13.8003 0.647307C11.7638 0.647307 10.5575 1.37882 10.1114 3.11013L3.68632 26.301C0.777634 26.9665 0 29.744 0 33.0763V55.2675H5.72544V64.267C5.72544 65.2231 6.66711 66 7.83228 66H13.4555C14.6207 66 15.5649 65.2239 15.5649 64.267V55.2675H62.4351V64.267C62.4351 65.2231 63.3793 66 64.5445 66H70.1677C71.3304 66 72.2746 65.2239 72.2746 64.267V55.2675H78V33.0763C77.9992 29.7457 77.2232 26.9666 74.3145 26.3002L74.3144 26.3002ZM13.5243 5.5774C13.834 4.69561 15.0101 3.90052 16.8408 3.90052C16.8408 3.90052 33.5039 3.52569 38.9741 3.52569C44.4443 3.52569 61.1503 3.90052 61.1503 3.90052C62.9826 3.90052 64.0924 4.65186 64.4692 5.5774L68.0526 21.7889C68.0526 22.716 67.9605 23.4649 66.1282 23.4649L11.8652 23.4641C10.0354 23.4641 9.94083 22.7152 9.94083 21.788L13.5243 5.5774ZM12.2963 43.1263C8.9968 43.1263 6.32404 40.4885 6.32404 37.2345C6.32404 33.9806 8.99766 31.3427 12.2963 31.3427C15.595 31.3427 18.2712 33.9806 18.2712 37.2345C18.2712 40.4876 15.5952 43.1263 12.2963 43.1263ZM65.7001 43.1263C62.4012 43.1263 59.7252 40.4885 59.7252 37.2345C59.7252 33.9806 62.3995 31.3427 65.7001 31.3427C68.9996 31.3427 71.675 33.9806 71.675 37.2345C71.675 40.4876 68.9999 43.1263 65.7001 43.1263Z" fill="#FF5910"/>
</svg>
