<svg width="90" height="80" viewBox="0 0 90 80" fill="none" xmlns="http://www.w3.org/2000/svg">
<path d="M0 59.7959L9.12249 50.5449L29.0455 70.7485L19.923 79.9995L0 59.7959Z" fill="#FF5910"/>
<path d="M88.2414 30.9187C86.1177 29.0876 82.8946 29.3157 81.0476 31.4278L68.3011 46.0349C68.3068 46.1229 68.3068 46.2046 68.3068 46.2926C68.3068 49.7909 65.4419 52.6394 61.925 52.6394H41.1151C40.7031 52.6394 40.3739 52.312 40.3739 51.9023C40.3739 51.4926 40.7031 51.1652 41.1151 51.1652H61.9315C64.6372 51.1652 66.8309 48.977 66.8309 46.2926C66.8309 46.1405 66.8252 45.9941 66.8075 45.8483C66.7077 44.7134 66.2016 43.6489 65.396 42.8415C64.4722 41.9228 63.2375 41.4144 61.9315 41.4144L22.9854 41.4138C19.9505 41.4138 17.0978 42.5895 14.9507 44.7248L10.2275 49.422L30.274 69.3635L33.5211 66.1286C34.721 64.9352 36.1212 64.0052 37.6913 63.3618C39.2558 62.7183 40.9088 62.3909 42.6084 62.3909H62.2246C65.401 62.3909 68.6891 60.8991 71.0181 58.3955L88.7531 38.0728C89.5587 37.1484 90.0003 35.9726 90.0003 34.7561C90.0003 33.2813 89.359 31.8831 88.2412 30.9179L88.2414 30.9187Z" fill="#FF5910"/>
<path d="M44.7935 36.2266C49.6158 36.2266 53.9652 34.4039 57.3764 30.9542C60.7875 27.504 62.589 23.1047 62.589 18.2269C62.589 13.3493 60.787 8.94996 57.3764 5.49959C53.9654 2.04874 49.616 0.226562 44.7935 0.226562C39.9712 0.226562 35.6218 2.04857 32.2106 5.49894C28.7995 8.94915 26.998 13.3485 26.998 18.2263C26.998 23.104 28.8 27.5032 32.2106 30.9536C35.6217 34.4038 39.9711 36.2266 44.7935 36.2266ZM39.7439 21.6411C39.8898 21.3991 40.1347 21.2401 40.4147 21.2166C40.4441 21.2166 40.4729 21.2109 40.5024 21.2109C40.8638 21.2109 41.1789 21.4232 41.3129 21.7533C41.5346 22.3076 41.8491 22.7619 42.2399 23.104C42.8694 23.6526 43.715 23.9295 44.7472 23.9295C45.8315 23.9295 46.677 23.6818 47.2602 23.1863C47.8784 22.6674 48.1872 22.0364 48.1872 21.3168C48.1872 20.8271 48.0413 20.4026 47.75 20.0548C47.4757 19.7247 47.0504 19.4592 46.4378 19.2407C46.0764 19.1108 45.289 18.8986 44.0294 18.5799C42.5543 18.2086 41.5164 17.7601 40.9565 17.2526C40.1811 16.5507 39.8077 15.7251 39.8077 14.7222C39.8077 14.0912 39.9887 13.4893 40.3439 12.9349C40.6997 12.3805 41.2246 11.956 41.9067 11.6608C42.5073 11.4011 43.2301 11.2477 44.0638 11.2066V10.7111C44.0638 10.3044 44.3901 9.96798 44.7985 9.96798C45.2069 9.96798 45.5332 10.2981 45.5332 10.7111V11.2363C46.7283 11.3542 47.6615 11.6963 48.3029 12.2627C48.6355 12.5516 48.9036 12.888 49.1015 13.2592C49.2475 13.5247 49.2412 13.8434 49.0959 14.1088C48.9443 14.38 48.67 14.551 48.3612 14.5631H48.2973C47.9359 14.5808 47.6095 14.38 47.4636 14.0556C47.2826 13.6666 47.0439 13.3422 46.7464 13.1059C46.2272 12.6928 45.4812 12.4806 44.5248 12.4806C43.5508 12.4806 42.7578 12.6986 42.181 13.1236C41.7144 13.4658 41.4757 13.9314 41.4757 14.5098C41.4757 15.0351 41.6912 15.4887 42.1171 15.8485C42.56 16.2261 43.522 16.5917 45.0616 16.9572C46.4377 17.2873 47.4636 17.6237 48.0994 17.9658C48.6881 18.2782 49.1548 18.7147 49.4874 19.2576C49.8137 19.7942 49.9828 20.4784 49.9828 21.2983C49.9828 22.0237 49.7786 22.7193 49.3765 23.3566C48.98 23.9876 48.4088 24.4653 47.6741 24.7776C47.0853 25.0253 46.3681 25.1843 45.54 25.2433V25.7507C45.54 26.1638 45.2137 26.4939 44.8053 26.4939C44.3969 26.4939 44.0706 26.1638 44.0706 25.7507V25.2496C42.6945 25.1609 41.6159 24.7839 40.8581 24.1175C40.3507 23.6752 39.9542 23.1031 39.6861 22.4132C39.5747 22.1598 39.5985 21.8772 39.7438 21.6409L39.7439 21.6411Z" fill="#FF5910"/>
</svg>
