<svg width="63" height="63" viewBox="0 0 63 63" fill="none" xmlns="http://www.w3.org/2000/svg">
<path d="M60.2559 25.7087L52.5078 24.9276C52.2476 24.9276 51.9869 24.7323 51.9219 24.4716C51.5963 23.625 51.2707 22.7789 50.8801 21.9323C50.7497 21.6721 50.8151 21.4114 50.945 21.1512L55.8282 15.1611C56.6094 14.1847 56.5444 12.8172 55.6329 11.9057L51.0104 7.21784C50.1638 6.37129 48.7313 6.2414 47.7549 7.02255L41.7649 11.9057C41.5696 12.101 41.244 12.101 40.9837 11.9707C40.1372 11.5801 39.356 11.1895 38.4445 10.9288C38.1843 10.8639 37.9885 10.6032 37.9885 10.3429L37.2073 2.66032C37.077 1.42313 36.0356 0.511719 34.7984 0.511719H28.1572C26.92 0.511719 25.8781 1.42322 25.7483 2.66032L24.9666 10.4084C24.9666 10.6686 24.7714 10.9293 24.5107 10.9943C23.6641 11.3199 22.8179 11.6456 21.9714 12.0361C21.7112 12.1665 21.4505 12.1011 21.1902 11.9712L15.2002 7.08754C14.2238 6.30638 12.8563 6.37132 11.9448 7.28284L7.2569 11.9058C6.4104 12.7524 6.2805 14.1849 7.0616 15.1613L11.9448 21.1513C12.1401 21.3466 12.1401 21.6722 12.0097 21.9325C11.6192 22.779 11.2286 23.5602 10.9679 24.4717C10.9029 24.732 10.6423 24.9277 10.382 24.9277L2.69938 25.7089C1.46219 25.8392 0.550781 26.8806 0.550781 28.1178V34.759C0.550781 35.9962 1.46228 37.0381 2.69938 37.1679L10.4475 37.9496C10.7077 37.9496 10.9684 38.1448 11.0333 38.4055C11.359 39.2521 11.6846 40.0983 12.0752 40.9448C12.2055 41.205 12.1401 41.4657 12.0103 41.726L7.1266 47.716C6.3454 48.6924 6.4104 50.0599 7.3219 50.9714L12.0098 55.6593C12.8563 56.5058 14.2888 56.6357 15.2652 55.8546L21.2552 50.9714C21.4505 50.7761 21.7762 50.7761 22.0364 50.9065C22.883 51.297 23.6641 51.6876 24.5757 51.9483C24.8359 52.0133 25.0316 52.2739 25.0316 52.5342L25.8128 60.2168C25.9432 61.454 26.9845 62.3654 28.2217 62.3654H34.863C36.1002 62.3654 37.142 61.4539 37.2719 60.2168L37.9886 52.4687C37.9886 52.2085 38.1838 51.9478 38.4445 51.8829C39.2911 51.5572 40.1373 51.2316 40.9838 50.841C41.244 50.7107 41.5047 50.7761 41.765 50.9059L47.755 55.7891C48.7314 56.5703 50.0989 56.5053 51.0104 55.5938L55.6983 50.906C56.5449 50.0594 56.6747 48.6269 55.8936 47.6505L51.0104 41.6605C50.8151 41.4652 50.8151 41.1396 50.9455 40.8793C51.336 40.0328 51.7266 39.2516 51.9873 38.3401C52.0523 38.0798 52.313 37.8841 52.5732 37.8841L60.2558 37.1029C61.493 36.9726 62.4044 35.9312 62.4044 34.694V28.1181C62.4044 26.8809 61.493 25.8391 60.2559 25.7087ZM31.4777 45.567C23.7296 45.567 17.349 39.2514 17.349 31.4383C17.349 23.6903 23.6646 17.3097 31.4777 17.3097C39.2908 17.3097 45.6064 23.6903 45.6064 31.4383C45.6064 39.1864 39.2258 45.567 31.4777 45.567Z" fill="white"/>
<path d="M31.4794 22.8438C26.7265 22.8438 22.8848 26.6851 22.8848 31.4384C22.8848 36.1912 26.7261 40.033 31.4794 40.033C36.2322 40.033 40.074 36.1912 40.074 31.4384C40.074 26.6855 36.2322 22.8438 31.4794 22.8438Z" fill="white"/>
</svg>
