<svg width="76" height="76" viewBox="0 0 76 76" fill="none" xmlns="http://www.w3.org/2000/svg">
<path d="M39.1742 9.20025V1.31894C39.1569 0.603149 38.5713 0.0317383 37.8549 0.0317383C37.1391 0.0317383 36.5534 0.603149 36.5355 1.31894V9.20025C36.5269 9.55568 36.662 9.90001 36.9107 10.1542C37.1588 10.4091 37.4994 10.5523 37.8549 10.5523C38.2109 10.5523 38.5515 10.4091 38.7996 10.1542C39.0483 9.90001 39.1834 9.55568 39.1742 9.20025Z" fill="#FF5910"/>
<path d="M26.6492 9.20068V1.31938C26.6486 0.59123 26.0586 0.00130468 25.3305 7.25133e-05C24.9794 -0.00363 24.6418 0.134594 24.3938 0.382661C24.1457 0.630722 24.0081 0.968258 24.0118 1.31938V9.20068C24.0081 9.5518 24.1457 9.88934 24.3938 10.1374C24.6418 10.3861 24.9794 10.5237 25.3305 10.5206C26.0586 10.5194 26.6492 9.92883 26.6492 9.20068Z" fill="#FF5910"/>
<path d="M64.2233 9.20068V1.31938C64.227 0.968258 64.0888 0.630722 63.8407 0.382661C63.5927 0.1346 63.2545 -0.00362423 62.904 7.22812e-05C62.1759 0.00130635 61.5859 0.591229 61.5859 1.31938V9.20068C61.5859 9.92883 62.1759 10.5188 62.904 10.5206C63.2551 10.5243 63.5927 10.3861 63.8414 10.138C64.0894 9.88934 64.227 9.5518 64.2233 9.20068Z" fill="#FF5910"/>
<path d="M51.7013 9.20023V1.31892C51.684 0.603126 51.0984 0.0317154 50.382 0.0317154C49.6662 0.0317154 49.0805 0.603126 49.0626 1.31892V9.20023C49.054 9.55566 49.1891 9.89999 49.4378 10.1542C49.6859 10.4091 50.0265 10.5522 50.382 10.5522C50.738 10.5522 51.0786 10.4091 51.3267 10.1542C51.5754 9.89999 51.7105 9.55566 51.7013 9.20023Z" fill="#FF5910"/>
<path d="M14.1218 9.20061V1.31931C14.1218 0.590541 13.5312 0 12.8031 0C12.0749 0 11.4844 0.590541 11.4844 1.31931V9.20061C11.4844 9.92876 12.0749 10.5193 12.8031 10.5193C13.5312 10.5193 14.1218 9.92876 14.1218 9.20061Z" fill="#FF5910"/>
<path d="M6.07517 25.493H23.1692C23.6134 25.493 23.9732 25.8528 23.9732 26.2971C23.9732 26.7414 23.6134 27.1011 23.1692 27.1011H6.07517C5.63088 27.1011 5.27113 26.7414 5.27113 26.2971C5.27113 25.8528 5.63088 25.493 6.07517 25.493ZM17.0127 32.4956H6.07517V32.4949C5.63088 32.4949 5.27113 32.1352 5.27113 31.6909C5.27113 31.2466 5.63088 30.8869 6.07517 30.8869H17.0127H17.0121C17.4564 30.8869 17.8168 31.2466 17.8168 31.6909C17.8168 32.1352 17.4564 32.4949 17.0121 32.4949L17.0127 32.4956ZM0.0625 21.2204V71.4029C0.0637341 72.4754 0.490126 73.504 1.24851 74.2625C2.00689 75.0208 3.035 75.4472 4.10809 75.4478H71.5978C72.6709 75.4472 73.699 75.0208 74.4574 74.2625C75.2158 73.5041 75.6422 72.4755 75.6434 71.4029V21.2204H0.0625ZM47.3494 62.7177L38.2297 57.9242H38.2304C38.115 57.8668 37.9885 57.8366 37.8601 57.836C37.7293 57.8372 37.6003 57.8674 37.4818 57.9242L28.3782 62.7177L30.1152 52.5768L30.1158 52.5761C30.1596 52.3139 30.0726 52.0467 29.8826 51.8603L22.5079 44.6708L32.697 43.1917C32.9599 43.1559 33.1869 42.9893 33.2998 42.7492L37.86 33.5166L42.4201 42.7492C42.533 42.9893 42.7601 43.1559 43.023 43.1917L53.2121 44.6714L45.8374 51.861V51.8616C45.6473 52.0473 45.5603 52.3145 45.6048 52.5768L47.3494 62.7177Z" fill="#FF5910"/>
<path d="M75.6427 10.1071C75.647 9.03519 75.2243 8.00589 74.4678 7.247C73.7119 6.488 72.6844 6.0616 71.6126 6.06222H65.8312V9.19872C65.8312 10.2447 65.2734 11.211 64.3675 11.7343C63.4617 12.257 62.346 12.257 61.4402 11.7343C60.5343 11.211 59.9765 10.2447 59.9765 9.19872V6.06222H53.3097V9.19872C53.3226 9.98365 53.0196 10.7408 52.4692 11.3005C51.9188 11.8603 51.1666 12.1755 50.3816 12.1755C49.5967 12.1755 48.8445 11.8602 48.2941 11.3005C47.7436 10.7408 47.4413 9.98369 47.4542 9.19872V6.06222H40.7793V9.19872C40.7923 9.98365 40.4893 10.7408 39.9389 11.3005C39.3885 11.8603 38.6362 12.1755 37.8513 12.1755C37.0664 12.1755 36.3142 11.8602 35.7637 11.3005C35.2133 10.7408 34.9103 9.98369 34.9233 9.19872V6.06222H28.2583V9.19872C28.2583 10.2447 27.7005 11.211 26.7947 11.7343C25.8888 12.257 24.7731 12.257 23.8673 11.7343C22.9614 11.211 22.4036 10.2447 22.4036 9.19872V6.06222H15.7287V9.19872C15.7287 10.2447 15.1709 11.211 14.265 11.7343C13.3592 12.257 12.2435 12.257 11.3377 11.7343C10.4318 11.211 9.874 10.2447 9.874 9.19872V6.06222H4.10808C3.0356 6.06407 2.00754 6.49046 1.24913 7.24823C0.490741 8.00661 0.0643483 9.03472 0.0625 10.1072V19.6138H75.6435L75.6427 10.1071Z" fill="#FF5910"/>
</svg>
