<svg width="69" height="81" viewBox="0 0 69 81" fill="none" xmlns="http://www.w3.org/2000/svg">
<path d="M46.4646 4.32226C48.6239 2.64051 51.6701 2.33534 54.1852 3.78899C56.6992 5.24097 57.9588 8.03113 57.5811 10.7399C60.2914 10.3639 63.0812 11.6235 64.5347 14.1375C65.9867 16.6527 65.6805 19.6989 63.9998 21.8571C66.5351 22.8857 68.3228 25.3719 68.3228 28.2758C68.3228 31.1798 66.5349 33.6659 64.0008 34.6945C65.6815 36.8521 65.986 39.9 64.5341 42.4151C63.0821 44.9291 60.2919 46.1876 57.582 45.8111C57.958 48.5198 56.7001 51.3111 54.1844 52.7647C51.6692 54.2167 48.623 53.9104 46.4648 52.2297C45.4362 54.765 42.95 56.5527 40.0461 56.5527C37.1421 56.5527 34.6571 54.7649 33.6285 52.2297C31.4692 53.9115 28.423 54.2166 25.9079 52.7647C23.3939 51.3127 22.1343 48.5214 22.5103 45.8126C19.8015 46.1886 17.0102 44.9291 15.5582 42.415C14.1062 39.901 14.4125 36.8537 16.0915 34.6954C13.5574 33.6668 11.7695 31.1807 11.7695 28.2767C11.7695 25.3727 13.5574 22.8877 16.0915 21.858C14.4108 19.7004 14.1063 16.6537 15.5582 14.1384C17.0102 11.6244 19.8004 10.3648 22.5103 10.7408C22.1332 8.03199 23.3922 5.24069 25.9079 3.7887C28.4219 2.33672 31.4682 2.64185 33.6258 4.32197C34.6555 1.78785 37.1405 0 40.0445 0C42.9485 0 45.4346 1.78671 46.4632 4.32197L46.4646 4.32226ZM55.6495 57.2238L64.6023 72.7318C64.8332 73.134 64.8349 73.5875 64.6034 73.8926C64.3725 74.1961 63.9798 74.2602 63.5999 74.0527L55.877 69.8407C55.5607 69.6684 55.206 69.6745 54.8975 69.8597C54.589 70.0432 54.4139 70.3522 54.4139 70.7103L54.4261 79.1455C54.4273 79.5839 54.1801 79.9052 53.7975 79.9599C53.4165 80.0151 53.0154 79.7864 52.7817 79.3803L42.3785 61.3619C42.2212 61.0897 42.2 60.7885 42.3182 60.4962C42.4371 60.2039 42.6618 60.0025 42.9653 59.9166C44.6209 59.448 46.1314 58.5857 47.3748 57.4176C47.6236 57.1839 47.9443 57.098 48.2768 57.1766C50.3072 57.6513 52.4575 57.5303 54.4479 56.7917C54.9042 56.6216 55.4051 56.8029 55.6488 57.224L55.6495 57.2238ZM37.7153 61.3621L27.312 79.3806C27.0772 79.7867 26.6772 80.0154 26.2962 79.9601C25.9141 79.9066 25.6665 79.5842 25.6676 79.1457L25.6799 70.7106C25.6799 70.3519 25.5047 70.0434 25.1963 69.8582C24.8878 69.6747 24.533 69.6686 24.2167 69.8409L16.4938 74.053C16.114 74.2605 15.7218 74.1969 15.4904 73.8929C15.2594 73.5877 15.2605 73.1342 15.4915 72.7321L24.4443 57.224C24.688 56.8029 25.189 56.6233 25.6453 56.7917C27.6356 57.5303 29.7876 57.6513 31.8181 57.1766C32.1505 57.098 32.4718 57.1855 32.72 57.4193C33.9623 58.5862 35.4728 59.4486 37.1284 59.9171C37.4319 60.0036 37.6572 60.2044 37.7755 60.4967C37.8943 60.789 37.8731 61.0902 37.7152 61.3624L37.7153 61.3621ZM48.5285 17.5269L49.3669 18.2454C50.0167 18.8015 50.0926 19.795 49.537 20.4432L33.7634 38.8558C33.2072 39.5045 32.2137 39.5804 31.5655 39.0259L30.726 38.3063C30.079 37.7502 30.0014 36.7567 30.5576 36.1085L46.3298 17.6974C46.8859 17.0475 47.8794 16.9717 48.5286 17.5272L48.5285 17.5269ZM32.7477 16.3935C35.3354 16.3935 37.4455 18.5053 37.4455 21.0913V23.1457C37.4455 25.7284 35.3314 27.8426 32.7487 27.8426C30.1699 27.8426 28.0509 25.7246 28.0509 23.1457V21.0913C28.0509 18.5086 30.166 16.3935 32.7477 16.3935ZM47.3461 28.7082C49.9326 28.7082 52.0439 30.8184 52.0439 33.405V35.4606C52.0439 38.0422 49.9288 40.1575 47.3461 40.1575C44.7684 40.1575 42.6493 38.0383 42.6493 35.4606V33.405C42.6493 30.8224 44.7634 28.7082 47.3461 28.7082ZM32.7491 19.6193C31.9381 19.6193 31.277 20.2803 31.277 21.0914V23.1459C31.277 23.9603 31.9341 24.618 32.7474 24.618C33.5596 24.618 34.2195 23.9581 34.2195 23.1459V21.0914C34.2195 20.2843 33.5546 19.6193 32.7491 19.6193ZM47.3461 31.9329C46.5361 31.9329 45.8757 32.5939 45.8757 33.405V35.4606C45.8757 36.275 46.5328 36.931 47.3461 36.931C48.1571 36.931 48.8182 36.2712 48.8182 35.4606V33.405C48.8182 32.5979 48.1533 31.9329 47.3461 31.9329ZM52.9314 15.391C49.6353 12.0938 45.0797 10.0544 40.0466 10.0544C35.0152 10.0544 30.4606 12.0938 27.1628 15.391C23.8667 18.6871 21.8262 23.2427 21.8262 28.2748C21.8262 33.3079 23.8667 37.8635 27.1628 41.1596C30.46 44.4557 35.0145 46.4962 40.0466 46.4962C45.0797 46.4962 49.6353 44.4557 52.9314 41.1596C56.2275 37.8635 58.268 33.3079 58.268 28.2748C58.268 23.2434 56.2275 18.6871 52.9314 15.391Z" fill="#FF5910"/>
<path d="M0.0677394 79.9877H0.0651197H0.0625V79.9851L0.0651197 79.9825H0.0677394V79.9851C0.0677394 79.9838 0.0664295 79.9825 0.0651197 79.9825V79.9851V79.9877C0.0664295 79.9877 0.0677394 79.9871 0.0677394 79.9851V79.9877Z" fill="#FF5910"/>
<path d="M0.0729322 79.985V79.9877H0.0703125V79.9824H0.0729322V79.985V79.9824V79.985Z" fill="#FF5910"/>
<path d="M0.0755519 79.985H0.0729322V79.9877H0.0755519H0.0729322H0.0703125V79.985L0.0729322 79.9824V79.985H0.0755519Z" fill="#FF5910"/>
<path d="M0.0768384 79.985V79.9877V79.985ZM0.0794581 79.985V79.9877H0.0768384H0.0742188V79.985H0.0768384H0.0742188V79.9824H0.0768384V79.985H0.0794581Z" fill="#FF5910"/>
<path d="M0.0807447 79.9824V79.985V79.9877H0.078125V79.985V79.9824H0.0807447Z" fill="#FF5910"/>
<path d="M0.0872706 79.985H0.0846509V79.9877H0.0872706H0.0846509H0.0820312V79.985L0.0846509 79.9824V79.985H0.0872706Z" fill="#FF5910"/>
<path d="M0.0885572 79.985V79.9824H0.0911769V79.9877H0.0885572H0.0859375V79.985C0.0859375 79.9837 0.0865924 79.9824 0.0885572 79.9824V79.985ZM0.0885572 79.9877V79.985V79.9877Z" fill="#FF5910"/>
<path d="M0.0963697 79.9877V79.985V79.9877ZM0.0963697 79.985V79.9824C0.0976795 79.9824 0.0989894 79.9837 0.0989894 79.985V79.9877H0.0963697H0.09375V79.9824H0.0963697V79.985Z" fill="#FF5910"/>
<path d="M0.101562 79.9824H0.103783V79.9869V79.9824H0.106003L0.103783 79.9869V79.9891H0.101562V79.9869H0.103783L0.101562 79.9824Z" fill="#FF5910"/>
<path d="M0.103783 79.9869V79.9891H0.101562V79.9824H0.103783V79.9846V79.9824C0.104893 79.9824 0.106003 79.9835 0.106003 79.9846V79.9869H0.103783ZM0.103783 79.9846V79.9869V79.9846Z" fill="#FF5910"/>
<path d="M0.108088 79.985V79.9877V79.985ZM0.108088 79.9824V79.985H0.110708C0.110708 79.987 0.109398 79.9877 0.108088 79.9877H0.105469V79.985L0.108088 79.9824Z" fill="#FF5910"/>
<path d="M0.115257 79.9869V79.9891H0.113037V79.9825H0.115257V79.9847V79.9825C0.116367 79.9825 0.117477 79.9836 0.117477 79.9847V79.9869H0.115257ZM0.115257 79.9847V79.9869V79.9847Z" fill="#FF5910"/>
<path d="M0.115901 79.9851V79.9877H0.113281V79.9851L0.115901 79.9825V79.9851Z" fill="#FF5910"/>
<path d="M0.123713 79.985V79.9877V79.985ZM0.123713 79.9824V79.985H0.126333C0.126333 79.987 0.125023 79.9877 0.123713 79.9877H0.121094V79.985L0.123713 79.9824Z" fill="#FF5910"/>
<path d="M0.12762 79.985V79.9877H0.125V79.9824H0.12762V79.985V79.9824V79.985Z" fill="#FF5910"/>
<path d="M0.134146 79.985V79.9877H0.131526V79.985V79.9877H0.128906V79.9824H0.131526V79.985V79.9824V79.985H0.134146Z" fill="#FF5910"/>
<path d="M0.131526 79.985V79.9877V79.985ZM0.134146 79.985V79.9877H0.131526H0.128906V79.985H0.131526H0.128906V79.9824H0.131526V79.985H0.134146Z" fill="#FF5910"/>
<path d="M0.139338 79.985V79.9877H0.136719V79.9824H0.139338V79.985V79.9824V79.985Z" fill="#FF5910"/>
<path d="M0.139338 79.9824V79.985V79.9877H0.136719V79.985V79.9824H0.139338Z" fill="#FF5910"/>
<path d="M0.147151 79.985C0.148461 79.985 0.149771 79.9864 0.149771 79.9877H0.147151H0.144531H0.147151V79.985H0.144531C0.144531 79.9837 0.145186 79.9824 0.147151 79.9824V79.985Z" fill="#FF5910"/>
<path d="M0.0651197 79.9956V80.0008H0.0625V79.9956H0.0651197Z" fill="#FF5910"/>
<path d="M0.0690259 79.9982V80.0008H0.0664062V79.9956H0.0690259V79.9982V79.9956V79.9982Z" fill="#FF5910"/>
<path d="M0.0729322 79.9982V80.0008V79.9982ZM0.0729322 79.9956V79.9982H0.0755519C0.0755519 80.0002 0.074242 80.0008 0.0729322 80.0008H0.0703125V79.9982L0.0729322 79.9956Z" fill="#FF5910"/>
<path d="M0.0786589 79.9978V79.9956V79.9978H0.080879V80H0.0786589V79.9978V80H0.0764388V79.9978V80H0.0742188V79.9956H0.0764388V79.9978V79.9956V79.9978H0.0786589Z" fill="#FF5910"/>
<path d="M0.0846509 79.9956V79.9982V80.0008H0.0820312V79.9982V79.9956H0.0846509Z" fill="#FF5910"/>
<path d="M0.0872706 79.9982V80.0008H0.0846509V79.9982V80.0008H0.0820312V79.9956H0.0846509V79.9982V79.9956V79.9982H0.0872706Z" fill="#FF5910"/>
<path d="M0.0950831 79.9982H0.0924634V80.0008H0.0950831H0.0924634H0.0898438V79.9982L0.0924634 79.9956V79.9982H0.0950831Z" fill="#FF5910"/>
<path d="M0.09375 79.9956H0.0963697L0.0989894 79.9982V79.9956V80.0008H0.0963697V79.9982V80.0008H0.09375V79.9956Z" fill="#FF5910"/>
<path d="M0.104182 79.9982V80.0008V79.9982ZM0.104182 79.9956V79.9982H0.106802C0.106802 80.0002 0.105492 80.0008 0.104182 80.0008H0.101562V79.9982L0.104182 79.9956Z" fill="#FF5910"/>
<path d="M0.105469 79.9982V79.9956H0.108088V79.9982V80.0008V79.9982V79.9956H0.110708V80.0008H0.108088H0.105469V79.9982Z" fill="#FF5910"/>
<path d="M0.114614 79.9982V80.0008H0.111995V79.9982V80.0008H0.109375V79.9956H0.111995V79.9982V79.9956V79.9982H0.114614Z" fill="#FF5910"/>
<path d="M0.113281 79.9956H0.115901H0.118521V79.9982H0.115901V80.0008H0.113281V79.9956ZM0.115901 79.9956V79.9982V79.9956Z" fill="#FF5910"/>
<path d="M0.123713 79.9982V80.0008H0.121094V79.9956H0.123713V79.9982V79.9956V79.9982Z" fill="#FF5910"/>
<path d="M0.12762 79.9982V80.0008V79.9982ZM0.12762 79.9956V79.9982H0.130239C0.130239 80.0002 0.12893 80.0008 0.12762 80.0008H0.125V79.9982L0.12762 79.9956Z" fill="#FF5910"/>
<path d="M0.128906 79.9956H0.131126V80H0.128906V80.0023V79.9956ZM0.128906 79.9956H0.131126H0.128906Z" fill="#FF5910"/>
<path d="M0.134146 79.9982H0.131526V80.0008H0.134146H0.131526H0.128906V79.9982L0.131526 79.9956V79.9982H0.134146Z" fill="#FF5910"/>
<path d="M0.139338 79.9982V80.0008H0.136719V79.9982L0.139338 79.9956V79.9982Z" fill="#FF5910"/>
<path d="M0.139338 79.9956V79.9982V80.0008H0.136719V79.9982V79.9956H0.139338Z" fill="#FF5910"/>
</svg>
