<svg width="51" height="80" viewBox="0 0 51 80" fill="none" xmlns="http://www.w3.org/2000/svg">
<path d="M36.3823 43.9881C36.3823 49.9758 31.504 54.8296 25.4861 54.8296C19.4682 54.8296 14.5898 49.9758 14.5898 43.9881C14.5898 38.0005 19.4682 33.1466 25.4861 33.1466C31.504 33.1466 36.3823 38.0005 36.3823 43.9881Z" fill="#FF5910"/>
<path d="M45.5254 24.4238C42.5195 24.4238 40.1399 26.7915 40.1399 29.7823V44.9853C40.1399 45.733 39.8894 46.4807 39.5137 47.1037L38.5117 48.8483C41.3923 50.4683 44.1477 52.0883 47.0283 53.5837C47.1536 53.7083 47.4041 53.8329 47.5293 53.8329L50.0342 49.4714C50.6604 48.4745 50.9109 47.2283 50.9109 46.1068V29.783C50.9109 26.7922 48.5313 24.4245 45.5254 24.4245V24.4238Z" fill="#FF5910"/>
<path d="M45.8993 55.7004L37.2574 50.8404C36.7564 50.5912 36.1302 50.7158 35.7545 51.2143C34.1263 52.9589 32.6234 54.7035 31.1204 56.5727C30.6195 56.5727 30.1185 56.6973 29.6175 56.6973C27.9893 56.8219 26.7369 56.9466 25.4844 56.9466C24.232 56.9466 22.9796 56.8219 21.6019 56.6973C21.1009 56.6973 20.5999 56.5727 20.0989 56.5727C18.596 54.8281 16.9678 52.9589 15.3397 51.2143C14.9639 50.8404 14.3377 50.7158 13.8367 50.9651L5.19489 55.825C4.81915 55.9496 4.69391 56.3235 4.56867 56.6973C4.44342 57.0712 4.56867 57.445 4.81915 57.6943C6.0716 59.3142 7.19879 60.8096 8.20075 62.5542C10.9561 67.2896 12.459 72.8973 12.5843 78.7542C12.5843 79.3772 13.0853 80.0003 13.8367 80.0003H37.3826C38.0089 80.0003 38.6351 79.5019 38.6351 78.7542C38.7603 72.8973 40.2633 67.2896 43.0186 62.5542C44.0206 60.9342 45.0225 59.3142 46.4002 57.6943C46.6507 57.445 46.776 57.0712 46.6507 56.6973C46.4002 56.1989 46.1497 55.9496 45.8993 55.7004Z" fill="#FF5910"/>
<path d="M11.4597 47.1044C11.084 46.4813 10.8335 45.7336 10.8335 44.986V29.7829C10.8335 27.2906 9.08008 25.1722 6.70044 24.5491V15.203H22.1048C22.731 15.203 23.3572 14.7046 23.3572 13.9569V2.99076C23.3572 2.36768 22.8562 1.74461 22.1048 1.74461H6.70044V1.24615C6.70044 0.623074 6.19947 0 5.448 0C4.82178 0 4.19556 0.498459 4.19556 1.24615V24.6737C1.81592 25.1722 0.0625 27.2906 0.0625 29.9076V46.3567C0.0625 47.4783 0.438233 48.7244 0.93921 49.7213L3.44409 54.0828C3.56934 53.9582 3.69458 53.8336 3.94507 53.709C6.70044 52.089 9.58106 50.469 12.4617 48.9736L11.4597 47.1044Z" fill="#FF5910"/>
<path d="M12.5859 17.5704V19.4397C12.5859 20.0627 13.0869 20.6858 13.8384 20.6858H30.4966C31.1228 20.6858 31.749 20.1874 31.749 19.4397V8.47357C31.749 7.85049 31.248 7.22742 30.4966 7.22742H25.8625V13.9566C25.8625 15.9505 24.2344 17.5704 22.2305 17.5704H12.5859Z" fill="#FF5910"/>
</svg>
