<svg width="76" height="76" viewBox="0 0 76 76" fill="none" xmlns="http://www.w3.org/2000/svg">
<path d="M63.7748 14.3555C63.7748 18.6962 60.3031 22.2148 56.0202 22.2148C51.7373 22.2148 48.2656 18.6962 48.2656 14.3555C48.2656 10.0147 51.7373 6.49609 56.0202 6.49609C60.3031 6.49609 63.7748 10.0147 63.7748 14.3555Z" fill="#FF5910"/>
<path d="M44.7495 65.5356L44.3342 63.1185C44.2485 62.6017 43.8639 62.1864 43.3577 62.064C42.8514 61.9415 42.3215 62.1357 42.0116 62.5568L39.287 66.4109C38.8717 66.9924 38.9992 67.8031 39.5726 68.2271L43.3612 70.997V70.9964C43.7921 71.3225 44.3783 71.3458 44.8335 71.0559C45.2894 70.7655 45.5187 70.2219 45.411 69.69L45.1642 68.135L45.1648 68.1356C50.7176 66.7819 55.7944 63.9157 59.8378 59.8505C63.8813 55.7858 66.7361 50.6788 68.0897 45.089L70.023 45.4809C70.5293 45.5638 71.0361 45.3386 71.317 44.9064C71.5973 44.4737 71.5991 43.9161 71.3205 43.4821L68.7256 39.5627C68.3294 38.9666 67.5307 38.8033 66.9353 39.197L63.0431 41.8099C62.5896 42.1016 62.3619 42.6457 62.4714 43.1765C62.5809 43.7073 63.0043 44.115 63.536 44.2007L65.5469 44.6055C64.2924 49.6664 61.6941 54.2881 58.0306 57.9748C54.3666 61.6621 49.7758 64.2757 44.7495 65.5356L44.7495 65.5356Z" fill="#FF5910"/>
<path d="M56.0225 0C50.8532 0 45.8952 2.05352 42.2399 5.70866C38.5848 9.3638 36.5312 14.3219 36.5312 19.4912C36.5312 24.6605 38.5848 29.6185 42.2399 33.2738C45.8951 36.9289 50.8532 38.9824 56.0225 38.9824C61.1918 38.9824 66.1497 36.9289 69.805 33.2738C73.4602 29.6186 75.5137 24.6605 75.5137 19.4912C75.5137 14.3219 73.4602 9.36395 69.805 5.70866C66.1499 2.05352 61.1918 0 56.0225 0ZM67.3012 32.0309C66.3916 28.7116 64.0667 25.962 60.9445 24.5135C57.8229 23.065 54.2217 23.065 51.1003 24.5135C47.9783 25.962 45.6531 28.7117 44.7435 32.0309C41.3291 28.9686 39.3069 24.6498 39.1409 20.0671C38.975 15.4838 40.6799 11.0303 43.8635 7.72907C47.0472 4.42781 51.4361 2.56334 56.0223 2.56334C60.6086 2.56334 64.9976 4.42781 68.1811 7.72907C71.3646 11.0303 73.0696 15.4838 72.9037 20.0671C72.7378 24.6498 70.7157 28.9686 67.3011 32.0309H67.3012Z" fill="#FF5910"/>
<path d="M27.5195 50.7178C27.5195 55.0007 24.0009 58.4724 19.6601 58.4724C15.3194 58.4724 11.8008 55.0007 11.8008 50.7178C11.8008 46.4349 15.3194 42.9633 19.6601 42.9633C24.0009 42.9633 27.5195 46.4349 27.5195 50.7178Z" fill="#FF5910"/>
<path d="M6.82861 35.8894C7.22676 36.4824 8.03121 36.6448 8.63044 36.2532L12.5478 33.654C13.0031 33.3691 13.2368 32.8354 13.1354 32.3098C13.0346 31.7835 12.6195 31.3734 12.0908 31.2759L10.0669 30.8733C11.3307 25.849 13.9417 21.2603 17.6212 17.5983C21.3013 13.9357 25.9112 11.3372 30.9595 10.0799L31.3512 12.4842C31.4375 12.9982 31.8246 13.4113 32.3341 13.5332C32.8436 13.655 33.3769 13.4618 33.6888 13.0429L36.4962 9.18308C36.9142 8.60465 36.7859 7.79821 36.2088 7.37643L32.3957 4.66068C31.962 4.33636 31.3721 4.31316 30.9139 4.60208C30.4551 4.89042 30.2243 5.43114 30.3327 5.96025L30.5811 7.50698L30.5805 7.5064C24.9965 8.85008 19.8911 11.6952 15.8216 15.7315C11.7527 19.7678 8.87648 24.839 7.50772 30.3925L5.56187 29.9765C5.05238 29.8941 4.54231 30.118 4.25958 30.5485C3.97744 30.9784 3.97569 31.5336 4.25608 31.9647L6.82861 35.8894Z" fill="#FF5910"/>
<path d="M19.6585 75.4493C24.8556 75.4493 29.8402 73.3958 33.5152 69.7406C37.1899 66.0855 39.2545 61.1274 39.2545 55.9581C39.2545 50.7888 37.1899 45.8308 33.5152 42.1755C29.8404 38.5204 24.8556 36.4669 19.6585 36.4669C14.4614 36.4669 9.47679 38.5204 5.80185 42.1755C2.12706 45.8307 0.0625 50.7888 0.0625 55.9581C0.0625 61.1274 2.12706 66.0854 5.80185 69.7406C9.47664 73.3958 14.4614 75.4493 19.6585 75.4493ZM19.6585 39.0657C24.2584 39.0767 28.657 40.9429 31.8488 44.2378C35.0401 47.5328 36.7513 51.9746 36.5909 56.5469C36.4311 61.1192 34.4126 65.4316 30.9979 68.4975C30.0834 65.1781 27.7459 62.4286 24.607 60.9801C21.4687 59.5316 17.8481 59.5316 14.7099 60.9801C11.5711 62.4286 9.23343 65.1783 8.31895 68.4975C4.90424 65.4316 2.88567 61.1192 2.72591 56.5469C2.56553 51.9746 4.27672 47.5328 7.46807 44.2378C10.66 40.9428 15.0586 39.0767 19.6584 39.0657H19.6585Z" fill="#FF5910"/>
</svg>
