<svg width="59" height="75" viewBox="0 0 59 75" fill="none" xmlns="http://www.w3.org/2000/svg">
<path d="M20.2717 0C11.8538 0 4.98032 6.90531 4.98032 15.3631C4.98032 23.8206 11.8534 30.7303 20.2717 30.7303C28.6897 30.7303 35.5632 23.8208 35.5632 15.3631C35.5632 6.90571 28.6901 0 20.2717 0ZM20.2629 34.6893C9.07779 34.6893 0.000520723 43.8143 0.000520723 55.0507V63.6615H0C0 64.283 0.245788 64.8794 0.683188 65.3189C1.12059 65.7583 1.71422 66.0052 2.33284 66.0052H23.1871C22.3279 63.7144 21.8384 61.246 21.8384 58.6673C21.8384 50.4055 26.679 43.2198 33.639 39.7939C30.0658 36.6319 25.3965 34.6899 20.2618 34.6899L20.2629 34.6893ZM42.7435 42.3384C33.7938 42.3384 26.5042 49.6753 26.5042 58.6672C26.5042 67.6591 33.7934 75 42.7435 75C51.6932 75 59 67.6585 59 58.6672C59 49.6759 51.6928 42.3384 42.7435 42.3384ZM42.7117 48.9806L42.7112 48.9811C43.3438 48.9701 43.9541 49.2176 44.402 49.6675C44.8493 50.1169 45.0961 50.73 45.0847 51.3663V60.6775V60.677C45.0816 61.513 44.6353 62.2841 43.9141 62.7005L39.0069 65.557C38.4711 65.896 37.8207 66.0017 37.2057 65.85C36.5907 65.6977 36.0637 65.3011 35.7456 64.7508C35.4274 64.2009 35.3456 63.5444 35.5191 62.9323C35.6925 62.3202 36.1059 61.8054 36.6646 61.5057L40.4191 59.3266V51.3661C40.4081 50.7446 40.6435 50.144 41.0736 49.6966C41.5032 49.2493 42.0921 48.9919 42.7113 48.9809L42.7117 48.9806Z" fill="#FF5910"/>
</svg>
