<svg width="71" height="50" viewBox="0 0 71 50" fill="none" xmlns="http://www.w3.org/2000/svg">
<path d="M2.0578 46.2254C2.05893 47.2262 2.45656 48.1855 3.16421 48.8932C3.87187 49.6008 4.83117 49.999 5.83201 49.9996H64.5824C65.5832 49.999 66.5431 49.6008 67.2502 48.8932C67.9578 48.1855 68.356 47.2262 68.3566 46.2254C68.8722 45.6901 1.52016 45.6857 2.05789 46.2254H2.0578Z" fill="#FF5910"/>
<path d="M66.6506 10.4199H49.0379C48.0388 10.4255 47.0822 10.8254 46.3757 11.532C45.6692 12.2385 45.2699 13.1949 45.2637 14.1941V15.4522H70.4247V14.1941C70.4219 13.1939 70.0232 12.2357 69.3161 11.5286C68.609 10.821 67.6509 10.4228 66.6506 10.42L66.6506 10.4199Z" fill="#FF5910"/>
<path d="M69.1707 40.9028H68.2901C68.2525 39.9087 68.1643 38.9152 68.0385 37.9341C68.6686 38.2593 49.2223 38.0357 49.0426 38.0975H49.0432C47.3746 38.097 45.7751 37.4337 44.5955 36.2543C43.416 35.0749 42.7529 33.4754 42.7523 31.8073V14.1945C42.7495 12.7719 43.2336 11.3914 44.1238 10.2816C43.214 10.0159 42.2901 9.80197 41.3561 9.64022C41.6324 8.91741 41.7734 8.14968 41.7711 7.37573C41.7728 5.433 40.9135 3.58978 39.4253 2.34179C37.9364 1.09384 35.9713 0.569873 34.0589 0.910194C32.1465 1.25054 30.4836 2.42101 29.517 4.10594C28.551 5.79087 28.3808 7.8177 29.0525 9.64022C21.6895 11.0381 15.0174 14.8904 10.1256 20.5679C5.23388 26.246 2.41109 33.4141 2.11735 40.9024H1.23672C0.550409 40.9136 0 41.4735 0 42.1604C0 42.8473 0.550395 43.4072 1.23728 43.4185H3.22486C3.7601 43.4297 66.6408 43.4106 67.1843 43.4185H69.1725C69.861 43.4095 70.4142 42.849 70.4142 42.1604C70.4142 41.4718 69.8605 40.9108 69.1719 40.9024L69.1707 40.9028ZM38.7891 9.25018V9.24962C36.4067 8.97948 34.0012 8.97948 31.6182 9.24962C30.9611 7.99493 31.0077 6.48809 31.7412 5.27662C32.4741 4.06462 33.7871 3.32441 35.2036 3.32441C36.6201 3.32441 37.9331 4.06463 38.6667 5.27662C39.3996 6.48806 39.4462 7.99487 38.7891 9.24962V9.25018Z" fill="#FF5910"/>
<path d="M45.2637 31.8074C45.2665 32.8071 45.6652 33.7652 46.3723 34.4729C47.0794 35.18 48.0381 35.5782 49.0378 35.5815H66.6506C67.6497 35.5742 68.6057 35.1744 69.3116 34.4684C70.0181 33.7618 70.418 32.806 70.4248 31.8073V17.9688H45.2637L45.2637 31.8074Z" fill="#FF5910"/>
</svg>
