<svg width="99" height="76" viewBox="0 0 99 76" fill="none" xmlns="http://www.w3.org/2000/svg">
<path d="M88.1715 12.5967C88.1715 19.5529 82.5316 25.1928 75.5748 25.1928C68.618 25.1928 62.9787 19.5529 62.9787 12.5967C62.9787 5.63969 68.6178 0 75.5748 0C82.5318 0 88.1715 5.63989 88.1715 12.5967Z" fill="#FF5910"/>
<path d="M61.8558 31.6296C61.8558 38.5866 56.2167 44.2263 49.2596 44.2263C42.3026 44.2263 36.6635 38.5864 36.6635 31.6296C36.6635 24.6726 42.3026 19.0335 49.2596 19.0335C56.2167 19.0335 61.8558 24.6726 61.8558 31.6296Z" fill="#FF5910"/>
<path d="M58.5949 44.8991C55.9536 46.7645 52.7345 47.8649 49.2585 47.8649C45.7843 47.8649 42.5627 46.7638 39.9192 44.8976C26.63 47.577 26.3115 57.7929 26.3061 67.8621C26.3061 68.9174 26.6871 69.3091 27.1842 69.6772C32.8651 73.8586 42.4581 75.4482 49.2496 75.4482C56.05 75.4482 65.642 73.8585 71.3247 69.6772C71.8226 69.3091 72.2036 68.9174 72.2036 67.8637C72.1975 57.7951 71.8799 47.583 58.5959 44.8991L58.5949 44.8991Z" fill="#FF5910"/>
<path d="M84.9137 25.8648C82.2708 27.731 79.0517 28.8314 75.5773 28.8314C72.1015 28.8314 68.8815 27.7303 66.238 25.8641C65.66 25.9809 65.1125 26.1183 64.5795 26.2626C65.1705 27.9441 65.4958 29.7515 65.4958 31.6306C65.4958 35.547 64.1031 39.142 61.7826 41.9481C67.7262 43.7272 71.7947 47.2948 73.8884 52.581C74.3779 53.8188 74.7459 55.1001 75.02 56.4081C75.2018 56.4104 75.3904 56.4165 75.5675 56.4165C82.3688 56.4165 91.9616 54.8267 97.6427 50.6446C98.1398 50.2758 98.5208 49.8765 98.5208 48.8311C98.5155 38.7633 98.1968 28.5487 84.9137 25.8648Z" fill="#FF5910"/>
<path d="M35.5435 12.5967C35.5435 19.5529 29.9036 25.1928 22.9468 25.1928C15.9905 25.1928 10.3506 19.5529 10.3506 12.5967C10.3506 5.63969 15.9905 0 22.9468 0C29.9038 0 35.5435 5.63989 35.5435 12.5967Z" fill="#FF5910"/>
<path d="M36.7373 41.9481C34.4213 39.1426 33.0255 35.5462 33.0255 31.6306C33.0255 29.7515 33.3508 27.9441 33.9418 26.2626C33.4096 26.1183 32.8637 25.9817 32.2833 25.8641C29.6405 27.7302 26.419 28.8314 22.9448 28.8314C19.4706 28.8314 16.2498 27.7311 13.6069 25.8648C0.32371 28.5495 0.00527787 38.7639 0 48.8314C0 49.8767 0.381023 50.2761 0.878882 50.6441C6.55982 54.8269 16.1528 56.4159 22.954 56.4159C23.1312 56.4159 23.3198 56.4091 23.5015 56.4075C23.7772 55.0995 24.1445 53.819 24.6332 52.5805C26.7261 47.2942 30.7938 43.7268 36.7383 41.9476L36.7373 41.9481Z" fill="#FF5910"/>
</svg>
