<svg width="61" height="52" viewBox="0 0 61 52" fill="none" xmlns="http://www.w3.org/2000/svg">
<path d="M21.2222 39.2924C22.7794 39.2924 24.2727 39.9109 25.3738 41.012C26.4748 42.1131 27.0934 43.6064 27.0934 45.1635C27.0934 46.7206 26.4748 48.214 25.3738 49.3151C24.2727 50.4161 22.7794 51.0347 21.2222 51.0347C19.6651 51.0347 18.1718 50.4161 17.0707 49.3151C15.9697 48.214 15.3511 46.7206 15.3511 45.1635C15.3511 43.6064 15.9697 42.1131 17.0707 41.012C18.1718 39.9109 19.6651 39.2924 21.2222 39.2924ZM50.5721 18.7434C51.7478 18.713 52.9176 18.9184 54.0126 19.3473C55.1076 19.7762 56.1057 20.4201 56.948 21.2408C57.7902 22.0616 58.4596 23.0427 58.9166 24.1263C59.3737 25.2099 59.6092 26.374 59.6092 27.5501C59.6092 28.7261 59.3737 29.8903 58.9166 30.9739C58.4596 32.0574 57.7902 33.0386 56.948 33.8593C56.1057 34.6801 55.1076 35.324 54.0126 35.7529C52.9176 36.1818 51.7478 36.3872 50.5721 36.3568H50.484L50.1817 36.3744H46.7617C47.3195 37.4723 47.6365 38.7111 47.6365 40.0233C47.6365 44.5148 44.2518 48.1138 39.7839 48.1138C35.3658 48.1138 32.6945 45.5275 31.9753 41.9403C31.8826 41.377 32.0124 40.7998 32.3371 40.3304C32.6619 39.861 33.1562 39.536 33.716 39.4241C34.2757 39.3122 34.857 39.422 35.3373 39.7304C35.8176 40.0388 36.1594 40.5217 36.2905 41.0772C36.6252 42.7358 37.6321 43.7104 39.7839 43.7104C41.7566 43.7104 43.2332 42.1428 43.2332 40.0233C43.2332 38.0037 41.5658 36.3539 39.4962 36.3539L2.83675 36.3744C2.27892 36.3742 1.74196 36.1623 1.33435 35.7815C0.926742 35.4007 0.678887 34.8793 0.640866 34.3228C0.602844 33.7663 0.777491 33.2161 1.12952 32.7833C1.48154 32.3506 1.9847 32.0676 2.53732 31.9916L2.83675 31.9711H39.1997L39.4962 31.9534C39.687 31.9534 39.8719 31.9593 40.0569 31.9711L50.2492 31.9769L50.4077 31.9593L50.9948 31.93C51.8147 31.8494 52.5956 31.5405 53.2487 31.0383C53.9017 30.5361 54.4008 29.8608 54.6892 29.0891C54.9776 28.3174 55.0437 27.4802 54.88 26.6728C54.7163 25.8654 54.3294 25.1201 53.7633 24.5216C53.1971 23.9231 52.4744 23.4955 51.6773 23.2873C50.8802 23.0791 50.0407 23.0986 49.2542 23.3438C48.4677 23.5889 47.7657 24.0498 47.2281 24.674C46.6904 25.2982 46.3387 26.0607 46.2128 26.8749L46.1335 27.5765C46.0353 28.1347 45.7256 28.6335 45.2689 28.9691C44.8122 29.3048 44.2436 29.4513 43.6816 29.3783C43.1195 29.3053 42.6073 29.0184 42.2514 28.5772C41.8956 28.1361 41.7236 27.5747 41.7713 27.0099C41.9096 24.7704 42.8973 22.668 44.5327 21.1318C46.1682 19.5956 48.3283 18.7413 50.5721 18.7434ZM21.2222 43.6957C20.833 43.6957 20.4596 43.8504 20.1844 44.1256C19.9091 44.4009 19.7545 44.7742 19.7545 45.1635C19.7545 45.5528 19.9091 45.9261 20.1844 46.2014C20.4596 46.4767 20.833 46.6313 21.2222 46.6313C21.6115 46.6313 21.9849 46.4767 22.2601 46.2014C22.5354 45.9261 22.69 45.5528 22.69 45.1635C22.69 44.7742 22.5354 44.4009 22.2601 44.1256C21.9849 43.8504 21.6115 43.6957 21.2222 43.6957ZM30.029 1.127C33.1432 1.11843 36.1333 2.34735 38.3415 4.5434C40.5496 6.73945 41.795 9.72275 41.8035 12.837C41.8121 15.9512 40.5832 18.9413 38.3871 21.1495C36.1911 23.3577 33.2078 24.603 30.0935 24.6116H2.89253C2.33819 24.6064 1.80621 24.3923 1.40284 24.012C0.999477 23.6317 0.754416 23.1132 0.716605 22.5602C0.678794 22.0071 0.851017 21.4601 1.19888 21.0285C1.54673 20.5968 2.04462 20.3123 2.5931 20.2317L2.89253 20.2112H30.029L30.5133 20.1935C31.9412 20.0991 33.3102 19.5893 34.4521 18.7269C35.5939 17.8645 36.4587 16.6871 36.9401 15.3395C37.4215 13.992 37.4985 12.5331 37.1615 11.1424C36.8246 9.75175 36.0884 8.48989 35.0436 7.51214C33.9988 6.53439 32.691 5.8834 31.281 5.63927C29.8711 5.39515 28.4205 5.56854 27.1078 6.1381C25.7951 6.70767 24.6775 7.64856 23.8926 8.84502C23.1077 10.0415 22.6897 11.4413 22.69 12.8722C22.69 13.4561 22.4581 14.0162 22.0452 14.429C21.6323 14.8419 21.0723 15.0739 20.4884 15.0739C19.9044 15.0739 19.3444 14.8419 18.9315 14.429C18.5186 14.0162 18.2867 13.4561 18.2867 12.8722C18.2867 9.75798 19.5238 6.77128 21.7259 4.56917C23.928 2.36706 26.9147 1.12993 30.029 1.12993V1.127ZM6.56199 4.06257C8.11912 4.06257 9.61247 4.68114 10.7135 5.78219C11.8146 6.88324 12.4331 8.37659 12.4331 9.93372C12.4331 11.4908 11.8146 12.9842 10.7135 14.0852C9.61247 15.1863 8.11912 15.8049 6.56199 15.8049C5.00487 15.8049 3.51152 15.1863 2.41047 14.0852C1.30941 12.9842 0.690847 11.4908 0.690847 9.93372C0.690847 8.37659 1.30941 6.88324 2.41047 5.78219C3.51152 4.68114 5.00487 4.06257 6.56199 4.06257ZM53.5135 1.12993C55.0707 1.12993 56.564 1.7485 57.6651 2.84955C58.7661 3.9506 59.3847 5.44395 59.3847 7.00108C59.3847 8.5582 58.7661 10.0516 57.6651 11.1526C56.564 12.2537 55.0707 12.8722 53.5135 12.8722C51.9564 12.8722 50.4631 12.2537 49.362 11.1526C48.261 10.0516 47.6424 8.5582 47.6424 7.00108C47.6424 5.44395 48.261 3.9506 49.362 2.84955C50.4631 1.7485 51.9564 1.12993 53.5135 1.12993ZM6.56199 8.46887C6.17271 8.46887 5.79937 8.62351 5.52411 8.89877C5.24885 9.17403 5.09421 9.54737 5.09421 9.93665C5.09421 10.3259 5.24885 10.6993 5.52411 10.9745C5.79937 11.2498 6.17271 11.4044 6.56199 11.4044C6.95127 11.4044 7.32461 11.2498 7.59987 10.9745C7.87514 10.6993 8.02978 10.3259 8.02978 9.93665C8.02978 9.54737 7.87514 9.17403 7.59987 8.89877C7.32461 8.62351 6.95127 8.46887 6.56199 8.46887ZM53.5135 5.53329C53.1243 5.53329 52.7509 5.68793 52.4757 5.9632C52.2004 6.23846 52.0458 6.6118 52.0458 7.00108C52.0458 7.39036 52.2004 7.7637 52.4757 8.03896C52.7509 8.31422 53.1243 8.46887 53.5135 8.46887C53.9028 8.46887 54.2762 8.31422 54.5514 8.03896C54.8267 7.7637 54.9813 7.39036 54.9813 7.00108C54.9813 6.6118 54.8267 6.23846 54.5514 5.9632C54.2762 5.68793 53.9028 5.53329 53.5135 5.53329Z" fill="#FFF744" stroke="#FFF744"/>
</svg>
