<svg width="91" height="64" viewBox="0 0 91 64" fill="none" xmlns="http://www.w3.org/2000/svg">
<path d="M2.65539 58.89C2.65685 60.1832 3.17062 61.4226 4.08498 62.337C4.99933 63.2514 6.23883 63.7659 7.532 63.7666H83.4428C84.7359 63.7659 85.9762 63.2514 86.8898 62.337C87.8041 61.4227 88.3186 60.1832 88.3194 58.89C88.9855 58.1984 1.96071 58.1926 2.65551 58.89H2.65539Z" fill="#FF5910"/>
<path d="M86.1231 12.627H63.3659C62.0749 12.6342 60.839 13.1509 59.9261 14.0638C59.0132 14.9767 58.4972 16.2125 58.4893 17.5036V19.1291H90.9996V17.5036C90.996 16.2112 90.4807 14.9732 89.5671 14.0595C88.6535 13.1452 87.4155 12.6307 86.1231 12.627L86.1231 12.627Z" fill="#FF5910"/>
<path d="M89.3748 52.0124H88.2369C88.1883 50.7279 88.0744 49.4442 87.9118 48.1765C88.726 48.5967 63.5996 48.3078 63.3674 48.3877H63.3681C61.2122 48.3869 59.1455 47.5299 57.6214 46.0061C56.0973 44.4822 55.2405 42.4154 55.2398 40.2601V17.5028C55.2362 15.6647 55.8617 13.881 57.0119 12.447C55.8363 12.1038 54.6426 11.8273 53.4358 11.6183C53.7928 10.6843 53.9749 9.69237 53.9721 8.69235C53.9742 6.18218 52.8639 3.80057 50.941 2.18806C49.0173 0.575597 46.4781 -0.101417 44.0072 0.338308C41.5362 0.778071 39.3875 2.29042 38.1386 4.4675C36.8904 6.64458 36.6705 9.26342 37.5384 11.6183C28.0248 13.4245 19.4038 18.402 13.0832 25.7378C6.76264 33.0744 3.11535 42.3363 2.73581 52.0118H1.59795C0.711178 52.0263 0 52.7498 0 53.6373C0 54.5248 0.711159 55.2483 1.59867 55.2628H4.16681C4.85839 55.2773 86.1059 55.2526 86.8082 55.2628H89.377C90.2667 55.2512 90.9815 54.527 90.9815 53.6373C90.9815 52.7476 90.266 52.0227 89.3763 52.0118L89.3748 52.0124ZM50.119 11.1143V11.1136C47.0407 10.7645 43.9325 10.7645 40.8535 11.1136C40.0045 9.49242 40.0647 7.54544 41.0124 5.98012C41.9595 4.4141 43.656 3.45769 45.4862 3.45769C47.3164 3.45769 49.013 4.41412 49.9608 5.98012C50.9078 7.54541 50.968 9.49235 50.119 11.1136V11.1143Z" fill="#FF5910"/>
<path d="M58.4893 40.2597C58.4929 41.5514 59.0081 42.7893 59.9217 43.7037C60.8354 44.6174 62.0741 45.1318 63.3658 45.1362H86.123C87.414 45.1268 88.6492 44.6101 89.5613 43.6979C90.4743 42.785 90.9909 41.55 90.9996 40.2596V22.3789H58.4893L58.4893 40.2597Z" fill="#FF5910"/>
</svg>
