<svg width="77" height="77" viewBox="0 0 77 77" fill="none" xmlns="http://www.w3.org/2000/svg">
<path d="M74.3254 31.3671L64.68 30.3947C64.356 30.3947 64.0315 30.1516 63.9506 29.827C63.5452 28.7732 63.1399 27.7198 62.6536 26.666C62.4914 26.342 62.5728 26.0175 62.7345 25.6935L68.8134 18.2367C69.7859 17.0211 69.705 15.3188 68.5703 14.1841L62.8159 8.34828C61.762 7.29443 59.9787 7.13273 58.7632 8.10517L51.3064 14.1841C51.0633 14.4272 50.6579 14.4272 50.334 14.265C49.2801 13.7787 48.3076 13.2925 47.1729 12.968C46.8489 12.8871 46.6053 12.5626 46.6053 12.2386L45.6328 2.67473C45.4705 1.13459 44.1742 0 42.634 0H34.3665C32.8264 0 31.5294 1.13471 31.3677 2.67473L30.3947 12.3201C30.3947 12.6441 30.1516 12.9686 29.827 13.0495C28.7732 13.4549 27.7198 13.8602 26.666 14.3464C26.342 14.5087 26.0175 14.4273 25.6935 14.2656L18.2367 8.18608C17.0211 7.21362 15.3188 7.29447 14.1841 8.42919L8.34829 14.1842C7.29443 15.2381 7.13273 17.0213 8.10517 18.2368L14.1841 25.6937C14.4272 25.9368 14.4272 26.3422 14.265 26.6661C13.7787 27.72 13.2925 28.6924 12.968 29.8272C12.8871 30.1511 12.5626 30.3948 12.2386 30.3948L2.67473 31.3673C1.13459 31.5295 0 32.8259 0 34.3661V42.6336C0 44.1737 1.13471 45.4707 2.67473 45.6324L12.3201 46.6054C12.6441 46.6054 12.9686 46.8485 13.0495 47.173C13.4549 48.2269 13.8602 49.2803 14.3464 50.3341C14.5087 50.6581 14.4273 50.9826 14.2656 51.3066L8.18608 58.7634C7.21362 59.9789 7.29447 61.6813 8.42919 62.816L14.265 68.6518C15.3188 69.7057 17.1021 69.8674 18.3176 68.8949L25.7744 62.816C26.0176 62.5729 26.4229 62.5729 26.7469 62.7351C27.8008 63.2214 28.7732 63.7076 29.9079 64.0321C30.2319 64.1129 30.4756 64.4375 30.4756 64.7614L31.448 74.3254C31.6103 75.8655 32.9067 77.0001 34.4468 77.0001H42.7144C44.2545 77.0001 45.5515 75.8654 45.7132 74.3254L46.6053 64.68C46.6053 64.356 46.8484 64.0315 47.173 63.9506C48.2268 63.5452 49.2802 63.1399 50.334 62.6536C50.658 62.4914 50.9825 62.5728 51.3065 62.7345L58.7633 68.8134C59.9789 69.7859 61.6812 69.705 62.8159 68.5703L68.6517 62.7345C69.7056 61.6807 69.8673 59.8974 68.8948 58.6819L62.8159 51.2251C62.5728 50.982 62.5728 50.5766 62.735 50.2526C63.2213 49.1988 63.7075 48.2263 64.032 47.0916C64.1129 46.7676 64.4374 46.5239 64.7614 46.5239L74.3253 45.5515C75.8654 45.3892 77 44.0928 77 42.5527V34.3665C77 32.8264 75.8654 31.5294 74.3254 31.3671ZM38.5001 56.0882C28.8547 56.0882 20.9117 48.2261 20.9117 38.4998C20.9117 28.8544 28.7738 20.9114 38.5001 20.9114C48.2264 20.9114 56.0885 28.8544 56.0885 38.4998C56.0885 48.1452 48.1455 56.0882 38.5001 56.0882Z" fill="#FF5910"/>
<path d="M38.5022 27.8006C32.5855 27.8006 27.803 32.5825 27.803 38.4998C27.803 44.4165 32.585 49.199 38.5022 49.199C44.4189 49.199 49.2015 44.4165 49.2015 38.4998C49.2015 32.5831 44.4189 27.8006 38.5022 27.8006Z" fill="#FF5910"/>
</svg>
