<svg width="51" height="67" viewBox="0 0 51 67" fill="none" xmlns="http://www.w3.org/2000/svg">
<path d="M4.62101 60.3067C3.92608 61.3486 4.20424 62.8078 5.31595 63.5028L9.13714 65.8648C10.2488 66.5597 11.6382 66.1425 12.2633 65.0312L22.1979 46.7596L18.5851 40.0898L4.62101 60.3067Z" fill="white"/>
<path d="M50.1937 6.74197L48.6653 5.83866C48.4569 5.69958 48.1787 5.76936 48.1094 5.97775L39.0777 19.942C38.8693 20.2895 38.4525 20.3588 38.1051 20.1504C37.8967 20.0113 37.6883 19.942 37.5492 19.8029C37.2018 19.5945 37.1325 19.1778 37.3408 18.8303C38.9386 16.0516 45.7474 4.44921 45.7474 4.44921C45.8865 4.24082 45.8167 3.96266 45.6084 3.82405L44.0799 2.92074C43.8715 2.78166 43.5934 2.85145 43.5241 3.05983L34.4923 17.0241C34.284 17.3716 33.8672 17.4409 33.5197 17.2325C33.3113 17.0934 33.103 16.9548 32.9639 16.885C32.6164 16.6766 32.5471 16.2599 32.7555 15.9124C34.3533 13.1337 41.1621 1.60076 41.1621 1.60076C41.3012 1.39238 41.2314 1.11421 41.023 0.975611L39.4946 0.0723008C39.2862 -0.0667835 39.008 0.00300176 38.9387 0.211385L29.7679 14.3841L28.6562 16.1903C27.5445 17.9965 27.1278 20.0807 27.5445 21.8175L28.5171 25.5689L26.7109 28.1393L29.7679 32.5856L32.3383 27.9309L36.0897 27.0973C37.8265 26.6806 39.5634 25.4298 40.6751 23.5543L41.7868 21.7481L50.3319 7.22803C50.4022 7.15921 50.4022 6.88153 50.1938 6.74244L50.1937 6.74197Z" fill="white"/>
<path d="M19.4881 24.1108C22.7533 21.6097 24.3511 18.4136 20.8082 12.6478C16.6395 5.83949 6.77445 -2.01119 2.32812 0.767518C-2.11821 3.54623 0.452202 15.7739 4.62076 22.5823C8.16381 28.3487 11.7072 28.3487 15.4586 26.6118L36.3008 64.892C36.9259 66.073 38.4543 66.4897 39.566 65.7953L43.5955 63.3634C44.7072 62.6685 45.0547 61.14 44.2904 60.0288L19.4881 24.1108Z" fill="white"/>
</svg>
