<svg width="99" height="76" viewBox="0 0 99 76" fill="none" xmlns="http://www.w3.org/2000/svg">
<path d="M96.2889 14.5753C96.2515 14.5379 96.2072 14.5119 96.1675 14.476C94.7407 13.0936 92.8335 12.3207 90.8469 12.3184H30.7959V7.69897C30.7936 5.65804 29.9817 3.70137 28.5381 2.25778C27.0945 0.814186 25.1377 0.00234635 23.0969 0H7.69897C5.65803 0.00229141 3.70137 0.814205 2.25778 2.25778C0.814184 3.70135 0.00234635 5.65823 0 7.69897V72.3703C0 73.1868 0.324617 73.9705 0.902035 74.548C1.47945 75.1254 2.2631 75.45 3.07965 75.45H44.6531C45.753 75.45 46.7703 74.8634 47.3203 73.9102C47.8704 72.957 47.8703 71.7838 47.3203 70.8306C46.7704 69.8774 45.7531 69.2908 44.6531 69.2908H30.795V36.9542H90.846C92.8869 36.9519 94.8436 36.1399 96.2872 34.6964C97.7308 33.2528 98.5426 31.2959 98.545 29.2552V20.0164C98.5427 18.0322 97.7705 16.1264 96.391 14.7004C96.3543 14.6599 96.3269 14.6133 96.2879 14.5743L96.2889 14.5753ZM64.4059 30.7959L76.7242 18.4775H88.0321L75.7137 30.7959H64.4059ZM44.3876 30.7959L56.7059 18.4775H68.0138L55.6954 30.7959H44.3876ZM18.476 27.9812V20.0173C18.4767 19.1672 19.1657 18.4783 20.0158 18.4775H27.9797L18.476 27.9812ZM24.6352 69.2907H6.15763V7.69896C6.15839 6.84885 6.84732 6.15992 7.69743 6.15916H23.0954C23.9455 6.15992 24.6344 6.84885 24.6352 7.69896V12.3183H20.0158C17.9748 12.3206 16.0182 13.1325 14.5746 14.5761C13.131 16.0197 12.3192 17.9766 12.3168 20.0173V29.2561C12.3191 31.297 13.131 33.2537 14.5746 34.6973C16.0182 36.1409 17.975 36.9527 20.0158 36.9551H24.6352V69.2907ZM24.3701 30.7949L36.6885 18.4765H47.9963L35.678 30.7949H24.3701ZM90.8462 30.7949H84.4221L92.386 22.831V29.2551C92.3853 30.1052 91.6963 30.7941 90.8462 30.7949Z" fill="#FF5910"/>
<path d="M15.3987 41.5734C14.5822 41.5734 13.7986 41.898 13.2211 42.4755C12.6436 43.0529 12.319 43.8365 12.319 44.6531V58.5112C12.319 59.6111 12.9056 60.6284 13.8588 61.1784C14.812 61.7285 15.9852 61.7284 16.9384 61.1784C17.8916 60.6285 18.4782 59.6112 18.4782 58.5112V44.6531C18.4782 43.8366 18.1536 43.0529 17.5762 42.4755C16.9988 41.898 16.2152 41.5734 15.3987 41.5734Z" fill="#FF5910"/>
</svg>
