<svg width="80" height="74" viewBox="0 0 80 74" fill="none" xmlns="http://www.w3.org/2000/svg">
<path d="M51.6904 49.0995C50.9231 50.9216 48.8129 51.7846 46.9435 51.0173L32.1748 44.7838C30.8804 44.2561 30.0173 42.9138 30.0173 41.4752L30.0167 21.6236C30.0167 19.6578 31.5991 18.0281 33.6122 18.0281C35.578 18.0281 37.2078 19.6585 37.2078 21.6236V39.0784L49.7705 44.4015C51.5945 45.1682 52.4577 47.2768 51.6904 49.0995Z" fill="#FF5910"/>
<path d="M47.328 1.53397C58.5963 4.84266 67.0836 13.042 71.1599 23.1594L72.3111 20.9535C73.2215 19.2272 75.4281 18.5078 77.1538 19.4668C78.9285 20.3773 79.5994 22.536 78.6877 24.3095L73.3174 34.571C72.5501 36.0576 70.8718 36.777 69.2894 36.3931C69.0013 36.3458 68.7144 36.2493 68.4736 36.105L58.1169 30.6867C56.3422 29.7763 55.6713 27.6175 56.583 25.8441C57.4934 24.1178 59.7 23.3985 61.4256 24.3101L64.5426 25.9405C61.2825 17.7412 54.4255 11.0765 45.2667 8.39133C42.4856 7.57552 39.6568 7.1928 36.923 7.1928C24.0722 7.1928 12.1806 15.6322 8.39208 28.5776C7.57627 31.3587 7.19355 34.1876 7.19355 36.9685C7.19355 49.8194 15.5844 61.6622 28.5784 65.4995C31.3595 66.3153 34.1883 66.698 36.9221 66.698C43.3477 66.698 49.5328 64.5878 54.5672 60.8485C59.6493 57.1086 63.5331 51.7861 65.4516 45.3125C65.9308 43.7301 67.3216 42.7231 68.904 42.7231C69.2394 42.7231 69.5749 42.7704 69.9109 42.8669C71.8287 43.4419 72.9315 45.4083 72.3565 47.3268C67.6096 63.4385 52.9375 73.8903 36.9216 73.8903C33.4692 73.8903 30.0174 73.4112 26.5164 72.4037C10.4534 67.6568 0 52.9359 0 36.9688C0 33.5164 0.479169 30.016 1.48664 26.5636C6.23351 10.4518 20.9057 0 36.9215 0C40.326 0 43.8257 0.47917 47.3268 1.53394L47.328 1.53397Z" fill="#FF5910"/>
</svg>
