<svg width="55" height="83" viewBox="0 0 55 83" fill="none" xmlns="http://www.w3.org/2000/svg">
<path d="M4.55469 77.9951H50.1092V82.3231H4.55469V77.9951Z" fill="white"/>
<path d="M50.111 76.6289H51.6871C52.477 76.6289 53.2352 76.315 53.7938 75.7563C54.3524 75.1977 54.6664 74.4395 54.6664 73.6496V3.30363C54.6639 2.5143 54.3493 1.75803 53.7913 1.19934C53.2326 0.641343 52.4764 0.326757 51.687 0.324219H2.97941C2.19008 0.326761 1.43381 0.641343 0.875118 1.19934C0.317123 1.75797 0.00253804 2.51424 0 3.30363V73.6496C0 74.4396 0.313952 75.1977 0.87258 75.7563C1.43121 76.315 2.1894 76.6289 2.97932 76.6289H50.111ZM41.4101 19.5214C41.4101 19.1439 41.7164 18.8382 42.0932 18.8382H49.2639C49.6414 18.8382 49.947 19.1439 49.947 19.5214V33.8259V33.8252C49.947 34.2027 49.6414 34.5091 49.2639 34.5091H42.0932C41.7164 34.5091 41.4101 34.2027 41.4101 33.8252V19.5214ZM41.2823 39.2823C41.2874 38.9067 41.5905 38.6036 41.9661 38.5991H49.1457H49.1451C49.5207 38.6036 49.8238 38.9067 49.8289 39.2823V45.25C49.8289 45.6275 49.5226 45.9332 49.1451 45.9332H41.9662C41.5886 45.9332 41.2823 45.6275 41.2823 45.25L41.2823 39.2823ZM5.56755 8.57857V8.57794C5.57264 8.20297 5.87578 7.89982 6.25074 7.89475H36.8357C37.2113 7.89983 37.5145 8.20297 37.5196 8.57794V55.6553C37.5145 56.0303 37.2113 56.3334 36.8357 56.3385H6.25074C5.87578 56.3334 5.57263 56.0303 5.56755 55.6553V8.57857ZM5.56755 62.3329C5.57264 61.9573 5.87578 61.6542 6.25074 61.6497H36.8357C37.2113 61.6542 37.5145 61.9573 37.5196 62.3329V70.0229V70.0222C37.5145 70.3978 37.2113 70.701 36.8357 70.706H6.25074C5.87578 70.701 5.57263 70.3978 5.56755 70.0222V62.3329Z" fill="white"/>
<path d="M11.7842 14.4466C11.7842 14.0691 12.0905 13.7635 12.468 13.7635H17.5427C17.7244 13.7609 17.8998 13.8321 18.0282 13.9605C18.1572 14.0895 18.2284 14.2642 18.2258 14.4466V18.8381H24.7673V14.4466C24.7673 14.0691 25.0736 13.7635 25.4505 13.7635H30.5258C30.7075 13.7609 30.8829 13.8321 31.0113 13.9605C31.1403 14.0895 31.2115 14.2642 31.209 14.4466V18.8381H36.1559V9.2627H6.9375V18.8381H11.7847L11.7842 14.4466Z" fill="white"/>
<path d="M11.8479 27.0835C11.8529 26.7079 12.1554 26.4047 12.531 26.4003H17.6146C17.9902 26.4047 18.2934 26.7079 18.2984 27.0835V31.4839H24.831V27.0835C24.8354 26.7079 25.1385 26.4047 25.5141 26.4003H30.5977C30.9733 26.4047 31.2764 26.7079 31.2809 27.0835V31.4839H36.1731L36.1738 20.2046H6.9375V31.4839H11.8483L11.8479 27.0835Z" fill="white"/>
<path d="M11.8488 39.7295C11.8488 39.352 12.1545 39.0463 12.532 39.0463H17.6066C17.9822 39.0514 18.2854 39.3545 18.2898 39.7295V44.1209H24.8313L24.8319 39.7295C24.8319 39.352 25.1376 39.0463 25.5151 39.0463H30.5897C30.9653 39.0514 31.2678 39.3545 31.2729 39.7295V44.1209H36.1201V32.8511H6.9375V44.1209H11.8483L11.8488 39.7295Z" fill="white"/>
<path d="M11.8479 50.4352C11.8529 50.0596 12.1554 49.7571 12.531 49.752H17.6146C17.9902 49.7571 18.2934 50.0596 18.2984 50.4352V54.9906H24.831V50.4352C24.8354 50.0596 25.1385 49.7571 25.5141 49.752H30.5977C30.9733 49.7571 31.2764 50.0596 31.2809 50.4352V54.9906H36.1731L36.1738 45.4883H6.9375V54.9906H11.8483L11.8479 50.4352Z" fill="white"/>
<path d="M6.9375 62.981H36.1559V69.3038H6.9375V62.981Z" fill="white"/>
<path d="M13.25 40.4131H16.9583V44.1214H13.25V40.4131Z" fill="white"/>
<path d="M26.2344 40.4131H29.9427V44.1214H26.2344V40.4131Z" fill="white"/>
<path d="M13.1953 27.7666H16.9036V31.4749H13.1953V27.7666Z" fill="white"/>
<path d="M26.1797 27.7666H29.888V31.4749H26.1797V27.7666Z" fill="white"/>
<path d="M13.1484 15.1304H16.8567V18.8387H13.1484V15.1304Z" fill="white"/>
<path d="M26.1328 15.1304H29.8411V18.8387H26.1328V15.1304Z" fill="white"/>
<path d="M13.1953 51.1177H16.9036V54.826H13.1953V51.1177Z" fill="white"/>
<path d="M26.1797 51.1177H29.888V54.826H26.1797V51.1177Z" fill="white"/>
<path d="M42.7734 20.2046H48.586V33.1421H42.7734V20.2046Z" fill="white"/>
<path d="M42.6484 39.9673H48.461V44.5685H42.6484V39.9673Z" fill="white"/>
</svg>
