<svg width="55" height="82" viewBox="0 0 55 82" fill="none" xmlns="http://www.w3.org/2000/svg">
<path d="M4.55664 77.6709H50.1112V81.9989H4.55664V77.6709Z" fill="#FF5910"/>
<path d="M50.111 76.3047H51.6871C52.477 76.3047 53.2352 75.9907 53.7938 75.4321C54.3524 74.8735 54.6664 74.1153 54.6664 73.3254V2.97941C54.6639 2.19008 54.3493 1.43381 53.7913 0.875119C53.2326 0.317124 52.4764 0.00253804 51.687 0H2.97941C2.19008 0.00254211 1.43381 0.317124 0.875118 0.875119C0.317123 1.43375 0.00253804 2.19002 0 2.97941V73.3254C0 74.1154 0.313952 74.8735 0.87258 75.4321C1.43121 75.9907 2.1894 76.3047 2.97932 76.3047H50.111ZM41.4101 19.1972C41.4101 18.8197 41.7164 18.514 42.0932 18.514H49.2639C49.6414 18.514 49.947 18.8197 49.947 19.1972V33.5017V33.501C49.947 33.8785 49.6414 34.1848 49.2639 34.1848H42.0932C41.7164 34.1848 41.4101 33.8785 41.4101 33.501V19.1972ZM41.2823 38.9581C41.2874 38.5825 41.5905 38.2794 41.9661 38.2749H49.1457H49.1451C49.5207 38.2794 49.8238 38.5825 49.8289 38.9581V44.9258C49.8289 45.3033 49.5226 45.6089 49.1451 45.6089H41.9662C41.5887 45.6089 41.2823 45.3033 41.2823 44.9258L41.2823 38.9581ZM5.56755 8.25435V8.25372C5.57264 7.87876 5.87578 7.57561 6.25074 7.57053H36.8357C37.2113 7.57561 37.5145 7.87876 37.5196 8.25372V55.3311C37.5145 55.706 37.2113 56.0092 36.8357 56.0143H6.25074C5.87578 56.0092 5.57263 55.706 5.56755 55.3311V8.25435ZM5.56755 62.0087C5.57264 61.6331 5.87578 61.33 6.25074 61.3255H36.8357C37.2113 61.33 37.5145 61.6331 37.5196 62.0087V69.6986V69.698C37.5145 70.0736 37.2113 70.3768 36.8357 70.3818H6.25074C5.87578 70.3767 5.57263 70.0736 5.56755 69.698V62.0087Z" fill="#FF5910"/>
<path d="M11.7823 14.1224C11.7823 13.7449 12.0886 13.4392 12.4661 13.4392H17.5407C17.7225 13.4367 17.8979 13.5079 18.0263 13.6362C18.1553 13.7653 18.2264 13.94 18.2239 14.1224V18.5139H24.7654V14.1224C24.7654 13.7449 25.0717 13.4392 25.4486 13.4392H30.5238C30.7056 13.4367 30.881 13.5079 31.0094 13.6362C31.1384 13.7653 31.2096 13.94 31.207 14.1224V18.5139H36.1539V8.93848H6.93555V18.5139H11.7827L11.7823 14.1224Z" fill="#FF5910"/>
<path d="M11.8449 26.7598C11.85 26.3842 12.1525 26.081 12.5281 26.0766H17.6117C17.9873 26.081 18.2904 26.3842 18.2955 26.7598V31.1602H24.828V26.7598C24.8325 26.3842 25.1356 26.081 25.5112 26.0766H30.5948C30.9704 26.081 31.2735 26.3842 31.278 26.7598V31.1602H36.1702L36.1708 19.8809H6.93457V31.1602H11.8454L11.8449 26.7598Z" fill="#FF5910"/>
<path d="M11.8449 39.4048C11.8449 39.0273 12.1506 38.7216 12.5281 38.7216H17.6027C17.9783 38.7267 18.2815 39.0298 18.2859 39.4048V43.7962H24.8274L24.828 39.4048C24.828 39.0273 25.1337 38.7216 25.5112 38.7216H30.5858C30.9614 38.7267 31.2639 39.0298 31.269 39.4048V43.7962H36.1162V32.5264H6.93359V43.7962H11.8444L11.8449 39.4048Z" fill="#FF5910"/>
<path d="M11.8449 50.111C11.85 49.7354 12.1525 49.4329 12.5281 49.4278H17.6117C17.9873 49.4329 18.2904 49.7354 18.2955 50.111V54.6664H24.828V50.111C24.8325 49.7354 25.1356 49.4329 25.5112 49.4278H30.5948C30.9704 49.4329 31.2735 49.7354 31.278 50.111V54.6664H36.1702L36.1708 45.1641H6.93457V54.6664H11.8454L11.8449 50.111Z" fill="#FF5910"/>
<path d="M6.93555 62.6562H36.1539V68.9791H6.93555V62.6562Z" fill="#FF5910"/>
<path d="M13.249 40.0889H16.9573V43.7972H13.249V40.0889Z" fill="#FF5910"/>
<path d="M26.2305 40.0889H29.9388V43.7972H26.2305V40.0889Z" fill="#FF5910"/>
<path d="M13.1943 27.4424H16.9026V31.1507H13.1943V27.4424Z" fill="#FF5910"/>
<path d="M26.1768 27.4424H29.8851V31.1507H26.1768V27.4424Z" fill="#FF5910"/>
<path d="M13.1484 14.8057H16.8567V18.514H13.1484V14.8057Z" fill="#FF5910"/>
<path d="M26.1309 14.8057H29.8392V18.514H26.1309V14.8057Z" fill="#FF5910"/>
<path d="M13.1943 50.7939H16.9026V54.5022H13.1943V50.7939Z" fill="#FF5910"/>
<path d="M26.1768 50.7939H29.8851V54.5022H26.1768V50.7939Z" fill="#FF5910"/>
<path d="M42.7764 19.8809H48.589V32.8184H42.7764V19.8809Z" fill="#FF5910"/>
<path d="M42.6494 39.6436H48.462V44.2447H42.6494V39.6436Z" fill="#FF5910"/>
</svg>
