<svg width="93" height="62" viewBox="0 0 93 62" fill="none" xmlns="http://www.w3.org/2000/svg">
<path d="M65.3138 22.8824C64.1792 22.7425 63.0349 22.6877 61.8913 22.7199H59.5938V29.4025H62.1949C63.4599 29.4752 64.729 29.3511 65.9562 29.035C66.5582 28.8122 67.0765 28.4084 67.4406 27.8798C67.8039 27.3388 67.9925 26.6998 67.9794 26.0484C68.0082 25.2709 67.7388 24.5113 67.2266 23.9257C66.7248 23.3724 66.0508 23.0044 65.3138 22.8824Z" fill="#FF5910"/>
<path d="M92.2128 18.5222V0H0V18.5222C4.28435 18.5222 8.24383 20.8087 10.3864 24.5193C12.5289 28.2299 12.5289 32.8015 10.3864 36.512C8.24383 40.2226 4.28435 42.509 0 42.509V61.0312L92.2128 61.0306V42.5083C87.9284 42.5083 83.9689 40.2219 81.8264 36.5113C79.6839 32.8007 79.6839 28.229 81.8264 24.5186C83.9689 20.808 87.9284 18.5222 92.2128 18.5222ZM20.8829 49.7396C20.0527 50.1941 19.3691 50.877 18.9152 51.708L17.0325 55.1478L15.1497 51.708C14.6944 50.8777 14.0116 50.1955 13.1813 49.7396L9.73677 47.8568L13.1813 45.974C14.0116 45.5174 14.6944 44.8332 15.1497 44.0023L17.0325 40.5625L18.9152 44.0016C19.3691 44.8339 20.052 45.5182 20.8829 45.974L24.3274 47.8568L20.8829 49.7396ZM39.1489 21.8851L32.6966 39.9019C32.3599 40.8398 31.6504 41.5974 30.7357 41.993C29.8211 42.3886 28.7831 42.3879 27.8692 41.9909C26.9546 41.594 26.2457 40.8364 25.9104 39.8977L19.4711 21.8845C19.2133 21.1632 19.3223 20.3617 19.7632 19.7351C20.204 19.1091 20.9218 18.7362 21.6877 18.7355H21.82C22.8265 18.7362 23.7219 19.3752 24.0496 20.3268L29.4666 36.1664L34.6991 20.3528C35.0611 19.2551 36.1649 18.5825 37.3057 18.7642C38.4465 18.9466 39.2871 19.9291 39.2899 21.0844C39.2885 21.3572 39.2408 21.628 39.1489 21.8851ZM49.4433 39.9107C49.4433 41.225 48.3779 42.2898 47.0642 42.2898C45.7505 42.2898 44.6851 41.225 44.6851 39.9107V21.1146C44.6851 19.801 45.7505 18.7362 47.0642 18.7362C48.3778 18.7362 49.4433 19.8009 49.4433 21.1146V39.9107ZM72.0937 29.6293C71.6234 30.5528 70.9378 31.3495 70.0951 31.9528C69.3539 32.4834 68.5148 32.8626 67.6263 33.0696C65.9973 33.3308 64.3476 33.444 62.6974 33.4076H59.5957V39.9107C59.5957 41.225 58.5303 42.2898 57.2166 42.2898C55.9029 42.2898 54.8374 41.2251 54.8374 39.9107V18.7364H62.4703C64.3632 18.661 66.2583 18.7796 68.1272 19.0915C69.4868 19.4508 70.6825 20.2646 71.5155 21.3973C72.4726 22.7294 72.9539 24.3454 72.8806 25.9841C72.9224 27.2456 72.6525 28.4979 72.0937 29.6293ZM79.0334 15.056C78.2025 15.5098 77.5196 16.1941 77.065 17.0244L75.1823 20.4641L73.2995 17.0244C72.8456 16.1941 72.1627 15.5105 71.3318 15.0567L67.8873 13.1739L71.3318 11.2871C72.1634 10.8339 72.847 10.1503 73.2995 9.31867L75.1823 5.8789L77.065 9.31867C77.5182 10.1503 78.2018 10.8339 79.0334 11.2871L82.4779 13.1739L79.0334 15.056Z" fill="#FF5910"/>
</svg>
