<svg width="93" height="62" viewBox="0 0 93 62" fill="none" xmlns="http://www.w3.org/2000/svg">
<path d="M66.0345 23.6324C64.8999 23.4925 63.7556 23.4377 62.612 23.4699H60.3145V30.1525H62.9156C64.1806 30.2252 65.4497 30.1011 66.6769 29.785C67.2789 29.5622 67.7972 29.1584 68.1613 28.6298C68.5246 28.0888 68.7132 27.4498 68.7002 26.7984C68.7289 26.0209 68.4595 25.2613 67.9473 24.6757C67.4455 24.1225 66.7715 23.7543 66.0346 23.6322L66.0345 23.6324Z" fill="#FF5910"/>
<path d="M92.9315 19.2722V0.75H0.71875V19.2722C5.0031 19.2722 8.96258 21.5587 11.1051 25.2693C13.2476 28.9799 13.2476 33.5515 11.1051 37.262C8.96258 40.9726 5.0031 43.259 0.71875 43.259V61.7812L92.9315 61.7806V43.2583C88.6472 43.2583 84.6877 40.9719 82.5452 37.2613C80.4026 33.5507 80.4026 28.979 82.5452 25.2686C84.6877 21.558 88.6472 19.2716 92.9315 19.2716V19.2722ZM21.6017 50.4896C20.7714 50.9441 20.0879 51.627 19.634 52.458L17.7512 55.8978L15.8684 52.458C15.4132 51.6277 14.7303 50.9455 13.9 50.4896L10.4555 48.6068L13.9 46.724C14.7303 46.2674 15.4132 45.5832 15.8684 44.7523L17.7512 41.3125L19.634 44.7516C20.0878 45.5839 20.7707 46.2682 21.6017 46.724L25.0462 48.6068L21.6017 50.4896ZM39.8677 22.6351L33.4153 40.6519C33.0787 41.5898 32.3691 42.3474 31.4545 42.743C30.5399 43.1386 29.5018 43.1379 28.5879 42.7409C27.6733 42.344 26.9644 41.5864 26.6292 40.6477L20.1898 22.6345C19.932 21.9132 20.0411 21.1117 20.4819 20.4851C20.9228 19.8591 21.6406 19.4862 22.4064 19.4855H22.5388C23.5452 19.4862 24.4407 20.1252 24.7684 21.0768L30.1853 36.9164L35.4178 21.1028H35.4171C35.7791 20.0051 36.8836 19.3325 38.0244 19.5142C39.1653 19.6966 40.0058 20.6791 40.0086 21.8344C40.0073 22.1072 39.9593 22.3774 39.8674 22.6345L39.8677 22.6351ZM50.1621 40.6607C50.1621 41.975 49.0966 43.0398 47.7829 43.0398C46.4693 43.0398 45.4038 41.975 45.4038 40.6607V21.8646C45.4038 20.551 46.4692 19.4862 47.7829 19.4862C49.0966 19.4862 50.1621 20.5509 50.1621 21.8646V40.6607ZM72.8124 30.3793C72.3421 31.3028 71.6565 32.0995 70.8138 32.7028C70.0727 33.2334 69.2335 33.6126 68.345 33.8196C66.716 34.0808 65.0664 34.194 63.4162 34.1576H60.3144V40.6607C60.3144 41.975 59.249 43.0398 57.9353 43.0398C56.6216 43.0398 55.5562 41.9751 55.5562 40.6607V19.4864H63.1891C65.082 19.411 66.9771 19.5296 68.8459 19.8415C70.2055 20.2008 71.4013 21.0146 72.2343 22.1473C73.1914 23.4794 73.6727 25.0954 73.5993 26.7341C73.6412 27.9956 73.371 29.2481 72.8122 30.3795L72.8124 30.3793ZM79.7522 15.806V15.8067C78.9212 16.2605 78.2383 16.9441 77.7838 17.7744L75.901 21.2141L74.0182 17.7744C73.5644 16.9441 72.8815 16.2605 72.0505 15.8067L68.606 13.9239L72.0505 12.0371C72.8822 11.5839 73.5657 10.9003 74.0182 10.0687L75.901 6.6289L77.7838 10.0687C78.2369 10.9003 78.9205 11.5839 79.7522 12.0371L83.1967 13.9239L79.7522 15.806Z" fill="#FF5910"/>
</svg>
