<svg width="61" height="61" viewBox="0 0 61 61" fill="none" xmlns="http://www.w3.org/2000/svg">
<path d="M27.3485 29.3611C27.2451 29.8158 27.1934 30.286 27.1934 30.7717C27.1934 31.2367 27.2451 31.6914 27.3485 32.1358C27.4621 32.5698 27.638 32.9625 27.8758 33.3138C28.113 33.6652 28.4233 33.9494 28.8055 34.1664C29.1878 34.3731 29.6532 34.4764 30.2007 34.4764C30.7482 34.4764 31.2137 34.3731 31.5959 34.1664C31.9781 33.9494 32.2885 33.6652 32.5256 33.3138C32.7634 32.9625 32.9343 32.5698 33.0371 32.1358C33.1513 31.6914 33.2081 31.2367 33.2081 30.7717C33.2081 30.286 33.1513 29.8158 33.0371 29.3611C32.9343 28.9064 32.7634 28.5034 32.5256 28.152C32.2885 27.7904 31.9781 27.5062 31.5959 27.2995C31.2137 27.0825 30.7482 26.974 30.2007 26.974C29.6532 26.974 29.1878 27.0825 28.8055 27.2995C28.4233 27.5062 28.113 27.7904 27.8758 28.152C27.638 28.5034 27.4621 28.9064 27.3485 29.3611Z" fill="#FFF744"/>
<path fill-rule="evenodd" clip-rule="evenodd" d="M30.5003 0.359375C47.1353 0.359375 60.6406 13.8645 60.6406 30.5C60.6406 47.1355 47.1353 60.6406 30.5003 60.6406C13.8647 60.6406 0.359375 47.1355 0.359375 30.5C0.359375 13.8645 13.8647 0.359375 30.5003 0.359375ZM24.2964 25.1914L20.623 36.259H17.8793L14.2986 25.1914H16.7944L19.2587 32.9728H19.2896L21.7854 25.1914H24.2964ZM25.1321 33.0348C24.8836 32.3321 24.76 31.5777 24.76 30.7717C24.76 29.945 24.8836 29.1803 25.1321 28.4776C25.38 27.7645 25.7364 27.1445 26.2012 26.6175C26.6667 26.0904 27.235 25.6771 27.9067 25.3774C28.5886 25.0777 29.3536 24.9279 30.2007 24.9279C31.0585 24.9279 31.823 25.0777 32.4947 25.3774C33.1664 25.6771 33.7347 26.0904 34.2002 26.6175C34.6651 27.1445 35.0214 27.7645 35.2693 28.4776C35.5178 29.1803 35.6414 29.945 35.6414 30.7717C35.6414 31.5777 35.5178 32.3321 35.2693 33.0348C35.0214 33.7272 34.6651 34.3317 34.2002 34.8484C33.7347 35.3651 33.1664 35.7733 32.4947 36.073C31.823 36.3624 31.0585 36.507 30.2007 36.507C29.3536 36.507 28.5886 36.3624 27.9067 36.073C27.235 35.7733 26.6667 35.3651 26.2012 34.8484C25.7364 34.3317 25.38 33.7272 25.1321 33.0348ZM47.0395 28.9116H44.6837C44.642 28.6326 44.5493 28.3794 44.4049 28.152C44.2598 27.9144 44.0788 27.7077 43.8618 27.532C43.6448 27.3563 43.397 27.222 43.1182 27.129C42.8495 27.0257 42.565 26.974 42.2654 26.974C41.7179 26.974 41.2525 27.0825 40.8702 27.2995C40.488 27.5062 40.1777 27.7904 39.9405 28.152C39.7027 28.5034 39.5268 28.9064 39.4132 29.3611C39.3098 29.8158 39.2581 30.286 39.2581 30.7717C39.2581 31.2367 39.3098 31.6914 39.4132 32.1358C39.5268 32.5698 39.7027 32.9625 39.9405 33.3138C40.1777 33.6652 40.488 33.9494 40.8702 34.1664C41.2525 34.3731 41.7179 34.4764 42.2654 34.4764C43.0097 34.4764 43.5881 34.2491 44.0018 33.7944C44.4251 33.3397 44.6837 32.7403 44.7764 31.9963H47.1328C47.071 32.6886 46.9108 33.3138 46.6522 33.8719C46.3936 34.4299 46.053 34.9053 45.6291 35.298C45.2053 35.6907 44.7095 35.9903 44.1412 36.197C43.5729 36.4037 42.9472 36.507 42.2654 36.507C41.4183 36.507 40.6533 36.3624 39.9714 36.073C39.2997 35.7733 38.7314 35.3651 38.2659 34.8484C37.8011 34.3317 37.4447 33.7272 37.1968 33.0348C36.9483 32.3321 36.8247 31.5777 36.8247 30.7717C36.8247 29.945 36.9483 29.1803 37.1968 28.4776C37.4447 27.7645 37.8011 27.1445 38.2659 26.6175C38.7314 26.0904 39.2997 25.6771 39.9714 25.3774C40.6533 25.0777 41.4183 24.9279 42.2654 24.9279C42.8753 24.9279 43.4487 25.0157 43.9861 25.1914C44.5335 25.3671 45.0192 25.6254 45.4431 25.9664C45.877 26.2971 46.234 26.7105 46.5128 27.2065C46.7916 27.7025 46.9675 28.2709 47.0395 28.9116Z" fill="#FFF744"/>
</svg>
