<svg width="71" height="57" viewBox="0 0 71 57" fill="none" xmlns="http://www.w3.org/2000/svg">
<path d="M70.2 26.5784C71.2667 27.6401 71.2667 29.3606 70.2 30.4214C69.1333 31.4831 67.4046 31.4831 66.3389 30.4214C62.4777 26.5784 57.3431 24.4625 51.885 24.4625C46.4247 24.4625 41.2913 26.5783 37.4312 30.4214C32.5387 35.2909 26.0346 37.9736 19.1162 37.9736C12.1988 37.9736 5.69275 35.2909 0.801252 30.4214C-0.265457 29.3597 -0.265457 27.6391 0.801252 26.5784C1.86796 25.5167 3.59664 25.5167 4.66237 26.5784C8.52349 30.4214 13.6581 32.5372 19.1162 32.5372C24.5765 32.5372 29.7099 30.4214 33.57 26.5784C38.4625 21.7089 44.9666 19.0261 51.885 19.0261C58.8014 19.0261 65.3075 21.7089 70.2 26.5784ZM19.115 18.9475C26.0334 18.9475 32.5384 16.2647 37.4299 11.3952C41.2901 7.55226 46.4237 5.43638 51.8838 5.43638C57.3431 5.43638 62.4765 7.55221 66.3376 11.3952C67.4043 12.4569 69.133 12.4569 70.1987 11.3952C71.2655 10.3335 71.2655 8.61298 70.1987 7.55226C65.3063 2.68276 58.8002 0 51.8838 0C44.9654 0 38.4603 2.68276 33.5688 7.55226C29.7087 11.3952 24.5751 13.5111 19.115 13.5111C13.6556 13.5111 8.52227 11.3953 4.66115 7.55226C3.59444 6.49056 1.86576 6.49056 0.800031 7.55226C-0.266677 8.61395 -0.266677 10.3345 0.800031 11.3952C5.69153 16.2647 12.1976 18.9475 19.115 18.9475ZM51.8843 38.0525C44.9659 38.0525 38.4608 40.7353 33.5693 45.6048C29.7092 49.4477 24.5756 51.5636 19.1155 51.5636C13.6561 51.5636 8.52276 49.4478 4.66164 45.6048C3.59493 44.5431 1.86625 44.5431 0.800519 45.6048C-0.26619 46.6665 -0.26619 48.387 0.800519 49.4477C5.69299 54.3172 12.1991 57 19.1155 57C26.0338 57 32.5389 54.3172 37.4304 49.4477C41.2906 45.6048 46.4242 43.4889 51.8843 43.4889C57.3436 43.4889 62.477 45.6047 66.3381 49.4477C67.4048 50.5094 69.1335 50.5094 70.1992 49.4477C71.2659 48.386 71.2659 46.6655 70.1992 45.6048C65.3077 40.7353 58.8017 38.0525 51.8843 38.0525Z" fill="#FF5910"/>
</svg>
