<svg width="66" height="46" viewBox="0 0 66 46" fill="none" xmlns="http://www.w3.org/2000/svg">
<path d="M13.4406 29.5406C12.5781 28.6781 12.1708 27.6479 12.2188 26.45C12.2667 25.2521 12.7458 24.3177 13.6562 23.6469C16.2917 21.6344 19.227 20.0646 22.4624 18.9376C25.6958 17.8125 29.1094 17.25 32.7031 17.25C36.3448 17.25 39.7833 17.825 43.0186 18.975C46.252 20.125 49.1865 21.7302 51.8219 23.7906C52.7323 24.4615 53.2 25.3843 53.2249 26.5592C53.2479 27.7323 52.8281 28.75 51.9656 29.6125C51.151 30.4271 50.1572 30.8468 48.9842 30.8717C47.8093 30.8948 46.7187 30.5708 45.7125 29.9C43.8437 28.6062 41.8197 27.6125 39.6405 26.9186C37.4593 26.2229 35.1469 25.875 32.7031 25.875C30.2594 25.875 27.9479 26.2344 25.7686 26.9531C23.5875 27.6719 21.5865 28.6542 19.7656 29.9C18.7115 30.6187 17.5979 30.9427 16.4249 30.8717C15.25 30.7989 14.2552 30.3552 13.4406 29.5406ZM1.22187 17.3938C0.407292 16.5792 0 15.5844 0 14.4095C0 13.2365 0.43125 12.2667 1.29375 11.5C5.55833 7.90625 10.35 5.09067 15.6687 3.05325C20.9875 1.01775 26.6656 0 32.7031 0C38.7406 0 44.4188 1.01775 49.7375 3.05325C55.0562 5.09067 59.8479 7.90625 64.1125 11.5C64.975 12.2667 65.4187 13.225 65.4436 14.375C65.4666 15.525 65.0469 16.5313 64.1844 17.3938C63.3698 18.2083 62.376 18.6396 61.203 18.6875C60.0281 18.7354 58.9615 18.376 58.0031 17.6094C54.5052 14.7823 50.6125 12.5781 46.3249 10.9969C42.0354 9.41562 37.4948 8.625 32.7031 8.625C27.9115 8.625 23.3718 9.41562 19.0842 10.9969C14.7948 12.5781 10.901 14.7823 7.40313 17.6094C6.44479 18.376 5.37913 18.7354 4.20613 18.6875C3.03121 18.6396 2.03646 18.2083 1.22187 17.3938ZM32.7031 46C31.074 46 29.7083 45.449 28.6062 44.3469C27.5042 43.2448 26.9531 41.8792 26.9531 40.25C26.9531 38.6208 27.5042 37.2552 28.6062 36.1531C29.7083 35.051 31.074 34.5 32.7031 34.5C34.3323 34.5 35.6979 35.051 36.8 36.1531C37.9021 37.2552 38.4531 38.6208 38.4531 40.25C38.4531 41.8792 37.9021 43.2448 36.8 44.3469C35.6979 45.449 34.3323 46 32.7031 46Z" fill="#FF5910"/>
</svg>
