<svg width="70" height="54" viewBox="0 0 70 54" fill="none" xmlns="http://www.w3.org/2000/svg">
<path d="M34.8063 2.68717e-06C46.6062 -0.00384123 58.0358 4.11637 67.1198 11.6485C69.9095 13.9216 70.4467 16.4288 68.6626 18.5849C66.8785 20.7408 64.5294 20.5895 61.7743 18.4263C45.0985 5.07654 25.3278 5.11098 8.62373 18.5296C6.04738 20.5962 3.45074 20.5962 1.77676 18.4537C0.103273 16.3117 0.558246 14.1211 3.12736 11.9652C11.9967 4.45225 23.1846 0.226277 34.8061 7.0256e-05L34.8063 2.68717e-06Z" fill="#FF5910"/>
<path d="M36.1704 14.0189C44.2171 14.2289 51.9298 17.279 57.9448 22.6293C60.4865 24.8678 60.8931 27.403 59.1018 29.4142C57.4076 31.343 54.8932 31.2396 52.4754 29.2216C41.6058 20.2047 29.2889 20.198 18.2676 29.2216C15.6225 31.3429 13.1359 31.3429 11.4 29.2283C9.76768 27.2103 10.181 24.8957 12.6055 22.6845C18.5574 17.2632 27.2013 13.9776 36.1709 14.0189L36.1704 14.0189Z" fill="#FF5910"/>
<path d="M35.3158 27.9389C40.3744 28.0999 45.2205 30.0079 49.0309 33.3396C51.2008 35.2683 51.4693 37.8167 49.8232 39.6975C48.2803 41.4609 45.7867 41.5915 43.624 40.0281C37.1009 35.3649 33.5808 35.3577 27.0158 39.9935C24.7566 41.5916 22.3733 41.4676 20.8166 39.6836C19.1633 37.7616 19.4731 35.2198 21.595 33.2984C24.9627 30.2261 30.8934 27.8977 35.3162 27.939L35.3158 27.9389Z" fill="#FF5910"/>
<path d="M35.2005 42.8545C36.5694 42.8488 37.8854 43.3816 38.8652 44.3379C39.8444 45.294 40.4085 46.5971 40.4359 47.9655C40.3826 49.2816 39.8411 50.5304 38.9162 51.4679C37.9913 52.4053 36.7502 52.9646 35.435 53.0352C34.0666 53.0429 32.7529 52.5009 31.7882 51.5308C30.8235 50.5608 30.2886 49.2442 30.303 47.8762C30.2905 46.5616 30.7984 45.2956 31.7161 44.3547C32.6338 43.4139 33.8865 42.8743 35.2006 42.8547L35.2005 42.8545Z" fill="#FF5910"/>
</svg>
