<svg width="146" height="171" viewBox="0 0 146 171" fill="none" xmlns="http://www.w3.org/2000/svg">
<g filter="url(#filter0_d_688_60416)">
<g filter="url(#filter1_d_688_60416)">
<g filter="url(#filter2_f_688_60416)">
<mask id="path-1-outside-1_688_60416" maskUnits="userSpaceOnUse" x="5" y="4" width="116" height="139" fill="black">
<rect fill="white" x="5" y="4" width="116" height="139"/>
<path fill-rule="evenodd" clip-rule="evenodd" d="M12 62.0194C12 33.8869 34.8869 11 63 11C91.1326 11 114 33.8869 114 62.0194C114 82.3417 102.09 100.527 83.5749 108.687L66.1669 133.691C65.448 134.721 64.2629 135.343 63.0194 135.343H63C61.7566 135.343 60.5714 134.721 59.8526 133.691L42.4251 108.687C23.9097 100.527 12 82.3417 12 62.0194Z"/>
</mask>
<path d="M83.5749 108.687L80.7519 102.281L78.9531 103.074L77.83 104.687L83.5749 108.687ZM66.1669 133.691L71.9066 137.698L71.9117 137.691L66.1669 133.691ZM59.8526 133.691L54.1098 137.694L54.1129 137.698L59.8526 133.691ZM42.4251 108.687L48.1679 104.684L47.0451 103.073L45.2481 102.281L42.4251 108.687ZM63 4C31.0191 4 5 30.0226 5 62.0194H19C19 37.7511 38.7546 18 63 18V4ZM121 62.0194C121 30.0243 95.002 4 63 4V18C87.2631 18 107 37.7494 107 62.0194H121ZM86.3979 115.092C107.447 105.816 121 85.1214 121 62.0194H107C107 79.5621 96.7336 95.238 80.7519 102.281L86.3979 115.092ZM71.9117 137.691L89.3197 112.686L77.83 104.687L60.422 129.692L71.9117 137.691ZM63.0194 142.343C66.5766 142.343 69.8936 140.582 71.9066 137.698L60.4271 129.684C61.0024 128.86 61.9491 128.343 63.0194 128.343V142.343ZM63 142.343H63.0194V128.343H63V142.343ZM54.1129 137.698C56.1259 140.582 59.4429 142.343 63 142.343V128.343C64.0703 128.343 65.017 128.86 65.5923 129.684L54.1129 137.698ZM36.6824 112.689L54.1098 137.694L65.5954 129.689L48.1679 104.684L36.6824 112.689ZM5 62.0194C5 85.1214 18.553 105.816 39.6021 115.092L45.2481 102.281C29.2664 95.238 19 79.5621 19 62.0194H5Z" fill="#2BC512" fill-opacity="0.2" mask="url(#path-1-outside-1_688_60416)"/>
</g>
<mask id="path-3-outside-2_688_60416" maskUnits="userSpaceOnUse" x="5" y="4" width="116" height="139" fill="black">
<rect fill="white" x="5" y="4" width="116" height="139"/>
<path fill-rule="evenodd" clip-rule="evenodd" d="M12 62.0194C12 33.8869 34.8869 11 63 11C91.1326 11 114 33.8869 114 62.0194C114 82.3417 102.09 100.527 83.5749 108.687L66.1669 133.691C65.448 134.721 64.2629 135.343 63.0194 135.343H63C61.7566 135.343 60.5714 134.721 59.8526 133.691L42.4251 108.687C23.9097 100.527 12 82.3417 12 62.0194Z"/>
</mask>
<path fill-rule="evenodd" clip-rule="evenodd" d="M12 62.0194C12 33.8869 34.8869 11 63 11C91.1326 11 114 33.8869 114 62.0194C114 82.3417 102.09 100.527 83.5749 108.687L66.1669 133.691C65.448 134.721 64.2629 135.343 63.0194 135.343H63C61.7566 135.343 60.5714 134.721 59.8526 133.691L42.4251 108.687C23.9097 100.527 12 82.3417 12 62.0194Z" fill="#FF3020"/>
<path d="M83.5749 108.687L80.7519 102.281L78.9531 103.074L77.83 104.687L83.5749 108.687ZM66.1669 133.691L71.9066 137.698L71.9117 137.691L66.1669 133.691ZM59.8526 133.691L54.1098 137.694L54.1129 137.698L59.8526 133.691ZM42.4251 108.687L48.1679 104.684L47.0451 103.073L45.2481 102.281L42.4251 108.687ZM63 4C31.0191 4 5 30.0226 5 62.0194H19C19 37.7511 38.7546 18 63 18V4ZM121 62.0194C121 30.0243 95.002 4 63 4V18C87.2631 18 107 37.7494 107 62.0194H121ZM86.3979 115.092C107.447 105.816 121 85.1214 121 62.0194H107C107 79.5621 96.7336 95.238 80.7519 102.281L86.3979 115.092ZM71.9117 137.691L89.3197 112.686L77.83 104.687L60.422 129.692L71.9117 137.691ZM63.0194 142.343C66.5766 142.343 69.8936 140.582 71.9066 137.698L60.4271 129.684C61.0024 128.86 61.9491 128.343 63.0194 128.343V142.343ZM63 142.343H63.0194V128.343H63V142.343ZM54.1129 137.698C56.1259 140.582 59.4429 142.343 63 142.343V128.343C64.0703 128.343 65.017 128.86 65.5923 129.684L54.1129 137.698ZM36.6824 112.689L54.1098 137.694L65.5954 129.689L48.1679 104.684L36.6824 112.689ZM5 62.0194C5 85.1214 18.553 105.816 39.6021 115.092L45.2481 102.281C29.2664 95.238 19 79.5621 19 62.0194H5Z" fill="white" mask="url(#path-3-outside-2_688_60416)"/>
</g>
<path fill-rule="evenodd" clip-rule="evenodd" d="M37.9872 86.1752H39.9968L40.0851 51.8894H38.2297C37.0156 51.8894 36.0214 50.8956 36.0214 49.6811C36.0214 48.4669 37.0151 47.4724 38.2297 47.4724H42.8984C40.2839 47.4712 38.1646 45.3512 38.1646 42.736C38.1646 40.1208 40.2846 38.0004 42.9003 38.0004C45.516 38.0004 47.636 40.1208 47.636 42.736C47.636 45.3512 45.5172 47.4712 42.9022 47.4724H47.5709C48.785 47.4724 49.7792 48.4661 49.7792 49.6807C49.7792 50.8948 48.7854 51.889 47.5709 51.889H45.8042L45.7987 54.0515C50.8889 56.9224 56.6975 58.3577 62.4851 58.3577C68.312 58.3577 74.1623 56.9018 79.2776 53.9903L79.2831 51.8886H77.4281C76.2139 51.8886 75.2197 50.8948 75.2197 49.6803C75.2197 48.4661 76.2135 47.472 77.4281 47.472H82.0967C79.4823 47.4708 77.363 45.3508 77.363 42.7356C77.363 40.1204 79.483 38 82.0987 38C84.7143 38 86.8343 40.1204 86.8343 42.7356C86.8343 45.3508 84.7155 47.4708 82.1006 47.472H86.7692C87.9834 47.472 88.9776 48.4657 88.9776 49.6803C88.9776 50.8944 87.9838 51.8886 86.7692 51.8886H85.0025L84.913 86.1744H87.0121C88.1057 86.1744 89 87.0687 89 88.1622V90.9991L75.1978 90.9987V88.1618C75.1978 87.0683 76.0921 86.174 77.1856 86.174H79.1952L79.2626 60.2065C74.1377 62.6545 68.3002 63.8777 62.4833 63.8777C56.6978 63.8777 50.8879 62.6667 45.7827 60.2451L45.7153 86.1753H47.8144C48.9079 86.1753 49.8022 87.0696 49.8022 88.1631V91L36 90.9996V88.1627C36 87.07 36.8944 86.1756 37.9879 86.1756L37.9872 86.1752Z" fill="white"/>
</g>
<defs>
<filter id="filter0_d_688_60416" x="0" y="2" width="146" height="168.344" filterUnits="userSpaceOnUse" color-interpolation-filters="sRGB">
<feFlood flood-opacity="0" result="BackgroundImageFix"/>
<feColorMatrix in="SourceAlpha" type="matrix" values="0 0 0 0 0 0 0 0 0 0 0 0 0 0 0 0 0 0 127 0" result="hardAlpha"/>
<feOffset dx="10" dy="13"/>
<feGaussianBlur stdDeviation="7.5"/>
<feComposite in2="hardAlpha" operator="out"/>
<feColorMatrix type="matrix" values="0 0 0 0 0 0 0 0 0 0 0 0 0 0 0 0 0 0 0.25 0"/>
<feBlend mode="normal" in2="BackgroundImageFix" result="effect1_dropShadow_688_60416"/>
<feBlend mode="normal" in="SourceGraphic" in2="effect1_dropShadow_688_60416" result="shape"/>
</filter>
<filter id="filter1_d_688_60416" x="1" y="4" width="124" height="146.344" filterUnits="userSpaceOnUse" color-interpolation-filters="sRGB">
<feFlood flood-opacity="0" result="BackgroundImageFix"/>
<feColorMatrix in="SourceAlpha" type="matrix" values="0 0 0 0 0 0 0 0 0 0 0 0 0 0 0 0 0 0 127 0" result="hardAlpha"/>
<feOffset dy="4"/>
<feGaussianBlur stdDeviation="2"/>
<feColorMatrix type="matrix" values="0 0 0 0 0 0 0 0 0 0 0 0 0 0 0 0 0 0 0.25 0"/>
<feBlend mode="normal" in2="BackgroundImageFix" result="effect1_dropShadow_688_60416"/>
<feBlend mode="normal" in="SourceGraphic" in2="effect1_dropShadow_688_60416" result="shape"/>
</filter>
<filter id="filter2_f_688_60416" x="1" y="0" width="124" height="146.344" filterUnits="userSpaceOnUse" color-interpolation-filters="sRGB">
<feFlood flood-opacity="0" result="BackgroundImageFix"/>
<feBlend mode="normal" in="SourceGraphic" in2="BackgroundImageFix" result="shape"/>
<feGaussianBlur stdDeviation="2" result="effect1_foregroundBlur_688_60416"/>
</filter>
</defs>
</svg>
