<svg width="373" height="347" viewBox="0 0 373 347" fill="none" xmlns="http://www.w3.org/2000/svg">
<rect x="75.4131" width="346.136" height="75.4149" rx="16" transform="rotate(89.6076 75.4131 0)" fill="url(#paint0_linear_1693_53247)"/>
<path d="M76.001 36.1406H53.001" stroke="white" stroke-width="5"/>
<path d="M76.001 127.141H53.001" stroke="white" stroke-width="5"/>
<path d="M78.001 218.141H55.001" stroke="white" stroke-width="5"/>
<path d="M78.001 312.141H55.001" stroke="white" stroke-width="5"/>
<path d="M122.86 42.1406V20.7206H128.44V28.5206H135.79V20.7206H141.37V42.1406H135.79V33.3206H128.44V42.1406H122.86ZM149.296 32.7506H155.626C155.586 31.8706 155.276 31.1206 154.696 30.5006C154.136 29.8806 153.436 29.5706 152.596 29.5706C151.716 29.5706 150.986 29.8606 150.406 30.4406C149.826 31.0206 149.456 31.7906 149.296 32.7506ZM160.726 35.6006H149.296C149.336 36.6806 149.656 37.5406 150.256 38.1806C150.876 38.8206 151.716 39.1406 152.776 39.1406C154.236 39.1406 155.206 38.5706 155.686 37.4306H160.456C160.016 39.1306 159.046 40.4406 157.546 41.3606C156.186 42.1806 154.576 42.5906 152.716 42.5906C150.136 42.5906 148.086 41.8606 146.566 40.4006C144.986 38.9206 144.196 36.8906 144.196 34.3106C144.196 31.9506 145.026 29.9906 146.686 28.4306C148.286 26.8906 150.256 26.1206 152.596 26.1206C155.296 26.1206 157.376 27.0406 158.836 28.8806C160.216 30.6006 160.846 32.8406 160.726 35.6006ZM167.546 37.6706C167.546 38.8506 168.256 39.4406 169.676 39.4406C170.876 39.4406 171.706 39.0806 172.166 38.3606C172.646 37.6406 172.856 36.4706 172.796 34.8506C172.476 35.0506 171.796 35.2506 170.756 35.4506C169.716 35.6506 168.996 35.8506 168.596 36.0506C167.896 36.4106 167.546 36.9506 167.546 37.6706ZM167.846 31.3706H163.076C163.236 27.8706 165.696 26.1206 170.456 26.1206C172.656 26.1206 174.326 26.4406 175.466 27.0806C176.966 27.9206 177.716 29.3406 177.716 31.3406V38.1506C177.716 39.9906 177.916 41.3206 178.316 42.1406H173.186C173.066 41.8206 172.966 41.3306 172.886 40.6706C171.666 41.9506 169.956 42.5906 167.756 42.5906C166.196 42.5906 164.936 42.2106 163.976 41.4506C162.956 40.6106 162.446 39.4206 162.446 37.8806C162.446 36.3406 162.966 35.1806 164.006 34.4006C164.786 33.8006 165.976 33.3606 167.576 33.0806C168.896 32.8806 170.206 32.6806 171.506 32.4806C172.406 32.3006 172.856 31.8206 172.856 31.0406C172.856 30.5006 172.576 30.0806 172.016 29.7806C171.556 29.5406 171.016 29.4206 170.396 29.4206C168.936 29.4206 168.086 30.0706 167.846 31.3706ZM195.559 26.5706L190.339 42.1406H184.459L179.269 26.5706H184.579L187.429 36.8606H187.489L190.369 26.5706H195.559ZM211.823 26.5706L205.673 43.5206C205.093 45.1206 204.283 46.1906 203.243 46.7306C202.423 47.1506 201.063 47.3606 199.163 47.3606H196.763V43.2206H198.533C199.133 43.2206 199.623 43.0606 200.003 42.7406C200.383 42.4406 200.573 42.0206 200.573 41.4806C200.573 41.0806 200.143 39.7206 199.283 37.4006L195.263 26.5706H200.663L203.603 36.7106H203.663L206.603 26.5706H211.823ZM242.769 28.3706H237.189C237.049 27.3106 236.589 26.5006 235.809 25.9406C235.049 25.3606 234.069 25.0706 232.869 25.0706C231.189 25.0706 229.909 25.7306 229.029 27.0506C228.269 28.1906 227.889 29.6506 227.889 31.4306C227.889 33.2106 228.269 34.6706 229.029 35.8106C229.909 37.1306 231.189 37.7906 232.869 37.7906C235.529 37.7906 236.969 36.4706 237.189 33.8306H242.769C242.629 36.5506 241.649 38.6906 239.829 40.2506C238.029 41.8106 235.749 42.5906 232.989 42.5906C229.809 42.5906 227.219 41.5106 225.219 39.3506C223.279 37.2506 222.309 34.6106 222.309 31.4306C222.309 28.2506 223.289 25.6006 225.249 23.4806C227.229 21.3406 229.809 20.2706 232.989 20.2706C235.469 20.2706 237.659 20.9706 239.559 22.3706C241.619 23.9306 242.689 25.9306 242.769 28.3706ZM245.703 42.1406V26.5706H250.653V29.3006H250.713C251.473 27.2806 253.033 26.2706 255.393 26.2706C255.853 26.2706 256.253 26.3106 256.593 26.3906V31.0406C255.853 30.8406 255.203 30.7406 254.643 30.7406C253.443 30.7406 252.503 31.1006 251.823 31.8206C251.143 32.5206 250.803 33.3906 250.803 34.4306V42.1406H245.703ZM262.646 34.3706C262.646 35.5506 262.866 36.5206 263.306 37.2806C263.846 38.2206 264.656 38.6906 265.736 38.6906C266.816 38.6906 267.636 38.2206 268.196 37.2806C268.636 36.5006 268.856 35.5306 268.856 34.3706C268.856 33.2106 268.636 32.2406 268.196 31.4606C267.636 30.5006 266.816 30.0206 265.736 30.0206C264.656 30.0206 263.846 30.5006 263.306 31.4606C262.866 32.2206 262.646 33.1906 262.646 34.3706ZM257.546 34.3706C257.546 32.0106 258.306 30.0506 259.826 28.4906C261.366 26.9106 263.336 26.1206 265.736 26.1206C268.136 26.1206 270.106 26.9106 271.646 28.4906C273.186 30.0506 273.956 32.0106 273.956 34.3706C273.956 36.7306 273.186 38.6906 271.646 40.2506C270.106 41.8106 268.136 42.5906 265.736 42.5906C263.336 42.5906 261.366 41.8106 259.826 40.2506C258.306 38.6906 257.546 36.7306 257.546 34.3706ZM299.916 26.5706L295.056 42.1406H289.896L287.436 31.7906H287.376L284.946 42.1406H279.786L274.926 26.5706H280.086L282.696 36.6506H282.756L284.976 26.5706H289.836L292.116 36.6206H292.176L294.726 26.5706H299.916ZM309.096 30.0206C308.016 30.0206 307.206 30.4706 306.666 31.3706C306.206 32.1106 305.976 33.0506 305.976 34.1906C305.976 35.4306 306.206 36.4506 306.666 37.2506C307.206 38.2106 308.016 38.6906 309.096 38.6906C311.116 38.6906 312.126 37.2406 312.126 34.3406C312.126 33.1006 311.896 32.1006 311.436 31.3406C310.916 30.4606 310.136 30.0206 309.096 30.0206ZM317.046 20.7206V42.1406H312.186V40.3406H312.126C311.106 41.8406 309.676 42.5906 307.836 42.5906C305.536 42.5906 303.766 41.7106 302.526 39.9506C301.426 38.3906 300.876 36.4106 300.876 34.0106C300.876 31.8306 301.416 30.0106 302.496 28.5506C303.716 26.9306 305.366 26.1206 307.446 26.1206C309.346 26.1206 310.826 26.8306 311.886 28.2506H311.946V20.7206H317.046Z" fill="#231F20"/>
<path d="M122.92 324.141V302.721H128.5V319.341H138.49V324.141H122.92ZM145.4 314.751H151.73C151.69 313.871 151.38 313.121 150.8 312.501C150.24 311.881 149.54 311.571 148.7 311.571C147.82 311.571 147.09 311.861 146.51 312.441C145.93 313.021 145.56 313.791 145.4 314.751ZM156.83 317.601H145.4C145.44 318.681 145.76 319.541 146.36 320.181C146.98 320.821 147.82 321.141 148.88 321.141C150.34 321.141 151.31 320.571 151.79 319.431H156.56C156.12 321.131 155.15 322.441 153.65 323.361C152.29 324.181 150.68 324.591 148.82 324.591C146.24 324.591 144.19 323.861 142.67 322.401C141.09 320.921 140.3 318.891 140.3 316.311C140.3 313.951 141.13 311.991 142.79 310.431C144.39 308.891 146.36 308.121 148.7 308.121C151.4 308.121 153.48 309.041 154.94 310.881C156.32 312.601 156.95 314.841 156.83 317.601ZM158.49 319.011H163.35C163.35 319.751 163.63 320.331 164.19 320.751C164.67 321.111 165.3 321.291 166.08 321.291C166.68 321.291 167.2 321.171 167.64 320.931C168.2 320.631 168.48 320.201 168.48 319.641C168.48 319.121 168.18 318.721 167.58 318.441C167.36 318.361 166.83 318.211 165.99 317.991C164.89 317.751 163.79 317.501 162.69 317.241C161.45 316.901 160.53 316.451 159.93 315.891C159.15 315.171 158.76 314.171 158.76 312.891C158.76 311.191 159.56 309.931 161.16 309.111C162.42 308.451 163.99 308.121 165.87 308.121C170.51 308.121 172.9 309.801 173.04 313.161H168.33C168.33 312.001 167.57 311.421 166.05 311.421C164.59 311.421 163.86 311.811 163.86 312.591C163.86 313.211 164.53 313.711 165.87 314.091C167.11 314.331 168.36 314.581 169.62 314.841C171.02 315.141 172.07 315.761 172.77 316.701C173.31 317.421 173.58 318.201 173.58 319.041C173.58 320.961 172.77 322.411 171.15 323.391C169.83 324.191 168.15 324.591 166.11 324.591C163.97 324.591 162.26 324.201 160.98 323.421C159.38 322.481 158.55 321.011 158.49 319.011ZM175.16 319.011H180.02C180.02 319.751 180.3 320.331 180.86 320.751C181.34 321.111 181.97 321.291 182.75 321.291C183.35 321.291 183.87 321.171 184.31 320.931C184.87 320.631 185.15 320.201 185.15 319.641C185.15 319.121 184.85 318.721 184.25 318.441C184.03 318.361 183.5 318.211 182.66 317.991C181.56 317.751 180.46 317.501 179.36 317.241C178.12 316.901 177.2 316.451 176.6 315.891C175.82 315.171 175.43 314.171 175.43 312.891C175.43 311.191 176.23 309.931 177.83 309.111C179.09 308.451 180.66 308.121 182.54 308.121C187.18 308.121 189.57 309.801 189.71 313.161H185C185 312.001 184.24 311.421 182.72 311.421C181.26 311.421 180.53 311.811 180.53 312.591C180.53 313.211 181.2 313.711 182.54 314.091C183.78 314.331 185.03 314.581 186.29 314.841C187.69 315.141 188.74 315.761 189.44 316.701C189.98 317.421 190.25 318.201 190.25 319.041C190.25 320.961 189.44 322.411 187.82 323.391C186.5 324.191 184.82 324.591 182.78 324.591C180.64 324.591 178.93 324.201 177.65 323.421C176.05 322.481 175.22 321.011 175.16 319.011ZM222.202 310.371H216.622C216.482 309.311 216.022 308.501 215.242 307.941C214.482 307.361 213.502 307.071 212.302 307.071C210.622 307.071 209.342 307.731 208.462 309.051C207.702 310.191 207.322 311.651 207.322 313.431C207.322 315.211 207.702 316.671 208.462 317.811C209.342 319.131 210.622 319.791 212.302 319.791C214.962 319.791 216.402 318.471 216.622 315.831H222.202C222.062 318.551 221.082 320.691 219.262 322.251C217.462 323.811 215.182 324.591 212.422 324.591C209.242 324.591 206.652 323.511 204.652 321.351C202.712 319.251 201.742 316.611 201.742 313.431C201.742 310.251 202.722 307.601 204.682 305.481C206.662 303.341 209.242 302.271 212.422 302.271C214.902 302.271 217.092 302.971 218.992 304.371C221.052 305.931 222.122 307.931 222.202 310.371ZM225.136 324.141V308.571H230.086V311.301H230.146C230.906 309.281 232.466 308.271 234.826 308.271C235.286 308.271 235.686 308.311 236.026 308.391V313.041C235.286 312.841 234.636 312.741 234.076 312.741C232.876 312.741 231.936 313.101 231.256 313.821C230.576 314.521 230.236 315.391 230.236 316.431V324.141H225.136ZM242.08 316.371C242.08 317.551 242.3 318.521 242.74 319.281C243.28 320.221 244.09 320.691 245.17 320.691C246.25 320.691 247.07 320.221 247.63 319.281C248.07 318.501 248.29 317.531 248.29 316.371C248.29 315.211 248.07 314.241 247.63 313.461C247.07 312.501 246.25 312.021 245.17 312.021C244.09 312.021 243.28 312.501 242.74 313.461C242.3 314.221 242.08 315.191 242.08 316.371ZM236.98 316.371C236.98 314.011 237.74 312.051 239.26 310.491C240.8 308.911 242.77 308.121 245.17 308.121C247.57 308.121 249.54 308.911 251.08 310.491C252.62 312.051 253.39 314.011 253.39 316.371C253.39 318.731 252.62 320.691 251.08 322.251C249.54 323.811 247.57 324.591 245.17 324.591C242.77 324.591 240.8 323.811 239.26 322.251C237.74 320.691 236.98 318.731 236.98 316.371ZM279.349 308.571L274.489 324.141H269.329L266.869 313.791H266.809L264.379 324.141H259.219L254.359 308.571H259.519L262.129 318.651H262.189L264.409 308.571H269.269L271.549 318.621H271.609L274.159 308.571H279.349ZM288.53 312.021C287.45 312.021 286.64 312.471 286.1 313.371C285.64 314.111 285.41 315.051 285.41 316.191C285.41 317.431 285.64 318.451 286.1 319.251C286.64 320.211 287.45 320.691 288.53 320.691C290.55 320.691 291.56 319.241 291.56 316.341C291.56 315.101 291.33 314.101 290.87 313.341C290.35 312.461 289.57 312.021 288.53 312.021ZM296.48 302.721V324.141H291.62V322.341H291.56C290.54 323.841 289.11 324.591 287.27 324.591C284.97 324.591 283.2 323.711 281.96 321.951C280.86 320.391 280.31 318.411 280.31 316.011C280.31 313.831 280.85 312.011 281.93 310.551C283.15 308.931 284.8 308.121 286.88 308.121C288.78 308.121 290.26 308.831 291.32 310.251H291.38V302.721H296.48Z" fill="#231F20"/>
<path d="M122.95 230.141V208.721H131.17L134.86 223.001H134.92L138.61 208.721H146.83V230.141H141.58V213.881H141.52L137.02 230.141H132.76L128.26 213.881H128.2V230.141H122.95ZM154.833 220.751H161.163C161.123 219.871 160.813 219.121 160.233 218.501C159.673 217.881 158.973 217.571 158.133 217.571C157.253 217.571 156.523 217.861 155.943 218.441C155.363 219.021 154.993 219.791 154.833 220.751ZM166.263 223.601H154.833C154.873 224.681 155.193 225.541 155.793 226.181C156.413 226.821 157.253 227.141 158.313 227.141C159.773 227.141 160.743 226.571 161.223 225.431H165.993C165.553 227.131 164.583 228.441 163.083 229.361C161.723 230.181 160.113 230.591 158.253 230.591C155.673 230.591 153.623 229.861 152.103 228.401C150.523 226.921 149.733 224.891 149.733 222.311C149.733 219.951 150.563 217.991 152.223 216.431C153.823 214.891 155.793 214.121 158.133 214.121C160.833 214.121 162.913 215.041 164.373 216.881C165.753 218.601 166.383 220.841 166.263 223.601ZM176.293 218.021C175.213 218.021 174.403 218.471 173.863 219.371C173.403 220.111 173.173 221.051 173.173 222.191C173.173 223.431 173.403 224.451 173.863 225.251C174.403 226.211 175.213 226.691 176.293 226.691C178.313 226.691 179.323 225.241 179.323 222.341C179.323 221.101 179.093 220.101 178.633 219.341C178.113 218.461 177.333 218.021 176.293 218.021ZM184.243 208.721V230.141H179.383V228.341H179.323C178.303 229.841 176.873 230.591 175.033 230.591C172.733 230.591 170.963 229.711 169.723 227.951C168.623 226.391 168.073 224.411 168.073 222.011C168.073 219.831 168.613 218.011 169.693 216.551C170.913 214.931 172.563 214.121 174.643 214.121C176.543 214.121 178.023 214.831 179.083 216.251H179.143V208.721H184.243ZM187.9 230.141V214.571H193V230.141H187.9ZM193 208.721V212.621H187.9V208.721H193ZM212.077 214.571V230.141H207.127V228.011H207.067C206.587 228.791 205.907 229.421 205.027 229.901C204.147 230.361 203.247 230.591 202.327 230.591C200.207 230.591 198.687 229.991 197.767 228.791C196.967 227.731 196.567 226.111 196.567 223.931V214.571H201.667V223.601C201.667 225.461 202.507 226.391 204.187 226.391C204.887 226.391 205.487 226.151 205.987 225.671C206.647 225.071 206.977 224.151 206.977 222.911V214.571H212.077ZM215.493 230.141V214.571H220.443V216.701H220.503C221.523 214.981 223.013 214.121 224.973 214.121C227.253 214.121 228.763 214.961 229.503 216.641C230.763 214.961 232.383 214.121 234.363 214.121C236.563 214.121 238.093 214.871 238.953 216.371C239.553 217.391 239.853 218.881 239.853 220.841V230.141H234.753V220.991C234.753 219.211 234.043 218.321 232.623 218.321C231.623 218.321 230.953 218.701 230.613 219.461C230.353 220.041 230.223 221.061 230.223 222.521V230.141H225.123V221.291C225.123 219.311 224.483 218.321 223.203 218.321C222.263 218.321 221.593 218.641 221.193 219.281C220.793 219.901 220.593 220.991 220.593 222.551V230.141H215.493ZM272.74 216.371H267.16C267.02 215.311 266.56 214.501 265.78 213.941C265.02 213.361 264.04 213.071 262.84 213.071C261.16 213.071 259.88 213.731 259 215.051C258.24 216.191 257.86 217.651 257.86 219.431C257.86 221.211 258.24 222.671 259 223.811C259.88 225.131 261.16 225.791 262.84 225.791C265.5 225.791 266.94 224.471 267.16 221.831H272.74C272.6 224.551 271.62 226.691 269.8 228.251C268 229.811 265.72 230.591 262.96 230.591C259.78 230.591 257.19 229.511 255.19 227.351C253.25 225.251 252.28 222.611 252.28 219.431C252.28 216.251 253.26 213.601 255.22 211.481C257.2 209.341 259.78 208.271 262.96 208.271C265.44 208.271 267.63 208.971 269.53 210.371C271.59 211.931 272.66 213.931 272.74 216.371ZM275.673 230.141V214.571H280.623V217.301H280.683C281.443 215.281 283.003 214.271 285.363 214.271C285.823 214.271 286.223 214.311 286.563 214.391V219.041C285.823 218.841 285.173 218.741 284.613 218.741C283.413 218.741 282.473 219.101 281.793 219.821C281.113 220.521 280.773 221.391 280.773 222.431V230.141H275.673ZM292.617 222.371C292.617 223.551 292.837 224.521 293.277 225.281C293.817 226.221 294.627 226.691 295.707 226.691C296.787 226.691 297.607 226.221 298.167 225.281C298.607 224.501 298.827 223.531 298.827 222.371C298.827 221.211 298.607 220.241 298.167 219.461C297.607 218.501 296.787 218.021 295.707 218.021C294.627 218.021 293.817 218.501 293.277 219.461C292.837 220.221 292.617 221.191 292.617 222.371ZM287.517 222.371C287.517 220.011 288.277 218.051 289.797 216.491C291.337 214.911 293.307 214.121 295.707 214.121C298.107 214.121 300.077 214.911 301.617 216.491C303.157 218.051 303.927 220.011 303.927 222.371C303.927 224.731 303.157 226.691 301.617 228.251C300.077 229.811 298.107 230.591 295.707 230.591C293.307 230.591 291.337 229.811 289.797 228.251C288.277 226.691 287.517 224.731 287.517 222.371ZM329.886 214.571L325.026 230.141H319.866L317.406 219.791H317.346L314.916 230.141H309.756L304.896 214.571H310.056L312.666 224.651H312.726L314.946 214.571H319.806L322.086 224.621H322.146L324.696 214.571H329.886ZM339.067 218.021C337.987 218.021 337.177 218.471 336.637 219.371C336.177 220.111 335.947 221.051 335.947 222.191C335.947 223.431 336.177 224.451 336.637 225.251C337.177 226.211 337.987 226.691 339.067 226.691C341.087 226.691 342.097 225.241 342.097 222.341C342.097 221.101 341.867 220.101 341.407 219.341C340.887 218.461 340.107 218.021 339.067 218.021ZM347.017 208.721V230.141H342.157V228.341H342.097C341.077 229.841 339.647 230.591 337.807 230.591C335.507 230.591 333.737 229.711 332.497 227.951C331.397 226.391 330.847 224.411 330.847 222.011C330.847 219.831 331.387 218.011 332.467 216.551C333.687 214.931 335.337 214.121 337.417 214.121C339.317 214.121 340.797 214.831 341.857 216.251H341.917V208.721H347.017Z" fill="#231F20"/>
<path d="M122.95 136.141V114.721H131.17L134.86 129.001H134.92L138.61 114.721H146.83V136.141H141.58V119.881H141.52L137.02 136.141H132.76L128.26 119.881H128.2V136.141H122.95ZM154.833 128.371C154.833 129.551 155.053 130.521 155.493 131.281C156.033 132.221 156.843 132.691 157.923 132.691C159.003 132.691 159.823 132.221 160.383 131.281C160.823 130.501 161.043 129.531 161.043 128.371C161.043 127.211 160.823 126.241 160.383 125.461C159.823 124.501 159.003 124.021 157.923 124.021C156.843 124.021 156.033 124.501 155.493 125.461C155.053 126.221 154.833 127.191 154.833 128.371ZM149.733 128.371C149.733 126.011 150.493 124.051 152.013 122.491C153.553 120.911 155.523 120.121 157.923 120.121C160.323 120.121 162.293 120.911 163.833 122.491C165.373 124.051 166.143 126.011 166.143 128.371C166.143 130.731 165.373 132.691 163.833 134.251C162.293 135.811 160.323 136.591 157.923 136.591C155.523 136.591 153.553 135.811 152.013 134.251C150.493 132.691 149.733 130.731 149.733 128.371ZM176.293 124.021C175.213 124.021 174.403 124.471 173.863 125.371C173.403 126.111 173.173 127.051 173.173 128.191C173.173 129.431 173.403 130.451 173.863 131.251C174.403 132.211 175.213 132.691 176.293 132.691C178.313 132.691 179.323 131.241 179.323 128.341C179.323 127.101 179.093 126.101 178.633 125.341C178.113 124.461 177.333 124.021 176.293 124.021ZM184.243 114.721V136.141H179.383V134.341H179.323C178.303 135.841 176.873 136.591 175.033 136.591C172.733 136.591 170.963 135.711 169.723 133.951C168.623 132.391 168.073 130.411 168.073 128.011C168.073 125.831 168.613 124.011 169.693 122.551C170.913 120.931 172.563 120.121 174.643 120.121C176.543 120.121 178.023 120.831 179.083 122.251H179.143V114.721H184.243ZM192.07 126.751H198.4C198.36 125.871 198.05 125.121 197.47 124.501C196.91 123.881 196.21 123.571 195.37 123.571C194.49 123.571 193.76 123.861 193.18 124.441C192.6 125.021 192.23 125.791 192.07 126.751ZM203.5 129.601H192.07C192.11 130.681 192.43 131.541 193.03 132.181C193.65 132.821 194.49 133.141 195.55 133.141C197.01 133.141 197.98 132.571 198.46 131.431H203.23C202.79 133.131 201.82 134.441 200.32 135.361C198.96 136.181 197.35 136.591 195.49 136.591C192.91 136.591 190.86 135.861 189.34 134.401C187.76 132.921 186.97 130.891 186.97 128.311C186.97 125.951 187.8 123.991 189.46 122.431C191.06 120.891 193.03 120.121 195.37 120.121C198.07 120.121 200.15 121.041 201.61 122.881C202.99 124.601 203.62 126.841 203.5 129.601ZM206.24 136.141V120.571H211.19V123.301H211.25C212.01 121.281 213.57 120.271 215.93 120.271C216.39 120.271 216.79 120.311 217.13 120.391V125.041C216.39 124.841 215.74 124.741 215.18 124.741C213.98 124.741 213.04 125.101 212.36 125.821C211.68 126.521 211.34 127.391 211.34 128.431V136.141H206.24ZM223.093 131.671C223.093 132.851 223.803 133.441 225.223 133.441C226.423 133.441 227.253 133.081 227.713 132.361C228.193 131.641 228.403 130.471 228.343 128.851C228.023 129.051 227.343 129.251 226.303 129.451C225.263 129.651 224.543 129.851 224.143 130.051C223.443 130.411 223.093 130.951 223.093 131.671ZM223.393 125.371H218.623C218.783 121.871 221.243 120.121 226.003 120.121C228.203 120.121 229.873 120.441 231.013 121.081C232.513 121.921 233.263 123.341 233.263 125.341V132.151C233.263 133.991 233.463 135.321 233.863 136.141H228.733C228.613 135.821 228.513 135.331 228.433 134.671C227.213 135.951 225.503 136.591 223.303 136.591C221.743 136.591 220.483 136.211 219.523 135.451C218.503 134.611 217.993 133.421 217.993 131.881C217.993 130.341 218.513 129.181 219.553 128.401C220.333 127.801 221.523 127.361 223.123 127.081C224.443 126.881 225.753 126.681 227.053 126.481C227.953 126.301 228.403 125.821 228.403 125.041C228.403 124.501 228.123 124.081 227.563 123.781C227.103 123.541 226.563 123.421 225.943 123.421C224.483 123.421 223.633 124.071 223.393 125.371ZM246.006 120.571V123.871H242.856V130.951C242.856 131.951 243.466 132.451 244.686 132.451C244.826 132.451 245.036 132.441 245.316 132.421C245.616 132.401 245.846 132.391 246.006 132.391V136.141C245.766 136.141 245.306 136.171 244.626 136.231C244.026 136.271 243.556 136.291 243.216 136.291C241.056 136.291 239.606 135.911 238.866 135.151C238.126 134.391 237.756 132.941 237.756 130.801V123.871H235.176V120.571H237.756V115.861H242.856V120.571H246.006ZM252.626 126.751H258.956C258.916 125.871 258.606 125.121 258.026 124.501C257.466 123.881 256.766 123.571 255.926 123.571C255.046 123.571 254.316 123.861 253.736 124.441C253.156 125.021 252.786 125.791 252.626 126.751ZM264.056 129.601H252.626C252.666 130.681 252.986 131.541 253.586 132.181C254.206 132.821 255.046 133.141 256.106 133.141C257.566 133.141 258.536 132.571 259.016 131.431H263.786C263.346 133.131 262.376 134.441 260.876 135.361C259.516 136.181 257.906 136.591 256.046 136.591C253.466 136.591 251.416 135.861 249.896 134.401C248.316 132.921 247.526 130.891 247.526 128.311C247.526 125.951 248.356 123.991 250.016 122.431C251.616 120.891 253.586 120.121 255.926 120.121C258.626 120.121 260.706 121.041 262.166 122.881C263.546 124.601 264.176 126.841 264.056 129.601ZM296.089 122.371H290.509C290.369 121.311 289.909 120.501 289.129 119.941C288.369 119.361 287.389 119.071 286.189 119.071C284.509 119.071 283.229 119.731 282.349 121.051C281.589 122.191 281.209 123.651 281.209 125.431C281.209 127.211 281.589 128.671 282.349 129.811C283.229 131.131 284.509 131.791 286.189 131.791C288.849 131.791 290.289 130.471 290.509 127.831H296.089C295.949 130.551 294.969 132.691 293.149 134.251C291.349 135.811 289.069 136.591 286.309 136.591C283.129 136.591 280.539 135.511 278.539 133.351C276.599 131.251 275.629 128.611 275.629 125.431C275.629 122.251 276.609 119.601 278.569 117.481C280.549 115.341 283.129 114.271 286.309 114.271C288.789 114.271 290.979 114.971 292.879 116.371C294.939 117.931 296.009 119.931 296.089 122.371ZM299.023 136.141V120.571H303.973V123.301H304.033C304.793 121.281 306.353 120.271 308.713 120.271C309.173 120.271 309.573 120.311 309.913 120.391V125.041C309.173 124.841 308.523 124.741 307.963 124.741C306.763 124.741 305.823 125.101 305.143 125.821C304.463 126.521 304.123 127.391 304.123 128.431V136.141H299.023ZM315.966 128.371C315.966 129.551 316.186 130.521 316.626 131.281C317.166 132.221 317.976 132.691 319.056 132.691C320.136 132.691 320.956 132.221 321.516 131.281C321.956 130.501 322.176 129.531 322.176 128.371C322.176 127.211 321.956 126.241 321.516 125.461C320.956 124.501 320.136 124.021 319.056 124.021C317.976 124.021 317.166 124.501 316.626 125.461C316.186 126.221 315.966 127.191 315.966 128.371ZM310.866 128.371C310.866 126.011 311.626 124.051 313.146 122.491C314.686 120.911 316.656 120.121 319.056 120.121C321.456 120.121 323.426 120.911 324.966 122.491C326.506 124.051 327.276 126.011 327.276 128.371C327.276 130.731 326.506 132.691 324.966 134.251C323.426 135.811 321.456 136.591 319.056 136.591C316.656 136.591 314.686 135.811 313.146 134.251C311.626 132.691 310.866 130.731 310.866 128.371ZM353.236 120.571L348.376 136.141H343.216L340.756 125.791H340.696L338.266 136.141H333.106L328.246 120.571H333.406L336.016 130.651H336.076L338.296 120.571H343.156L345.436 130.621H345.496L348.046 120.571H353.236ZM362.416 124.021C361.336 124.021 360.526 124.471 359.986 125.371C359.526 126.111 359.296 127.051 359.296 128.191C359.296 129.431 359.526 130.451 359.986 131.251C360.526 132.211 361.336 132.691 362.416 132.691C364.436 132.691 365.446 131.241 365.446 128.341C365.446 127.101 365.216 126.101 364.756 125.341C364.236 124.461 363.456 124.021 362.416 124.021ZM370.366 114.721V136.141H365.506V134.341H365.446C364.426 135.841 362.996 136.591 361.156 136.591C358.856 136.591 357.086 135.711 355.846 133.951C354.746 132.391 354.196 130.411 354.196 128.011C354.196 125.831 354.736 124.011 355.816 122.551C357.036 120.931 358.686 120.121 360.766 120.121C362.666 120.121 364.146 120.831 365.206 122.251H365.266V114.721H370.366Z" fill="#231F20"/>
<defs>
<linearGradient id="paint0_linear_1693_53247" x1="393.91" y1="22.0938" x2="86.4144" y2="19.3269" gradientUnits="userSpaceOnUse">
<stop stop-color="#499FFF"/>
<stop offset="0.184192" stop-color="#30CB87"/>
<stop offset="0.535576" stop-color="#FFC909"/>
<stop offset="0.715147" stop-color="#FFC909"/>
<stop offset="1" stop-color="#FF2F1F"/>
</linearGradient>
</defs>
</svg>
