<svg width="146" height="171" viewBox="0 0 146 171" fill="none" xmlns="http://www.w3.org/2000/svg">
<g filter="url(#filter0_d_688_60460)">
<g filter="url(#filter1_d_688_60460)">
<g filter="url(#filter2_f_688_60460)">
<mask id="path-1-outside-1_688_60460" maskUnits="userSpaceOnUse" x="5" y="4" width="116" height="139" fill="black">
<rect fill="white" x="5" y="4" width="116" height="139"/>
<path fill-rule="evenodd" clip-rule="evenodd" d="M12 62.0194C12 33.8869 34.8869 11 63 11C91.1326 11 114 33.8869 114 62.0194C114 82.3417 102.09 100.527 83.5749 108.687L66.1669 133.691C65.448 134.721 64.2629 135.343 63.0194 135.343H63C61.7566 135.343 60.5714 134.721 59.8526 133.691L42.4251 108.687C23.9097 100.527 12 82.3417 12 62.0194Z"/>
</mask>
<path d="M83.5749 108.687L80.7519 102.281L78.9531 103.074L77.83 104.687L83.5749 108.687ZM66.1669 133.691L71.9066 137.698L71.9117 137.691L66.1669 133.691ZM59.8526 133.691L54.1098 137.694L54.1129 137.698L59.8526 133.691ZM42.4251 108.687L48.1679 104.684L47.0451 103.073L45.2481 102.281L42.4251 108.687ZM63 4C31.0191 4 5 30.0226 5 62.0194H19C19 37.7511 38.7546 18 63 18V4ZM121 62.0194C121 30.0243 95.002 4 63 4V18C87.2631 18 107 37.7494 107 62.0194H121ZM86.3979 115.092C107.447 105.816 121 85.1214 121 62.0194H107C107 79.5621 96.7336 95.238 80.7519 102.281L86.3979 115.092ZM71.9117 137.691L89.3197 112.686L77.83 104.687L60.422 129.692L71.9117 137.691ZM63.0194 142.343C66.5766 142.343 69.8936 140.582 71.9066 137.698L60.4271 129.684C61.0024 128.86 61.9491 128.343 63.0194 128.343V142.343ZM63 142.343H63.0194V128.343H63V142.343ZM54.1129 137.698C56.1259 140.582 59.4429 142.343 63 142.343V128.343C64.0703 128.343 65.017 128.86 65.5923 129.684L54.1129 137.698ZM36.6824 112.689L54.1098 137.694L65.5954 129.689L48.1679 104.684L36.6824 112.689ZM5 62.0194C5 85.1214 18.553 105.816 39.6021 115.092L45.2481 102.281C29.2664 95.238 19 79.5621 19 62.0194H5Z" fill="#2BC512" fill-opacity="0.2" mask="url(#path-1-outside-1_688_60460)"/>
</g>
<mask id="path-3-outside-2_688_60460" maskUnits="userSpaceOnUse" x="5" y="4" width="116" height="139" fill="black">
<rect fill="white" x="5" y="4" width="116" height="139"/>
<path fill-rule="evenodd" clip-rule="evenodd" d="M12 62.0194C12 33.8869 34.8869 11 63 11C91.1326 11 114 33.8869 114 62.0194C114 82.3417 102.09 100.527 83.5749 108.687L66.1669 133.691C65.448 134.721 64.2629 135.343 63.0194 135.343H63C61.7566 135.343 60.5714 134.721 59.8526 133.691L42.4251 108.687C23.9097 100.527 12 82.3417 12 62.0194Z"/>
</mask>
<path fill-rule="evenodd" clip-rule="evenodd" d="M12 62.0194C12 33.8869 34.8869 11 63 11C91.1326 11 114 33.8869 114 62.0194C114 82.3417 102.09 100.527 83.5749 108.687L66.1669 133.691C65.448 134.721 64.2629 135.343 63.0194 135.343H63C61.7566 135.343 60.5714 134.721 59.8526 133.691L42.4251 108.687C23.9097 100.527 12 82.3417 12 62.0194Z" fill="#FF3020"/>
<path d="M83.5749 108.687L80.7519 102.281L78.9531 103.074L77.83 104.687L83.5749 108.687ZM66.1669 133.691L71.9066 137.698L71.9117 137.691L66.1669 133.691ZM59.8526 133.691L54.1098 137.694L54.1129 137.698L59.8526 133.691ZM42.4251 108.687L48.1679 104.684L47.0451 103.073L45.2481 102.281L42.4251 108.687ZM63 4C31.0191 4 5 30.0226 5 62.0194H19C19 37.7511 38.7546 18 63 18V4ZM121 62.0194C121 30.0243 95.002 4 63 4V18C87.2631 18 107 37.7494 107 62.0194H121ZM86.3979 115.092C107.447 105.816 121 85.1214 121 62.0194H107C107 79.5621 96.7336 95.238 80.7519 102.281L86.3979 115.092ZM71.9117 137.691L89.3197 112.686L77.83 104.687L60.422 129.692L71.9117 137.691ZM63.0194 142.343C66.5766 142.343 69.8936 140.582 71.9066 137.698L60.4271 129.684C61.0024 128.86 61.9491 128.343 63.0194 128.343V142.343ZM63 142.343H63.0194V128.343H63V142.343ZM54.1129 137.698C56.1259 140.582 59.4429 142.343 63 142.343V128.343C64.0703 128.343 65.017 128.86 65.5923 129.684L54.1129 137.698ZM36.6824 112.689L54.1098 137.694L65.5954 129.689L48.1679 104.684L36.6824 112.689ZM5 62.0194C5 85.1214 18.553 105.816 39.6021 115.092L45.2481 102.281C29.2664 95.238 19 79.5621 19 62.0194H5Z" fill="white" mask="url(#path-3-outside-2_688_60460)"/>
</g>
<path d="M82.2892 76.9507V91H77.8206V78.5283H59.8333V91H55.3647V78.5283H44.9375V91H40.4684V71.6026C40.4247 70.494 40.8583 69.4182 41.6625 68.6415C42.4667 67.8647 43.5667 67.4587 44.6917 67.5237H55.3647V55.7857H36V53.541C36 46.2025 39.9747 39.4209 46.4272 35.7519C52.8795 32.0827 60.8293 32.0827 67.2824 35.7519C73.7347 39.4212 77.7096 46.2026 77.7096 53.541V55.7857H59.8341V67.5237H82.253L83.9659 63.9875L65.1894 63.9435V59.542L86.2376 59.4099L93.0002 46.0868L97 48.053L82.2892 76.9507Z" fill="white"/>
</g>
<defs>
<filter id="filter0_d_688_60460" x="0" y="2" width="146" height="168.344" filterUnits="userSpaceOnUse" color-interpolation-filters="sRGB">
<feFlood flood-opacity="0" result="BackgroundImageFix"/>
<feColorMatrix in="SourceAlpha" type="matrix" values="0 0 0 0 0 0 0 0 0 0 0 0 0 0 0 0 0 0 127 0" result="hardAlpha"/>
<feOffset dx="10" dy="13"/>
<feGaussianBlur stdDeviation="7.5"/>
<feComposite in2="hardAlpha" operator="out"/>
<feColorMatrix type="matrix" values="0 0 0 0 0 0 0 0 0 0 0 0 0 0 0 0 0 0 0.25 0"/>
<feBlend mode="normal" in2="BackgroundImageFix" result="effect1_dropShadow_688_60460"/>
<feBlend mode="normal" in="SourceGraphic" in2="effect1_dropShadow_688_60460" result="shape"/>
</filter>
<filter id="filter1_d_688_60460" x="1" y="4" width="124" height="146.344" filterUnits="userSpaceOnUse" color-interpolation-filters="sRGB">
<feFlood flood-opacity="0" result="BackgroundImageFix"/>
<feColorMatrix in="SourceAlpha" type="matrix" values="0 0 0 0 0 0 0 0 0 0 0 0 0 0 0 0 0 0 127 0" result="hardAlpha"/>
<feOffset dy="4"/>
<feGaussianBlur stdDeviation="2"/>
<feColorMatrix type="matrix" values="0 0 0 0 0 0 0 0 0 0 0 0 0 0 0 0 0 0 0.25 0"/>
<feBlend mode="normal" in2="BackgroundImageFix" result="effect1_dropShadow_688_60460"/>
<feBlend mode="normal" in="SourceGraphic" in2="effect1_dropShadow_688_60460" result="shape"/>
</filter>
<filter id="filter2_f_688_60460" x="1" y="0" width="124" height="146.344" filterUnits="userSpaceOnUse" color-interpolation-filters="sRGB">
<feFlood flood-opacity="0" result="BackgroundImageFix"/>
<feBlend mode="normal" in="SourceGraphic" in2="BackgroundImageFix" result="shape"/>
<feGaussianBlur stdDeviation="2" result="effect1_foregroundBlur_688_60460"/>
</filter>
</defs>
</svg>
