<svg width="146" height="171" viewBox="0 0 146 171" fill="none" xmlns="http://www.w3.org/2000/svg">
<g filter="url(#filter0_d_688_60322)">
<g filter="url(#filter1_d_688_60322)">
<g filter="url(#filter2_f_688_60322)">
<mask id="path-1-outside-1_688_60322" maskUnits="userSpaceOnUse" x="5" y="4" width="116" height="139" fill="black">
<rect fill="white" x="5" y="4" width="116" height="139"/>
<path fill-rule="evenodd" clip-rule="evenodd" d="M12 62.0194C12 33.8869 34.8869 11 63 11C91.1326 11 114 33.8869 114 62.0194C114 82.3417 102.09 100.527 83.5749 108.687L66.1669 133.691C65.448 134.721 64.2629 135.343 63.0194 135.343H63C61.7566 135.343 60.5714 134.721 59.8526 133.691L42.4251 108.687C23.9097 100.527 12 82.3417 12 62.0194Z"/>
</mask>
<path d="M83.5749 108.687L80.7519 102.281L78.9531 103.074L77.83 104.687L83.5749 108.687ZM66.1669 133.691L71.9066 137.698L71.9117 137.691L66.1669 133.691ZM59.8526 133.691L54.1098 137.694L54.1129 137.698L59.8526 133.691ZM42.4251 108.687L48.1679 104.684L47.0451 103.073L45.2481 102.281L42.4251 108.687ZM63 4C31.0191 4 5 30.0226 5 62.0194H19C19 37.7511 38.7546 18 63 18V4ZM121 62.0194C121 30.0243 95.002 4 63 4V18C87.2631 18 107 37.7494 107 62.0194H121ZM86.3979 115.092C107.447 105.816 121 85.1214 121 62.0194H107C107 79.5621 96.7336 95.238 80.7519 102.281L86.3979 115.092ZM71.9117 137.691L89.3197 112.686L77.83 104.687L60.422 129.692L71.9117 137.691ZM63.0194 142.343C66.5766 142.343 69.8936 140.582 71.9066 137.698L60.4271 129.684C61.0024 128.86 61.9491 128.343 63.0194 128.343V142.343ZM63 142.343H63.0194V128.343H63V142.343ZM54.1129 137.698C56.1259 140.582 59.4429 142.343 63 142.343V128.343C64.0703 128.343 65.017 128.86 65.5923 129.684L54.1129 137.698ZM36.6824 112.689L54.1098 137.694L65.5954 129.689L48.1679 104.684L36.6824 112.689ZM5 62.0194C5 85.1214 18.553 105.816 39.6021 115.092L45.2481 102.281C29.2664 95.238 19 79.5621 19 62.0194H5Z" fill="#2BC512" fill-opacity="0.2" mask="url(#path-1-outside-1_688_60322)"/>
</g>
<mask id="path-3-outside-2_688_60322" maskUnits="userSpaceOnUse" x="5" y="4" width="116" height="139" fill="black">
<rect fill="white" x="5" y="4" width="116" height="139"/>
<path fill-rule="evenodd" clip-rule="evenodd" d="M12 62.0194C12 33.8869 34.8869 11 63 11C91.1326 11 114 33.8869 114 62.0194C114 82.3417 102.09 100.527 83.5749 108.687L66.1669 133.691C65.448 134.721 64.2629 135.343 63.0194 135.343H63C61.7566 135.343 60.5714 134.721 59.8526 133.691L42.4251 108.687C23.9097 100.527 12 82.3417 12 62.0194Z"/>
</mask>
<path fill-rule="evenodd" clip-rule="evenodd" d="M12 62.0194C12 33.8869 34.8869 11 63 11C91.1326 11 114 33.8869 114 62.0194C114 82.3417 102.09 100.527 83.5749 108.687L66.1669 133.691C65.448 134.721 64.2629 135.343 63.0194 135.343H63C61.7566 135.343 60.5714 134.721 59.8526 133.691L42.4251 108.687C23.9097 100.527 12 82.3417 12 62.0194Z" fill="#FF3020"/>
<path d="M83.5749 108.687L80.7519 102.281L78.9531 103.074L77.83 104.687L83.5749 108.687ZM66.1669 133.691L71.9066 137.698L71.9117 137.691L66.1669 133.691ZM59.8526 133.691L54.1098 137.694L54.1129 137.698L59.8526 133.691ZM42.4251 108.687L48.1679 104.684L47.0451 103.073L45.2481 102.281L42.4251 108.687ZM63 4C31.0191 4 5 30.0226 5 62.0194H19C19 37.7511 38.7546 18 63 18V4ZM121 62.0194C121 30.0243 95.002 4 63 4V18C87.2631 18 107 37.7494 107 62.0194H121ZM86.3979 115.092C107.447 105.816 121 85.1214 121 62.0194H107C107 79.5621 96.7336 95.238 80.7519 102.281L86.3979 115.092ZM71.9117 137.691L89.3197 112.686L77.83 104.687L60.422 129.692L71.9117 137.691ZM63.0194 142.343C66.5766 142.343 69.8936 140.582 71.9066 137.698L60.4271 129.684C61.0024 128.86 61.9491 128.343 63.0194 128.343V142.343ZM63 142.343H63.0194V128.343H63V142.343ZM54.1129 137.698C56.1259 140.582 59.4429 142.343 63 142.343V128.343C64.0703 128.343 65.017 128.86 65.5923 129.684L54.1129 137.698ZM36.6824 112.689L54.1098 137.694L65.5954 129.689L48.1679 104.684L36.6824 112.689ZM5 62.0194C5 85.1214 18.553 105.816 39.6021 115.092L45.2481 102.281C29.2664 95.238 19 79.5621 19 62.0194H5Z" fill="white" mask="url(#path-3-outside-2_688_60322)"/>
<path d="M44.6094 92.5684H80.7192V95.9991H44.6094V92.5684Z" fill="white"/>
<path d="M80.7216 91.4846H81.9709C82.5971 91.4846 83.1981 91.2358 83.6409 90.793C84.0837 90.3502 84.3325 89.7492 84.3325 89.123V33.3617C84.3305 32.736 84.0812 32.1365 83.6389 31.6937C83.1961 31.2514 82.5966 31.002 81.9708 31H43.3617C42.736 31.002 42.1365 31.2514 41.6937 31.6937C41.2514 32.1365 41.002 32.736 41 33.3617V89.123C41 89.7492 41.2489 90.3502 41.6917 90.793C42.1345 91.2358 42.7355 91.4846 43.3616 91.4846H80.7216ZM73.8246 46.2171C73.8246 45.9179 74.0674 45.6756 74.3662 45.6756H80.0501C80.3493 45.6756 80.5916 45.9179 80.5916 46.2171V57.5558V57.5553C80.5916 57.8546 80.3493 58.0974 80.0501 58.0974H74.3662C74.0674 58.0974 73.8246 57.8546 73.8246 57.5553V46.2171ZM73.7234 61.881C73.7274 61.5833 73.9677 61.343 74.2654 61.3395H79.9564H79.9559C80.2537 61.343 80.494 61.5833 80.498 61.881V66.6114C80.498 66.9106 80.2552 67.153 79.9559 67.153H74.2654C73.9662 67.153 73.7234 66.9106 73.7234 66.6114L73.7234 61.881ZM45.4132 37.543V37.5425C45.4173 37.2453 45.6576 37.005 45.9548 37.001H70.1987C70.4964 37.005 70.7367 37.2453 70.7407 37.5425V74.8594C70.7367 75.1567 70.4964 75.3969 70.1987 75.401H45.9548C45.6576 75.3969 45.4173 75.1567 45.4132 74.8594V37.543ZM45.4132 80.1526C45.4173 79.8549 45.6576 79.6146 45.9548 79.6111H70.1987C70.4964 79.6146 70.7367 79.8549 70.7407 80.1526V86.2482V86.2477C70.7367 86.5454 70.4964 86.7857 70.1987 86.7897H45.9548C45.6576 86.7857 45.4173 86.5454 45.4132 86.2477V80.1526Z" fill="white"/>
<path d="M50.3419 42.1951C50.3419 41.8959 50.5847 41.6536 50.8839 41.6536H54.9064C55.0505 41.6515 55.1895 41.708 55.2913 41.8097C55.3936 41.912 55.45 42.0505 55.448 42.1951V45.6761H60.6332V42.1951C60.6332 41.8959 60.876 41.6536 61.1747 41.6536H65.1978C65.3419 41.6515 65.4809 41.708 65.5827 41.8097C65.6849 41.912 65.7413 42.0505 65.7393 42.1951V45.6761H69.6606V38.0859H46.5V45.6761H50.3422L50.3419 42.1951Z" fill="white"/>
<path d="M50.3923 52.2125C50.3963 51.9148 50.6361 51.6745 50.9338 51.6709H54.9634C55.2612 51.6745 55.5015 51.9148 55.5055 52.2125V55.7006H60.6836V52.2125C60.6872 51.9148 60.9275 51.6745 61.2252 51.6709H65.2548C65.5525 51.6745 65.7928 51.9148 65.7963 52.2125V55.7006H69.6743L69.6748 46.7598H46.5V55.7006H50.3926L50.3923 52.2125Z" fill="white"/>
<path d="M50.3853 62.2355C50.3853 61.9363 50.6276 61.694 50.9268 61.694H54.9493C55.247 61.698 55.4873 61.9383 55.4908 62.2355V65.7165H60.6761L60.6766 62.2355C60.6766 61.9363 60.9189 61.694 61.2181 61.694H65.2406C65.5384 61.698 65.7782 61.9383 65.7822 62.2355V65.7165H69.6244V56.7832H46.4922V65.7165H50.3848L50.3853 62.2355Z" fill="white"/>
<path d="M50.3923 70.7201C50.3963 70.4224 50.6361 70.1826 50.9338 70.1786H54.9634C55.2612 70.1826 55.5015 70.4224 55.5055 70.7201V74.3311H60.6836V70.7201C60.6872 70.4224 60.9275 70.1826 61.2252 70.1786H65.2548C65.5525 70.1826 65.7928 70.4224 65.7963 70.7201V74.3311H69.6743L69.6748 66.7988H46.5V74.3311H50.3926L50.3923 70.7201Z" fill="white"/>
<path d="M46.5 80.666H69.6606V85.6779H46.5V80.666Z" fill="white"/>
<path d="M51.5 62.7773H54.4395V65.7168H51.5V62.7773Z" fill="white"/>
<path d="M61.7969 62.7773H64.7363V65.7168H61.7969V62.7773Z" fill="white"/>
<path d="M51.4609 52.7539H54.4004V55.6934H51.4609V52.7539Z" fill="white"/>
<path d="M61.75 52.7539H64.6895V55.6934H61.75V52.7539Z" fill="white"/>
<path d="M51.4219 42.7363H54.3613V45.6758H51.4219V42.7363Z" fill="white"/>
<path d="M61.7109 42.7363H64.6504V45.6758H61.7109V42.7363Z" fill="white"/>
<path d="M51.4609 71.2617H54.4004V74.2012H51.4609V71.2617Z" fill="white"/>
<path d="M61.75 71.2617H64.6895V74.2012H61.75V71.2617Z" fill="white"/>
<path d="M74.9062 46.7598H79.5137V57.015H74.9062V46.7598Z" fill="white"/>
<path d="M74.8047 62.4238H79.4122V66.0711H74.8047V62.4238Z" fill="white"/>
</g>
</g>
<defs>
<filter id="filter0_d_688_60322" x="0" y="2" width="146" height="168.344" filterUnits="userSpaceOnUse" color-interpolation-filters="sRGB">
<feFlood flood-opacity="0" result="BackgroundImageFix"/>
<feColorMatrix in="SourceAlpha" type="matrix" values="0 0 0 0 0 0 0 0 0 0 0 0 0 0 0 0 0 0 127 0" result="hardAlpha"/>
<feOffset dx="10" dy="13"/>
<feGaussianBlur stdDeviation="7.5"/>
<feComposite in2="hardAlpha" operator="out"/>
<feColorMatrix type="matrix" values="0 0 0 0 0 0 0 0 0 0 0 0 0 0 0 0 0 0 0.25 0"/>
<feBlend mode="normal" in2="BackgroundImageFix" result="effect1_dropShadow_688_60322"/>
<feBlend mode="normal" in="SourceGraphic" in2="effect1_dropShadow_688_60322" result="shape"/>
</filter>
<filter id="filter1_d_688_60322" x="1" y="4" width="124" height="146.344" filterUnits="userSpaceOnUse" color-interpolation-filters="sRGB">
<feFlood flood-opacity="0" result="BackgroundImageFix"/>
<feColorMatrix in="SourceAlpha" type="matrix" values="0 0 0 0 0 0 0 0 0 0 0 0 0 0 0 0 0 0 127 0" result="hardAlpha"/>
<feOffset dy="4"/>
<feGaussianBlur stdDeviation="2"/>
<feColorMatrix type="matrix" values="0 0 0 0 0 0 0 0 0 0 0 0 0 0 0 0 0 0 0.25 0"/>
<feBlend mode="normal" in2="BackgroundImageFix" result="effect1_dropShadow_688_60322"/>
<feBlend mode="normal" in="SourceGraphic" in2="effect1_dropShadow_688_60322" result="shape"/>
</filter>
<filter id="filter2_f_688_60322" x="1" y="0" width="124" height="146.344" filterUnits="userSpaceOnUse" color-interpolation-filters="sRGB">
<feFlood flood-opacity="0" result="BackgroundImageFix"/>
<feBlend mode="normal" in="SourceGraphic" in2="BackgroundImageFix" result="shape"/>
<feGaussianBlur stdDeviation="2" result="effect1_foregroundBlur_688_60322"/>
</filter>
</defs>
</svg>
