<svg width="146" height="171" viewBox="0 0 146 171" fill="none" xmlns="http://www.w3.org/2000/svg">
<g filter="url(#filter0_d_688_60252)">
<g filter="url(#filter1_d_688_60252)">
<g filter="url(#filter2_f_688_60252)">
<mask id="path-1-outside-1_688_60252" maskUnits="userSpaceOnUse" x="5" y="4" width="116" height="139" fill="black">
<rect fill="white" x="5" y="4" width="116" height="139"/>
<path fill-rule="evenodd" clip-rule="evenodd" d="M12 62.0194C12 33.8869 34.8869 11 63 11C91.1326 11 114 33.8869 114 62.0194C114 82.3417 102.09 100.527 83.5749 108.687L66.1669 133.691C65.448 134.721 64.2629 135.343 63.0194 135.343H63C61.7566 135.343 60.5714 134.721 59.8526 133.691L42.4251 108.687C23.9097 100.527 12 82.3417 12 62.0194Z"/>
</mask>
<path d="M83.5749 108.687L80.7519 102.281L78.9531 103.074L77.83 104.687L83.5749 108.687ZM66.1669 133.691L71.9066 137.698L71.9117 137.691L66.1669 133.691ZM59.8526 133.691L54.1098 137.694L54.1129 137.698L59.8526 133.691ZM42.4251 108.687L48.1679 104.684L47.0451 103.073L45.2481 102.281L42.4251 108.687ZM63 4C31.0191 4 5 30.0226 5 62.0194H19C19 37.7511 38.7546 18 63 18V4ZM121 62.0194C121 30.0243 95.002 4 63 4V18C87.2631 18 107 37.7494 107 62.0194H121ZM86.3979 115.092C107.447 105.816 121 85.1214 121 62.0194H107C107 79.5621 96.7336 95.238 80.7519 102.281L86.3979 115.092ZM71.9117 137.691L89.3197 112.686L77.83 104.687L60.422 129.692L71.9117 137.691ZM63.0194 142.343C66.5766 142.343 69.8936 140.582 71.9066 137.698L60.4271 129.684C61.0024 128.86 61.9491 128.343 63.0194 128.343V142.343ZM63 142.343H63.0194V128.343H63V142.343ZM54.1129 137.698C56.1259 140.582 59.4429 142.343 63 142.343V128.343C64.0703 128.343 65.017 128.86 65.5923 129.684L54.1129 137.698ZM36.6824 112.689L54.1098 137.694L65.5954 129.689L48.1679 104.684L36.6824 112.689ZM5 62.0194C5 85.1214 18.553 105.816 39.6021 115.092L45.2481 102.281C29.2664 95.238 19 79.5621 19 62.0194H5Z" fill="#2BC512" fill-opacity="0.2" mask="url(#path-1-outside-1_688_60252)"/>
</g>
<mask id="path-3-outside-2_688_60252" maskUnits="userSpaceOnUse" x="5" y="4" width="116" height="139" fill="black">
<rect fill="white" x="5" y="4" width="116" height="139"/>
<path fill-rule="evenodd" clip-rule="evenodd" d="M12 62.0194C12 33.8869 34.8869 11 63 11C91.1326 11 114 33.8869 114 62.0194C114 82.3417 102.09 100.527 83.5749 108.687L66.1669 133.691C65.448 134.721 64.2629 135.343 63.0194 135.343H63C61.7566 135.343 60.5714 134.721 59.8526 133.691L42.4251 108.687C23.9097 100.527 12 82.3417 12 62.0194Z"/>
</mask>
<path fill-rule="evenodd" clip-rule="evenodd" d="M12 62.0194C12 33.8869 34.8869 11 63 11C91.1326 11 114 33.8869 114 62.0194C114 82.3417 102.09 100.527 83.5749 108.687L66.1669 133.691C65.448 134.721 64.2629 135.343 63.0194 135.343H63C61.7566 135.343 60.5714 134.721 59.8526 133.691L42.4251 108.687C23.9097 100.527 12 82.3417 12 62.0194Z" fill="#1E9C09"/>
<path d="M83.5749 108.687L80.7519 102.281L78.9531 103.074L77.83 104.687L83.5749 108.687ZM66.1669 133.691L71.9066 137.698L71.9117 137.691L66.1669 133.691ZM59.8526 133.691L54.1098 137.694L54.1129 137.698L59.8526 133.691ZM42.4251 108.687L48.1679 104.684L47.0451 103.073L45.2481 102.281L42.4251 108.687ZM63 4C31.0191 4 5 30.0226 5 62.0194H19C19 37.7511 38.7546 18 63 18V4ZM121 62.0194C121 30.0243 95.002 4 63 4V18C87.2631 18 107 37.7494 107 62.0194H121ZM86.3979 115.092C107.447 105.816 121 85.1214 121 62.0194H107C107 79.5621 96.7336 95.238 80.7519 102.281L86.3979 115.092ZM71.9117 137.691L89.3197 112.686L77.83 104.687L60.422 129.692L71.9117 137.691ZM63.0194 142.343C66.5766 142.343 69.8936 140.582 71.9066 137.698L60.4271 129.684C61.0024 128.86 61.9491 128.343 63.0194 128.343V142.343ZM63 142.343H63.0194V128.343H63V142.343ZM54.1129 137.698C56.1259 140.582 59.4429 142.343 63 142.343V128.343C64.0703 128.343 65.017 128.86 65.5923 129.684L54.1129 137.698ZM36.6824 112.689L54.1098 137.694L65.5954 129.689L48.1679 104.684L36.6824 112.689ZM5 62.0194C5 85.1214 18.553 105.816 39.6021 115.092L45.2481 102.281C29.2664 95.238 19 79.5621 19 62.0194H5Z" fill="white" mask="url(#path-3-outside-2_688_60252)"/>
</g>
<path d="M85.2394 50.9592C88.4812 50.9592 91.1194 48.3217 91.1194 45.0792C91.1194 41.8374 88.4818 39.1992 85.2394 39.1992C81.9975 39.1992 79.3594 41.8368 79.3594 45.0792C79.3599 48.3211 81.9974 50.9592 85.2394 50.9592Z" fill="white"/>
<path d="M44.9191 50.9592C48.1609 50.9592 50.7991 48.3217 50.7991 45.0792C50.7991 41.8374 48.1615 39.1992 44.9191 39.1992C41.6772 39.1992 39.0391 41.8368 39.0391 45.0792C39.0391 48.3211 41.6766 50.9592 44.9191 50.9592Z" fill="white"/>
<path d="M96.943 80.6647L93.1977 55.3507C93.1097 54.7573 92.6057 54.3184 92.013 54.3184H79.4272C78.8368 54.3184 78.3338 54.754 78.2436 55.3446L74.3346 80.8518C74.2806 81.2012 74.3814 81.5574 74.6092 81.8256C74.8359 82.0944 75.169 82.2494 75.5182 82.2494H84.4552V92.5868C84.4552 93.2557 84.9916 93.7984 85.6527 93.7984C86.3139 93.7984 86.8502 93.2557 86.8502 92.5868L86.8508 82.2488H95.7872C95.7933 82.2494 95.7989 82.2494 95.8028 82.2488C96.465 82.2488 97.0003 81.7061 97.0003 81.0372C97.0003 80.9071 96.9803 80.7814 96.9429 80.6642L96.943 80.6647Z" fill="white"/>
<path d="M56.2775 53.4785H35.2429C34.8799 53.4785 34.5354 53.6362 34.299 53.9108C34.0632 54.1853 33.9591 54.5484 34.0146 54.9058L38.0724 80.9545C38.166 81.5583 38.688 82.0026 39.3007 82.0026H44.5168V92.5611C44.5168 93.2443 45.0729 93.7985 45.7596 93.7985C46.4462 93.7985 47.0023 93.2443 47.0023 92.5611V82.0026H52.3594C52.975 82.0026 53.4976 81.5548 53.5889 80.9476L57.5062 54.8989C57.56 54.5427 57.4548 54.1812 57.2189 53.9079C56.9831 53.6356 56.6392 53.4785 56.2773 53.4785L56.2775 53.4785Z" fill="white"/>
<path d="M65.5022 39.1992C64.806 39.1992 64.2422 39.7434 64.2422 40.4154V92.583C64.2422 93.2545 64.806 93.7992 65.5022 93.7992C66.1978 93.7992 66.7622 93.2545 66.7622 92.583V40.4154C66.7622 39.744 66.1978 39.1992 65.5022 39.1992Z" fill="white"/>
</g>
<defs>
<filter id="filter0_d_688_60252" x="0" y="2" width="146" height="168.344" filterUnits="userSpaceOnUse" color-interpolation-filters="sRGB">
<feFlood flood-opacity="0" result="BackgroundImageFix"/>
<feColorMatrix in="SourceAlpha" type="matrix" values="0 0 0 0 0 0 0 0 0 0 0 0 0 0 0 0 0 0 127 0" result="hardAlpha"/>
<feOffset dx="10" dy="13"/>
<feGaussianBlur stdDeviation="7.5"/>
<feComposite in2="hardAlpha" operator="out"/>
<feColorMatrix type="matrix" values="0 0 0 0 0 0 0 0 0 0 0 0 0 0 0 0 0 0 0.25 0"/>
<feBlend mode="normal" in2="BackgroundImageFix" result="effect1_dropShadow_688_60252"/>
<feBlend mode="normal" in="SourceGraphic" in2="effect1_dropShadow_688_60252" result="shape"/>
</filter>
<filter id="filter1_d_688_60252" x="1" y="4" width="124" height="146.344" filterUnits="userSpaceOnUse" color-interpolation-filters="sRGB">
<feFlood flood-opacity="0" result="BackgroundImageFix"/>
<feColorMatrix in="SourceAlpha" type="matrix" values="0 0 0 0 0 0 0 0 0 0 0 0 0 0 0 0 0 0 127 0" result="hardAlpha"/>
<feOffset dy="4"/>
<feGaussianBlur stdDeviation="2"/>
<feColorMatrix type="matrix" values="0 0 0 0 0 0 0 0 0 0 0 0 0 0 0 0 0 0 0.25 0"/>
<feBlend mode="normal" in2="BackgroundImageFix" result="effect1_dropShadow_688_60252"/>
<feBlend mode="normal" in="SourceGraphic" in2="effect1_dropShadow_688_60252" result="shape"/>
</filter>
<filter id="filter2_f_688_60252" x="1" y="0" width="124" height="146.344" filterUnits="userSpaceOnUse" color-interpolation-filters="sRGB">
<feFlood flood-opacity="0" result="BackgroundImageFix"/>
<feBlend mode="normal" in="SourceGraphic" in2="BackgroundImageFix" result="shape"/>
<feGaussianBlur stdDeviation="2" result="effect1_foregroundBlur_688_60252"/>
</filter>
</defs>
</svg>
