<svg width="146" height="171" viewBox="0 0 146 171" fill="none" xmlns="http://www.w3.org/2000/svg">
<g filter="url(#filter0_d_688_60236)">
<g filter="url(#filter1_d_688_60236)">
<g filter="url(#filter2_f_688_60236)">
<mask id="path-1-outside-1_688_60236" maskUnits="userSpaceOnUse" x="5" y="4" width="116" height="139" fill="black">
<rect fill="white" x="5" y="4" width="116" height="139"/>
<path fill-rule="evenodd" clip-rule="evenodd" d="M12 62.0194C12 33.8869 34.8869 11 63 11C91.1326 11 114 33.8869 114 62.0194C114 82.3417 102.09 100.527 83.5749 108.687L66.1669 133.691C65.448 134.721 64.2629 135.343 63.0194 135.343H63C61.7566 135.343 60.5714 134.721 59.8526 133.691L42.4251 108.687C23.9097 100.527 12 82.3417 12 62.0194Z"/>
</mask>
<path d="M83.5749 108.687L80.7519 102.281L78.9531 103.074L77.83 104.687L83.5749 108.687ZM66.1669 133.691L71.9066 137.698L71.9117 137.691L66.1669 133.691ZM59.8526 133.691L54.1098 137.694L54.1129 137.698L59.8526 133.691ZM42.4251 108.687L48.1679 104.684L47.0451 103.073L45.2481 102.281L42.4251 108.687ZM63 4C31.0191 4 5 30.0226 5 62.0194H19C19 37.7511 38.7546 18 63 18V4ZM121 62.0194C121 30.0243 95.002 4 63 4V18C87.2631 18 107 37.7494 107 62.0194H121ZM86.3979 115.092C107.447 105.816 121 85.1214 121 62.0194H107C107 79.5621 96.7336 95.238 80.7519 102.281L86.3979 115.092ZM71.9117 137.691L89.3197 112.686L77.83 104.687L60.422 129.692L71.9117 137.691ZM63.0194 142.343C66.5766 142.343 69.8936 140.582 71.9066 137.698L60.4271 129.684C61.0024 128.86 61.9491 128.343 63.0194 128.343V142.343ZM63 142.343H63.0194V128.343H63V142.343ZM54.1129 137.698C56.1259 140.582 59.4429 142.343 63 142.343V128.343C64.0703 128.343 65.017 128.86 65.5923 129.684L54.1129 137.698ZM36.6824 112.689L54.1098 137.694L65.5954 129.689L48.1679 104.684L36.6824 112.689ZM5 62.0194C5 85.1214 18.553 105.816 39.6021 115.092L45.2481 102.281C29.2664 95.238 19 79.5621 19 62.0194H5Z" fill="#2BC512" fill-opacity="0.2" mask="url(#path-1-outside-1_688_60236)"/>
</g>
<mask id="path-3-outside-2_688_60236" maskUnits="userSpaceOnUse" x="5" y="4" width="116" height="139" fill="black">
<rect fill="white" x="5" y="4" width="116" height="139"/>
<path fill-rule="evenodd" clip-rule="evenodd" d="M12 62.0194C12 33.8869 34.8869 11 63 11C91.1326 11 114 33.8869 114 62.0194C114 82.3417 102.09 100.527 83.5749 108.687L66.1669 133.691C65.448 134.721 64.2629 135.343 63.0194 135.343H63C61.7566 135.343 60.5714 134.721 59.8526 133.691L42.4251 108.687C23.9097 100.527 12 82.3417 12 62.0194Z"/>
</mask>
<path fill-rule="evenodd" clip-rule="evenodd" d="M12 62.0194C12 33.8869 34.8869 11 63 11C91.1326 11 114 33.8869 114 62.0194C114 82.3417 102.09 100.527 83.5749 108.687L66.1669 133.691C65.448 134.721 64.2629 135.343 63.0194 135.343H63C61.7566 135.343 60.5714 134.721 59.8526 133.691L42.4251 108.687C23.9097 100.527 12 82.3417 12 62.0194Z" fill="#1E9C09"/>
<path d="M83.5749 108.687L80.7519 102.281L78.9531 103.074L77.83 104.687L83.5749 108.687ZM66.1669 133.691L71.9066 137.698L71.9117 137.691L66.1669 133.691ZM59.8526 133.691L54.1098 137.694L54.1129 137.698L59.8526 133.691ZM42.4251 108.687L48.1679 104.684L47.0451 103.073L45.2481 102.281L42.4251 108.687ZM63 4C31.0191 4 5 30.0226 5 62.0194H19C19 37.7511 38.7546 18 63 18V4ZM121 62.0194C121 30.0243 95.002 4 63 4V18C87.2631 18 107 37.7494 107 62.0194H121ZM86.3979 115.092C107.447 105.816 121 85.1214 121 62.0194H107C107 79.5621 96.7336 95.238 80.7519 102.281L86.3979 115.092ZM71.9117 137.691L89.3197 112.686L77.83 104.687L60.422 129.692L71.9117 137.691ZM63.0194 142.343C66.5766 142.343 69.8936 140.582 71.9066 137.698L60.4271 129.684C61.0024 128.86 61.9491 128.343 63.0194 128.343V142.343ZM63 142.343H63.0194V128.343H63V142.343ZM54.1129 137.698C56.1259 140.582 59.4429 142.343 63 142.343V128.343C64.0703 128.343 65.017 128.86 65.5923 129.684L54.1129 137.698ZM36.6824 112.689L54.1098 137.694L65.5954 129.689L48.1679 104.684L36.6824 112.689ZM5 62.0194C5 85.1214 18.553 105.816 39.6021 115.092L45.2481 102.281C29.2664 95.238 19 79.5621 19 62.0194H5Z" fill="white" mask="url(#path-3-outside-2_688_60236)"/>
</g>
<path d="M75.3471 51.6785C74.5793 51.5839 73.8051 51.5468 73.0312 51.5686H71.4766V56.0904H73.2366C74.0926 56.1396 74.9514 56.0556 75.7818 55.8417C76.1891 55.6909 76.5398 55.4177 76.7861 55.06C77.032 54.694 77.1596 54.2616 77.1508 53.8208C77.1703 53.2947 76.9879 52.7807 76.6414 52.3845C76.3018 52.0101 75.8458 51.761 75.3471 51.6784L75.3471 51.6785Z" fill="white"/>
<path d="M26.4531 71.752H98.9986V77.4702H26.4531V71.752Z" fill="white"/>
<path d="M94.6447 70.6428H30.8047C30.8047 56.5607 39.852 44.6117 52.483 40.3444C54.0189 39.8324 55.6407 39.4055 57.3481 39.1495C59.1407 38.8935 60.9327 38.7227 62.8104 38.7227C64.688 38.7227 66.48 38.8935 68.2726 39.1495C69.8944 39.4055 71.516 39.8324 73.0519 40.3444C85.5974 44.6117 94.6449 56.5604 94.6449 70.6428H94.6447Z" fill="white"/>
<path d="M68.4427 36.2476C68.4427 36.9304 68.3576 37.5276 68.1016 38.1252C66.309 37.8692 64.517 37.6984 62.6393 37.6984C60.7617 37.6984 58.9697 37.8692 57.1771 38.1252C57.0062 37.5275 56.8359 36.9304 56.8359 36.2476C56.8359 33.0899 59.3965 30.5293 62.5542 30.5293C65.8822 30.5293 68.4428 33.0899 68.4428 36.2476H68.4427Z" fill="white"/>
</g>
<defs>
<filter id="filter0_d_688_60236" x="0" y="2" width="146" height="168.344" filterUnits="userSpaceOnUse" color-interpolation-filters="sRGB">
<feFlood flood-opacity="0" result="BackgroundImageFix"/>
<feColorMatrix in="SourceAlpha" type="matrix" values="0 0 0 0 0 0 0 0 0 0 0 0 0 0 0 0 0 0 127 0" result="hardAlpha"/>
<feOffset dx="10" dy="13"/>
<feGaussianBlur stdDeviation="7.5"/>
<feComposite in2="hardAlpha" operator="out"/>
<feColorMatrix type="matrix" values="0 0 0 0 0 0 0 0 0 0 0 0 0 0 0 0 0 0 0.25 0"/>
<feBlend mode="normal" in2="BackgroundImageFix" result="effect1_dropShadow_688_60236"/>
<feBlend mode="normal" in="SourceGraphic" in2="effect1_dropShadow_688_60236" result="shape"/>
</filter>
<filter id="filter1_d_688_60236" x="1" y="4" width="124" height="146.344" filterUnits="userSpaceOnUse" color-interpolation-filters="sRGB">
<feFlood flood-opacity="0" result="BackgroundImageFix"/>
<feColorMatrix in="SourceAlpha" type="matrix" values="0 0 0 0 0 0 0 0 0 0 0 0 0 0 0 0 0 0 127 0" result="hardAlpha"/>
<feOffset dy="4"/>
<feGaussianBlur stdDeviation="2"/>
<feColorMatrix type="matrix" values="0 0 0 0 0 0 0 0 0 0 0 0 0 0 0 0 0 0 0.25 0"/>
<feBlend mode="normal" in2="BackgroundImageFix" result="effect1_dropShadow_688_60236"/>
<feBlend mode="normal" in="SourceGraphic" in2="effect1_dropShadow_688_60236" result="shape"/>
</filter>
<filter id="filter2_f_688_60236" x="1" y="0" width="124" height="146.344" filterUnits="userSpaceOnUse" color-interpolation-filters="sRGB">
<feFlood flood-opacity="0" result="BackgroundImageFix"/>
<feBlend mode="normal" in="SourceGraphic" in2="BackgroundImageFix" result="shape"/>
<feGaussianBlur stdDeviation="2" result="effect1_foregroundBlur_688_60236"/>
</filter>
</defs>
</svg>
