<svg width="2057" height="1847" viewBox="0 0 2057 1847" fill="none" xmlns="http://www.w3.org/2000/svg">
<path d="M1544.92 705.988L946.918 938.488L977.918 1027.99L1579.42 797.488L1544.92 705.988Z" fill="#6CDD59"/>
<path d="M1158.42 855.988L1112.42 873.488L1145.92 963.988L1191.92 945.988L1158.42 855.988Z" fill="#FF5910"/>
<path d="M1931.92 600.488L1816.92 638.488L1857.42 745.488L1973.92 708.488L1931.92 600.488Z" fill="#E13827"/>
<path d="M1781.92 216.988L1675.42 257.988L1735.92 416.488L1842.92 375.488L1781.92 216.988Z" fill="#6CDD59"/>
<path d="M747.417 832.492L676.418 748.988L198.496 1177.67L274.965 1263.01L747.417 832.492Z" fill="#6CDD59"/>
<path d="M1357.42 1048.99L1311.42 1065.49L1357.42 1185.99L1403.42 1167.99L1357.42 1048.99Z" fill="#E13827"/>
<path d="M1284.3 1308.03C1307.88 1298.86 1319.54 1272.24 1310.34 1248.55C1301.14 1224.87 1274.56 1213.1 1250.98 1222.26C1227.39 1231.42 1215.73 1258.05 1224.93 1281.73C1234.13 1305.42 1260.71 1317.19 1284.3 1308.03Z" fill="white"/>
<path fill-rule="evenodd" clip-rule="evenodd" d="M1252.45 1226.06C1230.96 1234.41 1220.33 1258.68 1228.72 1280.26C1237.1 1301.85 1261.32 1312.58 1282.82 1304.23C1304.31 1295.88 1314.94 1271.61 1306.56 1250.02C1298.17 1228.44 1273.95 1217.71 1252.45 1226.06ZM1221.15 1283.2C1211.13 1257.42 1223.83 1228.43 1249.5 1218.46C1275.18 1208.49 1304.11 1221.3 1314.12 1247.08C1324.14 1272.87 1311.45 1301.85 1285.77 1311.82C1260.1 1321.8 1231.16 1308.98 1221.15 1283.2Z" fill="#9C9C9C"/>
<path d="M709.667 1531.25C733.252 1522.09 744.913 1495.46 735.713 1471.78C726.513 1448.09 699.935 1436.32 676.35 1445.48C652.765 1454.65 641.104 1481.27 650.304 1504.96C659.505 1528.64 686.082 1540.41 709.667 1531.25Z" fill="white"/>
<path fill-rule="evenodd" clip-rule="evenodd" d="M677.826 1449.28C656.331 1457.63 645.703 1481.9 654.088 1503.49C662.473 1525.07 686.696 1535.8 708.191 1527.45C729.686 1519.1 740.314 1494.83 731.929 1473.25C723.544 1451.66 699.321 1440.93 677.826 1449.28ZM646.52 1506.43C636.505 1480.64 649.199 1451.66 674.874 1441.69C700.549 1431.71 729.481 1444.53 739.497 1470.31C749.512 1496.09 736.818 1525.08 711.143 1535.05C685.468 1545.02 656.536 1532.21 646.52 1506.43Z" fill="#9C9C9C"/>
<path d="M578.821 1582.08C602.406 1572.92 614.067 1546.29 604.867 1522.61C595.666 1498.92 569.089 1487.15 545.504 1496.31C521.919 1505.48 510.258 1532.1 519.458 1555.79C528.658 1579.47 555.236 1591.24 578.821 1582.08Z" fill="white"/>
<path fill-rule="evenodd" clip-rule="evenodd" d="M546.98 1500.11C525.484 1508.46 514.857 1532.73 523.242 1554.32C531.627 1575.9 555.849 1586.63 577.345 1578.28C598.84 1569.93 609.468 1545.66 601.083 1524.08C592.698 1502.49 568.475 1491.76 546.98 1500.11ZM515.674 1557.26C505.659 1531.47 518.353 1502.49 544.028 1492.51C569.702 1482.54 598.635 1495.36 608.65 1521.14C618.666 1546.92 605.971 1575.91 580.297 1585.88C554.622 1595.85 525.69 1583.04 515.674 1557.26Z" fill="#9C9C9C"/>
<path d="M1417.87 1256.13C1441.46 1246.97 1453.12 1220.35 1443.92 1196.66C1434.72 1172.98 1408.14 1161.21 1384.56 1170.37C1360.97 1179.53 1349.31 1206.16 1358.51 1229.84C1367.71 1253.52 1394.29 1265.3 1417.87 1256.13Z" fill="white"/>
<path fill-rule="evenodd" clip-rule="evenodd" d="M1386.03 1174.17C1364.54 1182.52 1353.91 1206.79 1362.3 1228.37C1370.68 1249.96 1394.9 1260.68 1416.4 1252.33C1437.89 1243.98 1448.52 1219.72 1440.14 1198.13C1431.75 1176.55 1407.53 1165.82 1386.03 1174.17ZM1354.73 1231.31C1344.71 1205.53 1357.41 1176.54 1383.08 1166.57C1408.76 1156.59 1437.69 1169.41 1447.7 1195.19C1457.72 1220.97 1445.03 1249.96 1419.35 1259.93C1393.68 1269.91 1364.74 1257.09 1354.73 1231.31Z" fill="#9C9C9C"/>
<path d="M1557.26 1201.99C1580.85 1192.82 1592.51 1166.2 1583.31 1142.51C1574.11 1118.83 1547.53 1107.06 1523.94 1116.22C1500.36 1125.38 1488.7 1152.01 1497.9 1175.69C1507.1 1199.38 1533.68 1211.15 1557.26 1201.99Z" fill="white"/>
<path fill-rule="evenodd" clip-rule="evenodd" d="M1525.42 1120.02C1503.92 1128.37 1493.3 1152.64 1501.68 1174.22C1510.07 1195.81 1534.29 1206.54 1555.79 1198.19C1577.28 1189.84 1587.91 1165.57 1579.52 1143.98C1571.14 1122.4 1546.92 1111.67 1525.42 1120.02ZM1494.11 1177.16C1484.1 1151.38 1496.79 1122.4 1522.47 1112.42C1548.14 1102.45 1577.08 1115.26 1587.09 1141.04C1597.11 1166.83 1584.41 1195.81 1558.74 1205.79C1533.06 1215.76 1504.13 1202.94 1494.11 1177.16Z" fill="#9C9C9C"/>
<path d="M1689.13 1150.76C1712.72 1141.6 1724.38 1114.97 1715.18 1091.29C1705.98 1067.6 1679.4 1055.83 1655.82 1064.99C1632.23 1074.16 1620.57 1100.78 1629.77 1124.47C1638.97 1148.15 1665.55 1159.92 1689.13 1150.76Z" fill="white"/>
<path fill-rule="evenodd" clip-rule="evenodd" d="M1657.29 1068.79C1635.8 1077.14 1625.17 1101.41 1633.55 1123C1641.94 1144.58 1666.16 1155.31 1687.66 1146.96C1709.15 1138.61 1719.78 1114.34 1711.39 1092.76C1703.01 1071.17 1678.79 1060.44 1657.29 1068.79ZM1625.99 1125.94C1615.97 1100.15 1628.66 1071.17 1654.34 1061.19C1680.01 1051.22 1708.95 1064.04 1718.96 1089.82C1728.98 1115.6 1716.28 1144.58 1690.61 1154.56C1664.93 1164.53 1636 1151.72 1625.99 1125.94Z" fill="#9C9C9C"/>
<path fill-rule="evenodd" clip-rule="evenodd" d="M1763.23 1030.77L1758.1 1032.76C1763.23 1030.77 1763.23 1030.77 1763.23 1030.77L1763.24 1030.79L1763.25 1030.83L1763.3 1030.96C1763.34 1031.07 1763.4 1031.23 1763.47 1031.43C1763.62 1031.82 1763.82 1032.4 1764.07 1033.12C1764.56 1034.58 1765.23 1036.65 1765.94 1039.19C1767.35 1044.26 1768.95 1051.27 1769.68 1058.96C1771.08 1073.91 1769.3 1093.58 1753.25 1104.76C1751.08 1106.27 1746.77 1108.39 1741.19 1110.92C1735.43 1113.53 1727.82 1116.77 1718.66 1120.56C1700.33 1128.13 1675.65 1137.9 1646.83 1149.08C1589.19 1171.46 1514.88 1199.52 1441.43 1227C1367.97 1254.47 1295.36 1281.36 1241.11 1301.38C1213.98 1311.39 1191.45 1319.68 1175.7 1325.47C1167.82 1328.36 1161.64 1330.63 1157.43 1332.18L1152.5 1333.99C1152.36 1334.16 1152.21 1334.34 1152.05 1334.54C1151.07 1335.71 1149.63 1337.27 1147.73 1338.88C1143.95 1342.11 1138.19 1345.71 1130.54 1346.77C1114.81 1348.95 1094.44 1340.13 1070.11 1305.81L1066.04 1300.07L1761.22 1025.59L1763.23 1030.77ZM1149.07 1329.36C1147.17 1324.18 1147.17 1324.18 1147.18 1324.18L1153.62 1321.81C1157.83 1320.27 1164.01 1318 1171.89 1315.11C1187.64 1309.32 1210.16 1301.03 1237.28 1291.02C1291.52 1271 1364.12 1244.12 1437.56 1216.65C1511 1189.19 1585.26 1161.14 1642.84 1138.79C1671.63 1127.62 1696.22 1117.88 1714.44 1110.35C1723.56 1106.59 1731.04 1103.39 1736.65 1100.86C1742.43 1098.24 1745.77 1096.52 1746.96 1095.69C1757.83 1088.12 1760.05 1074.05 1758.72 1059.96C1758.08 1053.13 1756.64 1046.79 1755.34 1042.13C1755.13 1041.38 1754.93 1040.68 1754.73 1040.03L1083.26 1305.14C1104.6 1333.14 1120.04 1337.08 1129.01 1335.84C1134 1335.14 1137.88 1332.78 1140.59 1330.47C1141.94 1329.32 1142.95 1328.22 1143.61 1327.43C1143.94 1327.04 1144.18 1326.72 1144.33 1326.53C1144.4 1326.43 1144.45 1326.36 1144.47 1326.33C1144.47 1326.32 1144.48 1326.31 1144.48 1326.31L1145.46 1324.81L1147.17 1324.18L1149.07 1329.36Z" fill="#9C9C9C"/>
<path d="M1857.7 965.248L1580.97 1072.75L1586.84 1087.84L1863.56 980.342L1857.7 965.248Z" fill="#9C9C9C"/>
<path d="M1686.46 914.11C1686.46 914.11 1709.25 900.914 1715.11 916.008C1720.97 931.103 1758.45 1032.63 1758.45 1032.63L1734.11 1035.76L1686.8 913.977L1686.46 914.11Z" fill="#9C9C9C"/>
<path d="M1037.63 1157.87L1019.18 1165.04L1070.75 1297.8L1089.2 1290.63L1037.63 1157.87Z" fill="#9C9C9C"/>
<path d="M1089.89 1153.75L1037.62 1174.06L1085.2 1296.53L1137.47 1276.22L1089.89 1153.75Z" fill="#9C9C9C"/>
<path fill-rule="evenodd" clip-rule="evenodd" d="M1208.83 1306.15L1140.6 1130.5L1148.16 1127.56L1216.4 1303.21L1208.83 1306.15Z" fill="#9C9C9C"/>
<path fill-rule="evenodd" clip-rule="evenodd" d="M1148.7 1329.51L1080.47 1153.86L1088.04 1150.92L1156.27 1326.57L1148.7 1329.51Z" fill="#9C9C9C"/>
<path fill-rule="evenodd" clip-rule="evenodd" d="M1318.5 1263.55L1250.26 1087.9L1257.83 1084.96L1326.06 1260.61L1318.5 1263.55Z" fill="#9C9C9C"/>
<path fill-rule="evenodd" clip-rule="evenodd" d="M1258.37 1286.9L1190.13 1111.26L1197.7 1108.32L1265.94 1283.96L1258.37 1286.9Z" fill="#9C9C9C"/>
<path fill-rule="evenodd" clip-rule="evenodd" d="M1374.52 1241.78L1306.29 1066.13L1313.86 1063.19L1382.09 1238.84L1374.52 1241.78Z" fill="#9C9C9C"/>
<path fill-rule="evenodd" clip-rule="evenodd" d="M1484.19 1199.18L1415.95 1023.53L1423.52 1020.59L1491.76 1196.24L1484.19 1199.18Z" fill="#9C9C9C"/>
<path fill-rule="evenodd" clip-rule="evenodd" d="M1424.06 1222.54L1355.83 1046.89L1363.39 1043.95L1431.63 1219.6L1424.06 1222.54Z" fill="#9C9C9C"/>
<path fill-rule="evenodd" clip-rule="evenodd" d="M454.083 1597.37L382.251 1412.46L390.011 1409.45L461.842 1594.36L454.083 1597.37Z" fill="#9C9C9C"/>
<path fill-rule="evenodd" clip-rule="evenodd" d="M563.745 1554.77L491.914 1369.86L499.673 1366.85L571.505 1551.76L563.745 1554.77Z" fill="#9C9C9C"/>
<path fill-rule="evenodd" clip-rule="evenodd" d="M622.948 1536.11L551.117 1351.2L558.876 1348.19L630.708 1533.1L622.948 1536.11Z" fill="#9C9C9C"/>
<path fill-rule="evenodd" clip-rule="evenodd" d="M503.62 1578.13L431.788 1393.22L439.548 1390.2L511.379 1575.11L503.62 1578.13Z" fill="#9C9C9C"/>
<path fill-rule="evenodd" clip-rule="evenodd" d="M729.44 1490.4L657.608 1305.49L665.368 1302.48L737.199 1487.39L729.44 1490.4Z" fill="#9C9C9C"/>
<path fill-rule="evenodd" clip-rule="evenodd" d="M669.312 1513.76L597.48 1328.85L605.24 1325.84L677.072 1510.75L669.312 1513.76Z" fill="#9C9C9C"/>
<path fill-rule="evenodd" clip-rule="evenodd" d="M1534.41 1179.67L1466.17 1004.02L1473.74 1001.08L1541.98 1176.73L1534.41 1179.67Z" fill="#9C9C9C"/>
<path fill-rule="evenodd" clip-rule="evenodd" d="M1644.41 1136.94L1576.18 961.29L1583.75 958.351L1651.98 1134L1644.41 1136.94Z" fill="#9C9C9C"/>
<path fill-rule="evenodd" clip-rule="evenodd" d="M1694.63 1117.43L1626.4 941.782L1633.97 938.842L1702.2 1114.49L1694.63 1117.43Z" fill="#9C9C9C"/>
<path fill-rule="evenodd" clip-rule="evenodd" d="M1584.29 1160.3L1516.05 984.648L1523.62 981.708L1591.85 1157.36L1584.29 1160.3Z" fill="#9C9C9C"/>
<path fill-rule="evenodd" clip-rule="evenodd" d="M803.904 1206.02L940.899 1152.8L1019.66 1355.55L882.665 1408.77L803.904 1206.02ZM818.151 1212.33L888.916 1394.5L1005.41 1349.24L934.648 1167.08L818.151 1212.33Z" fill="#9C9C9C"/>
<path fill-rule="evenodd" clip-rule="evenodd" d="M845.217 1256.7L937.458 1220.87L981.437 1334.08L889.196 1369.91L845.217 1256.7ZM859.464 1263.01L895.447 1355.64L967.19 1327.77L931.207 1235.14L859.464 1263.01Z" fill="#9C9C9C"/>
<path d="M987.406 1177.38L857.243 1227.94L866.705 1252.3L996.868 1201.74L987.406 1177.38Z" fill="#9C9C9C"/>
<path d="M811.294 1209.86C811.294 1209.86 775.926 1141.08 786.962 1108.76C797.998 1076.44 816.549 1041.2 831.157 1029.21C845.765 1017.22 870.423 992.635 881.218 1020.42C892.013 1048.21 937.433 1160.07 937.433 1160.07L811.294 1209.86Z" fill="#9C9C9C"/>
<path d="M1578.91 549.212L1545.43 562.218L1628.99 777.317L1662.47 764.311L1578.91 549.212Z" fill="#9C9C9C"/>
<path fill-rule="evenodd" clip-rule="evenodd" d="M1597.18 684.284L943.629 938.167L940.677 930.567L1594.22 676.685L1597.18 684.284Z" fill="#9C9C9C"/>
<path fill-rule="evenodd" clip-rule="evenodd" d="M927.104 910.602L1585.7 654.756L1589.7 665.047L941.211 916.966L986.244 1037.74L975.941 1041.58L927.104 910.602Z" fill="#9C9C9C"/>
<path fill-rule="evenodd" clip-rule="evenodd" d="M990.918 889.86L1036.04 1012.1L1025.73 1015.91L980.602 893.667L990.918 889.86Z" fill="#9C9C9C"/>
<path fill-rule="evenodd" clip-rule="evenodd" d="M1046.6 868.213L1092.07 990.32L1081.76 994.155L1036.29 872.048L1046.6 868.213Z" fill="#9C9C9C"/>
<path fill-rule="evenodd" clip-rule="evenodd" d="M1102.63 846.462L1147.76 968.702L1137.45 972.509L1092.32 850.269L1102.63 846.462Z" fill="#9C9C9C"/>
<path fill-rule="evenodd" clip-rule="evenodd" d="M1158.31 824.815L1203.78 946.922L1193.48 950.757L1148.01 828.65L1158.31 824.815Z" fill="#9C9C9C"/>
<path fill-rule="evenodd" clip-rule="evenodd" d="M1176.49 705.597L1259.46 925.266L1249.17 929.15L1166.2 709.481L1176.49 705.597Z" fill="#9C9C9C"/>
<path fill-rule="evenodd" clip-rule="evenodd" d="M1232.17 683.956L1315.48 903.492L1305.2 907.393L1221.89 687.857L1232.17 683.956Z" fill="#9C9C9C"/>
<path fill-rule="evenodd" clip-rule="evenodd" d="M1282.73 664.315L1366.05 883.851L1355.77 887.752L1272.45 668.216L1282.73 664.315Z" fill="#9C9C9C"/>
<path fill-rule="evenodd" clip-rule="evenodd" d="M1338.76 642.558L1421.74 862.227L1411.45 866.111L1328.47 646.443L1338.76 642.558Z" fill="#9C9C9C"/>
<path fill-rule="evenodd" clip-rule="evenodd" d="M1394.1 621.05L1477.42 840.586L1467.14 844.487L1383.82 624.951L1394.1 621.05Z" fill="#9C9C9C"/>
<path fill-rule="evenodd" clip-rule="evenodd" d="M1450.13 599.293L1533.11 818.962L1522.82 822.846L1439.85 603.177L1450.13 599.293Z" fill="#9C9C9C"/>
<path fill-rule="evenodd" clip-rule="evenodd" d="M1500.7 579.651L1583.67 799.32L1573.39 803.205L1490.41 583.536L1500.7 579.651Z" fill="#9C9C9C"/>
<path fill-rule="evenodd" clip-rule="evenodd" d="M1556.38 558.011L1639.7 777.547L1629.42 781.447L1546.1 561.911L1556.38 558.011Z" fill="#9C9C9C"/>
<path fill-rule="evenodd" clip-rule="evenodd" d="M1585.89 703.666L1561.09 713.698L1558.03 706.148L1582.84 696.117L1585.89 703.666Z" fill="#9C9C9C"/>
<path fill-rule="evenodd" clip-rule="evenodd" d="M1568.96 726.164L1593.78 716.314L1606.66 748.77L1581.83 758.619L1568.96 726.164ZM1579.38 730.689L1586.32 748.182L1596.24 744.244L1589.3 726.751L1579.38 730.689Z" fill="#9C9C9C"/>
<path fill-rule="evenodd" clip-rule="evenodd" d="M1577.52 722.687L1570.32 704.162L1577.79 701.26L1584.99 719.785L1577.52 722.687Z" fill="#9C9C9C"/>
<path fill-rule="evenodd" clip-rule="evenodd" d="M229.885 1581.81L721.28 1395.3L723.735 1398.85L719.216 1401.98C723.735 1398.85 723.735 1398.85 723.735 1398.85L723.738 1398.86L723.744 1398.86L723.759 1398.89L723.812 1398.96C723.856 1399.03 723.919 1399.12 723.998 1399.24C724.158 1399.48 724.385 1399.82 724.672 1400.26C725.247 1401.14 726.059 1402.42 727.035 1404.03C728.986 1407.25 731.601 1411.83 734.281 1417.29C739.589 1428.11 745.377 1442.84 746.425 1457.53C747.582 1473.73 736.958 1487.96 727.499 1497.42C722.621 1502.3 717.704 1506.26 714.018 1509C712.17 1510.37 710.618 1511.44 709.517 1512.18C708.967 1512.55 708.528 1512.84 708.221 1513.03C708.1 1513.11 707.999 1513.18 707.919 1513.23L707.86 1513.26L707.758 1513.33L707.714 1513.35C707.714 1513.35 707.711 1513.36 704.821 1508.65L707.714 1513.35L707.25 1513.64L201.31 1701.39L199.566 1695.85L204.811 1694.21C199.566 1695.85 199.566 1695.85 199.566 1695.85L199.185 1694.64C198.937 1693.85 198.574 1692.69 198.112 1691.21C197.187 1688.24 195.866 1683.98 194.278 1678.82C191.106 1668.5 186.867 1654.55 182.596 1640.02C179.712 1630.93 181.87 1622.49 186.137 1615.37C190.347 1608.34 196.758 1602.31 203.109 1597.47C209.511 1592.6 216.163 1588.71 221.177 1586.05C223.693 1584.71 225.82 1583.67 227.328 1582.96C228.083 1582.61 228.684 1582.34 229.103 1582.15C229.312 1582.06 229.476 1581.98 229.591 1581.93L229.727 1581.88L229.783 1581.85C229.783 1581.85 229.786 1581.85 231.946 1586.93L229.783 1581.85L229.885 1581.81ZM234.02 1592.05L233.996 1592.06C233.909 1592.1 233.775 1592.16 233.596 1592.24C233.239 1592.39 232.703 1592.64 232.018 1592.96C230.647 1593.6 228.681 1594.56 226.344 1595.8C221.649 1598.3 215.55 1601.87 209.776 1606.27C203.952 1610.71 198.763 1615.74 195.57 1621.07C192.445 1626.28 191.397 1631.45 193.091 1636.74L193.111 1636.8L193.13 1636.86C197.39 1651.36 201.622 1665.29 204.789 1675.59C206.214 1680.23 207.424 1684.13 208.322 1687.01L702.358 1503.68C702.605 1503.52 702.953 1503.29 703.387 1503C704.361 1502.35 705.767 1501.38 707.457 1500.12C710.848 1497.6 715.325 1493.99 719.719 1489.6C728.807 1480.5 736.242 1469.35 735.452 1458.28C734.554 1445.69 729.481 1432.47 724.414 1422.14C721.906 1417.03 719.456 1412.74 717.638 1409.74C717.421 1409.38 717.213 1409.04 717.016 1408.72L234.02 1592.05Z" fill="#9C9C9C"/>
<path d="M794.815 1376.96L552.938 1470.92L560.135 1489.45L802.012 1395.48L794.815 1376.96Z" fill="#9C9C9C"/>
<path fill-rule="evenodd" clip-rule="evenodd" d="M742.827 1446.65L201.579 1652.56L198.606 1644.75L739.855 1438.84L742.827 1446.65Z" fill="#9C9C9C"/>
<path fill-rule="evenodd" clip-rule="evenodd" d="M403.438 1610.73L372.919 1532.17L380.679 1529.15L411.197 1607.71L403.438 1610.73Z" fill="#9C9C9C"/>
<path d="M0 1371.43L111.58 1272.02L172.162 1338.91L351.418 1536.18L201.64 1603.05L0 1371.43Z" fill="#9C9C9C"/>
<path fill-rule="evenodd" clip-rule="evenodd" d="M169.392 1335.78L254.964 1259.5L260.507 1265.75L174.934 1342.03L169.392 1335.78Z" fill="#9C9C9C"/>
<path fill-rule="evenodd" clip-rule="evenodd" d="M209.089 1377.21L294.795 1301.27L300.318 1307.54L214.612 1383.48L209.089 1377.21Z" fill="#9C9C9C"/>
<path fill-rule="evenodd" clip-rule="evenodd" d="M247.521 1421.51L333.436 1345.09L338.971 1351.35L253.057 1427.76L247.521 1421.51Z" fill="#9C9C9C"/>
<path fill-rule="evenodd" clip-rule="evenodd" d="M287.22 1462.93L373.268 1386.87L378.785 1393.14L292.737 1469.21L287.22 1462.93Z" fill="#9C9C9C"/>
<path fill-rule="evenodd" clip-rule="evenodd" d="M332.852 1057.47L407.146 1145.48L400.796 1150.87L326.501 1062.86L332.852 1057.47Z" fill="#9C9C9C"/>
<path fill-rule="evenodd" clip-rule="evenodd" d="M290.561 1096.39L365.197 1184.27L358.863 1189.67L284.227 1101.8L290.561 1096.39Z" fill="#9C9C9C"/>
<path fill-rule="evenodd" clip-rule="evenodd" d="M245.901 1134.27L320.404 1221.8L314.076 1227.21L239.573 1139.68L245.901 1134.27Z" fill="#9C9C9C"/>
<path fill-rule="evenodd" clip-rule="evenodd" d="M203.969 1173.07L278.13 1260.74L271.785 1266.13L197.624 1178.47L203.969 1173.07Z" fill="#9C9C9C"/>
<path fill-rule="evenodd" clip-rule="evenodd" d="M499.929 902.54L574.09 990.206L567.745 995.601L493.585 907.935L499.929 902.54Z" fill="#9C9C9C"/>
<path fill-rule="evenodd" clip-rule="evenodd" d="M457.516 941.131L531.81 1029.14L525.46 1034.53L451.166 946.52L457.516 941.131Z" fill="#9C9C9C"/>
<path fill-rule="evenodd" clip-rule="evenodd" d="M412.857 979.007L487.017 1066.67L480.673 1072.07L406.512 984.402L412.857 979.007Z" fill="#9C9C9C"/>
<path fill-rule="evenodd" clip-rule="evenodd" d="M370.566 1017.93L445.068 1105.46L438.74 1110.88L364.238 1023.34L370.566 1017.93Z" fill="#9C9C9C"/>
<path fill-rule="evenodd" clip-rule="evenodd" d="M677.807 743.024L751.968 830.69L745.623 836.085L671.462 748.419L677.807 743.024Z" fill="#9C9C9C"/>
<path fill-rule="evenodd" clip-rule="evenodd" d="M635.516 781.945L710.019 869.478L703.691 874.892L629.188 787.359L635.516 781.945Z" fill="#9C9C9C"/>
<path fill-rule="evenodd" clip-rule="evenodd" d="M590.729 819.484L665.365 907.36L659.031 912.768L584.395 824.892L590.729 819.484Z" fill="#9C9C9C"/>
<path fill-rule="evenodd" clip-rule="evenodd" d="M548.796 858.292L623.09 946.301L616.74 951.689L542.446 863.68L548.796 858.292Z" fill="#9C9C9C"/>
<path fill-rule="evenodd" clip-rule="evenodd" d="M844.404 587.878L918.906 675.411L912.578 680.825L838.076 593.292L844.404 587.878Z" fill="#9C9C9C"/>
<path fill-rule="evenodd" clip-rule="evenodd" d="M802.471 626.685L876.632 714.351L870.288 719.747L796.127 632.081L802.471 626.685Z" fill="#9C9C9C"/>
<path fill-rule="evenodd" clip-rule="evenodd" d="M757.684 664.225L831.978 752.234L825.628 757.622L751.334 669.613L757.684 664.225Z" fill="#9C9C9C"/>
<path fill-rule="evenodd" clip-rule="evenodd" d="M715.393 703.146L790.029 791.022L783.695 796.43L709.06 708.553L715.393 703.146Z" fill="#9C9C9C"/>
<path fill-rule="evenodd" clip-rule="evenodd" d="M978.718 474.11L1053.35 561.986L1047.02 567.394L972.384 479.517L978.718 474.11Z" fill="#9C9C9C"/>
<path fill-rule="evenodd" clip-rule="evenodd" d="M934.058 511.985L1008.56 599.518L1002.23 604.933L927.73 517.4L934.058 511.985Z" fill="#9C9C9C"/>
<path fill-rule="evenodd" clip-rule="evenodd" d="M892.126 550.793L966.287 638.459L959.942 643.854L885.781 556.188L892.126 550.793Z" fill="#9C9C9C"/>
<path d="M1702.92 0L1583 46.5826L1602.59 97.0125L1722.51 50.4299L1702.92 0Z" fill="#9C9C9C"/>
<path fill-rule="evenodd" clip-rule="evenodd" d="M1784.03 221.969L1668.56 266.827L1664.56 256.535L1780.04 211.678L1784.03 221.969Z" fill="#9C9C9C"/>
<path fill-rule="evenodd" clip-rule="evenodd" d="M1805.76 277.886L1690.28 322.743L1686.29 312.452L1801.76 267.594L1805.76 277.886Z" fill="#9C9C9C"/>
<path fill-rule="evenodd" clip-rule="evenodd" d="M1823.21 322.828L1707.74 367.686L1703.74 357.394L1819.22 312.537L1823.21 322.828Z" fill="#9C9C9C"/>
<path fill-rule="evenodd" clip-rule="evenodd" d="M1844.94 378.747L1729.47 423.604L1725.47 413.313L1840.94 368.455L1844.94 378.747Z" fill="#9C9C9C"/>
<path fill-rule="evenodd" clip-rule="evenodd" d="M1865.33 431.235L1749.86 476.093L1745.86 465.801L1861.33 420.944L1865.33 431.235Z" fill="#9C9C9C"/>
<path fill-rule="evenodd" clip-rule="evenodd" d="M1887.05 487.154L1771.58 532.012L1767.58 521.72L1883.05 476.862L1887.05 487.154Z" fill="#9C9C9C"/>
<path fill-rule="evenodd" clip-rule="evenodd" d="M1911.28 544.469L1795.81 589.326L1791.81 579.034L1907.28 534.177L1911.28 544.469Z" fill="#9C9C9C"/>
<path fill-rule="evenodd" clip-rule="evenodd" d="M1933.14 600.731L1817.66 645.588L1813.67 635.296L1929.14 590.439L1933.14 600.731Z" fill="#9C9C9C"/>
<path fill-rule="evenodd" clip-rule="evenodd" d="M1953.39 652.876L1837.92 697.733L1833.92 687.442L1949.39 642.584L1953.39 652.876Z" fill="#9C9C9C"/>
<path fill-rule="evenodd" clip-rule="evenodd" d="M1975.25 709.138L1859.78 753.995L1855.78 743.704L1971.25 698.846L1975.25 709.138Z" fill="#9C9C9C"/>
<path fill-rule="evenodd" clip-rule="evenodd" d="M1992.57 753.736L1877.1 798.593L1873.1 788.301L1988.58 743.444L1992.57 753.736Z" fill="#9C9C9C"/>
<path fill-rule="evenodd" clip-rule="evenodd" d="M2014.43 809.998L1898.96 854.855L1894.96 844.563L2010.43 799.706L2014.43 809.998Z" fill="#9C9C9C"/>
<path fill-rule="evenodd" clip-rule="evenodd" d="M2034.69 862.143L1919.21 907L1915.22 896.708L2030.69 851.851L2034.69 862.143Z" fill="#9C9C9C"/>
<path fill-rule="evenodd" clip-rule="evenodd" d="M2056.54 918.405L1941.07 963.262L1937.07 952.97L2052.54 908.113L2056.54 918.405Z" fill="#9C9C9C"/>
<path fill-rule="evenodd" clip-rule="evenodd" d="M1063.5 400.143L1138 487.676L1131.67 493.09L1057.17 405.557L1063.5 400.143Z" fill="#9C9C9C"/>
<path fill-rule="evenodd" clip-rule="evenodd" d="M1021.57 438.95L1095.73 526.616L1089.38 532.012L1015.22 444.346L1021.57 438.95Z" fill="#9C9C9C"/>
<path fill-rule="evenodd" clip-rule="evenodd" d="M1197.81 286.375L1272.45 374.251L1266.12 379.659L1191.48 291.782L1197.81 286.375Z" fill="#9C9C9C"/>
<path fill-rule="evenodd" clip-rule="evenodd" d="M1153.15 324.25L1227.66 411.784L1221.33 417.198L1146.83 329.665L1153.15 324.25Z" fill="#9C9C9C"/>
<path fill-rule="evenodd" clip-rule="evenodd" d="M1111.22 363.058L1185.38 450.724L1179.04 456.119L1104.88 368.453L1111.22 363.058Z" fill="#9C9C9C"/>
<path fill-rule="evenodd" clip-rule="evenodd" d="M1291.75 205.631L1366.25 293.164L1359.92 298.579L1285.42 211.046L1291.75 205.631Z" fill="#9C9C9C"/>
<path fill-rule="evenodd" clip-rule="evenodd" d="M1249.81 244.439L1323.97 332.105L1317.63 337.5L1243.47 249.834L1249.81 244.439Z" fill="#9C9C9C"/>
<path fill-rule="evenodd" clip-rule="evenodd" d="M1426.06 91.8631L1500.7 179.739L1494.36 185.147L1419.73 97.2708L1426.06 91.8631Z" fill="#9C9C9C"/>
<path fill-rule="evenodd" clip-rule="evenodd" d="M1381.4 129.739L1455.9 217.272L1449.58 222.686L1375.07 135.153L1381.4 129.739Z" fill="#9C9C9C"/>
<path fill-rule="evenodd" clip-rule="evenodd" d="M1339.47 168.546L1413.63 256.212L1407.28 261.607L1333.12 173.941L1339.47 168.546Z" fill="#9C9C9C"/>
<rect x="215" y="1736.58" width="454.149" height="118" rx="10" transform="rotate(-20.9769 215 1736.58)" fill="#FE763B"/>
<path d="M296.408 1757.29L284 1727L292.222 1723.64L301.915 1747.3L314.159 1742.28L316.873 1748.9L296.408 1757.29Z" fill="white"/>
<path d="M331.427 1743.42C328.962 1744.43 326.653 1744.81 324.498 1744.55C322.34 1744.29 320.432 1743.47 318.777 1742.1C317.118 1740.72 315.811 1738.86 314.858 1736.54C313.905 1734.21 313.537 1731.98 313.755 1729.84C313.968 1727.69 314.752 1725.77 316.107 1724.07C317.458 1722.37 319.366 1721.01 321.83 1720C324.295 1718.99 326.606 1718.62 328.765 1718.89C330.92 1719.14 332.827 1719.96 334.486 1721.34C336.142 1722.72 337.446 1724.56 338.399 1726.89C339.352 1729.22 339.722 1731.45 339.509 1733.6C339.291 1735.74 338.507 1737.66 337.156 1739.37C335.801 1741.06 333.891 1742.41 331.427 1743.42ZM329.014 1737.37C329.704 1737.08 330.206 1736.61 330.519 1735.94C330.832 1735.27 330.95 1734.45 330.875 1733.48C330.8 1732.51 330.52 1731.43 330.035 1730.25C329.546 1729.06 328.99 1728.09 328.367 1727.36C327.739 1726.61 327.079 1726.11 326.387 1725.85C325.694 1725.6 325.003 1725.61 324.313 1725.89C323.583 1726.19 323.052 1726.68 322.72 1727.36C322.387 1728.03 322.258 1728.86 322.334 1729.83C322.405 1730.79 322.685 1731.87 323.174 1733.06C323.658 1734.24 324.214 1735.21 324.842 1735.95C325.469 1736.7 326.139 1737.19 326.851 1737.44C327.564 1737.69 328.285 1737.67 329.014 1737.37Z" fill="white"/>
<path d="M350.579 1708.57L353.003 1714.48L338.038 1720.61L335.615 1714.7L350.579 1708.57ZM336.284 1708.07L344.446 1704.73L352.988 1725.58C353.118 1725.89 353.281 1726.14 353.478 1726.31C353.672 1726.47 353.904 1726.56 354.175 1726.57C354.442 1726.58 354.753 1726.51 355.108 1726.37C355.354 1726.26 355.628 1726.12 355.929 1725.93C356.24 1725.73 356.466 1725.58 356.608 1725.47L360.142 1730.73C359.821 1730.98 359.353 1731.33 358.738 1731.77C358.132 1732.2 357.376 1732.63 356.47 1733.06C354.637 1733.93 352.986 1734.38 351.516 1734.42C350.042 1734.44 348.769 1734.06 347.696 1733.27C346.623 1732.48 345.772 1731.28 345.141 1729.69L336.284 1708.07Z" fill="white"/>
<path d="M371.393 1726.57L358.986 1696.28L367.207 1692.91L372.054 1704.74L382.937 1700.28L378.091 1688.45L386.312 1685.09L398.72 1715.37L390.498 1718.74L385.652 1706.91L374.768 1711.37L379.615 1723.2L371.393 1726.57Z" fill="white"/>
<path d="M410.919 1710.37L398.512 1680.09L411.584 1674.73C413.831 1673.81 415.98 1673.45 418.029 1673.65C420.078 1673.84 421.9 1674.55 423.495 1675.78C425.09 1677 426.328 1678.68 427.208 1680.83C428.097 1683 428.383 1685.08 428.067 1687.06C427.761 1689.04 426.916 1690.81 425.533 1692.38C424.159 1693.95 422.319 1695.2 420.012 1696.15L412.204 1699.35L409.587 1692.96L415.739 1690.44C416.705 1690.04 417.459 1689.54 418.002 1688.92C418.551 1688.3 418.878 1687.59 418.984 1686.81C419.101 1686.03 418.983 1685.21 418.632 1684.35C418.276 1683.48 417.786 1682.82 417.161 1682.36C416.542 1681.89 415.82 1681.63 414.997 1681.59C414.18 1681.53 413.288 1681.7 412.322 1682.1L409.423 1683.29L419.141 1707L410.919 1710.37Z" fill="white"/>
<path d="M434.119 1665.5L446.527 1695.78L438.364 1699.13L425.957 1668.84L434.119 1665.5Z" fill="white"/>
<path d="M457.16 1691.84C455.711 1692.44 454.332 1692.72 453.025 1692.71C451.723 1692.68 450.556 1692.3 449.525 1691.58C448.495 1690.87 447.67 1689.75 447.052 1688.25C446.543 1687 446.321 1685.86 446.386 1684.81C446.446 1683.75 446.741 1682.78 447.269 1681.91C447.798 1681.03 448.505 1680.24 449.389 1679.53C450.283 1678.82 451.299 1678.18 452.436 1677.61C453.667 1676.99 454.639 1676.46 455.351 1676C456.07 1675.54 456.549 1675.1 456.789 1674.71C457.025 1674.3 457.054 1673.88 456.876 1673.45L456.852 1673.39C456.609 1672.79 456.197 1672.43 455.614 1672.3C455.032 1672.17 454.385 1672.26 453.675 1672.55C452.897 1672.87 452.332 1673.3 451.98 1673.85C451.634 1674.38 451.555 1675.01 451.744 1675.76L444.232 1678.83C443.765 1677.41 443.683 1675.96 443.985 1674.48C444.293 1672.98 445.058 1671.58 446.279 1670.26C447.497 1668.93 449.234 1667.8 451.492 1666.88C453.118 1666.21 454.656 1665.81 456.105 1665.66C457.55 1665.51 458.865 1665.58 460.051 1665.89C461.232 1666.19 462.245 1666.7 463.09 1667.41C463.941 1668.11 464.582 1668.99 465.014 1670.04L471.388 1685.6L463.758 1688.72L462.449 1685.53L462.271 1685.6C462.165 1686.64 461.894 1687.55 461.457 1688.34C461.031 1689.12 460.452 1689.8 459.721 1690.38C458.999 1690.95 458.146 1691.44 457.16 1691.84ZM457.713 1685.61C458.334 1685.35 458.864 1684.98 459.301 1684.51C459.748 1684.02 460.045 1683.47 460.192 1682.85C460.339 1682.22 460.271 1681.56 459.989 1680.87L459.213 1678.98C459.033 1679.16 458.835 1679.34 458.621 1679.52C458.417 1679.69 458.191 1679.87 457.943 1680.05C457.705 1680.23 457.446 1680.41 457.164 1680.6C456.893 1680.78 456.604 1680.96 456.299 1681.14C455.709 1681.5 455.258 1681.87 454.947 1682.27C454.641 1682.64 454.456 1683.04 454.392 1683.44C454.334 1683.84 454.386 1684.23 454.548 1684.62C454.806 1685.25 455.226 1685.65 455.807 1685.8C456.388 1685.95 457.023 1685.89 457.713 1685.61Z" fill="white"/>
<path d="M482.933 1690.82C481.996 1691.2 481.074 1691.49 480.165 1691.69C479.261 1691.9 478.438 1692.01 477.696 1692.03L477.096 1685.5C477.863 1685.47 478.537 1685.37 479.117 1685.21C479.707 1685.05 480.169 1684.82 480.503 1684.51C480.847 1684.19 481.022 1683.79 481.03 1683.31L481.038 1682.82L463.335 1662.37L471.853 1658.88L481.966 1673.11L482.203 1673.02L479.483 1655.76L488.059 1652.24L489.86 1680.24C489.959 1681.66 489.818 1683.03 489.437 1684.35C489.07 1685.68 488.37 1686.89 487.337 1687.99C486.303 1689.09 484.835 1690.04 482.933 1690.82Z" fill="white"/>
<path d="M510.048 1670.24C507.623 1671.24 505.344 1671.63 503.209 1671.42C501.081 1671.2 499.186 1670.41 497.524 1669.05C495.869 1667.68 494.54 1665.77 493.539 1663.33C492.577 1660.98 492.211 1658.74 492.438 1656.6C492.665 1654.45 493.442 1652.54 494.767 1650.86C496.092 1649.18 497.928 1647.85 500.274 1646.89C501.99 1646.19 503.651 1645.82 505.26 1645.78C506.868 1645.74 508.373 1646.03 509.774 1646.64C511.172 1647.25 512.432 1648.16 513.554 1649.38C514.676 1650.6 515.607 1652.11 516.346 1653.92L517.121 1655.81L496.833 1664.12L494.992 1659.63L507.768 1654.39C507.491 1653.74 507.089 1653.24 506.562 1652.88C506.041 1652.51 505.452 1652.29 504.797 1652.24C504.148 1652.17 503.483 1652.28 502.803 1652.56C502.142 1652.83 501.594 1653.22 501.159 1653.73C500.72 1654.23 500.434 1654.8 500.301 1655.43C500.178 1656.06 500.242 1656.7 500.492 1657.37L502.48 1662.22C502.778 1662.95 503.198 1663.54 503.738 1663.99C504.278 1664.43 504.9 1664.7 505.605 1664.79C506.31 1664.88 507.067 1664.76 507.875 1664.43C508.437 1664.2 508.917 1663.91 509.316 1663.57C509.725 1663.21 510.036 1662.82 510.25 1662.39C510.46 1661.95 510.557 1661.48 510.541 1660.99L517.994 1657.94C518.384 1659.62 518.339 1661.24 517.859 1662.79C517.375 1664.34 516.476 1665.76 515.161 1667.04C513.852 1668.32 512.148 1669.38 510.048 1670.24Z" fill="white"/>
<path d="M524.329 1663.91L515.024 1641.19L522.95 1637.95L524.719 1642.27L524.955 1642.17C524.715 1640.4 524.892 1638.96 525.486 1637.86C526.09 1636.75 526.999 1635.94 528.211 1635.45C528.566 1635.3 528.928 1635.19 529.297 1635.1C529.672 1635.01 530.043 1634.94 530.409 1634.91L533.262 1641.87C532.801 1641.9 532.261 1642 531.641 1642.17C531.022 1642.35 530.5 1642.52 530.076 1642.7C529.277 1643.02 528.632 1643.5 528.141 1644.13C527.656 1644.74 527.364 1645.45 527.265 1646.25C527.163 1647.04 527.29 1647.87 527.645 1648.73L532.492 1660.56L524.329 1663.91Z" fill="white"/>
<path d="M556.869 1632.68L549.357 1635.76C549.128 1635.32 548.802 1634.98 548.379 1634.76C547.956 1634.55 547.481 1634.44 546.955 1634.45C546.434 1634.44 545.903 1634.55 545.361 1634.77C544.661 1635.06 544.112 1635.44 543.714 1635.9C543.317 1636.36 543.22 1636.83 543.423 1637.3C543.551 1637.63 543.821 1637.89 544.234 1638.05C544.656 1638.21 545.334 1638.19 546.266 1638L551.219 1636.93C553.719 1636.4 555.742 1636.41 557.288 1636.95C558.839 1637.48 559.963 1638.58 560.66 1640.25C561.312 1641.87 561.405 1643.47 560.937 1645.06C560.475 1646.63 559.555 1648.08 558.175 1649.4C556.801 1650.71 555.064 1651.8 552.964 1652.66C549.494 1654.08 546.488 1654.48 543.944 1653.87C541.411 1653.25 539.554 1651.82 538.374 1649.59L546.477 1646.27C546.881 1646.94 547.464 1647.35 548.227 1647.5C548.995 1647.64 549.843 1647.51 550.77 1647.13C551.519 1646.83 552.083 1646.45 552.461 1645.99C552.849 1645.53 552.951 1645.07 552.767 1644.59C552.579 1644.16 552.221 1643.9 551.692 1643.82C551.173 1643.73 550.437 1643.79 549.485 1644L545.173 1644.94C542.69 1645.48 540.64 1645.42 539.022 1644.76C537.404 1644.1 536.235 1642.88 535.514 1641.09C534.858 1639.52 534.724 1638.01 535.114 1636.57C535.51 1635.12 536.374 1633.79 537.707 1632.57C539.046 1631.35 540.795 1630.29 542.954 1629.41C546.237 1628.06 549.103 1627.68 551.553 1628.27C554.013 1628.85 555.785 1630.32 556.869 1632.68Z" fill="white"/>
<path d="M316.88 1807.26L304.472 1776.97L317.544 1771.62C319.792 1770.7 321.94 1770.33 323.99 1770.53C326.039 1770.73 327.861 1771.44 329.456 1772.66C331.051 1773.88 332.288 1775.57 333.169 1777.72C334.057 1779.89 334.344 1781.96 334.028 1783.95C333.722 1785.93 332.877 1787.7 331.493 1789.27C330.12 1790.83 328.279 1792.09 325.973 1793.03L318.165 1796.23L315.548 1789.84L321.699 1787.32C322.665 1786.93 323.42 1786.42 323.963 1785.81C324.511 1785.18 324.839 1784.48 324.945 1783.7C325.061 1782.91 324.944 1782.09 324.592 1781.23C324.237 1780.37 323.747 1779.7 323.122 1779.24C322.502 1778.77 321.781 1778.52 320.958 1778.47C320.14 1778.42 319.248 1778.59 318.282 1778.98L315.384 1780.17L325.102 1803.89L316.88 1807.26Z" fill="white"/>
<path d="M344.325 1796.01L335.019 1773.3L342.945 1770.05L344.714 1774.37L344.951 1774.27C344.711 1772.51 344.888 1771.07 345.482 1769.96C346.086 1768.85 346.994 1768.05 348.207 1767.55C348.561 1767.41 348.924 1767.29 349.293 1767.21C349.668 1767.11 350.038 1767.05 350.404 1767.01L353.258 1773.98C352.797 1774.01 352.257 1774.11 351.637 1774.28C351.017 1774.45 350.495 1774.63 350.071 1774.8C349.273 1775.13 348.628 1775.6 348.137 1776.23C347.651 1776.85 347.359 1777.55 347.261 1778.35C347.159 1779.14 347.285 1779.97 347.641 1780.84L352.487 1792.67L344.325 1796.01Z" fill="white"/>
<path d="M372.132 1785.1C369.707 1786.1 367.427 1786.49 365.293 1786.28C363.164 1786.06 361.269 1785.27 359.608 1783.91C357.952 1782.54 356.624 1780.64 355.622 1778.19C354.661 1775.84 354.294 1773.6 354.521 1771.46C354.749 1769.31 355.525 1767.4 356.851 1765.72C358.176 1764.04 360.012 1762.71 362.358 1761.75C364.073 1761.05 365.735 1760.68 367.343 1760.64C368.951 1760.61 370.456 1760.89 371.858 1761.51C373.256 1762.11 374.516 1763.02 375.638 1764.24C376.76 1765.46 377.69 1766.97 378.429 1768.78L379.205 1770.67L358.917 1778.98L357.075 1774.49L369.851 1769.25C369.575 1768.61 369.173 1768.1 368.646 1767.74C368.124 1767.37 367.536 1767.16 366.881 1767.1C366.231 1767.03 365.566 1767.14 364.886 1767.42C364.226 1767.69 363.678 1768.08 363.243 1768.59C362.804 1769.09 362.518 1769.66 362.385 1770.29C362.261 1770.92 362.325 1771.56 362.576 1772.23L364.563 1777.08C364.862 1777.81 365.281 1778.4 365.821 1778.85C366.361 1779.29 366.983 1779.56 367.688 1779.65C368.394 1779.74 369.15 1779.62 369.959 1779.29C370.521 1779.06 371.001 1778.77 371.4 1778.43C371.808 1778.08 372.119 1777.68 372.333 1777.25C372.543 1776.81 372.64 1776.34 372.624 1775.85L380.077 1772.8C380.467 1774.48 380.422 1776.1 379.943 1777.66C379.459 1779.2 378.56 1780.62 377.245 1781.9C375.936 1783.18 374.232 1784.24 372.132 1785.1Z" fill="white"/>
<path d="M390.711 1750.48L393.135 1756.4L377.934 1762.63L375.51 1756.71L390.711 1750.48ZM387.714 1778.24L378.142 1754.87C377.375 1753 377.074 1751.31 377.239 1749.8C377.405 1748.3 377.973 1746.99 378.945 1745.87C379.917 1744.76 381.231 1743.87 382.888 1743.19C383.923 1742.76 384.961 1742.43 386.001 1742.19C387.052 1741.94 387.838 1741.78 388.359 1741.71L389.575 1748.05C389.243 1748.08 388.87 1748.15 388.455 1748.26C388.037 1748.37 387.68 1748.48 387.384 1748.6C386.615 1748.91 386.164 1749.29 386.031 1749.72C385.898 1750.16 385.941 1750.64 386.159 1751.17L395.877 1774.89L387.714 1778.24Z" fill="white"/>
<path d="M413.528 1768.14C411.103 1769.14 408.824 1769.53 406.689 1769.32C404.561 1769.1 402.666 1768.31 401.004 1766.95C399.349 1765.58 398.02 1763.67 397.019 1761.23C396.058 1758.88 395.691 1756.64 395.918 1754.5C396.146 1752.35 396.922 1750.44 398.247 1748.76C399.573 1747.08 401.408 1745.75 403.755 1744.79C405.47 1744.09 407.132 1743.72 408.74 1743.68C410.348 1743.65 411.853 1743.93 413.255 1744.54C414.652 1745.15 415.912 1746.06 417.034 1747.28C418.156 1748.5 419.087 1750.01 419.826 1751.82L420.601 1753.71L400.313 1762.02L398.472 1757.53L411.248 1752.29C410.971 1751.65 410.57 1751.14 410.042 1750.78C409.521 1750.41 408.932 1750.2 408.277 1750.14C407.628 1750.07 406.963 1750.18 406.283 1750.46C405.622 1750.73 405.074 1751.12 404.64 1751.63C404.201 1752.13 403.914 1752.7 403.781 1753.33C403.658 1753.96 403.722 1754.6 403.973 1755.27L405.96 1760.12C406.259 1760.85 406.678 1761.44 407.218 1761.89C407.758 1762.33 408.38 1762.6 409.085 1762.69C409.79 1762.78 410.547 1762.66 411.355 1762.33C411.917 1762.1 412.397 1761.81 412.796 1761.47C413.205 1761.11 413.516 1760.72 413.73 1760.29C413.94 1759.85 414.037 1759.38 414.021 1758.89L421.474 1755.84C421.864 1757.52 421.819 1759.14 421.339 1760.69C420.856 1762.24 419.956 1763.66 418.642 1764.94C417.333 1766.22 415.628 1767.28 413.528 1768.14Z" fill="white"/>
<path d="M427.81 1761.81L418.504 1739.1L426.43 1735.85L428.199 1740.17L428.435 1740.07C428.195 1738.3 428.372 1736.87 428.966 1735.76C429.57 1734.65 430.479 1733.84 431.691 1733.35C432.046 1733.2 432.408 1733.09 432.777 1733.01C433.153 1732.91 433.523 1732.84 433.889 1732.81L436.742 1739.77C436.281 1739.8 435.741 1739.9 435.121 1740.08C434.502 1740.25 433.98 1740.42 433.556 1740.6C432.757 1740.92 432.112 1741.4 431.621 1742.03C431.136 1742.64 430.844 1743.35 430.746 1744.15C430.643 1744.94 430.77 1745.77 431.125 1746.63L435.972 1758.46L427.81 1761.81Z" fill="white"/>
<path d="M445.865 1754.41L436.559 1731.7L444.485 1728.45L446.254 1732.77L446.491 1732.67C446.25 1730.91 446.427 1729.47 447.021 1728.36C447.625 1727.25 448.534 1726.45 449.746 1725.95C450.101 1725.8 450.463 1725.69 450.833 1725.61C451.208 1725.51 451.578 1725.45 451.944 1725.41L454.797 1732.38C454.337 1732.4 453.796 1732.51 453.177 1732.68C452.557 1732.85 452.035 1733.03 451.611 1733.2C450.813 1733.53 450.168 1734 449.676 1734.63C449.191 1735.24 448.899 1735.95 448.801 1736.75C448.699 1737.54 448.825 1738.37 449.181 1739.24L454.027 1751.07L445.865 1754.41Z" fill="white"/>
<path d="M473.672 1743.5C471.246 1744.5 468.967 1744.89 466.832 1744.68C464.704 1744.46 462.809 1743.67 461.148 1742.31C459.492 1740.94 458.164 1739.03 457.162 1736.59C456.201 1734.24 455.834 1732 456.061 1729.86C456.289 1727.71 457.065 1725.8 458.39 1724.12C459.716 1722.44 461.551 1721.11 463.898 1720.15C465.613 1719.45 467.275 1719.08 468.883 1719.04C470.491 1719.01 471.996 1719.29 473.398 1719.9C474.795 1720.51 476.055 1721.42 477.177 1722.64C478.299 1723.86 479.23 1725.37 479.969 1727.18L480.745 1729.07L460.457 1737.38L458.615 1732.89L471.391 1727.65C471.114 1727 470.713 1726.5 470.185 1726.14C469.664 1725.77 469.076 1725.55 468.42 1725.5C467.771 1725.43 467.106 1725.54 466.426 1725.82C465.765 1726.09 465.218 1726.48 464.783 1726.99C464.344 1727.49 464.058 1728.06 463.924 1728.69C463.801 1729.32 463.865 1729.96 464.116 1730.63L466.103 1735.48C466.402 1736.21 466.821 1736.8 467.361 1737.25C467.901 1737.69 468.523 1737.96 469.228 1738.05C469.933 1738.14 470.69 1738.02 471.498 1737.69C472.06 1737.46 472.541 1737.17 472.939 1736.83C473.348 1736.47 473.659 1736.08 473.873 1735.65C474.083 1735.21 474.18 1734.74 474.164 1734.25L481.617 1731.2C482.007 1732.88 481.962 1734.5 481.482 1736.05C480.999 1737.6 480.099 1739.02 478.785 1740.3C477.476 1741.58 475.771 1742.64 473.672 1743.5Z" fill="white"/>
<path d="M496.296 1734.1C494.679 1734.76 493.017 1734.94 491.309 1734.65C489.611 1734.36 487.999 1733.52 486.474 1732.13C484.959 1730.73 483.664 1728.72 482.59 1726.1C481.467 1723.36 480.978 1720.96 481.123 1718.9C481.278 1716.83 481.867 1715.12 482.891 1713.77C483.924 1712.41 485.19 1711.43 486.688 1710.81C487.812 1710.35 488.879 1710.15 489.888 1710.19C490.893 1710.23 491.815 1710.46 492.654 1710.87C493.488 1711.28 494.21 1711.81 494.821 1712.46L494.94 1712.41L490.214 1700.87L498.377 1697.53L510.784 1727.81L502.681 1731.13L501.154 1727.41L500.977 1727.48C500.976 1728.38 500.805 1729.25 500.464 1730.11C500.129 1730.95 499.615 1731.72 498.923 1732.41C498.236 1733.1 497.36 1733.66 496.296 1734.1ZM496.743 1726.59C497.493 1726.28 498.044 1725.8 498.399 1725.15C498.76 1724.49 498.919 1723.69 498.878 1722.78C498.842 1721.85 498.599 1720.83 498.146 1719.73C497.686 1718.6 497.144 1717.7 496.521 1717.03C495.904 1716.34 495.238 1715.89 494.522 1715.69C493.812 1715.47 493.082 1715.52 492.333 1715.82C491.584 1716.13 491.032 1716.61 490.677 1717.26C490.328 1717.9 490.177 1718.68 490.222 1719.61C490.273 1720.52 490.529 1721.54 490.989 1722.66C491.45 1723.78 491.983 1724.69 492.591 1725.39C493.204 1726.07 493.86 1726.52 494.561 1726.74C495.267 1726.95 495.994 1726.9 496.743 1726.59Z" fill="white"/>
</svg>
