<svg width="161" height="137" viewBox="0 0 161 137" fill="none" xmlns="http://www.w3.org/2000/svg">
<path d="M149.745 123.232V41.9155H129.354V123.232H110.28V72.8388H89.8888V123.232H70.8133V60.2404H50.4223V123.232H31.348V86.0916H10.9569V123.232H0.103516V136.485H160.598V123.232H149.745Z" fill="white"/>
<path d="M139.429 0.356934C133.345 0.356934 128.411 5.26568 128.411 11.3191C128.411 12.6282 128.741 13.9372 129.069 15.2462L106.048 33.4075C104.239 32.2616 102.101 31.4444 99.7984 31.4444C96.0166 31.4444 92.8919 33.2443 90.9192 36.0257L71.3504 29.808C71.3504 23.7545 66.4168 18.8458 60.3328 18.8458C54.2488 18.8458 49.3152 23.7545 49.3152 29.808C49.3152 30.7895 49.4793 31.9353 49.8085 32.7525L27.9378 47.1509C25.9648 45.6786 23.6626 44.6971 21.0312 44.6971C14.9472 44.6971 10.0137 49.6059 10.0137 55.6593C10.0137 61.7128 14.9472 66.6215 21.0312 66.6215C27.1153 66.6215 32.0488 61.7128 32.0488 55.6593C32.0488 54.6778 31.8848 53.532 31.5556 52.7149L53.5904 38.3164C55.5634 39.7887 57.8656 40.7702 60.497 40.7702C64.2788 40.7702 67.4035 38.9704 69.3762 36.189L88.945 42.2424V42.4056C88.945 48.4591 93.8786 53.3678 99.9626 53.3678C106.047 53.3678 110.98 48.4591 110.98 42.4056C110.98 41.0966 110.651 39.7875 110.323 38.4786L133.344 20.3173C135.153 21.4632 137.291 22.2804 139.593 22.2804C145.677 22.2804 150.611 17.3716 150.611 11.3181C150.447 5.26585 145.513 0.357105 139.429 0.357105L139.429 0.356934Z" fill="white"/>
</svg>
