<svg width="153" height="153" viewBox="0 0 153 153" fill="none" xmlns="http://www.w3.org/2000/svg">
<path d="M104.31 44.7533C105.912 46.0286 107.354 47.6218 108.635 49.0572L127.538 30.4084C128.499 30.8865 129.621 31.0454 130.741 31.0454C135.227 31.0454 138.911 27.3797 138.911 22.9168C138.911 18.4538 135.227 14.7881 130.741 14.7881C126.256 14.7881 122.572 18.4538 122.572 22.9168C122.572 24.033 122.731 25.1482 123.212 26.1043L104.31 44.7533Z" fill="white"/>
<path d="M48.7217 108.351C47.1193 107.075 45.6777 105.482 44.3961 104.047L25.4935 122.696C24.5325 122.377 23.4106 122.059 22.2899 122.059C17.8044 122.059 14.1201 125.724 14.1201 130.187C14.1201 134.65 17.8044 138.316 22.2899 138.316C26.7754 138.316 30.4596 134.65 30.4596 130.187C30.4596 129.071 30.2998 127.956 29.8193 127L48.7217 108.351Z" fill="white"/>
<path d="M130.583 122.377C129.461 122.377 128.34 122.536 127.379 123.014L108.636 104.366C107.354 105.961 105.753 107.395 104.15 108.67L122.893 127.319C122.573 128.275 122.253 129.391 122.253 130.506C122.253 134.969 125.937 138.635 130.423 138.635C134.908 138.635 138.593 134.969 138.593 130.506C138.593 125.883 135.068 122.377 130.583 122.377L130.583 122.377Z" fill="white"/>
<path d="M89.4114 19.8886L96.9407 15.4257C98.2224 16.3819 99.9847 17.0201 101.906 17.0201C106.392 17.0201 110.076 13.3543 110.076 8.89138C110.076 4.42841 106.392 0.762695 101.906 0.762695C97.421 0.762695 93.7367 4.42841 93.7367 8.89138C93.7367 9.21047 93.7367 9.68856 93.8965 10.0077L84.7648 15.4267C83.8037 16.0638 83.3232 17.0211 83.3232 18.1362V34.8726C85.4061 35.1917 87.4881 35.6698 89.5709 36.3068V19.8884L89.4114 19.8886Z" fill="white"/>
<path d="M51.4449 17.179C53.3669 17.179 54.9692 16.5419 56.4107 15.4256L63.9399 19.8885V36.3059C65.8619 35.6688 67.9448 35.1896 70.1876 34.8716L70.1887 18.1352C70.1887 17.0189 69.5484 16.0628 68.7472 15.4257L59.6154 10.0067C59.6154 9.68758 59.7752 9.20949 59.7752 8.8904C59.7752 4.42744 56.091 0.761719 51.6055 0.761719C47.12 0.761719 43.4357 4.42744 43.4357 8.8904C43.2748 13.5122 46.9589 17.179 51.4444 17.179L51.4449 17.179Z" fill="white"/>
<path d="M63.78 133.375L56.2508 137.838C54.8093 136.882 53.2068 136.244 51.285 136.244C46.7995 136.244 43.1152 139.909 43.1152 144.372C43.1152 148.835 46.7995 152.501 51.285 152.501C55.7705 152.501 59.4547 148.835 59.4547 144.372C59.4547 144.053 59.4547 143.575 59.2949 143.256L68.4267 137.837C69.3877 137.2 69.8682 136.243 69.8682 135.128V118.392C67.7853 118.073 65.7034 117.595 63.6205 116.958V133.375L63.78 133.375Z" fill="white"/>
<path d="M101.747 136.085C99.8251 136.085 98.2228 136.722 96.7813 137.838L89.4117 133.375V116.799C87.4897 117.436 85.4068 117.916 83.1641 118.234V134.97C83.1641 136.086 83.8044 137.042 84.6056 137.679L93.7373 143.099C93.7373 143.418 93.5775 143.896 93.5775 144.215C93.5775 148.678 97.2618 152.343 101.747 152.343C106.233 152.343 109.917 148.678 109.917 144.215C109.917 139.752 106.393 136.085 101.747 136.085L101.747 136.085Z" fill="white"/>
<path d="M144.519 93.5275C144.198 93.5275 143.718 93.6865 143.397 93.6865L137.951 84.6017C137.47 83.6456 136.348 83.1675 135.387 83.1675H118.567C118.246 85.2399 117.765 87.3114 117.125 89.3837H133.625L138.111 96.8751C137.15 98.3094 136.349 99.9039 136.349 101.816C136.349 106.279 140.033 109.945 144.518 109.945C149.004 109.945 152.688 106.279 152.688 101.816C152.689 97.1931 149.005 93.5274 144.519 93.5274L144.519 93.5275Z" fill="white"/>
<path d="M136.349 51.6073C136.349 53.3607 136.99 55.1139 138.112 56.5482L133.626 63.8808H117.126C117.766 65.7931 118.248 67.8655 118.567 70.097H135.388C136.51 70.097 137.471 69.46 137.952 68.6628L143.398 59.5769C143.719 59.5769 144.199 59.7359 144.52 59.7359C149.006 59.7359 152.69 56.0702 152.69 51.6072C152.69 47.1442 149.006 43.4785 144.52 43.4785C140.035 43.4785 136.35 46.9851 136.35 51.6072L136.349 51.6073Z" fill="white"/>
<path d="M8.67222 59.736C8.99293 59.736 9.47343 59.5771 9.79414 59.5771L15.2405 68.6629C15.8808 69.6191 16.843 70.2573 17.9637 70.2573H34.7846C35.1054 68.1849 35.5859 66.1134 36.2262 64.041L19.5663 64.0399L15.0808 56.5485C16.0418 55.1143 16.6832 53.5198 16.6832 51.6077C16.6832 47.1447 12.999 43.479 8.51348 43.479C4.02798 43.479 0.34375 47.1447 0.34375 51.6077C0.502427 56.0706 4.18675 59.7364 8.67196 59.7364L8.67222 59.736Z" fill="white"/>
<path d="M16.8428 101.656C16.8428 99.9026 16.2025 98.1494 15.2403 96.7151L19.7258 89.2237H36.2261C35.5858 87.3114 35.1041 85.2389 34.7846 83.0075L17.804 83.0063C16.6821 83.0063 15.7211 83.6434 15.0808 84.4406L9.63443 93.5265C9.31372 93.5265 8.83321 93.3675 8.51251 93.3675C4.02701 93.3675 0.342773 97.0332 0.342773 101.496C0.342773 105.959 4.02701 109.625 8.51251 109.625C13.1576 109.785 16.843 106.278 16.843 101.656L16.8428 101.656Z" fill="white"/>
<path d="M22.4492 31.0459C23.5712 31.0459 24.6919 30.8869 25.6529 30.4088L44.5566 49.0576C45.8384 47.4632 47.4396 46.0289 48.8822 44.7537L29.9785 25.9461C30.2992 24.9899 30.6188 23.8737 30.6188 22.7586C30.6188 18.2956 26.9345 14.6299 22.449 14.6299C17.9635 14.6299 14.2793 18.2956 14.2793 22.7586C14.2793 27.2204 17.9635 31.0461 22.449 31.0461L22.4492 31.0459Z" fill="white"/>
<path d="M111.198 76.6317C111.198 57.6638 95.659 42.2031 76.5956 42.2031C57.5322 42.2031 41.9932 57.6641 41.9932 76.6317C41.9932 95.5993 57.5322 111.06 76.5956 111.06C95.659 111.06 111.198 95.5993 111.198 76.6317ZM91.3334 72.1687L74.5125 88.9051C73.7113 89.7023 72.7503 90.0214 71.7893 90.0214C70.8283 90.0214 69.7064 89.7023 69.0661 88.9051L60.7356 80.6165C59.1332 79.0221 59.1332 76.6317 60.7356 75.0372C62.338 73.4428 64.7405 73.4428 66.343 75.0372L71.9505 80.6165L85.8873 66.7497C87.4897 65.1553 89.8922 65.1553 91.4947 66.7497C92.9362 68.184 92.9362 70.7345 91.3338 72.1687H91.3334Z" fill="white"/>
</svg>
