<svg width="198" height="199" viewBox="0 0 198 199" fill="none" xmlns="http://www.w3.org/2000/svg">
<path d="M157.717 96.21C156.621 76.6693 145.783 58.6581 128.389 48.6309C107.821 36.7762 82.1248 38.4437 63.2567 52.8469C61.0162 54.5559 57.8077 54.1275 56.0968 51.8885C54.3849 49.6495 54.814 46.4474 57.0568 44.7382C79.2177 27.8246 109.356 25.8836 133.512 39.805C154.369 51.8258 167.189 73.641 167.977 97.1542C168.77 97.4706 169.551 97.8482 170.315 98.2881C178.989 103.288 181.963 114.362 176.955 123.023C171.945 131.682 160.854 134.651 152.177 129.651C143.504 124.65 140.53 113.577 145.54 104.915C148.259 100.213 152.773 97.1899 157.719 96.2085L157.717 96.21ZM98.998 57.1328C122.42 57.1328 141.407 76.0867 141.407 99.4707C141.407 122.853 122.419 141.809 98.998 141.809C75.5763 141.809 56.5892 122.852 56.5892 99.4707C56.5892 76.089 75.5772 57.1328 98.998 57.1328ZM101.965 89.8159V65.6172C101.965 61.9935 97.9075 62.0408 96.4835 64.6957C92.9775 71.2326 80.0204 104.485 79.5496 105.816C79.036 107.268 79.3795 109.122 82.4644 109.122H96.031V133.321C96.031 136.944 100.089 136.899 101.513 134.243C105.018 127.706 117.976 94.4535 118.446 93.1232C118.96 91.6682 118.617 89.815 115.532 89.815H101.965V89.8159ZM21.0471 75.9161C26.0567 67.2567 37.1481 64.2878 45.8244 69.2878C54.4984 74.2879 57.4722 85.3619 52.4614 94.0237C49.7409 98.7257 45.2263 101.749 40.2792 102.73C41.3745 122.271 52.2151 140.279 69.608 150.304C90.176 162.16 115.875 160.494 134.743 146.092C136.984 144.383 140.192 144.812 141.903 147.051C143.615 149.29 143.186 152.491 140.943 154.201C118.782 171.115 88.6413 173.053 64.4846 159.132C43.6284 147.111 30.8051 125.296 30.0174 101.783C29.2262 101.466 28.4443 101.089 27.6833 100.651C19.0093 95.6511 16.0355 84.577 21.0439 75.9164L21.0471 75.9161Z" fill="white"/>
</svg>
