<svg width="98" height="153" viewBox="0 0 98 153" fill="none" xmlns="http://www.w3.org/2000/svg">
<path d="M70.1403 84.2442C70.1403 95.6516 60.8462 104.899 49.3812 104.899C37.9162 104.899 28.6221 95.6516 28.6221 84.2442C28.6221 72.8367 37.9162 63.5894 49.3812 63.5894C60.8462 63.5894 70.1403 72.8367 70.1403 84.2442Z" fill="white"/>
<path d="M87.5604 46.9692C81.8338 46.9692 77.3002 51.4801 77.3002 57.1779V86.1422C77.3002 87.5666 76.823 88.9911 76.1071 90.1782L74.1982 93.5019C79.6863 96.5883 84.9357 99.6746 90.4238 102.524C90.6624 102.761 91.1396 102.998 91.3782 102.998L96.1504 94.689C97.3435 92.7897 97.8207 90.4156 97.8207 88.2789V57.1793C97.8207 51.4814 93.2871 46.9706 87.5604 46.9706V46.9692Z" fill="white"/>
<path d="M88.2746 106.558L71.8104 97.2989C70.856 96.8241 69.6629 97.0615 68.9471 98.0112C65.8452 101.335 62.9818 104.659 60.1185 108.22C59.1641 108.22 58.2096 108.457 57.2552 108.457C54.1532 108.695 51.7671 108.932 49.381 108.932C46.9949 108.932 44.6088 108.695 41.9841 108.457C41.0297 108.457 40.0752 108.22 39.1208 108.22C36.2575 104.896 33.1555 101.335 30.0536 98.0112C29.3377 97.2989 28.1447 97.0615 27.1902 97.5363L10.7261 106.795C10.0103 107.033 9.77167 107.745 9.53306 108.457C9.29445 109.17 9.53306 109.882 10.0103 110.357C12.3964 113.443 14.5439 116.292 16.4528 119.616C21.7022 128.637 24.5655 139.321 24.8041 150.479C24.8041 151.666 25.7586 152.853 27.1902 152.853H72.049C73.2421 152.853 74.4352 151.904 74.4352 150.479C74.6738 139.321 77.5371 128.637 82.7865 119.616C84.6954 116.529 86.6043 113.443 89.229 110.357C89.7062 109.882 89.9448 109.17 89.7062 108.457C89.229 107.508 88.7518 107.033 88.2746 106.558Z" fill="white"/>
<path d="M22.6579 90.1781C21.9421 88.9911 21.4648 87.5666 21.4648 86.1421V57.1779C21.4648 52.4297 18.1243 48.3937 13.5907 47.2066V29.4007H42.9384C44.1315 29.4007 45.3246 28.4511 45.3246 27.0266V6.1344C45.3246 4.94734 44.3701 3.76029 42.9384 3.76029H13.5907V2.81064C13.5907 1.62358 12.6363 0.436523 11.2046 0.436523C10.0115 0.436523 8.81849 1.38617 8.81849 2.81064V47.444C4.28488 48.3937 0.944336 52.4297 0.944336 57.4153V88.7536C0.944336 90.8904 1.66017 93.2645 2.61461 95.1638L7.38682 103.473C7.62543 103.236 7.86404 102.998 8.34127 102.761C13.5907 99.6746 19.0787 96.5882 24.5668 93.7393L22.6579 90.1781Z" fill="white"/>
<path d="M24.8066 33.9127V37.4739C24.8066 38.6609 25.7611 39.848 27.1927 39.848H58.9293C60.1224 39.848 61.3154 38.8983 61.3154 37.4739V16.5816C61.3154 15.3946 60.361 14.2075 58.9293 14.2075H50.1007V27.0277C50.1007 30.8263 46.9988 33.9127 43.181 33.9127H24.8066Z" fill="white"/>
</svg>
