<svg width="136" height="135" viewBox="0 0 136 135" fill="none" xmlns="http://www.w3.org/2000/svg">
<path d="M4.31022 130.452C4.13846 131.019 4.20037 131.63 4.48197 132.151C4.76257 132.672 5.24089 133.059 5.80906 133.226L10.0809 134.523C11.2672 134.88 12.5184 134.21 12.877 133.024L18.447 114.437C18.456 114.293 19.138 112.157 19.79 110.008H27.7686C28.5964 112.773 33.7141 129.862 34.6627 133.025L34.6637 133.024C35.0222 134.21 36.2734 134.88 37.4598 134.523L41.7317 133.226C42.2999 133.059 42.7771 132.672 43.0587 132.151C43.3403 131.63 43.4023 131.019 43.2305 130.452C42.2559 127.193 38.0069 112.969 37.1153 110.007L45.4772 110.008C46.0704 110.008 46.6396 109.773 47.059 109.353C47.4784 108.934 47.714 108.365 47.714 107.771V103.298C47.714 102.705 47.4784 102.136 47.059 101.716C46.6396 101.297 46.0704 101.061 45.4772 101.061H19.932L9.0487 55.349C8.9119 54.7719 8.55042 54.2736 8.04514 53.963C7.53986 53.6515 6.93174 53.5546 6.35457 53.6914L2.00295 54.7279C0.801686 55.0145 0.0597409 56.2208 0.345333 57.422L11.7879 105.481C10.0974 111.119 4.93878 128.332 4.31069 130.451L4.31022 130.452Z" fill="white"/>
<path d="M58.8981 134.611H76.7923C78.0266 134.607 79.0251 133.608 79.0291 132.375V94.3495H92.4498C93.0429 94.3495 93.6121 94.1138 94.0315 93.6944C94.4509 93.274 94.6866 92.7058 94.6866 92.1127V87.6391C94.6866 87.046 94.4509 86.4768 94.0315 86.0574C93.6121 85.638 93.0429 85.4023 92.4498 85.4023H43.2407C42.0055 85.4023 41.0039 86.4039 41.0039 87.6391V92.1127C41.0039 92.7058 41.2396 93.274 41.659 93.6944C42.0784 94.1138 42.6475 94.3495 43.2407 94.3495H56.6613V132.375C56.6653 133.608 57.6639 134.607 58.8981 134.611Z" fill="white"/>
<path d="M133.688 54.7264L129.336 53.6899C128.759 53.5521 128.151 53.65 127.645 53.9605C127.14 54.2721 126.779 54.7704 126.642 55.3475L115.759 101.06H90.2133C88.9781 101.06 87.9766 102.061 87.9766 103.296V107.77C87.9766 108.363 88.2122 108.931 88.6316 109.352C89.051 109.771 89.6202 110.007 90.2133 110.007H98.5753C96.6201 116.531 93.8111 125.931 92.4601 130.451V130.45C92.2883 131.018 92.3502 131.629 92.6318 132.15C92.9134 132.67 93.3908 133.058 93.9589 133.224L98.2308 134.521C99.4171 134.879 100.668 134.209 101.027 133.023L106.597 114.435C106.605 114.296 107.288 112.158 107.94 110.007H115.918C116.748 112.778 121.862 129.856 122.813 133.024L122.814 133.023C123.172 134.209 124.423 134.88 125.61 134.522L129.882 133.224C130.45 133.058 130.927 132.67 131.209 132.15C131.49 131.629 131.552 131.018 131.38 130.45L124.491 107.434L123.903 105.478L135.346 57.4196C135.631 56.2184 134.889 55.0121 133.688 54.7255L133.688 54.7264Z" fill="white"/>
<path d="M72.3212 76.524C72.2973 74.9413 71.4395 73.4894 70.0655 72.7046C68.6905 71.9207 67.0038 71.9207 65.6298 72.7046C64.2547 73.4895 63.397 74.9424 63.374 76.524C63.397 78.1067 64.2547 79.5586 65.6298 80.3434C67.0038 81.1283 68.6904 81.1283 70.0655 80.3434C71.4395 79.5585 72.2973 78.1066 72.3212 76.524Z" fill="white"/>
<path d="M33.7331 46.8912C34.8175 44.8761 35.3937 42.6263 35.4107 40.3376C35.3817 34.5759 36.5231 28.8692 38.7659 23.5617C43.607 12.942 52.4511 4.66801 63.3704 0.544922C52.2594 0.556905 41.3572 3.57365 31.8203 9.27526C22.283 14.9771 14.4652 23.1512 9.19489 32.9342C8.05355 34.9943 7.4524 37.3109 7.45041 39.6665C7.37651 54.3523 26.6956 59.8085 33.7319 46.8912H33.7331Z" fill="white"/>
<path d="M39.8835 40.3395C39.9714 53.1042 55.1964 58.1949 63.3697 50.5369V65.4134C63.3737 66.6476 64.3723 67.6472 65.6065 67.6502H70.08C71.3132 67.6472 72.3128 66.6476 72.3168 65.4134V50.5888C80.0895 57.5747 95.2968 54.1416 95.803 40.3395C96.2943 19.3777 80.2225 4.82713 67.842 0.547852C53.5176 5.62265 39.3825 21.0362 39.881 40.3395H39.8835Z" fill="white"/>
<path d="M100.28 40.3395C101.208 59.0587 127.771 58.6441 128.241 39.6685C128.239 37.3129 127.638 34.9963 126.497 32.9362C121.239 23.1424 113.425 14.9581 103.885 9.25421C94.3449 3.55132 83.4366 0.541769 72.3223 0.546882C83.9576 4.49614 100.782 18.8115 100.283 40.3385L100.28 40.3395Z" fill="white"/>
</svg>
