<svg width="154" height="155" viewBox="0 0 154 155" fill="none" xmlns="http://www.w3.org/2000/svg">
<path d="M148.232 63.128L129.018 61.1908C128.373 61.1908 127.727 60.7066 127.566 60.0601C126.758 57.9608 125.951 55.8625 124.982 53.7633C124.659 53.1179 124.821 52.4715 125.143 51.8261L137.252 36.9721C139.189 34.5507 139.028 31.1596 136.768 28.8992L125.305 17.2743C123.206 15.1751 119.654 14.853 117.232 16.7901L102.378 28.8993C101.894 29.3836 101.087 29.3836 100.441 29.0604C98.3419 28.0918 96.4048 27.1232 94.1444 26.4768C93.499 26.3158 93.0136 25.6693 93.0136 25.024L91.0765 5.97261C90.7533 2.90464 88.1708 0.644531 85.1029 0.644531H68.634C65.566 0.644531 62.9824 2.90487 62.6604 5.97261L60.7221 25.1863C60.7221 25.8316 60.2378 26.4781 59.5913 26.6391C57.4921 27.4467 55.3937 28.2542 53.2945 29.2227C52.6492 29.5459 52.0027 29.3838 51.3574 29.0617L36.5033 16.9512C34.0819 15.0141 30.6909 15.1751 28.4305 17.4355L16.8056 28.8995C14.7063 30.9988 14.3842 34.5511 16.3213 36.9724L28.4306 51.8264C28.9149 52.3107 28.9149 53.1182 28.5916 53.7636C27.6231 55.8629 26.6545 57.8 26.0081 60.0604C25.847 60.7057 25.2005 61.1911 24.5552 61.1911L5.50386 63.1283C2.43589 63.4515 0.175781 66.0339 0.175781 69.1019V85.5708C0.175781 88.6388 2.43612 91.2224 5.50386 91.5444L24.7175 93.4827C25.3629 93.4827 26.0093 93.9669 26.1704 94.6134C26.9779 96.7127 27.7854 98.811 28.754 100.91C29.0772 101.556 28.915 102.202 28.5929 102.847L16.4825 117.701C14.5453 120.123 14.7064 123.514 16.9668 125.774L28.5917 137.399C30.691 139.498 34.2432 139.821 36.6645 137.883L51.5186 125.774C52.0028 125.29 52.8103 125.29 53.4557 125.613C55.555 126.582 57.4921 127.55 59.7525 128.197C60.3979 128.358 60.8833 129.004 60.8833 129.65L62.8204 148.701C63.1436 151.769 65.726 154.029 68.794 154.029H85.2629C88.3309 154.029 90.9145 151.769 91.2365 148.701L93.0137 129.487C93.0137 128.842 93.498 128.195 94.1445 128.034C96.2438 127.227 98.3421 126.419 100.441 125.451C101.087 125.128 101.733 125.29 102.378 125.612L117.232 137.721C119.654 139.658 123.045 139.497 125.305 137.237L136.93 125.612C139.03 123.513 139.352 119.96 137.415 117.539L125.305 102.685C124.821 102.201 124.821 101.393 125.144 100.748C126.113 98.6486 127.081 96.7115 127.728 94.4511C127.889 93.8058 128.535 93.3204 129.181 93.3204L148.232 91.3832C151.3 91.06 153.56 88.4776 153.56 85.4096V69.1027C153.56 66.0348 151.3 63.4512 148.232 63.128L148.232 63.128ZM76.8682 112.372C57.6545 112.372 41.832 96.711 41.832 77.3362C41.832 58.1225 57.4933 42.3 76.8682 42.3C96.243 42.3 111.904 58.1225 111.904 77.3362C111.904 96.5499 96.0818 112.372 76.8682 112.372Z" fill="white"/>
<path d="M76.8686 56.0234C65.0825 56.0234 55.5557 65.5491 55.5557 77.3363C55.5557 89.1224 65.0813 98.6492 76.8686 98.6492C88.6546 98.6492 98.1815 89.1224 98.1815 77.3363C98.1815 65.5503 88.6546 56.0234 76.8686 56.0234Z" fill="white"/>
</svg>
