<svg width="1640" height="191" viewBox="0 0 1640 191" fill="none" xmlns="http://www.w3.org/2000/svg">
<g filter="url(#filter0_b_228_2214)">
<rect x="0.578125" y="0.501953" width="421.787" height="190" rx="25" fill="#002D72" fill-opacity="0.77"/>
</g>
<path d="M100.215 83.0472V94.319L94.9482 87.9247C96.5305 86.0802 98.3035 84.4105 100.215 83.0472ZM81.4343 94.6675C76.1865 80.8343 67.9016 74.665 62.2888 71.8216V63.5208L83.5985 89.6967C82.8309 91.2308 82.1091 92.8871 81.4343 94.6675ZM110.913 109.987V80.3279C115.544 82.2265 116.716 89.1848 113.085 92.54C113.085 92.54 122.185 91.5992 122.185 82.1898C122.185 74.7678 116.165 70.4796 110.913 69.4633V48.6714C110.952 46.2818 117.08 43.3475 119.71 48.2369C124.194 42.3799 117.732 30.8018 105.561 38.3424C93.4007 30.8018 86.9384 42.3799 91.4261 48.2369C94.056 43.3475 100.177 46.2818 100.215 48.6714V72.0063C97.0191 73.674 93.0243 76.4186 89.2227 80.9838L62.3275 48.3745C62.8354 46.0489 68.5649 43.5451 71.0821 48.2369C75.5698 42.3799 69.1115 30.8018 56.9436 38.3424C44.7722 30.8018 38.3139 42.3799 42.8016 48.2369C45.4315 43.3475 51.5562 46.2818 51.5949 48.6714V69.5353C46.4359 70.6717 40.6836 74.9386 40.6836 82.1898C40.6836 91.5997 49.7832 92.54 49.7832 92.54C46.2418 89.2741 47.2621 82.5929 51.5944 80.4908V109.987C51.5557 112.376 45.431 115.312 42.8011 110.425C38.3134 116.278 44.7717 127.856 56.9431 120.316C69.111 127.857 75.5693 116.278 71.0816 110.425C68.4517 115.312 62.331 112.376 62.2883 109.987V82.793C70.0111 88.0543 75.4179 98.5039 76.0658 104.564V138.938C76.0658 144.504 69.8984 148.511 67.2765 143.624C62.7848 149.481 69.2431 159.934 81.4145 152.394C93.5784 159.934 100.037 149.481 95.549 143.624C92.9231 148.511 86.7597 144.043 86.7597 138.938V105.057C86.9071 102.788 87.7993 99.8012 89.2769 96.6773L100.208 110.111C99.9747 112.474 94.0128 115.235 91.4256 110.426C86.9379 116.279 93.4002 127.857 105.56 120.317C117.732 127.857 124.193 116.279 119.71 110.426C117.08 115.312 110.952 112.376 110.913 109.987Z" fill="#FF5910"/>
<path d="M129.961 111.153H129.386V108.93H129.377L128.567 111.153H128.014L127.227 108.93H127.218V111.153H126.647V108.359H127.637L128.281 110.187H128.3L128.972 108.359H129.961M126.132 108.856H125.289V111.153H124.719V108.856H123.877V108.359H126.132V108.856H126.132Z" fill="#FF5910"/>
<path d="M232.006 40.3367C228.093 40.3677 215.219 40.4634 213.741 40.4737C208.782 46.7873 202.627 60.971 196.086 76.0951C181.966 108.765 171.964 129.964 161.97 127.077C160.451 126.639 159.357 125.6 158.816 124.076C158.538 123.308 158.422 122.441 158.422 121.509C158.422 116.992 161.26 110.906 163.789 106.461C159.988 107.821 156.005 109.26 155.428 109.471C150.417 115.131 145.949 124.831 145.949 132.267C145.949 133.348 146.038 134.378 146.239 135.341C146.903 138.534 148.604 140.702 151.421 141.979C155.706 143.916 159.986 144.006 164.513 142.245C180.58 136.014 193.346 108.793 196.869 100.596C198.79 96.1416 199.513 94.4631 201.351 95.0038C202.371 95.2974 202.703 95.9565 202.703 97.0637C202.703 97.8361 202.542 98.8298 202.341 100.081C202.341 100.081 202.075 101.732 202.075 101.763C199.84 114.931 194.939 132.825 190.577 141.668H204.433C206.992 138.171 210.703 132.091 214.998 124.995C220.014 116.709 225.703 107.311 230.786 100.163C235.539 93.4632 236.148 92.6096 237.843 93.6292C239.521 94.6437 239.052 95.5611 235.324 102.915C228.701 113.251 226.4 127.582 230.062 135.529C231.797 139.278 234.711 141.46 238.671 142.006C246.206 142.856 252.871 136.751 254.241 135.062L255.65 133.324L257.01 135.102C258.271 136.75 259.787 138.088 261.749 139.319C266.693 142.192 283.381 144.003 295.49 131.473L295.683 131.208L297.751 129.976L298.756 129.518L299.513 131.441C299.513 131.441 299.893 132.389 300.068 132.744C301.984 137.967 305.893 139.859 308.823 140.534C314.688 141.878 321.685 139.649 326.67 134.845L327.724 133.831L328.915 134.676C332.005 136.87 335.613 139.193 338.909 139.785C358.442 143.267 365.877 127.012 366.67 122.799C367.164 120.204 367.362 117.871 367.362 115.734C367.362 110.414 366.11 106.328 364.972 102.61C364.086 99.7156 363.258 97.0245 363.258 94.2898C363.258 92.2968 363.927 90.2362 365.101 88.0937C362.531 86.765 357.687 84.2845 356.781 83.8211C353.675 85.2425 341.205 100.998 333.671 110.536C320.456 127.268 320.308 127.196 318.511 126.315L317.022 124.577C316.26 122.296 317.859 118.612 318.873 116.619C318.873 116.619 336.07 80.0883 336.044 80.1597L336.881 78.1079C336.881 78.1079 367.251 77.6398 369.415 77.6089C370.002 76.1515 372.207 70.7802 373.422 67.8242C368.942 67.8962 341.758 68.315 341.758 68.315C341.758 68.315 348.78 53.5579 350.593 49.7676C346.72 49.8036 336.49 49.889 334.821 49.9046C333.967 51.6967 326.042 68.4678 326.042 68.4678C326.042 68.4678 311.021 68.7268 309.136 68.7575C308.482 70.0758 305.824 75.502 304.284 78.6228C308.337 78.4633 321.311 77.963 321.311 77.963C321.311 77.963 308.387 106.038 308.356 106.11C303.392 115.699 290.873 131.71 275.469 130.886C272.266 130.71 268.288 129.109 267.495 122.445L267.286 120.642L269.088 120.481C286.314 118.967 293.449 112.613 296.173 108.967C300.504 103.163 301.205 97.4043 298.104 93.1712C294.463 88.1862 286.515 86.7528 278.342 89.5902C263.32 94.802 251.698 111.923 253.47 126.217L253.575 127.07L252.971 127.674C252.497 128.148 250.013 130.498 247.443 130.241C246.284 130.122 245.305 129.513 244.578 128.406C243.708 126.969 243.299 125.027 243.299 122.653C243.299 107.543 259.848 74.7621 278.567 40.4814H258.499C249.677 49.5813 238.61 67.9144 229.675 82.7667C229.675 82.7667 221.88 95.5165 221.653 95.8666C219.711 98.8123 219.057 99.8018 217.517 99.1013C216.75 98.7562 216.439 98.293 216.439 97.5C216.439 96.6708 216.781 95.4838 217.276 93.702L221.162 77.995C224.412 64.2297 228.085 49.1071 232.009 40.3375L232.006 40.3367ZM284.752 95.6187C286.369 95.678 287.799 96.2743 288.775 97.3969C289.429 98.1539 289.893 99.2032 289.893 100.455C289.893 101.752 289.389 103.271 288.091 104.888C283.899 110.136 275.025 113.092 270.75 112.814L268.699 112.685L269.133 110.682C270.05 106.5 274.213 100.262 279.61 97.059C281.332 96.0341 283.135 95.5595 284.752 95.6187ZM352.351 97.413L353.365 107.334C353.859 111.397 354.387 115.597 353.743 121.03C353.393 123.965 351.478 128.228 348.11 130.653C345.803 132.306 343.124 132.869 340.353 132.287C338.412 131.875 336.756 130.281 336.153 128.232C336.004 127.732 335.88 127.081 335.88 126.308C335.88 124.707 336.737 122.485 338.704 120.024C338.199 119.488 336.773 117.964 336.773 117.964L337.497 116.813C341.22 110.788 344.311 107.075 347.298 103.48L349.647 100.615L352.351 97.413Z" fill="#FF5910"/>
<path d="M477.962 115.902C475.196 115.902 472.779 115.469 470.713 114.602C468.679 113.702 467.096 112.435 465.962 110.802C464.862 109.135 464.312 107.219 464.312 105.052V104.102C464.312 103.935 464.362 103.802 464.462 103.702C464.596 103.569 464.746 103.502 464.913 103.502H471.863C472.029 103.502 472.163 103.569 472.263 103.702C472.396 103.802 472.463 103.935 472.463 104.102V104.702C472.463 105.802 473.012 106.769 474.113 107.602C475.212 108.402 476.696 108.802 478.563 108.802C480.029 108.802 481.113 108.485 481.813 107.852C482.513 107.219 482.863 106.485 482.863 105.652C482.863 104.985 482.646 104.452 482.212 104.052C481.812 103.619 481.262 103.269 480.562 103.002C479.863 102.702 478.779 102.302 477.313 101.802C477.113 101.702 476.913 101.635 476.713 101.602C476.513 101.535 476.329 101.469 476.163 101.402C473.996 100.702 472.113 99.9521 470.513 99.1521C468.913 98.3187 467.546 97.1854 466.413 95.7521C465.279 94.2854 464.713 92.4854 464.713 90.352C464.713 88.2854 465.246 86.4854 466.312 84.9521C467.413 83.3854 468.929 82.1854 470.863 81.352C472.796 80.5187 474.979 80.1021 477.413 80.1021C479.979 80.1021 482.279 80.5687 484.312 81.5021C486.379 82.4354 487.996 83.7521 489.163 85.4521C490.329 87.1521 490.913 89.1021 490.913 91.302V92.002C490.913 92.1687 490.846 92.3187 490.713 92.452C490.613 92.552 490.479 92.602 490.312 92.602H483.363C483.196 92.602 483.046 92.552 482.913 92.452C482.813 92.3187 482.763 92.1687 482.763 92.002V91.6521C482.763 90.4854 482.246 89.452 481.213 88.552C480.179 87.652 478.796 87.202 477.063 87.202C475.763 87.202 474.746 87.4687 474.013 88.0021C473.279 88.5354 472.913 89.2854 472.913 90.2521C472.913 90.9854 473.146 91.6021 473.613 92.102C474.079 92.5687 474.796 93.0187 475.762 93.4521C476.762 93.8521 478.279 94.3854 480.313 95.0521C482.646 95.8521 484.463 96.552 485.763 97.1521C487.063 97.7521 488.279 98.7354 489.413 100.102C490.579 101.435 491.163 103.202 491.163 105.402C491.163 107.569 490.613 109.435 489.513 111.002C488.413 112.569 486.863 113.785 484.863 114.652C482.896 115.485 480.596 115.902 477.962 115.902Z" fill="#FF5910"/>
<path d="M530.144 80.902C530.277 80.6354 530.511 80.502 530.844 80.502H537.894C538.061 80.502 538.194 80.5687 538.294 80.702C538.427 80.802 538.494 80.9354 538.494 81.102V114.902C538.494 115.069 538.427 115.219 538.294 115.352C538.194 115.452 538.061 115.502 537.894 115.502H530.794C530.627 115.502 530.477 115.452 530.344 115.352C530.244 115.219 530.194 115.069 530.194 114.902V94.802C530.194 94.6687 530.161 94.6021 530.094 94.6021C530.027 94.6021 529.961 94.6521 529.894 94.7521L525.594 101.652C525.461 101.919 525.227 102.052 524.894 102.052H521.344C521.011 102.052 520.777 101.919 520.644 101.652L516.294 94.7021C516.227 94.602 516.161 94.552 516.094 94.552C516.027 94.552 515.994 94.6187 515.994 94.7521V114.902C515.994 115.069 515.927 115.219 515.794 115.352C515.694 115.452 515.561 115.502 515.394 115.502H508.294C508.127 115.502 507.977 115.452 507.844 115.352C507.744 115.219 507.694 115.069 507.694 114.902V81.102C507.694 80.9354 507.744 80.802 507.844 80.702C507.977 80.5687 508.127 80.502 508.294 80.502H515.344C515.644 80.502 515.877 80.6354 516.044 80.902L522.994 91.802C523.094 92.0021 523.194 92.0021 523.294 91.802L530.144 80.902Z" fill="#FF5910"/>
<path d="M578.738 115.502C578.371 115.502 578.137 115.335 578.037 115.002L576.738 110.552C576.671 110.419 576.588 110.352 576.488 110.352H565.088C564.988 110.352 564.904 110.419 564.838 110.552L563.537 115.002C563.437 115.335 563.204 115.502 562.838 115.502H555.188C554.988 115.502 554.838 115.452 554.738 115.352C554.638 115.219 554.621 115.035 554.688 114.802L565.387 81.002C565.487 80.6687 565.704 80.502 566.037 80.502H575.488C575.821 80.502 576.038 80.6687 576.138 81.002L586.888 114.802C586.921 114.869 586.938 114.952 586.938 115.052C586.938 115.352 586.754 115.502 586.388 115.502H578.738ZM566.838 103.652C566.804 103.852 566.871 103.952 567.037 103.952H574.488C574.688 103.952 574.754 103.852 574.688 103.652L570.887 90.802C570.854 90.6687 570.804 90.6187 570.738 90.6521C570.671 90.6521 570.621 90.702 570.588 90.802L566.838 103.652Z" fill="#FF5910"/>
<path d="M621.854 115.502C621.521 115.502 621.288 115.352 621.154 115.052L615.254 101.752C615.188 101.619 615.088 101.552 614.954 101.552H611.654C611.488 101.552 611.404 101.635 611.404 101.802V114.902C611.404 115.069 611.338 115.219 611.204 115.352C611.104 115.452 610.971 115.502 610.804 115.502H603.704C603.538 115.502 603.388 115.452 603.254 115.352C603.154 115.219 603.104 115.069 603.104 114.902V81.102C603.104 80.9354 603.154 80.802 603.254 80.702C603.388 80.5687 603.538 80.502 603.704 80.502H618.554C620.754 80.502 622.688 80.952 624.354 81.852C626.021 82.752 627.304 84.0354 628.204 85.7021C629.138 87.3354 629.604 89.2187 629.604 91.3521C629.604 93.5854 629.054 95.5187 627.954 97.1521C626.854 98.7854 625.321 99.9687 623.354 100.702C623.188 100.769 623.138 100.885 623.204 101.052L629.804 114.802C629.871 114.935 629.904 115.035 629.904 115.102C629.904 115.369 629.721 115.502 629.354 115.502H621.854ZM611.654 87.602C611.488 87.602 611.404 87.6854 611.404 87.852V94.9521C611.404 95.1187 611.488 95.2021 611.654 95.2021H617.204C618.438 95.2021 619.438 94.8687 620.204 94.202C620.971 93.502 621.354 92.5854 621.354 91.452C621.354 90.2854 620.971 89.352 620.204 88.6521C619.438 87.9521 618.438 87.602 617.204 87.602H611.654Z" fill="#FF5910"/>
<path d="M671.52 80.502C671.686 80.502 671.82 80.5687 671.92 80.702C672.053 80.802 672.12 80.9354 672.12 81.102V87.0521C672.12 87.2187 672.053 87.3687 671.92 87.5021C671.82 87.602 671.686 87.652 671.52 87.652H662.77C662.603 87.652 662.52 87.7354 662.52 87.902V114.902C662.52 115.069 662.453 115.219 662.32 115.352C662.22 115.452 662.086 115.502 661.92 115.502H654.82C654.653 115.502 654.503 115.452 654.37 115.352C654.27 115.219 654.22 115.069 654.22 114.902V87.902C654.22 87.7354 654.136 87.652 653.97 87.652H645.52C645.353 87.652 645.203 87.602 645.07 87.5021C644.97 87.3687 644.92 87.2187 644.92 87.0521V81.102C644.92 80.9354 644.97 80.802 645.07 80.702C645.203 80.5687 645.353 80.502 645.52 80.502H671.52Z" fill="#FF5910"/>
<path d="M723.571 115.902C720.905 115.902 718.555 115.385 716.521 114.352C714.521 113.319 712.955 111.852 711.821 109.952C710.721 108.052 710.171 105.852 710.171 103.352V92.552C710.171 90.0854 710.721 87.9187 711.821 86.052C712.955 84.152 714.521 82.6854 716.521 81.652C718.555 80.6187 720.905 80.1021 723.571 80.1021C726.238 80.1021 728.571 80.6021 730.571 81.602C732.605 82.5687 734.171 83.952 735.271 85.752C736.405 87.5187 736.971 89.5687 736.971 91.902C736.971 92.0687 736.905 92.2021 736.771 92.3021C736.671 92.4021 736.538 92.452 736.371 92.452L729.271 92.9021C728.871 92.9021 728.671 92.7187 728.671 92.352C728.671 90.7854 728.205 89.5354 727.271 88.602C726.338 87.6687 725.105 87.202 723.571 87.202C722.038 87.202 720.805 87.6854 719.871 88.6521C718.938 89.5854 718.471 90.8187 718.471 92.352V103.702C718.471 105.235 718.938 106.469 719.871 107.402C720.805 108.335 722.038 108.802 723.571 108.802C725.105 108.802 726.338 108.335 727.271 107.402C728.205 106.469 728.671 105.235 728.671 103.702C728.671 103.335 728.871 103.152 729.271 103.152L736.371 103.502C736.538 103.502 736.671 103.552 736.771 103.652C736.905 103.752 736.971 103.869 736.971 104.002C736.971 106.369 736.405 108.452 735.271 110.252C734.171 112.052 732.605 113.452 730.571 114.452C728.571 115.419 726.238 115.902 723.571 115.902Z" fill="#FF5910"/>
<path d="M766.74 116.052C764.04 116.052 761.657 115.519 759.59 114.452C757.557 113.352 755.974 111.819 754.84 109.852C753.707 107.885 753.14 105.602 753.14 103.002V93.0021C753.14 90.4687 753.707 88.2354 754.84 86.302C755.974 84.3354 757.557 82.8187 759.59 81.7521C761.657 80.6521 764.04 80.1021 766.74 80.1021C769.44 80.1021 771.824 80.6521 773.89 81.7521C775.957 82.8187 777.557 84.3354 778.69 86.302C779.824 88.2354 780.39 90.4687 780.39 93.0021V103.002C780.39 105.602 779.824 107.885 778.69 109.852C777.557 111.819 775.957 113.352 773.89 114.452C771.824 115.519 769.44 116.052 766.74 116.052ZM766.74 108.952C768.34 108.952 769.624 108.435 770.59 107.402C771.59 106.369 772.09 104.985 772.09 103.252V92.9021C772.09 91.2021 771.59 89.8354 770.59 88.802C769.624 87.7354 768.34 87.202 766.74 87.202C765.174 87.202 763.89 87.7354 762.89 88.802C761.924 89.8354 761.44 91.2021 761.44 92.9021V103.252C761.44 104.985 761.924 106.369 762.89 107.402C763.89 108.435 765.174 108.952 766.74 108.952Z" fill="#FF5910"/>
<path d="M819.695 80.902C819.828 80.6354 820.062 80.502 820.395 80.502H827.445C827.612 80.502 827.745 80.5687 827.845 80.702C827.978 80.802 828.045 80.9354 828.045 81.102V114.902C828.045 115.069 827.978 115.219 827.845 115.352C827.745 115.452 827.612 115.502 827.445 115.502H820.345C820.178 115.502 820.028 115.452 819.895 115.352C819.795 115.219 819.745 115.069 819.745 114.902V94.802C819.745 94.6687 819.712 94.6021 819.645 94.6021C819.578 94.6021 819.512 94.6521 819.445 94.7521L815.145 101.652C815.012 101.919 814.778 102.052 814.445 102.052H810.895C810.562 102.052 810.328 101.919 810.195 101.652L805.845 94.7021C805.778 94.602 805.712 94.552 805.645 94.552C805.578 94.552 805.545 94.6187 805.545 94.7521V114.902C805.545 115.069 805.478 115.219 805.345 115.352C805.245 115.452 805.112 115.502 804.945 115.502H797.845C797.678 115.502 797.528 115.452 797.395 115.352C797.295 115.219 797.245 115.069 797.245 114.902V81.102C797.245 80.9354 797.295 80.802 797.395 80.702C797.528 80.5687 797.678 80.502 797.845 80.502H804.895C805.195 80.502 805.428 80.6354 805.595 80.902L812.545 91.802C812.645 92.0021 812.745 92.0021 812.845 91.802L819.695 80.902Z" fill="#FF5910"/>
<path d="M867.888 80.902C868.022 80.6354 868.255 80.502 868.588 80.502H875.638C875.805 80.502 875.938 80.5687 876.038 80.702C876.172 80.802 876.238 80.9354 876.238 81.102V114.902C876.238 115.069 876.172 115.219 876.038 115.352C875.938 115.452 875.805 115.502 875.638 115.502H868.538C868.372 115.502 868.222 115.452 868.088 115.352C867.988 115.219 867.938 115.069 867.938 114.902V94.802C867.938 94.6687 867.905 94.6021 867.838 94.6021C867.772 94.6021 867.705 94.6521 867.638 94.7521L863.338 101.652C863.205 101.919 862.972 102.052 862.638 102.052H859.088C858.755 102.052 858.522 101.919 858.388 101.652L854.038 94.7021C853.972 94.602 853.905 94.552 853.838 94.552C853.772 94.552 853.738 94.6187 853.738 94.7521V114.902C853.738 115.069 853.672 115.219 853.538 115.352C853.438 115.452 853.305 115.502 853.138 115.502H846.038C845.872 115.502 845.722 115.452 845.588 115.352C845.488 115.219 845.438 115.069 845.438 114.902V81.102C845.438 80.9354 845.488 80.802 845.588 80.702C845.722 80.5687 845.872 80.502 846.038 80.502H853.088C853.388 80.502 853.622 80.6354 853.788 80.902L860.738 91.802C860.838 92.0021 860.938 92.0021 861.038 91.802L867.888 80.902Z" fill="#FF5910"/>
<path d="M916.482 115.502C916.115 115.502 915.882 115.335 915.782 115.002L914.482 110.552C914.415 110.419 914.332 110.352 914.232 110.352H902.832C902.732 110.352 902.648 110.419 902.582 110.552L901.282 115.002C901.182 115.335 900.948 115.502 900.582 115.502H892.932C892.732 115.502 892.582 115.452 892.482 115.352C892.382 115.219 892.365 115.035 892.432 114.802L903.132 81.002C903.232 80.6687 903.448 80.502 903.782 80.502H913.232C913.565 80.502 913.782 80.6687 913.882 81.002L924.632 114.802C924.665 114.869 924.682 114.952 924.682 115.052C924.682 115.352 924.498 115.502 924.132 115.502H916.482ZM904.582 103.652C904.548 103.852 904.615 103.952 904.782 103.952H912.232C912.432 103.952 912.498 103.852 912.432 103.652L908.632 90.802C908.598 90.6687 908.548 90.6187 908.482 90.6521C908.415 90.6521 908.365 90.702 908.332 90.802L904.582 103.652Z" fill="#FF5910"/>
<path d="M960.698 81.102C960.698 80.9354 960.748 80.802 960.848 80.702C960.982 80.5687 961.132 80.502 961.298 80.502H968.398C968.565 80.502 968.698 80.5687 968.798 80.702C968.932 80.802 968.998 80.9354 968.998 81.102V114.902C968.998 115.069 968.932 115.219 968.798 115.352C968.698 115.452 968.565 115.502 968.398 115.502H961.598C961.265 115.502 961.032 115.369 960.898 115.102L949.398 96.0021C949.332 95.9021 949.265 95.8687 949.198 95.9021C949.132 95.9021 949.098 95.9687 949.098 96.1021L949.148 114.902C949.148 115.069 949.082 115.219 948.948 115.352C948.848 115.452 948.715 115.502 948.548 115.502H941.448C941.282 115.502 941.132 115.452 940.998 115.352C940.898 115.219 940.848 115.069 940.848 114.902V81.102C940.848 80.9354 940.898 80.802 940.998 80.702C941.132 80.5687 941.282 80.502 941.448 80.502H948.298C948.632 80.502 948.865 80.6354 948.998 80.902L960.448 99.952C960.515 100.052 960.582 100.102 960.648 100.102C960.715 100.069 960.748 99.9854 960.748 99.8521L960.698 81.102Z" fill="#FF5910"/>
<path d="M986.907 115.502C986.741 115.502 986.591 115.452 986.457 115.352C986.357 115.219 986.307 115.069 986.307 114.902V81.102C986.307 80.9354 986.357 80.802 986.457 80.702C986.591 80.5687 986.741 80.502 986.907 80.502H999.657C1002.26 80.502 1004.56 80.952 1006.56 81.852C1008.56 82.752 1010.11 84.0354 1011.21 85.7021C1012.31 87.3687 1012.86 89.2854 1012.86 91.452V104.552C1012.86 106.719 1012.31 108.635 1011.21 110.302C1010.11 111.969 1008.56 113.252 1006.56 114.152C1004.56 115.052 1002.26 115.502 999.657 115.502H986.907ZM994.607 108.152C994.607 108.319 994.691 108.402 994.857 108.402H1000.01C1001.34 108.402 1002.42 107.935 1003.26 107.002C1004.09 106.035 1004.52 104.752 1004.56 103.152V92.8521C1004.56 91.252 1004.12 89.9854 1003.26 89.052C1002.42 88.0854 1001.32 87.602 999.957 87.602H994.857C994.691 87.602 994.607 87.6854 994.607 87.852V108.152Z" fill="#FF5910"/>
<path d="M1065.08 115.902C1062.41 115.902 1060.06 115.385 1058.03 114.352C1056.03 113.319 1054.46 111.852 1053.33 109.952C1052.23 108.052 1051.68 105.852 1051.68 103.352V92.552C1051.68 90.0854 1052.23 87.9187 1053.33 86.052C1054.46 84.152 1056.03 82.6854 1058.03 81.652C1060.06 80.6187 1062.41 80.1021 1065.08 80.1021C1067.74 80.1021 1070.08 80.6021 1072.08 81.602C1074.11 82.5687 1075.68 83.952 1076.78 85.752C1077.91 87.5187 1078.48 89.5687 1078.48 91.902C1078.48 92.0687 1078.41 92.2021 1078.28 92.3021C1078.18 92.4021 1078.04 92.452 1077.88 92.452L1070.78 92.9021C1070.38 92.9021 1070.18 92.7187 1070.18 92.352C1070.18 90.7854 1069.71 89.5354 1068.78 88.602C1067.84 87.6687 1066.61 87.202 1065.08 87.202C1063.54 87.202 1062.31 87.6854 1061.38 88.6521C1060.44 89.5854 1059.98 90.8187 1059.98 92.352V103.702C1059.98 105.235 1060.44 106.469 1061.38 107.402C1062.31 108.335 1063.54 108.802 1065.08 108.802C1066.61 108.802 1067.84 108.335 1068.78 107.402C1069.71 106.469 1070.18 105.235 1070.18 103.702C1070.18 103.335 1070.38 103.152 1070.78 103.152L1077.88 103.502C1078.04 103.502 1078.18 103.552 1078.28 103.652C1078.41 103.752 1078.48 103.869 1078.48 104.002C1078.48 106.369 1077.91 108.452 1076.78 110.252C1075.68 112.052 1074.11 113.452 1072.08 114.452C1070.08 115.419 1067.74 115.902 1065.08 115.902Z" fill="#FF5910"/>
<path d="M1106.99 116.052C1104.29 116.052 1101.91 115.519 1099.84 114.452C1097.81 113.352 1096.23 111.819 1095.09 109.852C1093.96 107.885 1093.39 105.602 1093.39 103.002V93.0021C1093.39 90.4687 1093.96 88.2354 1095.09 86.302C1096.23 84.3354 1097.81 82.8187 1099.84 81.7521C1101.91 80.6521 1104.29 80.1021 1106.99 80.1021C1109.69 80.1021 1112.08 80.6521 1114.14 81.7521C1116.21 82.8187 1117.81 84.3354 1118.94 86.302C1120.08 88.2354 1120.64 90.4687 1120.64 93.0021V103.002C1120.64 105.602 1120.08 107.885 1118.94 109.852C1117.81 111.819 1116.21 113.352 1114.14 114.452C1112.08 115.519 1109.69 116.052 1106.99 116.052ZM1106.99 108.952C1108.59 108.952 1109.88 108.435 1110.84 107.402C1111.84 106.369 1112.34 104.985 1112.34 103.252V92.9021C1112.34 91.2021 1111.84 89.8354 1110.84 88.802C1109.88 87.7354 1108.59 87.202 1106.99 87.202C1105.43 87.202 1104.14 87.7354 1103.14 88.802C1102.18 89.8354 1101.69 91.2021 1101.69 92.9021V103.252C1101.69 104.985 1102.18 106.369 1103.14 107.402C1104.14 108.435 1105.43 108.952 1106.99 108.952Z" fill="#FF5910"/>
<path d="M1156.1 81.102C1156.1 80.9354 1156.15 80.802 1156.25 80.702C1156.38 80.5687 1156.53 80.502 1156.7 80.502H1163.8C1163.97 80.502 1164.1 80.5687 1164.2 80.702C1164.33 80.802 1164.4 80.9354 1164.4 81.102V114.902C1164.4 115.069 1164.33 115.219 1164.2 115.352C1164.1 115.452 1163.97 115.502 1163.8 115.502H1157C1156.67 115.502 1156.43 115.369 1156.3 115.102L1144.8 96.0021C1144.73 95.9021 1144.67 95.8687 1144.6 95.9021C1144.53 95.9021 1144.5 95.9687 1144.5 96.1021L1144.55 114.902C1144.55 115.069 1144.48 115.219 1144.35 115.352C1144.25 115.452 1144.12 115.502 1143.95 115.502H1136.85C1136.68 115.502 1136.53 115.452 1136.4 115.352C1136.3 115.219 1136.25 115.069 1136.25 114.902V81.102C1136.25 80.9354 1136.3 80.802 1136.4 80.702C1136.53 80.5687 1136.68 80.502 1136.85 80.502H1143.7C1144.03 80.502 1144.27 80.6354 1144.4 80.902L1155.85 99.952C1155.92 100.052 1155.98 100.102 1156.05 100.102C1156.12 100.069 1156.15 99.9854 1156.15 99.8521L1156.1 81.102Z" fill="#FF5910"/>
<path d="M1205.9 80.502C1206.07 80.502 1206.2 80.5687 1206.3 80.702C1206.44 80.802 1206.5 80.9354 1206.5 81.102V87.0521C1206.5 87.2187 1206.44 87.3687 1206.3 87.5021C1206.2 87.602 1206.07 87.652 1205.9 87.652H1197.15C1196.99 87.652 1196.9 87.7354 1196.9 87.902V114.902C1196.9 115.069 1196.84 115.219 1196.7 115.352C1196.6 115.452 1196.47 115.502 1196.3 115.502H1189.2C1189.04 115.502 1188.89 115.452 1188.75 115.352C1188.65 115.219 1188.6 115.069 1188.6 114.902V87.902C1188.6 87.7354 1188.52 87.652 1188.35 87.652H1179.9C1179.74 87.652 1179.59 87.602 1179.45 87.5021C1179.35 87.3687 1179.3 87.2187 1179.3 87.0521V81.102C1179.3 80.9354 1179.35 80.802 1179.45 80.702C1179.59 80.5687 1179.74 80.502 1179.9 80.502H1205.9Z" fill="#FF5910"/>
<path d="M1240.1 115.502C1239.76 115.502 1239.53 115.352 1239.4 115.052L1233.5 101.752C1233.43 101.619 1233.33 101.552 1233.2 101.552H1229.9C1229.73 101.552 1229.65 101.635 1229.65 101.802V114.902C1229.65 115.069 1229.58 115.219 1229.45 115.352C1229.35 115.452 1229.21 115.502 1229.05 115.502H1221.95C1221.78 115.502 1221.63 115.452 1221.5 115.352C1221.4 115.219 1221.35 115.069 1221.35 114.902V81.102C1221.35 80.9354 1221.4 80.802 1221.5 80.702C1221.63 80.5687 1221.78 80.502 1221.95 80.502H1236.8C1239 80.502 1240.93 80.952 1242.6 81.852C1244.26 82.752 1245.55 84.0354 1246.45 85.7021C1247.38 87.3354 1247.85 89.2187 1247.85 91.3521C1247.85 93.5854 1247.3 95.5187 1246.2 97.1521C1245.1 98.7854 1243.56 99.9687 1241.6 100.702C1241.43 100.769 1241.38 100.885 1241.45 101.052L1248.05 114.802C1248.11 114.935 1248.15 115.035 1248.15 115.102C1248.15 115.369 1247.96 115.502 1247.6 115.502H1240.1ZM1229.9 87.602C1229.73 87.602 1229.65 87.6854 1229.65 87.852V94.9521C1229.65 95.1187 1229.73 95.2021 1229.9 95.2021H1235.45C1236.68 95.2021 1237.68 94.8687 1238.45 94.202C1239.21 93.502 1239.6 92.5854 1239.6 91.452C1239.6 90.2854 1239.21 89.352 1238.45 88.6521C1237.68 87.9521 1236.68 87.602 1235.45 87.602H1229.9Z" fill="#FF5910"/>
<path d="M1276.36 116.052C1273.66 116.052 1271.28 115.519 1269.21 114.452C1267.18 113.352 1265.59 111.819 1264.46 109.852C1263.33 107.885 1262.76 105.602 1262.76 103.002V93.0021C1262.76 90.4687 1263.33 88.2354 1264.46 86.302C1265.59 84.3354 1267.18 82.8187 1269.21 81.7521C1271.28 80.6521 1273.66 80.1021 1276.36 80.1021C1279.06 80.1021 1281.44 80.6521 1283.51 81.7521C1285.58 82.8187 1287.18 84.3354 1288.31 86.302C1289.44 88.2354 1290.01 90.4687 1290.01 93.0021V103.002C1290.01 105.602 1289.44 107.885 1288.31 109.852C1287.18 111.819 1285.58 113.352 1283.51 114.452C1281.44 115.519 1279.06 116.052 1276.36 116.052ZM1276.36 108.952C1277.96 108.952 1279.24 108.435 1280.21 107.402C1281.21 106.369 1281.71 104.985 1281.71 103.252V92.9021C1281.71 91.2021 1281.21 89.8354 1280.21 88.802C1279.24 87.7354 1277.96 87.202 1276.36 87.202C1274.79 87.202 1273.51 87.7354 1272.51 88.802C1271.54 89.8354 1271.06 91.2021 1271.06 92.9021V103.252C1271.06 104.985 1271.54 106.369 1272.51 107.402C1273.51 108.435 1274.79 108.952 1276.36 108.952Z" fill="#FF5910"/>
<path d="M1306.21 115.502C1306.05 115.502 1305.9 115.452 1305.76 115.352C1305.66 115.219 1305.61 115.069 1305.61 114.902V81.102C1305.61 80.9354 1305.66 80.802 1305.76 80.702C1305.9 80.5687 1306.05 80.502 1306.21 80.502H1313.31C1313.48 80.502 1313.61 80.5687 1313.71 80.702C1313.85 80.802 1313.91 80.9354 1313.91 81.102V108.152C1313.91 108.319 1314 108.402 1314.16 108.402H1330.11C1330.28 108.402 1330.41 108.469 1330.51 108.602C1330.65 108.702 1330.71 108.835 1330.71 109.002V114.902C1330.71 115.069 1330.65 115.219 1330.51 115.352C1330.41 115.452 1330.28 115.502 1330.11 115.502H1306.21Z" fill="#FF5910"/>
<path d="M1379.64 115.902C1376.97 115.902 1374.62 115.385 1372.59 114.352C1370.59 113.319 1369.02 111.852 1367.89 109.952C1366.79 108.052 1366.24 105.852 1366.24 103.352V92.552C1366.24 90.0854 1366.79 87.9187 1367.89 86.052C1369.02 84.152 1370.59 82.6854 1372.59 81.652C1374.62 80.6187 1376.97 80.1021 1379.64 80.1021C1382.3 80.1021 1384.64 80.6021 1386.64 81.602C1388.67 82.5687 1390.24 83.952 1391.34 85.752C1392.47 87.5187 1393.04 89.5687 1393.04 91.902C1393.04 92.0687 1392.97 92.2021 1392.84 92.3021C1392.74 92.4021 1392.6 92.452 1392.44 92.452L1385.34 92.9021C1384.94 92.9021 1384.74 92.7187 1384.74 92.352C1384.74 90.7854 1384.27 89.5354 1383.34 88.602C1382.4 87.6687 1381.17 87.202 1379.64 87.202C1378.1 87.202 1376.87 87.6854 1375.94 88.6521C1375 89.5854 1374.54 90.8187 1374.54 92.352V103.702C1374.54 105.235 1375 106.469 1375.94 107.402C1376.87 108.335 1378.1 108.802 1379.64 108.802C1381.17 108.802 1382.4 108.335 1383.34 107.402C1384.27 106.469 1384.74 105.235 1384.74 103.702C1384.74 103.335 1384.94 103.152 1385.34 103.152L1392.44 103.502C1392.6 103.502 1392.74 103.552 1392.84 103.652C1392.97 103.752 1393.04 103.869 1393.04 104.002C1393.04 106.369 1392.47 108.452 1391.34 110.252C1390.24 112.052 1388.67 113.452 1386.64 114.452C1384.64 115.419 1382.3 115.902 1379.64 115.902Z" fill="#FF5910"/>
<path d="M1433.35 87.002C1433.35 87.1687 1433.29 87.3187 1433.15 87.452C1433.05 87.552 1432.92 87.602 1432.75 87.602H1417.05C1416.89 87.602 1416.8 87.6854 1416.8 87.852V94.0021C1416.8 94.1687 1416.89 94.2521 1417.05 94.2521H1427.1C1427.27 94.2521 1427.4 94.3187 1427.5 94.452C1427.64 94.552 1427.7 94.6854 1427.7 94.852V100.702C1427.7 100.869 1427.64 101.019 1427.5 101.152C1427.4 101.252 1427.27 101.302 1427.1 101.302H1417.05C1416.89 101.302 1416.8 101.385 1416.8 101.552V108.152C1416.8 108.319 1416.89 108.402 1417.05 108.402H1432.75C1432.92 108.402 1433.05 108.469 1433.15 108.602C1433.29 108.702 1433.35 108.835 1433.35 109.002V114.902C1433.35 115.069 1433.29 115.219 1433.15 115.352C1433.05 115.452 1432.92 115.502 1432.75 115.502H1409.1C1408.94 115.502 1408.79 115.452 1408.65 115.352C1408.55 115.219 1408.5 115.069 1408.5 114.902V81.102C1408.5 80.9354 1408.55 80.802 1408.65 80.702C1408.79 80.5687 1408.94 80.502 1409.1 80.502H1432.75C1432.92 80.502 1433.05 80.5687 1433.15 80.702C1433.29 80.802 1433.35 80.9354 1433.35 81.102V87.002Z" fill="#FF5910"/>
<path d="M1468.46 81.102C1468.46 80.9354 1468.51 80.802 1468.61 80.702C1468.75 80.5687 1468.9 80.502 1469.06 80.502H1476.16C1476.33 80.502 1476.46 80.5687 1476.56 80.702C1476.7 80.802 1476.76 80.9354 1476.76 81.102V114.902C1476.76 115.069 1476.7 115.219 1476.56 115.352C1476.46 115.452 1476.33 115.502 1476.16 115.502H1469.36C1469.03 115.502 1468.8 115.369 1468.66 115.102L1457.16 96.0021C1457.1 95.9021 1457.03 95.8687 1456.96 95.9021C1456.9 95.9021 1456.86 95.9687 1456.86 96.1021L1456.91 114.902C1456.91 115.069 1456.85 115.219 1456.71 115.352C1456.61 115.452 1456.48 115.502 1456.31 115.502H1449.21C1449.05 115.502 1448.9 115.452 1448.76 115.352C1448.66 115.219 1448.61 115.069 1448.61 114.902V81.102C1448.61 80.9354 1448.66 80.802 1448.76 80.702C1448.9 80.5687 1449.05 80.502 1449.21 80.502H1456.06C1456.4 80.502 1456.63 80.6354 1456.76 80.902L1468.21 99.952C1468.28 100.052 1468.35 100.102 1468.41 100.102C1468.48 100.069 1468.51 99.9854 1468.51 99.8521L1468.46 81.102Z" fill="#FF5910"/>
<path d="M1518.27 80.502C1518.43 80.502 1518.57 80.5687 1518.67 80.702C1518.8 80.802 1518.87 80.9354 1518.87 81.102V87.0521C1518.87 87.2187 1518.8 87.3687 1518.67 87.5021C1518.57 87.602 1518.43 87.652 1518.27 87.652H1509.52C1509.35 87.652 1509.27 87.7354 1509.27 87.902V114.902C1509.27 115.069 1509.2 115.219 1509.07 115.352C1508.97 115.452 1508.83 115.502 1508.67 115.502H1501.57C1501.4 115.502 1501.25 115.452 1501.12 115.352C1501.02 115.219 1500.97 115.069 1500.97 114.902V87.902C1500.97 87.7354 1500.88 87.652 1500.72 87.652H1492.27C1492.1 87.652 1491.95 87.602 1491.82 87.5021C1491.72 87.3687 1491.67 87.2187 1491.67 87.0521V81.102C1491.67 80.9354 1491.72 80.802 1491.82 80.702C1491.95 80.5687 1492.1 80.502 1492.27 80.502H1518.27Z" fill="#FF5910"/>
<path d="M1558.56 87.002C1558.56 87.1687 1558.49 87.3187 1558.36 87.452C1558.26 87.552 1558.13 87.602 1557.96 87.602H1542.26C1542.09 87.602 1542.01 87.6854 1542.01 87.852V94.0021C1542.01 94.1687 1542.09 94.2521 1542.26 94.2521H1552.31C1552.48 94.2521 1552.61 94.3187 1552.71 94.452C1552.84 94.552 1552.91 94.6854 1552.91 94.852V100.702C1552.91 100.869 1552.84 101.019 1552.71 101.152C1552.61 101.252 1552.48 101.302 1552.31 101.302H1542.26C1542.09 101.302 1542.01 101.385 1542.01 101.552V108.152C1542.01 108.319 1542.09 108.402 1542.26 108.402H1557.96C1558.13 108.402 1558.26 108.469 1558.36 108.602C1558.49 108.702 1558.56 108.835 1558.56 109.002V114.902C1558.56 115.069 1558.49 115.219 1558.36 115.352C1558.26 115.452 1558.13 115.502 1557.96 115.502H1534.31C1534.14 115.502 1533.99 115.452 1533.86 115.352C1533.76 115.219 1533.71 115.069 1533.71 114.902V81.102C1533.71 80.9354 1533.76 80.802 1533.86 80.702C1533.99 80.5687 1534.14 80.502 1534.31 80.502H1557.96C1558.13 80.502 1558.26 80.5687 1558.36 80.702C1558.49 80.802 1558.56 80.9354 1558.56 81.102V87.002Z" fill="#FF5910"/>
<path d="M1592.57 115.502C1592.23 115.502 1592 115.352 1591.87 115.052L1585.97 101.752C1585.9 101.619 1585.8 101.552 1585.67 101.552H1582.37C1582.2 101.552 1582.12 101.635 1582.12 101.802V114.902C1582.12 115.069 1582.05 115.219 1581.92 115.352C1581.82 115.452 1581.68 115.502 1581.52 115.502H1574.42C1574.25 115.502 1574.1 115.452 1573.97 115.352C1573.87 115.219 1573.82 115.069 1573.82 114.902V81.102C1573.82 80.9354 1573.87 80.802 1573.97 80.702C1574.1 80.5687 1574.25 80.502 1574.42 80.502H1589.27C1591.47 80.502 1593.4 80.952 1595.07 81.852C1596.73 82.752 1598.02 84.0354 1598.92 85.7021C1599.85 87.3354 1600.32 89.2187 1600.32 91.3521C1600.32 93.5854 1599.77 95.5187 1598.67 97.1521C1597.57 98.7854 1596.03 99.9687 1594.07 100.702C1593.9 100.769 1593.85 100.885 1593.92 101.052L1600.52 114.802C1600.58 114.935 1600.62 115.035 1600.62 115.102C1600.62 115.369 1600.43 115.502 1600.07 115.502H1592.57ZM1582.37 87.602C1582.2 87.602 1582.12 87.6854 1582.12 87.852V94.9521C1582.12 95.1187 1582.2 95.2021 1582.37 95.2021H1587.92C1589.15 95.2021 1590.15 94.8687 1590.92 94.202C1591.68 93.502 1592.07 92.5854 1592.07 91.452C1592.07 90.2854 1591.68 89.352 1590.92 88.6521C1590.15 87.9521 1589.15 87.602 1587.92 87.602H1582.37Z" fill="#FF5910"/>
<path d="M1614.68 115.502C1614.51 115.502 1614.36 115.452 1614.23 115.352C1614.13 115.219 1614.08 115.069 1614.08 114.902V109.902C1614.08 109.735 1614.13 109.602 1614.23 109.502C1614.36 109.369 1614.51 109.302 1614.68 109.302H1638.83C1639 109.302 1639.13 109.369 1639.23 109.502C1639.36 109.602 1639.43 109.735 1639.43 109.902V114.902C1639.43 115.069 1639.36 115.219 1639.23 115.352C1639.13 115.452 1639 115.502 1638.83 115.502H1614.68Z" fill="#FF5910"/>
<defs>
<filter id="filter0_b_228_2214" x="-14.4219" y="-14.498" width="451.787" height="220" filterUnits="userSpaceOnUse" color-interpolation-filters="sRGB">
<feFlood flood-opacity="0" result="BackgroundImageFix"/>
<feGaussianBlur in="BackgroundImageFix" stdDeviation="7.5"/>
<feComposite in2="SourceAlpha" operator="in" result="effect1_backgroundBlur_228_2214"/>
<feBlend mode="normal" in="SourceGraphic" in2="effect1_backgroundBlur_228_2214" result="shape"/>
</filter>
</defs>
</svg>
