<svg width="1232" height="411" viewBox="0 0 1232 411" fill="none" xmlns="http://www.w3.org/2000/svg">
<rect x="0.0664062" y="0.539062" width="1231.87" height="264.386" fill="#072A5E" fill-opacity="0.62"/>
<path d="M444.375 112.807V130.915L435.913 120.643C438.455 117.68 441.303 114.997 444.375 112.807ZM414.204 131.475C405.774 109.252 392.464 99.3417 383.448 94.7739V81.4392L417.681 123.489C416.448 125.954 415.288 128.614 414.204 131.475ZM461.56 156.084V108.439C468.999 111.489 470.882 122.667 465.049 128.057C465.049 128.057 479.667 126.546 479.667 111.43C479.667 99.5068 469.996 92.6181 461.56 90.9854V57.5844C461.622 53.7456 471.467 49.0319 475.692 56.8865C482.895 47.4775 472.514 28.8779 452.962 40.9915C433.427 28.8779 423.046 47.4775 430.255 56.8865C434.48 49.0319 444.313 53.7456 444.375 57.5844V95.0706C439.24 97.7497 432.823 102.159 426.716 109.492L383.51 57.1074C384.326 53.3716 393.53 49.3494 397.574 56.8865C404.783 47.4775 394.408 28.8779 374.861 40.9915C355.308 28.8779 344.933 47.4775 352.143 56.8865C356.367 49.0319 366.206 53.7456 366.269 57.5844V91.1011C357.981 92.9267 348.74 99.7811 348.74 111.43C348.74 126.546 363.358 128.057 363.358 128.057C357.669 122.81 359.308 112.077 366.268 108.7V156.084C366.206 159.923 356.367 164.64 352.142 156.788C344.933 166.191 355.308 184.79 374.86 172.678C394.407 184.791 404.782 166.191 397.573 156.788C393.348 164.64 383.515 159.923 383.447 156.084V112.399C395.853 120.851 404.539 137.637 405.58 147.374V202.593C405.58 211.535 395.672 217.97 391.46 210.121C384.244 219.529 394.619 236.322 414.172 224.208C433.713 236.322 444.088 219.529 436.878 210.121C432.66 217.971 422.759 210.794 422.759 202.593V148.165C422.996 144.52 424.429 139.722 426.803 134.703L444.362 156.284C443.988 160.079 434.411 164.515 430.254 156.789C423.045 166.192 433.426 184.791 452.961 172.678C472.513 184.792 482.894 166.192 475.691 156.789C471.467 164.64 461.622 159.923 461.56 156.084Z" fill="#FF5910"/>
<path d="M492.161 157.959H491.237V154.387H491.222L489.921 157.959H489.033L487.769 154.387H487.754V157.959H486.837V153.471H488.427L489.462 156.407H489.492L490.571 153.471H492.161M486.009 154.269H484.656V157.959H483.739V154.269H482.387V153.471H486.01V154.269H486.009Z" fill="#FF5910"/>
<path d="M656.09 49.6732C649.802 49.7231 629.121 49.8768 626.747 49.8932C618.78 60.0357 608.893 82.821 598.386 107.117C575.702 159.599 559.636 193.654 543.58 189.017C541.14 188.314 539.382 186.644 538.513 184.195C538.066 182.962 537.88 181.569 537.88 180.072C537.88 172.816 542.44 163.038 546.502 155.899C540.396 158.083 533.998 160.394 533.071 160.734C525.022 169.826 517.844 185.408 517.844 197.354C517.844 199.091 517.986 200.745 518.309 202.292C519.376 207.421 522.108 210.905 526.634 212.956C533.517 216.067 540.393 216.212 547.665 213.383C573.476 203.373 593.984 159.645 599.644 146.477C602.729 139.321 603.89 136.624 606.844 137.493C608.482 137.964 609.016 139.023 609.016 140.802C609.016 142.043 608.757 143.639 608.434 145.649C608.434 145.649 608.007 148.301 608.007 148.351C604.417 169.505 596.543 198.25 589.535 212.455H611.795C615.906 206.838 621.867 197.072 628.767 185.672C636.825 172.361 645.963 157.264 654.129 145.781C661.765 135.018 662.743 133.647 665.465 135.285C668.162 136.914 667.409 138.388 661.419 150.202C650.78 166.806 647.083 189.827 652.965 202.594C655.753 208.617 660.435 212.123 666.797 213C678.9 214.365 689.608 204.558 691.809 201.844L694.071 199.052L696.256 201.909C698.283 204.556 700.717 206.705 703.869 208.682C711.811 213.299 738.62 216.207 758.072 196.079L758.382 195.652L761.704 193.674L763.32 192.938L764.535 196.027C764.535 196.027 765.146 197.55 765.427 198.121C768.504 206.51 774.784 209.55 779.491 210.634C788.914 212.793 800.154 209.213 808.162 201.495L809.855 199.866L811.768 201.224C816.732 204.748 822.528 208.481 827.823 209.432C859.202 215.024 871.145 188.912 872.419 182.144C873.213 177.975 873.531 174.228 873.531 170.795C873.531 162.249 871.52 155.685 869.691 149.711C868.268 145.062 866.938 140.739 866.938 136.346C866.938 133.144 868.012 129.834 869.898 126.392C865.77 124.258 857.988 120.273 856.532 119.528C851.544 121.812 831.511 147.123 819.408 162.444C798.18 189.323 797.942 189.208 795.054 187.793L792.663 185.001C791.439 181.336 794.006 175.418 795.636 172.217C795.636 172.217 823.262 113.532 823.221 113.647L824.565 110.351C824.565 110.351 873.352 109.599 876.828 109.549C877.771 107.208 881.313 98.5789 883.266 93.8303C876.068 93.946 832.399 94.6187 832.399 94.6187C832.399 94.6187 843.68 70.9123 846.592 64.8234C840.371 64.8813 823.937 65.0185 821.256 65.0435C819.883 67.9224 807.153 94.8643 807.153 94.8643C807.153 94.8643 783.023 95.2803 779.995 95.3296C778.944 97.4475 774.674 106.164 772.2 111.178C778.711 110.921 799.553 110.118 799.553 110.118C799.553 110.118 778.791 155.219 778.741 155.334C770.766 170.739 750.655 196.459 725.91 195.135C720.764 194.854 714.374 192.28 713.1 181.575L712.764 178.679L715.659 178.421C743.333 175.989 754.793 165.781 759.17 159.923C766.127 150.599 767.253 141.349 762.272 134.549C756.423 126.541 743.654 124.238 730.525 128.796C706.393 137.169 687.724 164.672 690.57 187.636L690.738 189.006L689.768 189.975C689.007 190.736 685.016 194.513 680.888 194.099C679.026 193.908 677.452 192.931 676.286 191.152C674.888 188.844 674.231 185.723 674.231 181.909C674.231 157.637 700.815 104.976 730.886 49.9057H698.648C684.476 64.5241 666.699 93.9753 652.345 117.835C652.345 117.835 639.821 138.317 639.457 138.879C636.339 143.611 635.287 145.201 632.813 144.075C631.58 143.521 631.081 142.777 631.081 141.503C631.081 140.171 631.631 138.264 632.425 135.401L638.669 110.169C643.889 88.0559 649.79 63.7623 656.094 49.6745L656.09 49.6732ZM740.822 138.481C743.42 138.576 745.717 139.534 747.285 141.337C748.336 142.553 749.082 144.239 749.082 146.249C749.082 148.334 748.271 150.774 746.186 153.372C739.452 161.802 725.196 166.551 718.33 166.104L715.034 165.897L715.732 162.679C717.204 155.961 723.892 145.94 732.562 140.794C735.329 139.148 738.224 138.385 740.822 138.481ZM849.416 141.363L851.045 157.301C851.839 163.828 852.687 170.574 851.652 179.302C851.09 184.018 848.014 190.865 842.604 194.762C838.898 197.417 834.594 198.321 830.143 197.386C827.024 196.724 824.363 194.164 823.395 190.871C823.156 190.069 822.956 189.023 822.956 187.782C822.956 185.209 824.333 181.64 827.493 177.686C826.682 176.826 824.391 174.377 824.391 174.377L825.554 172.528C831.535 162.849 836.5 156.884 841.298 151.109L845.073 146.508L849.416 141.363Z" fill="#FF5910"/>
<rect x="0.0664062" y="264.924" width="1231.87" height="145.227" fill="black" fill-opacity="0.63"/>
<path d="M50.2299 355.105C47.5025 355.105 45.1201 354.678 43.0827 353.823C41.0782 352.936 39.5173 351.687 38.4 350.077C37.3156 348.434 36.7734 346.545 36.7734 344.409V343.472C36.7734 343.308 36.8227 343.176 36.9213 343.078C37.0528 342.946 37.2006 342.881 37.3649 342.881H44.2164C44.3807 342.881 44.5121 342.946 44.6107 343.078C44.7422 343.176 44.8079 343.308 44.8079 343.472V344.064C44.8079 345.148 45.3501 346.101 46.4345 346.923C47.5189 347.711 48.9812 348.106 50.8214 348.106C52.2673 348.106 53.3353 347.793 54.0253 347.169C54.7154 346.545 55.0604 345.822 55.0604 345C55.0604 344.343 54.8469 343.817 54.4197 343.423C54.0253 342.996 53.4831 342.651 52.7931 342.388C52.103 342.092 51.035 341.698 49.5891 341.205C49.392 341.106 49.1948 341.041 48.9976 341.008C48.8005 340.942 48.6197 340.876 48.4554 340.811C46.3195 340.12 44.4629 339.381 42.8855 338.592C41.3082 337.771 39.9609 336.654 38.8437 335.241C37.7264 333.795 37.1678 332.02 37.1678 329.917C37.1678 327.88 37.6935 326.105 38.7451 324.594C39.8295 323.049 41.3247 321.866 43.2306 321.045C45.1365 320.223 47.2889 319.812 49.6877 319.812C52.218 319.812 54.4854 320.273 56.4899 321.193C58.5273 322.113 60.121 323.411 61.2711 325.087C62.4213 326.763 62.9963 328.685 62.9963 330.854V331.544C62.9963 331.708 62.9306 331.856 62.7992 331.987C62.7006 332.086 62.5691 332.135 62.4048 332.135H55.5534C55.3891 332.135 55.2412 332.086 55.1097 331.987C55.0112 331.856 54.9619 331.708 54.9619 331.544V331.199C54.9619 330.049 54.4525 329.03 53.4338 328.143C52.4152 327.255 51.0514 326.812 49.3427 326.812C48.0611 326.812 47.0589 327.075 46.3359 327.6C45.613 328.126 45.2515 328.866 45.2515 329.819C45.2515 330.542 45.4815 331.149 45.9416 331.642C46.4016 332.102 47.1081 332.546 48.0611 332.973C49.0469 333.368 50.5421 333.893 52.5466 334.551C54.8469 335.339 56.6378 336.029 57.9193 336.621C59.2009 337.212 60.4003 338.182 61.5176 339.529C62.6677 340.843 63.2428 342.585 63.2428 344.754C63.2428 346.89 62.7006 348.73 61.6162 350.274C60.5318 351.819 59.0037 353.018 57.0321 353.873C55.0933 354.694 52.8259 355.105 50.2299 355.105Z" fill="#FF4E00"/>
<path d="M101.672 320.601C101.803 320.338 102.033 320.207 102.362 320.207H109.312C109.476 320.207 109.608 320.273 109.706 320.404C109.838 320.503 109.903 320.634 109.903 320.798V354.119C109.903 354.283 109.838 354.431 109.706 354.563C109.608 354.661 109.476 354.711 109.312 354.711H102.313C102.148 354.711 102 354.661 101.869 354.563C101.77 354.431 101.721 354.283 101.721 354.119V334.304C101.721 334.173 101.688 334.107 101.622 334.107C101.557 334.107 101.491 334.156 101.425 334.255L97.1863 341.057C97.0548 341.32 96.8248 341.451 96.4962 341.451H92.9965C92.6679 341.451 92.4379 341.32 92.3064 341.057L88.0181 334.206C87.9524 334.107 87.8867 334.058 87.821 334.058C87.7552 334.058 87.7224 334.123 87.7224 334.255V354.119C87.7224 354.283 87.6567 354.431 87.5252 354.563C87.4266 354.661 87.2952 354.711 87.1309 354.711H80.1315C79.9672 354.711 79.8194 354.661 79.6879 354.563C79.5893 354.431 79.54 354.283 79.54 354.119V320.798C79.54 320.634 79.5893 320.503 79.6879 320.404C79.8194 320.273 79.9672 320.207 80.1315 320.207H87.0816C87.3773 320.207 87.6074 320.338 87.7717 320.601L94.6231 331.347C94.7217 331.544 94.8203 331.544 94.9189 331.347L101.672 320.601Z" fill="#FF4E00"/>
<path d="M149.576 354.711C149.215 354.711 148.985 354.546 148.886 354.218L147.605 349.831C147.539 349.699 147.457 349.634 147.358 349.634H136.12C136.021 349.634 135.939 349.699 135.873 349.831L134.592 354.218C134.493 354.546 134.263 354.711 133.902 354.711H126.36C126.163 354.711 126.015 354.661 125.916 354.563C125.818 354.431 125.801 354.251 125.867 354.021L136.415 320.7C136.514 320.371 136.728 320.207 137.056 320.207H146.372C146.701 320.207 146.914 320.371 147.013 320.7L157.611 354.021C157.644 354.086 157.66 354.168 157.66 354.267C157.66 354.563 157.479 354.711 157.118 354.711H149.576ZM137.845 343.029C137.812 343.226 137.878 343.324 138.042 343.324H145.386C145.584 343.324 145.649 343.226 145.584 343.029L141.837 330.361C141.805 330.229 141.755 330.18 141.69 330.213C141.624 330.213 141.575 330.262 141.542 330.361L137.845 343.029Z" fill="#FF4E00"/>
<path d="M192.082 354.711C191.753 354.711 191.523 354.563 191.392 354.267L185.575 341.156C185.51 341.024 185.411 340.958 185.28 340.958H182.026C181.862 340.958 181.78 341.041 181.78 341.205V354.119C181.78 354.283 181.714 354.431 181.583 354.563C181.484 354.661 181.353 354.711 181.188 354.711H174.189C174.025 354.711 173.877 354.661 173.745 354.563C173.647 354.431 173.598 354.283 173.598 354.119V320.798C173.598 320.634 173.647 320.503 173.745 320.404C173.877 320.273 174.025 320.207 174.189 320.207H188.829C190.997 320.207 192.903 320.65 194.546 321.538C196.189 322.425 197.454 323.69 198.342 325.333C199.262 326.943 199.722 328.8 199.722 330.903C199.722 333.105 199.18 335.011 198.095 336.621C197.011 338.231 195.499 339.398 193.56 340.12C193.396 340.186 193.347 340.301 193.413 340.465L199.919 354.021C199.985 354.152 200.018 354.251 200.018 354.316C200.018 354.579 199.837 354.711 199.475 354.711H192.082ZM182.026 327.206C181.862 327.206 181.78 327.288 181.78 327.453V334.452C181.78 334.616 181.862 334.698 182.026 334.698H187.498C188.713 334.698 189.699 334.37 190.455 333.713C191.211 333.023 191.589 332.119 191.589 331.002C191.589 329.851 191.211 328.931 190.455 328.241C189.699 327.551 188.713 327.206 187.498 327.206H182.026Z" fill="#FF4E00"/>
<path d="M241.043 320.207C241.207 320.207 241.339 320.273 241.437 320.404C241.569 320.503 241.634 320.634 241.634 320.798V326.664C241.634 326.828 241.569 326.976 241.437 327.108C241.339 327.206 241.207 327.255 241.043 327.255H232.417C232.253 327.255 232.17 327.338 232.17 327.502V354.119C232.17 354.283 232.105 354.431 231.973 354.563C231.875 354.661 231.743 354.711 231.579 354.711H224.58C224.415 354.711 224.267 354.661 224.136 354.563C224.037 354.431 223.988 354.283 223.988 354.119V327.502C223.988 327.338 223.906 327.255 223.742 327.255H215.411C215.247 327.255 215.099 327.206 214.968 327.108C214.869 326.976 214.82 326.828 214.82 326.664V320.798C214.82 320.634 214.869 320.503 214.968 320.404C215.099 320.273 215.247 320.207 215.411 320.207H241.043Z" fill="#FF4E00"/>
<path d="M292.357 355.105C289.728 355.105 287.411 354.596 285.407 353.577C283.435 352.558 281.891 351.112 280.773 349.239C279.689 347.366 279.147 345.197 279.147 342.733V332.086C279.147 329.654 279.689 327.518 280.773 325.678C281.891 323.805 283.435 322.359 285.407 321.341C287.411 320.322 289.728 319.812 292.357 319.812C294.986 319.812 297.286 320.305 299.258 321.291C301.262 322.244 302.807 323.608 303.891 325.382C305.008 327.124 305.567 329.145 305.567 331.445C305.567 331.61 305.501 331.741 305.37 331.84C305.271 331.938 305.14 331.987 304.975 331.987L297.976 332.431C297.582 332.431 297.385 332.25 297.385 331.889C297.385 330.344 296.924 329.112 296.004 328.192C295.084 327.272 293.868 326.812 292.357 326.812C290.845 326.812 289.629 327.288 288.709 328.241C287.789 329.161 287.329 330.377 287.329 331.889V343.078C287.329 344.59 287.789 345.805 288.709 346.725C289.629 347.646 290.845 348.106 292.357 348.106C293.868 348.106 295.084 347.646 296.004 346.725C296.924 345.805 297.385 344.59 297.385 343.078C297.385 342.716 297.582 342.536 297.976 342.536L304.975 342.881C305.14 342.881 305.271 342.93 305.37 343.029C305.501 343.127 305.567 343.242 305.567 343.374C305.567 345.707 305.008 347.761 303.891 349.535C302.807 351.31 301.262 352.69 299.258 353.676C297.286 354.628 294.986 355.105 292.357 355.105Z" fill="#FF4E00"/>
<path d="M334.914 355.253C332.252 355.253 329.902 354.727 327.865 353.676C325.86 352.591 324.3 351.08 323.182 349.141C322.065 347.202 321.506 344.951 321.506 342.388V332.53C321.506 330.032 322.065 327.831 323.182 325.925C324.3 323.986 325.86 322.491 327.865 321.439C329.902 320.355 332.252 319.812 334.914 319.812C337.575 319.812 339.925 320.355 341.962 321.439C344 322.491 345.577 323.986 346.694 325.925C347.811 327.831 348.37 330.032 348.37 332.53V342.388C348.37 344.951 347.811 347.202 346.694 349.141C345.577 351.08 344 352.591 341.962 353.676C339.925 354.727 337.575 355.253 334.914 355.253ZM334.914 348.253C336.491 348.253 337.756 347.744 338.709 346.725C339.695 345.707 340.188 344.343 340.188 342.634V332.431C340.188 330.755 339.695 329.408 338.709 328.389C337.756 327.338 336.491 326.812 334.914 326.812C333.369 326.812 332.104 327.338 331.118 328.389C330.165 329.408 329.689 330.755 329.689 332.431V342.634C329.689 344.343 330.165 345.707 331.118 346.725C332.104 347.744 333.369 348.253 334.914 348.253Z" fill="#FF4E00"/>
<path d="M387.117 320.601C387.249 320.338 387.479 320.207 387.808 320.207H394.758C394.922 320.207 395.053 320.273 395.152 320.404C395.283 320.503 395.349 320.634 395.349 320.798V354.119C395.349 354.283 395.283 354.431 395.152 354.563C395.053 354.661 394.922 354.711 394.758 354.711H387.758C387.594 354.711 387.446 354.661 387.315 354.563C387.216 354.431 387.167 354.283 387.167 354.119V334.304C387.167 334.173 387.134 334.107 387.068 334.107C387.002 334.107 386.937 334.156 386.871 334.255L382.632 341.057C382.501 341.32 382.271 341.451 381.942 341.451H378.442C378.114 341.451 377.884 341.32 377.752 341.057L373.464 334.206C373.398 334.107 373.332 334.058 373.267 334.058C373.201 334.058 373.168 334.123 373.168 334.255V354.119C373.168 354.283 373.102 354.431 372.971 354.563C372.872 354.661 372.741 354.711 372.577 354.711H365.577C365.413 354.711 365.265 354.661 365.134 354.563C365.035 354.431 364.986 354.283 364.986 354.119V320.798C364.986 320.634 365.035 320.503 365.134 320.404C365.265 320.273 365.413 320.207 365.577 320.207H372.527C372.823 320.207 373.053 320.338 373.217 320.601L380.069 331.347C380.167 331.544 380.266 331.544 380.365 331.347L387.117 320.601Z" fill="#FF4E00"/>
<path d="M434.628 320.601C434.759 320.338 434.989 320.207 435.318 320.207H442.268C442.432 320.207 442.563 320.273 442.662 320.404C442.793 320.503 442.859 320.634 442.859 320.798V354.119C442.859 354.283 442.793 354.431 442.662 354.563C442.563 354.661 442.432 354.711 442.268 354.711H435.268C435.104 354.711 434.956 354.661 434.825 354.563C434.726 354.431 434.677 354.283 434.677 354.119V334.304C434.677 334.173 434.644 334.107 434.578 334.107C434.513 334.107 434.447 334.156 434.381 334.255L430.142 341.057C430.011 341.32 429.781 341.451 429.452 341.451H425.952C425.624 341.451 425.394 341.32 425.262 341.057L420.974 334.206C420.908 334.107 420.843 334.058 420.777 334.058C420.711 334.058 420.678 334.123 420.678 334.255V354.119C420.678 354.283 420.612 354.431 420.481 354.563C420.382 354.661 420.251 354.711 420.087 354.711H413.087C412.923 354.711 412.775 354.661 412.644 354.563C412.545 354.431 412.496 354.283 412.496 354.119V320.798C412.496 320.634 412.545 320.503 412.644 320.404C412.775 320.273 412.923 320.207 413.087 320.207H420.037C420.333 320.207 420.563 320.338 420.728 320.601L427.579 331.347C427.678 331.544 427.776 331.544 427.875 331.347L434.628 320.601Z" fill="#FF4E00"/>
<path d="M482.532 354.711C482.171 354.711 481.941 354.546 481.842 354.218L480.56 349.831C480.495 349.699 480.413 349.634 480.314 349.634H469.076C468.977 349.634 468.895 349.699 468.829 349.831L467.548 354.218C467.449 354.546 467.219 354.711 466.857 354.711H459.316C459.119 354.711 458.971 354.661 458.872 354.563C458.774 354.431 458.757 354.251 458.823 354.021L469.371 320.7C469.47 320.371 469.684 320.207 470.012 320.207H479.328C479.657 320.207 479.87 320.371 479.969 320.7L490.566 354.021C490.599 354.086 490.616 354.168 490.616 354.267C490.616 354.563 490.435 354.711 490.074 354.711H482.532ZM470.801 343.029C470.768 343.226 470.834 343.324 470.998 343.324H478.342C478.539 343.324 478.605 343.226 478.539 343.029L474.793 330.361C474.76 330.229 474.711 330.18 474.645 330.213C474.58 330.213 474.53 330.262 474.498 330.361L470.801 343.029Z" fill="#FF4E00"/>
<path d="M526.122 320.798C526.122 320.634 526.171 320.503 526.27 320.404C526.401 320.273 526.549 320.207 526.713 320.207H533.713C533.877 320.207 534.009 320.273 534.107 320.404C534.239 320.503 534.304 320.634 534.304 320.798V354.119C534.304 354.283 534.239 354.431 534.107 354.563C534.009 354.661 533.877 354.711 533.713 354.711H527.009C526.681 354.711 526.451 354.579 526.319 354.316L514.982 335.487C514.916 335.388 514.851 335.356 514.785 335.388C514.719 335.388 514.686 335.454 514.686 335.586L514.736 354.119C514.736 354.283 514.67 354.431 514.539 354.563C514.44 354.661 514.309 354.711 514.144 354.711H507.145C506.981 354.711 506.833 354.661 506.701 354.563C506.603 354.431 506.553 354.283 506.553 354.119V320.798C506.553 320.634 506.603 320.503 506.701 320.404C506.833 320.273 506.981 320.207 507.145 320.207H513.898C514.226 320.207 514.456 320.338 514.588 320.601L525.875 339.381C525.941 339.48 526.007 339.529 526.073 339.529C526.138 339.496 526.171 339.414 526.171 339.282L526.122 320.798Z" fill="#FF4E00"/>
<path d="M551.959 354.711C551.795 354.711 551.647 354.661 551.516 354.563C551.417 354.431 551.368 354.283 551.368 354.119V320.798C551.368 320.634 551.417 320.503 551.516 320.404C551.647 320.273 551.795 320.207 551.959 320.207H564.529C567.092 320.207 569.359 320.65 571.331 321.538C573.302 322.425 574.83 323.69 575.915 325.333C576.999 326.976 577.542 328.866 577.542 331.002V343.916C577.542 346.052 576.999 347.941 575.915 349.584C574.83 351.227 573.302 352.493 571.331 353.38C569.359 354.267 567.092 354.711 564.529 354.711H551.959ZM559.55 347.465C559.55 347.629 559.632 347.711 559.797 347.711H564.874C566.188 347.711 567.256 347.251 568.078 346.331C568.899 345.378 569.326 344.113 569.359 342.536V332.382C569.359 330.804 568.932 329.556 568.078 328.636C567.256 327.683 566.172 327.206 564.824 327.206H559.797C559.632 327.206 559.55 327.288 559.55 327.453V347.465Z" fill="#FF4E00"/>
<path d="M629.019 355.105C626.39 355.105 624.074 354.596 622.069 353.577C620.097 352.558 618.553 351.112 617.436 349.239C616.351 347.366 615.809 345.197 615.809 342.733V332.086C615.809 329.654 616.351 327.518 617.436 325.678C618.553 323.805 620.097 322.359 622.069 321.341C624.074 320.322 626.39 319.812 629.019 319.812C631.648 319.812 633.948 320.305 635.92 321.291C637.924 322.244 639.469 323.608 640.553 325.382C641.671 327.124 642.229 329.145 642.229 331.445C642.229 331.61 642.163 331.741 642.032 331.84C641.933 331.938 641.802 331.987 641.638 331.987L634.638 332.431C634.244 332.431 634.047 332.25 634.047 331.889C634.047 330.344 633.587 329.112 632.667 328.192C631.747 327.272 630.531 326.812 629.019 326.812C627.508 326.812 626.292 327.288 625.372 328.241C624.451 329.161 623.991 330.377 623.991 331.889V343.078C623.991 344.59 624.451 345.805 625.372 346.725C626.292 347.646 627.508 348.106 629.019 348.106C630.531 348.106 631.747 347.646 632.667 346.725C633.587 345.805 634.047 344.59 634.047 343.078C634.047 342.716 634.244 342.536 634.638 342.536L641.638 342.881C641.802 342.881 641.933 342.93 642.032 343.029C642.163 343.127 642.229 343.242 642.229 343.374C642.229 345.707 641.671 347.761 640.553 349.535C639.469 351.31 637.924 352.69 635.92 353.676C633.948 354.628 631.648 355.105 629.019 355.105Z" fill="#FF4E00"/>
<path d="M670.344 355.253C667.682 355.253 665.332 354.727 663.295 353.676C661.29 352.591 659.73 351.08 658.612 349.141C657.495 347.202 656.936 344.951 656.936 342.388V332.53C656.936 330.032 657.495 327.831 658.612 325.925C659.73 323.986 661.29 322.491 663.295 321.439C665.332 320.355 667.682 319.812 670.344 319.812C673.005 319.812 675.355 320.355 677.392 321.439C679.43 322.491 681.007 323.986 682.124 325.925C683.241 327.831 683.8 330.032 683.8 332.53V342.388C683.8 344.951 683.241 347.202 682.124 349.141C681.007 351.08 679.43 352.591 677.392 353.676C675.355 354.727 673.005 355.253 670.344 355.253ZM670.344 348.253C671.921 348.253 673.186 347.744 674.139 346.725C675.125 345.707 675.618 344.343 675.618 342.634V332.431C675.618 330.755 675.125 329.408 674.139 328.389C673.186 327.338 671.921 326.812 670.344 326.812C668.799 326.812 667.534 327.338 666.548 328.389C665.595 329.408 665.119 330.755 665.119 332.431V342.634C665.119 344.343 665.595 345.707 666.548 346.725C667.534 347.744 668.799 348.253 670.344 348.253Z" fill="#FF4E00"/>
<path d="M718.752 320.798C718.752 320.634 718.801 320.503 718.9 320.404C719.031 320.273 719.179 320.207 719.344 320.207H726.343C726.507 320.207 726.639 320.273 726.737 320.404C726.869 320.503 726.934 320.634 726.934 320.798V354.119C726.934 354.283 726.869 354.431 726.737 354.563C726.639 354.661 726.507 354.711 726.343 354.711H719.639C719.311 354.711 719.081 354.579 718.949 354.316L707.612 335.487C707.547 335.388 707.481 335.356 707.415 335.388C707.349 335.388 707.317 335.454 707.317 335.586L707.366 354.119C707.366 354.283 707.3 354.431 707.169 354.563C707.07 354.661 706.939 354.711 706.774 354.711H699.775C699.611 354.711 699.463 354.661 699.331 354.563C699.233 354.431 699.184 354.283 699.184 354.119V320.798C699.184 320.634 699.233 320.503 699.331 320.404C699.463 320.273 699.611 320.207 699.775 320.207H706.528C706.857 320.207 707.087 320.338 707.218 320.601L718.506 339.381C718.571 339.48 718.637 339.529 718.703 339.529C718.768 339.496 718.801 339.414 718.801 339.282L718.752 320.798Z" fill="#FF4E00"/>
<path d="M767.851 320.207C768.016 320.207 768.147 320.273 768.246 320.404C768.377 320.503 768.443 320.634 768.443 320.798V326.664C768.443 326.828 768.377 326.976 768.246 327.108C768.147 327.206 768.016 327.255 767.851 327.255H759.226C759.061 327.255 758.979 327.338 758.979 327.502V354.119C758.979 354.283 758.913 354.431 758.782 354.563C758.683 354.661 758.552 354.711 758.388 354.711H751.388C751.224 354.711 751.076 354.661 750.945 354.563C750.846 354.431 750.797 354.283 750.797 354.119V327.502C750.797 327.338 750.715 327.255 750.55 327.255H742.22C742.056 327.255 741.908 327.206 741.776 327.108C741.678 326.976 741.629 326.828 741.629 326.664V320.798C741.629 320.634 741.678 320.503 741.776 320.404C741.908 320.273 742.056 320.207 742.22 320.207H767.851Z" fill="#FF4E00"/>
<path d="M801.559 354.711C801.23 354.711 801 354.563 800.869 354.267L795.052 341.156C794.987 341.024 794.888 340.958 794.757 340.958H791.503C791.339 340.958 791.257 341.041 791.257 341.205V354.119C791.257 354.283 791.191 354.431 791.06 354.563C790.961 354.661 790.83 354.711 790.666 354.711H783.666C783.502 354.711 783.354 354.661 783.223 354.563C783.124 354.431 783.075 354.283 783.075 354.119V320.798C783.075 320.634 783.124 320.503 783.223 320.404C783.354 320.273 783.502 320.207 783.666 320.207H798.306C800.474 320.207 802.38 320.65 804.023 321.538C805.667 322.425 806.932 323.69 807.819 325.333C808.739 326.943 809.199 328.8 809.199 330.903C809.199 333.105 808.657 335.011 807.572 336.621C806.488 338.231 804.976 339.398 803.038 340.12C802.873 340.186 802.824 340.301 802.89 340.465L809.396 354.021C809.462 354.152 809.495 354.251 809.495 354.316C809.495 354.579 809.314 354.711 808.953 354.711H801.559ZM791.503 327.206C791.339 327.206 791.257 327.288 791.257 327.453V334.452C791.257 334.616 791.339 334.698 791.503 334.698H796.975C798.191 334.698 799.176 334.37 799.932 333.713C800.688 333.023 801.066 332.119 801.066 331.002C801.066 329.851 800.688 328.931 799.932 328.241C799.176 327.551 798.191 327.206 796.975 327.206H791.503Z" fill="#FF4E00"/>
<path d="M837.308 355.253C834.646 355.253 832.296 354.727 830.259 353.676C828.255 352.591 826.694 351.08 825.576 349.141C824.459 347.202 823.901 344.951 823.901 342.388V332.53C823.901 330.032 824.459 327.831 825.576 325.925C826.694 323.986 828.255 322.491 830.259 321.439C832.296 320.355 834.646 319.812 837.308 319.812C839.969 319.812 842.319 320.355 844.356 321.439C846.394 322.491 847.971 323.986 849.088 325.925C850.206 327.831 850.764 330.032 850.764 332.53V342.388C850.764 344.951 850.206 347.202 849.088 349.141C847.971 351.08 846.394 352.591 844.356 353.676C842.319 354.727 839.969 355.253 837.308 355.253ZM837.308 348.253C838.885 348.253 840.15 347.744 841.103 346.725C842.089 345.707 842.582 344.343 842.582 342.634V332.431C842.582 330.755 842.089 329.408 841.103 328.389C840.15 327.338 838.885 326.812 837.308 326.812C835.763 326.812 834.498 327.338 833.512 328.389C832.559 329.408 832.083 330.755 832.083 332.431V342.634C832.083 344.343 832.559 345.707 833.512 346.725C834.498 347.744 835.763 348.253 837.308 348.253Z" fill="#FF4E00"/>
<path d="M866.739 354.711C866.575 354.711 866.427 354.661 866.295 354.563C866.197 354.431 866.148 354.283 866.148 354.119V320.798C866.148 320.634 866.197 320.503 866.295 320.404C866.427 320.273 866.575 320.207 866.739 320.207H873.738C873.903 320.207 874.034 320.273 874.133 320.404C874.264 320.503 874.33 320.634 874.33 320.798V347.465C874.33 347.629 874.412 347.711 874.576 347.711H890.3C890.465 347.711 890.596 347.777 890.695 347.908C890.826 348.007 890.892 348.138 890.892 348.303V354.119C890.892 354.283 890.826 354.431 890.695 354.563C890.596 354.661 890.465 354.711 890.3 354.711H866.739Z" fill="#FF4E00"/>
<path d="M939.12 355.105C936.491 355.105 934.175 354.596 932.17 353.577C930.198 352.558 928.654 351.112 927.537 349.239C926.452 347.366 925.91 345.197 925.91 342.733V332.086C925.91 329.654 926.452 327.518 927.537 325.678C928.654 323.805 930.198 322.359 932.17 321.341C934.175 320.322 936.491 319.812 939.12 319.812C941.749 319.812 944.049 320.305 946.021 321.291C948.025 322.244 949.57 323.608 950.654 325.382C951.771 327.124 952.33 329.145 952.33 331.445C952.33 331.61 952.264 331.741 952.133 331.84C952.034 331.938 951.903 331.987 951.739 331.987L944.739 332.431C944.345 332.431 944.148 332.25 944.148 331.889C944.148 330.344 943.688 329.112 942.768 328.192C941.847 327.272 940.632 326.812 939.12 326.812C937.608 326.812 936.393 327.288 935.473 328.241C934.552 329.161 934.092 330.377 934.092 331.889V343.078C934.092 344.59 934.552 345.805 935.473 346.725C936.393 347.646 937.608 348.106 939.12 348.106C940.632 348.106 941.847 347.646 942.768 346.725C943.688 345.805 944.148 344.59 944.148 343.078C944.148 342.716 944.345 342.536 944.739 342.536L951.739 342.881C951.903 342.881 952.034 342.93 952.133 343.029C952.264 343.127 952.33 343.242 952.33 343.374C952.33 345.707 951.771 347.761 950.654 349.535C949.57 351.31 948.025 352.69 946.021 353.676C944.049 354.628 941.749 355.105 939.12 355.105Z" fill="#FF4E00"/>
<path d="M992.077 326.615C992.077 326.779 992.011 326.927 991.88 327.058C991.781 327.157 991.65 327.206 991.486 327.206H976.008C975.844 327.206 975.762 327.288 975.762 327.453V333.515C975.762 333.68 975.844 333.762 976.008 333.762H985.916C986.08 333.762 986.212 333.828 986.31 333.959C986.442 334.058 986.507 334.189 986.507 334.353V340.12C986.507 340.285 986.442 340.433 986.31 340.564C986.212 340.663 986.08 340.712 985.916 340.712H976.008C975.844 340.712 975.762 340.794 975.762 340.958V347.465C975.762 347.629 975.844 347.711 976.008 347.711H991.486C991.65 347.711 991.781 347.777 991.88 347.908C992.011 348.007 992.077 348.138 992.077 348.303V354.119C992.077 354.283 992.011 354.431 991.88 354.563C991.781 354.661 991.65 354.711 991.486 354.711H968.171C968.007 354.711 967.859 354.661 967.727 354.563C967.629 354.431 967.58 354.283 967.58 354.119V320.798C967.58 320.634 967.629 320.503 967.727 320.404C967.859 320.273 968.007 320.207 968.171 320.207H991.486C991.65 320.207 991.781 320.273 991.88 320.404C992.011 320.503 992.077 320.634 992.077 320.798V326.615Z" fill="#FF4E00"/>
<path d="M1026.69 320.798C1026.69 320.634 1026.74 320.503 1026.83 320.404C1026.97 320.273 1027.11 320.207 1027.28 320.207H1034.28C1034.44 320.207 1034.57 320.273 1034.67 320.404C1034.8 320.503 1034.87 320.634 1034.87 320.798V354.119C1034.87 354.283 1034.8 354.431 1034.67 354.563C1034.57 354.661 1034.44 354.711 1034.28 354.711H1027.57C1027.25 354.711 1027.02 354.579 1026.88 354.316L1015.55 335.487C1015.48 335.388 1015.42 335.356 1015.35 335.388C1015.28 335.388 1015.25 335.454 1015.25 335.586L1015.3 354.119C1015.3 354.283 1015.23 354.431 1015.1 354.563C1015 354.661 1014.87 354.711 1014.71 354.711H1007.71C1007.55 354.711 1007.4 354.661 1007.27 354.563C1007.17 354.431 1007.12 354.283 1007.12 354.119V320.798C1007.12 320.634 1007.17 320.503 1007.27 320.404C1007.4 320.273 1007.55 320.207 1007.71 320.207H1014.46C1014.79 320.207 1015.02 320.338 1015.15 320.601L1026.44 339.381C1026.51 339.48 1026.57 339.529 1026.64 339.529C1026.7 339.496 1026.74 339.414 1026.74 339.282L1026.69 320.798Z" fill="#FF4E00"/>
<path d="M1075.79 320.207C1075.95 320.207 1076.08 320.273 1076.18 320.404C1076.31 320.503 1076.38 320.634 1076.38 320.798V326.664C1076.38 326.828 1076.31 326.976 1076.18 327.108C1076.08 327.206 1075.95 327.255 1075.79 327.255H1067.16C1067 327.255 1066.91 327.338 1066.91 327.502V354.119C1066.91 354.283 1066.85 354.431 1066.72 354.563C1066.62 354.661 1066.49 354.711 1066.32 354.711H1059.32C1059.16 354.711 1059.01 354.661 1058.88 354.563C1058.78 354.431 1058.73 354.283 1058.73 354.119V327.502C1058.73 327.338 1058.65 327.255 1058.49 327.255H1050.15C1049.99 327.255 1049.84 327.206 1049.71 327.108C1049.61 326.976 1049.56 326.828 1049.56 326.664V320.798C1049.56 320.634 1049.61 320.503 1049.71 320.404C1049.84 320.273 1049.99 320.207 1050.15 320.207H1075.79Z" fill="#FF4E00"/>
<path d="M1115.51 326.615C1115.51 326.779 1115.44 326.927 1115.31 327.058C1115.21 327.157 1115.08 327.206 1114.92 327.206H1099.44C1099.27 327.206 1099.19 327.288 1099.19 327.453V333.515C1099.19 333.68 1099.27 333.762 1099.44 333.762H1109.35C1109.51 333.762 1109.64 333.828 1109.74 333.959C1109.87 334.058 1109.94 334.189 1109.94 334.353V340.12C1109.94 340.285 1109.87 340.433 1109.74 340.564C1109.64 340.663 1109.51 340.712 1109.35 340.712H1099.44C1099.27 340.712 1099.19 340.794 1099.19 340.958V347.465C1099.19 347.629 1099.27 347.711 1099.44 347.711H1114.92C1115.08 347.711 1115.21 347.777 1115.31 347.908C1115.44 348.007 1115.51 348.138 1115.51 348.303V354.119C1115.51 354.283 1115.44 354.431 1115.31 354.563C1115.21 354.661 1115.08 354.711 1114.92 354.711H1091.6C1091.44 354.711 1091.29 354.661 1091.16 354.563C1091.06 354.431 1091.01 354.283 1091.01 354.119V320.798C1091.01 320.634 1091.06 320.503 1091.16 320.404C1091.29 320.273 1091.44 320.207 1091.6 320.207H1114.92C1115.08 320.207 1115.21 320.273 1115.31 320.404C1115.44 320.503 1115.51 320.634 1115.51 320.798V326.615Z" fill="#FF4E00"/>
<path d="M1149.03 354.711C1148.7 354.711 1148.47 354.563 1148.34 354.267L1142.53 341.156C1142.46 341.024 1142.36 340.958 1142.23 340.958H1138.98C1138.81 340.958 1138.73 341.041 1138.73 341.205V354.119C1138.73 354.283 1138.66 354.431 1138.53 354.563C1138.43 354.661 1138.3 354.711 1138.14 354.711H1131.14C1130.98 354.711 1130.83 354.661 1130.7 354.563C1130.6 354.431 1130.55 354.283 1130.55 354.119V320.798C1130.55 320.634 1130.6 320.503 1130.7 320.404C1130.83 320.273 1130.98 320.207 1131.14 320.207H1145.78C1147.95 320.207 1149.85 320.65 1151.5 321.538C1153.14 322.425 1154.41 323.69 1155.29 325.333C1156.21 326.943 1156.67 328.8 1156.67 330.903C1156.67 333.105 1156.13 335.011 1155.05 336.621C1153.96 338.231 1152.45 339.398 1150.51 340.12C1150.35 340.186 1150.3 340.301 1150.36 340.465L1156.87 354.021C1156.94 354.152 1156.97 354.251 1156.97 354.316C1156.97 354.579 1156.79 354.711 1156.43 354.711H1149.03ZM1138.98 327.206C1138.81 327.206 1138.73 327.288 1138.73 327.453V334.452C1138.73 334.616 1138.81 334.698 1138.98 334.698H1144.45C1145.66 334.698 1146.65 334.37 1147.41 333.713C1148.16 333.023 1148.54 332.119 1148.54 331.002C1148.54 329.851 1148.16 328.931 1147.41 328.241C1146.65 327.551 1145.66 327.206 1144.45 327.206H1138.98Z" fill="#FF4E00"/>
<path d="M1170.83 354.711C1170.67 354.711 1170.52 354.661 1170.39 354.563C1170.29 354.431 1170.24 354.283 1170.24 354.119V349.19C1170.24 349.026 1170.29 348.894 1170.39 348.796C1170.52 348.664 1170.67 348.599 1170.83 348.599H1194.64C1194.8 348.599 1194.94 348.664 1195.03 348.796C1195.17 348.894 1195.23 349.026 1195.23 349.19V354.119C1195.23 354.283 1195.17 354.431 1195.03 354.563C1194.94 354.661 1194.8 354.711 1194.64 354.711H1170.83Z" fill="#FF4E00"/>
</svg>
