<svg width="1232" height="265" viewBox="0 0 1232 265" fill="none" xmlns="http://www.w3.org/2000/svg">
<rect x="0.0664062" y="0.539062" width="1231.87" height="264.386" fill="#072A5E" fill-opacity="0.62"/>
<path d="M444.373 112.807V130.915L435.911 120.643C438.453 117.68 441.301 114.997 444.373 112.807ZM414.202 131.475C405.772 109.252 392.462 99.3417 383.446 94.7739V81.4392L417.679 123.489C416.446 125.954 415.286 128.614 414.202 131.475ZM461.558 156.084V108.439C468.997 111.489 470.88 122.667 465.047 128.057C465.047 128.057 479.665 126.546 479.665 111.43C479.665 99.5068 469.994 92.6181 461.558 90.9854V57.5844C461.621 53.7456 471.465 49.0319 475.69 56.8865C482.893 47.4775 472.512 28.8779 452.96 40.9915C433.425 28.8779 423.044 47.4775 430.253 56.8865C434.478 49.0319 444.311 53.7456 444.373 57.5844V95.0706C439.238 97.7497 432.821 102.159 426.714 109.492L383.508 57.1074C384.324 53.3716 393.528 49.3494 397.572 56.8865C404.781 47.4775 394.406 28.8779 374.859 40.9915C355.306 28.8779 344.931 47.4775 352.141 56.8865C356.366 49.0319 366.204 53.7456 366.267 57.5844V91.1011C357.979 92.9267 348.738 99.7811 348.738 111.43C348.738 126.546 363.356 128.057 363.356 128.057C357.667 122.81 359.306 112.077 366.266 108.7V156.084C366.204 159.923 356.365 164.64 352.14 156.788C344.931 166.191 355.306 184.79 374.858 172.678C394.405 184.791 404.78 166.191 397.571 156.788C393.346 164.64 383.514 159.923 383.445 156.084V112.399C395.851 120.851 404.537 137.637 405.578 147.374V202.593C405.578 211.535 395.67 217.97 391.458 210.121C384.243 219.529 394.617 236.322 414.17 224.208C433.711 236.322 444.086 219.529 436.876 210.121C432.658 217.971 422.757 210.794 422.757 202.593V148.165C422.994 144.52 424.427 139.722 426.801 134.703L444.36 156.284C443.986 160.079 434.409 164.515 430.253 156.789C423.043 166.192 433.424 184.791 452.959 172.678C472.511 184.792 482.892 166.192 475.689 156.789C471.465 164.64 461.621 159.923 461.558 156.084Z" fill="#FF5910"/>
<path d="M492.157 157.959H491.234V154.388H491.218L489.917 157.959H489.029L487.765 154.388H487.75V157.959H486.833V153.471H488.423L489.458 156.407H489.488L490.568 153.471H492.157M486.005 154.27H484.652V157.959H483.736V154.27H482.383V153.471H486.006V154.27H486.005Z" fill="#FF5910"/>
<path d="M656.086 49.6732C649.799 49.7231 629.117 49.8768 626.743 49.8932C618.776 60.0357 608.889 82.821 598.382 107.117C575.698 159.599 559.632 193.654 543.577 189.017C541.136 188.314 539.378 186.644 538.509 184.195C538.063 182.962 537.876 181.569 537.876 180.072C537.876 172.816 542.436 163.038 546.498 155.899C540.392 158.083 533.994 160.394 533.067 160.734C525.018 169.826 517.84 185.408 517.84 197.354C517.84 199.091 517.983 200.745 518.305 202.292C519.372 207.421 522.104 210.905 526.63 212.956C533.513 216.067 540.389 216.212 547.661 213.383C573.472 203.373 593.98 159.645 599.64 146.477C602.726 139.321 603.886 136.624 606.84 137.493C608.478 137.964 609.012 139.023 609.012 140.802C609.012 142.043 608.753 143.639 608.43 145.649C608.43 145.649 608.003 148.301 608.003 148.351C604.413 169.505 596.539 198.25 589.531 212.455H611.791C615.902 206.838 621.863 197.072 628.763 185.672C636.821 172.361 645.959 157.264 654.125 145.781C661.761 135.018 662.739 133.647 665.461 135.285C668.158 136.914 667.405 138.388 661.415 150.202C650.776 166.806 647.079 189.827 652.962 202.594C655.75 208.617 660.431 212.123 666.793 213C678.896 214.365 689.604 204.558 691.805 201.844L694.067 199.052L696.252 201.909C698.279 204.556 700.714 206.705 703.865 208.682C711.808 213.299 738.616 216.207 758.068 196.079L758.378 195.652L761.7 193.674L763.316 192.938L764.531 196.027C764.531 196.027 765.142 197.55 765.423 198.121C768.501 206.51 774.78 209.55 779.487 210.634C788.91 212.793 800.15 209.213 808.158 201.495L809.851 199.866L811.764 201.224C816.728 204.748 822.524 208.481 827.819 209.432C859.198 215.024 871.141 188.912 872.415 182.144C873.209 177.975 873.527 174.228 873.527 170.795C873.527 162.249 871.516 155.685 869.688 149.711C868.265 145.062 866.934 140.739 866.934 136.346C866.934 133.144 868.008 129.834 869.894 126.392C865.766 124.258 857.984 120.273 856.528 119.528C851.54 121.812 831.507 147.123 819.404 162.444C798.176 189.323 797.938 189.208 795.05 187.793L792.659 185.001C791.435 181.336 794.002 175.418 795.632 172.217C795.632 172.217 823.258 113.532 823.217 113.647L824.561 110.351C824.561 110.351 873.348 109.599 876.824 109.549C877.767 107.208 881.309 98.5789 883.262 93.8303C876.064 93.946 832.395 94.6187 832.395 94.6187C832.395 94.6187 843.676 70.9123 846.588 64.8234C840.367 64.8813 823.933 65.0185 821.252 65.0435C819.879 67.9224 807.149 94.8643 807.149 94.8643C807.149 94.8643 783.019 95.2803 779.991 95.3296C778.94 97.4475 774.67 106.164 772.196 111.178C778.707 110.921 799.549 110.118 799.549 110.118C799.549 110.118 778.787 155.219 778.737 155.334C770.762 170.739 750.651 196.459 725.906 195.135C720.761 194.854 714.37 192.28 713.096 181.575L712.76 178.679L715.656 178.421C743.329 175.989 754.789 165.781 759.166 159.923C766.123 150.599 767.249 141.349 762.268 134.549C756.419 126.541 743.65 124.238 730.521 128.796C706.389 137.169 687.72 164.672 690.566 187.636L690.734 189.006L689.764 189.975C689.003 190.736 685.012 194.513 680.884 194.099C679.022 193.908 677.448 192.931 676.282 191.152C674.884 188.844 674.227 185.723 674.227 181.909C674.227 157.637 700.811 104.976 730.882 49.9057H698.644C684.472 64.5241 666.695 93.9753 652.341 117.835C652.341 117.835 639.818 138.317 639.454 138.879C636.335 143.611 635.283 145.201 632.809 144.075C631.577 143.521 631.077 142.777 631.077 141.503C631.077 140.171 631.627 138.264 632.421 135.401L638.665 110.169C643.885 88.0559 649.786 63.7623 656.09 49.6745L656.086 49.6732ZM740.818 138.481C743.416 138.576 745.713 139.534 747.281 141.337C748.332 142.553 749.078 144.239 749.078 146.249C749.078 148.334 748.267 150.774 746.182 153.372C739.448 161.802 725.193 166.551 718.326 166.104L715.03 165.897L715.728 162.679C717.2 155.961 723.888 145.94 732.558 140.794C735.325 139.148 738.22 138.385 740.818 138.481ZM849.412 141.363L851.041 157.301C851.835 163.828 852.683 170.574 851.649 179.302C851.086 184.018 848.011 190.865 842.6 194.762C838.894 197.417 834.59 198.321 830.139 197.386C827.02 196.724 824.359 194.164 823.392 190.871C823.152 190.069 822.952 189.023 822.952 187.782C822.952 185.209 824.329 181.64 827.489 177.686C826.679 176.826 824.387 174.377 824.387 174.377L825.55 172.528C831.531 162.849 836.496 156.884 841.294 151.109L845.069 146.508L849.412 141.363Z" fill="#FF5910"/>
</svg>
