<svg width="1232" height="147" viewBox="0 0 1232 147" fill="none" xmlns="http://www.w3.org/2000/svg">
<rect x="0.0664062" y="0.923828" width="1231.87" height="145.227" fill="black" fill-opacity="0.63"/>
<path d="M50.2299 91.1049C47.5025 91.1049 45.1201 90.6778 43.0827 89.8234C41.0782 88.9361 39.5173 87.6874 38.4 86.0773C37.3156 84.4342 36.7734 82.5447 36.7734 80.4088V79.4722C36.7734 79.3079 36.8227 79.1765 36.9213 79.0779C37.0528 78.9465 37.2006 78.8808 37.3649 78.8808H44.2164C44.3807 78.8808 44.5121 78.9465 44.6107 79.0779C44.7422 79.1765 44.8079 79.3079 44.8079 79.4722V80.0637C44.8079 81.1481 45.3501 82.1011 46.4345 82.9226C47.5189 83.7113 48.9812 84.1056 50.8214 84.1056C52.2673 84.1056 53.3353 83.7934 54.0253 83.1691C54.7154 82.5447 55.0604 81.8218 55.0604 81.0003C55.0604 80.3431 54.8469 79.8173 54.4197 79.423C54.0253 78.9958 53.4831 78.6507 52.7931 78.3878C52.103 78.0921 51.035 77.6978 49.5891 77.2048C49.392 77.1063 49.1948 77.0405 48.9976 77.0077C48.8005 76.942 48.6197 76.8762 48.4554 76.8105C46.3195 76.1204 44.4629 75.3811 42.8855 74.5924C41.3082 73.7709 39.9609 72.6536 38.8437 71.2406C37.7264 69.7948 37.1678 68.0203 37.1678 65.9172C37.1678 63.8798 37.6935 62.1053 38.7451 60.5937C39.8295 59.0493 41.3247 57.8663 43.2306 57.0448C45.1365 56.2233 47.2889 55.8125 49.6877 55.8125C52.218 55.8125 54.4854 56.2726 56.4899 57.1927C58.5273 58.1128 60.121 59.4108 61.2711 61.0867C62.4213 62.7625 62.9963 64.6849 62.9963 66.8537V67.5438C62.9963 67.7081 62.9306 67.856 62.7992 67.9874C62.7006 68.086 62.5691 68.1353 62.4048 68.1353H55.5534C55.3891 68.1353 55.2412 68.086 55.1097 67.9874C55.0112 67.856 54.9619 67.7081 54.9619 67.5438V67.1988C54.9619 66.0486 54.4525 65.0299 53.4338 64.1427C52.4152 63.2555 51.0514 62.8118 49.3427 62.8118C48.0611 62.8118 47.0589 63.0747 46.3359 63.6005C45.613 64.1263 45.2515 64.8656 45.2515 65.8186C45.2515 66.5415 45.4815 67.1495 45.9416 67.6424C46.4016 68.1024 47.1081 68.546 48.0611 68.9732C49.0469 69.3676 50.5421 69.8933 52.5466 70.5505C54.8469 71.3392 56.6378 72.0293 57.9193 72.6208C59.2009 73.2123 60.4003 74.1817 61.5176 75.529C62.6677 76.8434 63.2428 78.585 63.2428 80.7538C63.2428 82.8898 62.7006 84.73 61.6162 86.2744C60.5318 87.8189 59.0037 89.0183 57.0321 89.8727C55.0933 90.6942 52.8259 91.1049 50.2299 91.1049Z" fill="#FF4E00"/>
<path d="M101.672 56.6012C101.803 56.3383 102.033 56.2068 102.362 56.2068H109.312C109.476 56.2068 109.608 56.2725 109.706 56.404C109.838 56.5026 109.903 56.634 109.903 56.7983V90.1191C109.903 90.2834 109.838 90.4313 109.706 90.5627C109.608 90.6613 109.476 90.7106 109.312 90.7106H102.313C102.148 90.7106 102 90.6613 101.869 90.5627C101.77 90.4313 101.721 90.2834 101.721 90.1191V70.3041C101.721 70.1726 101.688 70.1069 101.622 70.1069C101.557 70.1069 101.491 70.1562 101.425 70.2548L97.1863 77.057C97.0548 77.3199 96.8248 77.4513 96.4962 77.4513H92.9965C92.6679 77.4513 92.4379 77.3199 92.3064 77.057L88.0181 70.2055C87.9524 70.1069 87.8867 70.0576 87.821 70.0576C87.7552 70.0576 87.7224 70.1234 87.7224 70.2548V90.1191C87.7224 90.2834 87.6567 90.4313 87.5252 90.5627C87.4266 90.6613 87.2952 90.7106 87.1309 90.7106H80.1315C79.9672 90.7106 79.8194 90.6613 79.6879 90.5627C79.5893 90.4313 79.54 90.2834 79.54 90.1191V56.7983C79.54 56.634 79.5893 56.5026 79.6879 56.404C79.8194 56.2725 79.9672 56.2068 80.1315 56.2068H87.0816C87.3773 56.2068 87.6074 56.3383 87.7717 56.6012L94.6231 67.3466C94.7217 67.5438 94.8203 67.5438 94.9189 67.3466L101.672 56.6012Z" fill="#FF4E00"/>
<path d="M149.576 90.7106C149.215 90.7106 148.985 90.5463 148.886 90.2177L147.605 85.8308C147.539 85.6994 147.457 85.6336 147.358 85.6336H136.12C136.021 85.6336 135.939 85.6994 135.873 85.8308L134.592 90.2177C134.493 90.5463 134.263 90.7106 133.902 90.7106H126.36C126.163 90.7106 126.015 90.6613 125.916 90.5627C125.818 90.4313 125.801 90.2506 125.867 90.0205L136.415 56.6997C136.514 56.3711 136.728 56.2068 137.056 56.2068H146.372C146.701 56.2068 146.914 56.3711 147.013 56.6997L157.611 90.0205C157.644 90.0863 157.66 90.1684 157.66 90.267C157.66 90.5628 157.479 90.7106 157.118 90.7106H149.576ZM137.845 79.0286C137.812 79.2258 137.878 79.3244 138.042 79.3244H145.386C145.584 79.3244 145.649 79.2258 145.584 79.0286L141.837 66.3608C141.805 66.2294 141.755 66.1801 141.69 66.2129C141.624 66.2129 141.575 66.2622 141.542 66.3608L137.845 79.0286Z" fill="#FF4E00"/>
<path d="M192.082 90.7106C191.753 90.7106 191.523 90.5628 191.392 90.267L185.575 77.1556C185.51 77.0241 185.411 76.9584 185.28 76.9584H182.026C181.862 76.9584 181.78 77.0405 181.78 77.2048V90.1191C181.78 90.2834 181.714 90.4313 181.583 90.5627C181.484 90.6613 181.353 90.7106 181.188 90.7106H174.189C174.025 90.7106 173.877 90.6613 173.745 90.5627C173.647 90.4313 173.598 90.2834 173.598 90.1191V56.7983C173.598 56.634 173.647 56.5026 173.745 56.404C173.877 56.2725 174.025 56.2068 174.189 56.2068H188.829C190.997 56.2068 192.903 56.6504 194.546 57.5377C196.189 58.4249 197.454 59.6901 198.342 61.3331C199.262 62.9433 199.722 64.7999 199.722 66.903C199.722 69.1047 199.18 71.0106 198.095 72.6208C197.011 74.231 195.499 75.3975 193.56 76.1204C193.396 76.1862 193.347 76.3012 193.413 76.4655L199.919 90.0205C199.985 90.152 200.018 90.2506 200.018 90.3163C200.018 90.5792 199.837 90.7106 199.475 90.7106H192.082ZM182.026 63.2062C181.862 63.2062 181.78 63.2883 181.78 63.4526V70.452C181.78 70.6163 181.862 70.6984 182.026 70.6984H187.498C188.713 70.6984 189.699 70.3698 190.455 69.7126C191.211 69.0225 191.589 68.1189 191.589 67.0016C191.589 65.8515 191.211 64.9314 190.455 64.2413C189.699 63.5512 188.713 63.2062 187.498 63.2062H182.026Z" fill="#FF4E00"/>
<path d="M241.043 56.2068C241.207 56.2068 241.339 56.2725 241.437 56.404C241.569 56.5026 241.634 56.634 241.634 56.7983V62.664C241.634 62.8283 241.569 62.9761 241.437 63.1076C241.339 63.2062 241.207 63.2555 241.043 63.2555H232.417C232.253 63.2555 232.17 63.3376 232.17 63.5019V90.1191C232.17 90.2834 232.105 90.4313 231.973 90.5627C231.875 90.6613 231.743 90.7106 231.579 90.7106H224.58C224.415 90.7106 224.267 90.6613 224.136 90.5627C224.037 90.4313 223.988 90.2834 223.988 90.1191V63.5019C223.988 63.3376 223.906 63.2555 223.742 63.2555H215.411C215.247 63.2555 215.099 63.2062 214.968 63.1076C214.869 62.9761 214.82 62.8283 214.82 62.664V56.7983C214.82 56.634 214.869 56.5026 214.968 56.404C215.099 56.2725 215.247 56.2068 215.411 56.2068H241.043Z" fill="#FF4E00"/>
<path d="M292.357 91.1049C289.728 91.1049 287.411 90.5956 285.407 89.5769C283.435 88.5582 281.891 87.1124 280.773 85.2393C279.689 83.3662 279.147 81.1974 279.147 78.7329V68.086C279.147 65.6543 279.689 63.5183 280.773 61.6781C281.891 59.8051 283.435 58.3592 285.407 57.3405C287.411 56.3218 289.728 55.8125 292.357 55.8125C294.986 55.8125 297.286 56.3054 299.258 57.2912C301.262 58.2442 302.807 59.6079 303.891 61.3824C305.008 63.124 305.567 65.145 305.567 67.4452C305.567 67.6095 305.501 67.741 305.37 67.8395C305.271 67.9381 305.14 67.9874 304.975 67.9874L297.976 68.431C297.582 68.431 297.385 68.2503 297.385 67.8888C297.385 66.3444 296.924 65.1121 296.004 64.192C295.084 63.2719 293.868 62.8118 292.357 62.8118C290.845 62.8118 289.629 63.2883 288.709 64.2413C287.789 65.1614 287.329 66.3772 287.329 67.8888V79.0779C287.329 80.5895 287.789 81.8054 288.709 82.7255C289.629 83.6456 290.845 84.1056 292.357 84.1056C293.868 84.1056 295.084 83.6456 296.004 82.7255C296.924 81.8054 297.385 80.5895 297.385 79.0779C297.385 78.7164 297.582 78.5357 297.976 78.5357L304.975 78.8808C305.14 78.8808 305.271 78.93 305.37 79.0286C305.501 79.1272 305.567 79.2422 305.567 79.3737C305.567 81.7068 305.008 83.7606 303.891 85.5351C302.807 87.3095 301.262 88.6897 299.258 89.6755C297.286 90.6285 294.986 91.1049 292.357 91.1049Z" fill="#FF4E00"/>
<path d="M334.914 91.2528C332.252 91.2528 329.902 90.7271 327.865 89.6755C325.86 88.5911 324.3 87.0795 323.182 85.1407C322.065 83.2019 321.506 80.951 321.506 78.3878V68.5296C321.506 66.0322 322.065 63.8305 323.182 61.9246C324.3 59.9858 325.86 58.4907 327.865 57.4391C329.902 56.3547 332.252 55.8125 334.914 55.8125C337.575 55.8125 339.925 56.3547 341.962 57.4391C344 58.4907 345.577 59.9858 346.694 61.9246C347.811 63.8305 348.37 66.0322 348.37 68.5296V78.3878C348.37 80.951 347.811 83.2019 346.694 85.1407C345.577 87.0795 344 88.5911 341.962 89.6755C339.925 90.7271 337.575 91.2528 334.914 91.2528ZM334.914 84.2535C336.491 84.2535 337.756 83.7441 338.709 82.7255C339.695 81.7068 340.188 80.3431 340.188 78.6343V68.431C340.188 66.7551 339.695 65.4078 338.709 64.3892C337.756 63.3376 336.491 62.8118 334.914 62.8118C333.369 62.8118 332.104 63.3376 331.118 64.3892C330.165 65.4078 329.689 66.7551 329.689 68.431V78.6343C329.689 80.3431 330.165 81.7068 331.118 82.7255C332.104 83.7441 333.369 84.2535 334.914 84.2535Z" fill="#FF4E00"/>
<path d="M387.117 56.6012C387.249 56.3383 387.479 56.2068 387.808 56.2068H394.758C394.922 56.2068 395.053 56.2725 395.152 56.404C395.283 56.5026 395.349 56.634 395.349 56.7983V90.1191C395.349 90.2834 395.283 90.4313 395.152 90.5627C395.053 90.6613 394.922 90.7106 394.758 90.7106H387.758C387.594 90.7106 387.446 90.6613 387.315 90.5627C387.216 90.4313 387.167 90.2834 387.167 90.1191V70.3041C387.167 70.1726 387.134 70.1069 387.068 70.1069C387.002 70.1069 386.937 70.1562 386.871 70.2548L382.632 77.057C382.501 77.3199 382.271 77.4513 381.942 77.4513H378.442C378.114 77.4513 377.884 77.3199 377.752 77.057L373.464 70.2055C373.398 70.1069 373.332 70.0576 373.267 70.0576C373.201 70.0576 373.168 70.1234 373.168 70.2548V90.1191C373.168 90.2834 373.102 90.4313 372.971 90.5627C372.872 90.6613 372.741 90.7106 372.577 90.7106H365.577C365.413 90.7106 365.265 90.6613 365.134 90.5627C365.035 90.4313 364.986 90.2834 364.986 90.1191V56.7983C364.986 56.634 365.035 56.5026 365.134 56.404C365.265 56.2725 365.413 56.2068 365.577 56.2068H372.527C372.823 56.2068 373.053 56.3383 373.217 56.6012L380.069 67.3466C380.167 67.5438 380.266 67.5438 380.365 67.3466L387.117 56.6012Z" fill="#FF4E00"/>
<path d="M434.628 56.6012C434.759 56.3383 434.989 56.2068 435.318 56.2068H442.268C442.432 56.2068 442.563 56.2725 442.662 56.404C442.793 56.5026 442.859 56.634 442.859 56.7983V90.1191C442.859 90.2834 442.793 90.4313 442.662 90.5627C442.563 90.6613 442.432 90.7106 442.268 90.7106H435.268C435.104 90.7106 434.956 90.6613 434.825 90.5627C434.726 90.4313 434.677 90.2834 434.677 90.1191V70.3041C434.677 70.1726 434.644 70.1069 434.578 70.1069C434.513 70.1069 434.447 70.1562 434.381 70.2548L430.142 77.057C430.011 77.3199 429.781 77.4513 429.452 77.4513H425.952C425.624 77.4513 425.394 77.3199 425.262 77.057L420.974 70.2055C420.908 70.1069 420.843 70.0576 420.777 70.0576C420.711 70.0576 420.678 70.1234 420.678 70.2548V90.1191C420.678 90.2834 420.612 90.4313 420.481 90.5627C420.382 90.6613 420.251 90.7106 420.087 90.7106H413.087C412.923 90.7106 412.775 90.6613 412.644 90.5627C412.545 90.4313 412.496 90.2834 412.496 90.1191V56.7983C412.496 56.634 412.545 56.5026 412.644 56.404C412.775 56.2725 412.923 56.2068 413.087 56.2068H420.037C420.333 56.2068 420.563 56.3383 420.728 56.6012L427.579 67.3466C427.678 67.5438 427.776 67.5438 427.875 67.3466L434.628 56.6012Z" fill="#FF4E00"/>
<path d="M482.532 90.7106C482.171 90.7106 481.941 90.5463 481.842 90.2177L480.56 85.8308C480.495 85.6994 480.413 85.6336 480.314 85.6336H469.076C468.977 85.6336 468.895 85.6994 468.829 85.8308L467.548 90.2177C467.449 90.5463 467.219 90.7106 466.857 90.7106H459.316C459.119 90.7106 458.971 90.6613 458.872 90.5627C458.774 90.4313 458.757 90.2506 458.823 90.0205L469.371 56.6997C469.47 56.3711 469.684 56.2068 470.012 56.2068H479.328C479.657 56.2068 479.87 56.3711 479.969 56.6997L490.566 90.0205C490.599 90.0863 490.616 90.1684 490.616 90.267C490.616 90.5628 490.435 90.7106 490.074 90.7106H482.532ZM470.801 79.0286C470.768 79.2258 470.834 79.3244 470.998 79.3244H478.342C478.539 79.3244 478.605 79.2258 478.539 79.0286L474.793 66.3608C474.76 66.2294 474.711 66.1801 474.645 66.2129C474.58 66.2129 474.53 66.2622 474.498 66.3608L470.801 79.0286Z" fill="#FF4E00"/>
<path d="M526.122 56.7983C526.122 56.634 526.171 56.5026 526.27 56.404C526.401 56.2725 526.549 56.2068 526.713 56.2068H533.713C533.877 56.2068 534.009 56.2725 534.107 56.404C534.239 56.5026 534.304 56.634 534.304 56.7983V90.1191C534.304 90.2834 534.239 90.4313 534.107 90.5627C534.009 90.6613 533.877 90.7106 533.713 90.7106H527.009C526.681 90.7106 526.451 90.5792 526.319 90.3163L514.982 71.4871C514.916 71.3885 514.851 71.3556 514.785 71.3885C514.719 71.3885 514.686 71.4542 514.686 71.5857L514.736 90.1191C514.736 90.2834 514.67 90.4313 514.539 90.5627C514.44 90.6613 514.309 90.7106 514.144 90.7106H507.145C506.981 90.7106 506.833 90.6613 506.701 90.5627C506.603 90.4313 506.553 90.2834 506.553 90.1191V56.7983C506.553 56.634 506.603 56.5026 506.701 56.404C506.833 56.2725 506.981 56.2068 507.145 56.2068H513.898C514.226 56.2068 514.456 56.3383 514.588 56.6012L525.875 75.3811C525.941 75.4797 526.007 75.529 526.073 75.529C526.138 75.4961 526.171 75.4139 526.171 75.2825L526.122 56.7983Z" fill="#FF4E00"/>
<path d="M551.959 90.7106C551.795 90.7106 551.647 90.6613 551.516 90.5627C551.417 90.4313 551.368 90.2834 551.368 90.1191V56.7983C551.368 56.634 551.417 56.5026 551.516 56.404C551.647 56.2725 551.795 56.2068 551.959 56.2068H564.529C567.092 56.2068 569.359 56.6504 571.331 57.5377C573.302 58.4249 574.83 59.6901 575.915 61.3331C576.999 62.9761 577.542 64.8656 577.542 67.0016V79.9159C577.542 82.0518 576.999 83.9413 575.915 85.5843C574.83 87.2274 573.302 88.4925 571.331 89.3798C569.359 90.267 567.092 90.7106 564.529 90.7106H551.959ZM559.55 83.4648C559.55 83.6291 559.632 83.7113 559.797 83.7113H564.874C566.188 83.7113 567.256 83.2512 568.078 82.3311C568.899 81.3782 569.326 80.113 569.359 78.5357V68.3817C569.359 66.8044 568.932 65.5557 568.078 64.6356C567.256 63.6826 566.172 63.2062 564.824 63.2062H559.797C559.632 63.2062 559.55 63.2883 559.55 63.4526V83.4648Z" fill="#FF4E00"/>
<path d="M629.019 91.1049C626.39 91.1049 624.074 90.5956 622.069 89.5769C620.097 88.5582 618.553 87.1124 617.436 85.2393C616.351 83.3662 615.809 81.1974 615.809 78.7329V68.086C615.809 65.6543 616.351 63.5183 617.436 61.6781C618.553 59.8051 620.097 58.3592 622.069 57.3405C624.074 56.3218 626.39 55.8125 629.019 55.8125C631.648 55.8125 633.948 56.3054 635.92 57.2912C637.924 58.2442 639.469 59.6079 640.553 61.3824C641.671 63.124 642.229 65.145 642.229 67.4452C642.229 67.6095 642.163 67.741 642.032 67.8395C641.933 67.9381 641.802 67.9874 641.638 67.9874L634.638 68.431C634.244 68.431 634.047 68.2503 634.047 67.8888C634.047 66.3444 633.587 65.1121 632.667 64.192C631.747 63.2719 630.531 62.8118 629.019 62.8118C627.508 62.8118 626.292 63.2883 625.372 64.2413C624.451 65.1614 623.991 66.3772 623.991 67.8888V79.0779C623.991 80.5895 624.451 81.8054 625.372 82.7255C626.292 83.6456 627.508 84.1056 629.019 84.1056C630.531 84.1056 631.747 83.6456 632.667 82.7255C633.587 81.8054 634.047 80.5895 634.047 79.0779C634.047 78.7164 634.244 78.5357 634.638 78.5357L641.638 78.8808C641.802 78.8808 641.933 78.93 642.032 79.0286C642.163 79.1272 642.229 79.2422 642.229 79.3737C642.229 81.7068 641.671 83.7606 640.553 85.5351C639.469 87.3095 637.924 88.6897 635.92 89.6755C633.948 90.6285 631.648 91.1049 629.019 91.1049Z" fill="#FF4E00"/>
<path d="M670.344 91.2528C667.682 91.2528 665.332 90.7271 663.295 89.6755C661.29 88.5911 659.73 87.0795 658.612 85.1407C657.495 83.2019 656.936 80.951 656.936 78.3878V68.5296C656.936 66.0322 657.495 63.8305 658.612 61.9246C659.73 59.9858 661.29 58.4907 663.295 57.4391C665.332 56.3547 667.682 55.8125 670.344 55.8125C673.005 55.8125 675.355 56.3547 677.392 57.4391C679.43 58.4907 681.007 59.9858 682.124 61.9246C683.241 63.8305 683.8 66.0322 683.8 68.5296V78.3878C683.8 80.951 683.241 83.2019 682.124 85.1407C681.007 87.0795 679.43 88.5911 677.392 89.6755C675.355 90.7271 673.005 91.2528 670.344 91.2528ZM670.344 84.2535C671.921 84.2535 673.186 83.7441 674.139 82.7255C675.125 81.7068 675.618 80.3431 675.618 78.6343V68.431C675.618 66.7551 675.125 65.4078 674.139 64.3892C673.186 63.3376 671.921 62.8118 670.344 62.8118C668.799 62.8118 667.534 63.3376 666.548 64.3892C665.595 65.4078 665.119 66.7551 665.119 68.431V78.6343C665.119 80.3431 665.595 81.7068 666.548 82.7255C667.534 83.7441 668.799 84.2535 670.344 84.2535Z" fill="#FF4E00"/>
<path d="M718.752 56.7983C718.752 56.634 718.801 56.5026 718.9 56.404C719.031 56.2725 719.179 56.2068 719.344 56.2068H726.343C726.507 56.2068 726.639 56.2725 726.737 56.404C726.869 56.5026 726.934 56.634 726.934 56.7983V90.1191C726.934 90.2834 726.869 90.4313 726.737 90.5627C726.639 90.6613 726.507 90.7106 726.343 90.7106H719.639C719.311 90.7106 719.081 90.5792 718.949 90.3163L707.612 71.4871C707.547 71.3885 707.481 71.3556 707.415 71.3885C707.349 71.3885 707.317 71.4542 707.317 71.5857L707.366 90.1191C707.366 90.2834 707.3 90.4313 707.169 90.5627C707.07 90.6613 706.939 90.7106 706.774 90.7106H699.775C699.611 90.7106 699.463 90.6613 699.331 90.5627C699.233 90.4313 699.184 90.2834 699.184 90.1191V56.7983C699.184 56.634 699.233 56.5026 699.331 56.404C699.463 56.2725 699.611 56.2068 699.775 56.2068H706.528C706.857 56.2068 707.087 56.3383 707.218 56.6012L718.506 75.3811C718.571 75.4797 718.637 75.529 718.703 75.529C718.768 75.4961 718.801 75.4139 718.801 75.2825L718.752 56.7983Z" fill="#FF4E00"/>
<path d="M767.851 56.2068C768.016 56.2068 768.147 56.2725 768.246 56.404C768.377 56.5026 768.443 56.634 768.443 56.7983V62.664C768.443 62.8283 768.377 62.9761 768.246 63.1076C768.147 63.2062 768.016 63.2555 767.851 63.2555H759.226C759.061 63.2555 758.979 63.3376 758.979 63.5019V90.1191C758.979 90.2834 758.913 90.4313 758.782 90.5627C758.683 90.6613 758.552 90.7106 758.388 90.7106H751.388C751.224 90.7106 751.076 90.6613 750.945 90.5627C750.846 90.4313 750.797 90.2834 750.797 90.1191V63.5019C750.797 63.3376 750.715 63.2555 750.55 63.2555H742.22C742.056 63.2555 741.908 63.2062 741.776 63.1076C741.678 62.9761 741.629 62.8283 741.629 62.664V56.7983C741.629 56.634 741.678 56.5026 741.776 56.404C741.908 56.2725 742.056 56.2068 742.22 56.2068H767.851Z" fill="#FF4E00"/>
<path d="M801.559 90.7106C801.23 90.7106 801 90.5628 800.869 90.267L795.052 77.1556C794.987 77.0241 794.888 76.9584 794.757 76.9584H791.503C791.339 76.9584 791.257 77.0405 791.257 77.2048V90.1191C791.257 90.2834 791.191 90.4313 791.06 90.5627C790.961 90.6613 790.83 90.7106 790.666 90.7106H783.666C783.502 90.7106 783.354 90.6613 783.223 90.5627C783.124 90.4313 783.075 90.2834 783.075 90.1191V56.7983C783.075 56.634 783.124 56.5026 783.223 56.404C783.354 56.2725 783.502 56.2068 783.666 56.2068H798.306C800.474 56.2068 802.38 56.6504 804.023 57.5377C805.667 58.4249 806.932 59.6901 807.819 61.3331C808.739 62.9433 809.199 64.7999 809.199 66.903C809.199 69.1047 808.657 71.0106 807.572 72.6208C806.488 74.231 804.976 75.3975 803.038 76.1204C802.873 76.1862 802.824 76.3012 802.89 76.4655L809.396 90.0205C809.462 90.152 809.495 90.2506 809.495 90.3163C809.495 90.5792 809.314 90.7106 808.953 90.7106H801.559ZM791.503 63.2062C791.339 63.2062 791.257 63.2883 791.257 63.4526V70.452C791.257 70.6163 791.339 70.6984 791.503 70.6984H796.975C798.191 70.6984 799.176 70.3698 799.932 69.7126C800.688 69.0225 801.066 68.1189 801.066 67.0016C801.066 65.8515 800.688 64.9314 799.932 64.2413C799.176 63.5512 798.191 63.2062 796.975 63.2062H791.503Z" fill="#FF4E00"/>
<path d="M837.308 91.2528C834.646 91.2528 832.296 90.7271 830.259 89.6755C828.255 88.5911 826.694 87.0795 825.576 85.1407C824.459 83.2019 823.901 80.951 823.901 78.3878V68.5296C823.901 66.0322 824.459 63.8305 825.576 61.9246C826.694 59.9858 828.255 58.4907 830.259 57.4391C832.296 56.3547 834.646 55.8125 837.308 55.8125C839.969 55.8125 842.319 56.3547 844.356 57.4391C846.394 58.4907 847.971 59.9858 849.088 61.9246C850.206 63.8305 850.764 66.0322 850.764 68.5296V78.3878C850.764 80.951 850.206 83.2019 849.088 85.1407C847.971 87.0795 846.394 88.5911 844.356 89.6755C842.319 90.7271 839.969 91.2528 837.308 91.2528ZM837.308 84.2535C838.885 84.2535 840.15 83.7441 841.103 82.7255C842.089 81.7068 842.582 80.3431 842.582 78.6343V68.431C842.582 66.7551 842.089 65.4078 841.103 64.3892C840.15 63.3376 838.885 62.8118 837.308 62.8118C835.763 62.8118 834.498 63.3376 833.512 64.3892C832.559 65.4078 832.083 66.7551 832.083 68.431V78.6343C832.083 80.3431 832.559 81.7068 833.512 82.7255C834.498 83.7441 835.763 84.2535 837.308 84.2535Z" fill="#FF4E00"/>
<path d="M866.739 90.7106C866.575 90.7106 866.427 90.6613 866.295 90.5627C866.197 90.4313 866.148 90.2834 866.148 90.1191V56.7983C866.148 56.634 866.197 56.5026 866.295 56.404C866.427 56.2725 866.575 56.2068 866.739 56.2068H873.738C873.903 56.2068 874.034 56.2725 874.133 56.404C874.264 56.5026 874.33 56.634 874.33 56.7983V83.4648C874.33 83.6291 874.412 83.7113 874.576 83.7113H890.3C890.465 83.7113 890.596 83.777 890.695 83.9084C890.826 84.007 890.892 84.1385 890.892 84.3028V90.1191C890.892 90.2834 890.826 90.4313 890.695 90.5627C890.596 90.6613 890.465 90.7106 890.3 90.7106H866.739Z" fill="#FF4E00"/>
<path d="M939.12 91.1049C936.491 91.1049 934.175 90.5956 932.17 89.5769C930.198 88.5582 928.654 87.1124 927.537 85.2393C926.452 83.3662 925.91 81.1974 925.91 78.7329V68.086C925.91 65.6543 926.452 63.5183 927.537 61.6781C928.654 59.8051 930.198 58.3592 932.17 57.3405C934.175 56.3218 936.491 55.8125 939.12 55.8125C941.749 55.8125 944.049 56.3054 946.021 57.2912C948.025 58.2442 949.57 59.6079 950.654 61.3824C951.771 63.124 952.33 65.145 952.33 67.4452C952.33 67.6095 952.264 67.741 952.133 67.8395C952.034 67.9381 951.903 67.9874 951.739 67.9874L944.739 68.431C944.345 68.431 944.148 68.2503 944.148 67.8888C944.148 66.3444 943.688 65.1121 942.768 64.192C941.847 63.2719 940.632 62.8118 939.12 62.8118C937.608 62.8118 936.393 63.2883 935.473 64.2413C934.552 65.1614 934.092 66.3772 934.092 67.8888V79.0779C934.092 80.5895 934.552 81.8054 935.473 82.7255C936.393 83.6456 937.608 84.1056 939.12 84.1056C940.632 84.1056 941.847 83.6456 942.768 82.7255C943.688 81.8054 944.148 80.5895 944.148 79.0779C944.148 78.7164 944.345 78.5357 944.739 78.5357L951.739 78.8808C951.903 78.8808 952.034 78.93 952.133 79.0286C952.264 79.1272 952.33 79.2422 952.33 79.3737C952.33 81.7068 951.771 83.7606 950.654 85.5351C949.57 87.3095 948.025 88.6897 946.021 89.6755C944.049 90.6285 941.749 91.1049 939.12 91.1049Z" fill="#FF4E00"/>
<path d="M992.077 62.6147C992.077 62.779 992.011 62.9269 991.88 63.0583C991.781 63.1569 991.65 63.2062 991.486 63.2062H976.008C975.844 63.2062 975.762 63.2883 975.762 63.4526V69.5154C975.762 69.6797 975.844 69.7619 976.008 69.7619H985.916C986.08 69.7619 986.212 69.8276 986.31 69.9591C986.442 70.0576 986.507 70.1891 986.507 70.3534V76.1204C986.507 76.2847 986.442 76.4326 986.31 76.5641C986.212 76.6627 986.08 76.7119 985.916 76.7119H976.008C975.844 76.7119 975.762 76.7941 975.762 76.9584V83.4648C975.762 83.6291 975.844 83.7113 976.008 83.7113H991.486C991.65 83.7113 991.781 83.777 991.88 83.9084C992.011 84.007 992.077 84.1385 992.077 84.3028V90.1191C992.077 90.2834 992.011 90.4313 991.88 90.5627C991.781 90.6613 991.65 90.7106 991.486 90.7106H968.171C968.007 90.7106 967.859 90.6613 967.727 90.5627C967.629 90.4313 967.58 90.2834 967.58 90.1191V56.7983C967.58 56.634 967.629 56.5026 967.727 56.404C967.859 56.2725 968.007 56.2068 968.171 56.2068H991.486C991.65 56.2068 991.781 56.2725 991.88 56.404C992.011 56.5026 992.077 56.634 992.077 56.7983V62.6147Z" fill="#FF4E00"/>
<path d="M1026.69 56.7983C1026.69 56.634 1026.74 56.5026 1026.83 56.404C1026.97 56.2725 1027.11 56.2068 1027.28 56.2068H1034.28C1034.44 56.2068 1034.57 56.2725 1034.67 56.404C1034.8 56.5026 1034.87 56.634 1034.87 56.7983V90.1191C1034.87 90.2834 1034.8 90.4313 1034.67 90.5627C1034.57 90.6613 1034.44 90.7106 1034.28 90.7106H1027.57C1027.25 90.7106 1027.02 90.5792 1026.88 90.3163L1015.55 71.4871C1015.48 71.3885 1015.42 71.3556 1015.35 71.3885C1015.28 71.3885 1015.25 71.4542 1015.25 71.5857L1015.3 90.1191C1015.3 90.2834 1015.23 90.4313 1015.1 90.5627C1015 90.6613 1014.87 90.7106 1014.71 90.7106H1007.71C1007.55 90.7106 1007.4 90.6613 1007.27 90.5627C1007.17 90.4313 1007.12 90.2834 1007.12 90.1191V56.7983C1007.12 56.634 1007.17 56.5026 1007.27 56.404C1007.4 56.2725 1007.55 56.2068 1007.71 56.2068H1014.46C1014.79 56.2068 1015.02 56.3383 1015.15 56.6012L1026.44 75.3811C1026.51 75.4797 1026.57 75.529 1026.64 75.529C1026.7 75.4961 1026.74 75.4139 1026.74 75.2825L1026.69 56.7983Z" fill="#FF4E00"/>
<path d="M1075.79 56.2068C1075.95 56.2068 1076.08 56.2725 1076.18 56.404C1076.31 56.5026 1076.38 56.634 1076.38 56.7983V62.664C1076.38 62.8283 1076.31 62.9761 1076.18 63.1076C1076.08 63.2062 1075.95 63.2555 1075.79 63.2555H1067.16C1067 63.2555 1066.91 63.3376 1066.91 63.5019V90.1191C1066.91 90.2834 1066.85 90.4313 1066.72 90.5627C1066.62 90.6613 1066.49 90.7106 1066.32 90.7106H1059.32C1059.16 90.7106 1059.01 90.6613 1058.88 90.5627C1058.78 90.4313 1058.73 90.2834 1058.73 90.1191V63.5019C1058.73 63.3376 1058.65 63.2555 1058.49 63.2555H1050.15C1049.99 63.2555 1049.84 63.2062 1049.71 63.1076C1049.61 62.9761 1049.56 62.8283 1049.56 62.664V56.7983C1049.56 56.634 1049.61 56.5026 1049.71 56.404C1049.84 56.2725 1049.99 56.2068 1050.15 56.2068H1075.79Z" fill="#FF4E00"/>
<path d="M1115.51 62.6147C1115.51 62.779 1115.44 62.9269 1115.31 63.0583C1115.21 63.1569 1115.08 63.2062 1114.92 63.2062H1099.44C1099.27 63.2062 1099.19 63.2883 1099.19 63.4526V69.5154C1099.19 69.6797 1099.27 69.7619 1099.44 69.7619H1109.35C1109.51 69.7619 1109.64 69.8276 1109.74 69.9591C1109.87 70.0576 1109.94 70.1891 1109.94 70.3534V76.1204C1109.94 76.2847 1109.87 76.4326 1109.74 76.5641C1109.64 76.6627 1109.51 76.7119 1109.35 76.7119H1099.44C1099.27 76.7119 1099.19 76.7941 1099.19 76.9584V83.4648C1099.19 83.6291 1099.27 83.7113 1099.44 83.7113H1114.92C1115.08 83.7113 1115.21 83.777 1115.31 83.9084C1115.44 84.007 1115.51 84.1385 1115.51 84.3028V90.1191C1115.51 90.2834 1115.44 90.4313 1115.31 90.5627C1115.21 90.6613 1115.08 90.7106 1114.92 90.7106H1091.6C1091.44 90.7106 1091.29 90.6613 1091.16 90.5627C1091.06 90.4313 1091.01 90.2834 1091.01 90.1191V56.7983C1091.01 56.634 1091.06 56.5026 1091.16 56.404C1091.29 56.2725 1091.44 56.2068 1091.6 56.2068H1114.92C1115.08 56.2068 1115.21 56.2725 1115.31 56.404C1115.44 56.5026 1115.51 56.634 1115.51 56.7983V62.6147Z" fill="#FF4E00"/>
<path d="M1149.03 90.7106C1148.7 90.7106 1148.47 90.5628 1148.34 90.267L1142.53 77.1556C1142.46 77.0241 1142.36 76.9584 1142.23 76.9584H1138.98C1138.81 76.9584 1138.73 77.0405 1138.73 77.2048V90.1191C1138.73 90.2834 1138.66 90.4313 1138.53 90.5627C1138.43 90.6613 1138.3 90.7106 1138.14 90.7106H1131.14C1130.98 90.7106 1130.83 90.6613 1130.7 90.5627C1130.6 90.4313 1130.55 90.2834 1130.55 90.1191V56.7983C1130.55 56.634 1130.6 56.5026 1130.7 56.404C1130.83 56.2725 1130.98 56.2068 1131.14 56.2068H1145.78C1147.95 56.2068 1149.85 56.6504 1151.5 57.5377C1153.14 58.4249 1154.41 59.6901 1155.29 61.3331C1156.21 62.9433 1156.67 64.7999 1156.67 66.903C1156.67 69.1047 1156.13 71.0106 1155.05 72.6208C1153.96 74.231 1152.45 75.3975 1150.51 76.1204C1150.35 76.1862 1150.3 76.3012 1150.36 76.4655L1156.87 90.0205C1156.94 90.152 1156.97 90.2506 1156.97 90.3163C1156.97 90.5792 1156.79 90.7106 1156.43 90.7106H1149.03ZM1138.98 63.2062C1138.81 63.2062 1138.73 63.2883 1138.73 63.4526V70.452C1138.73 70.6163 1138.81 70.6984 1138.98 70.6984H1144.45C1145.66 70.6984 1146.65 70.3698 1147.41 69.7126C1148.16 69.0225 1148.54 68.1189 1148.54 67.0016C1148.54 65.8515 1148.16 64.9314 1147.41 64.2413C1146.65 63.5512 1145.66 63.2062 1144.45 63.2062H1138.98Z" fill="#FF4E00"/>
<path d="M1170.83 90.7106C1170.67 90.7106 1170.52 90.6613 1170.39 90.5627C1170.29 90.4313 1170.24 90.2834 1170.24 90.1191V85.19C1170.24 85.0257 1170.29 84.8943 1170.39 84.7957C1170.52 84.6642 1170.67 84.5985 1170.83 84.5985H1194.64C1194.8 84.5985 1194.94 84.6642 1195.03 84.7957C1195.17 84.8943 1195.23 85.0257 1195.23 85.19V90.1191C1195.23 90.2834 1195.17 90.4313 1195.03 90.5627C1194.94 90.6613 1194.8 90.7106 1194.64 90.7106H1170.83Z" fill="#FF4E00"/>
</svg>
