<svg width="69" height="69" viewBox="0 0 69 69" fill="none" xmlns="http://www.w3.org/2000/svg">
<path d="M34.5 11.5C19.0584 11.5 5.75 26.9272 5.75 34.5C5.75 42.0728 19.0584 57.5 34.5 57.5C49.9416 57.5 63.25 42.0728 63.25 34.5C63.25 26.9272 49.9416 11.5 34.5 11.5ZM34.5 51.75C21.85 51.75 11.5 38.7263 11.5 34.5C11.5 30.2737 21.85 17.25 34.5 17.25C47.15 17.25 57.5 30.2737 57.5 34.5C57.5 38.7263 47.15 51.75 34.5 51.75Z" fill="white"/>
<path d="M34.5 46C40.8513 46 46 40.8513 46 34.5C46 28.1487 40.8513 23 34.5 23C28.1487 23 23 28.1487 23 34.5C23 40.8513 28.1487 46 34.5 46Z" fill="white"/>
</svg>
