<svg width="946" height="191" viewBox="0 0 946 191" fill="none" xmlns="http://www.w3.org/2000/svg">
<g filter="url(#filter0_b_408_156)">
<rect x="1" width="945" height="190" rx="25" fill="black" fill-opacity="0.85"/>
</g>
<g filter="url(#filter1_b_408_156)">
<rect x="0.578125" y="0.5" width="421.787" height="190" rx="25" fill="#002D72" fill-opacity="0.77"/>
</g>
<path d="M100.215 83.0472V94.319L94.9482 87.9247C96.5305 86.0802 98.3035 84.4105 100.215 83.0472ZM81.4343 94.6675C76.1865 80.8344 67.9016 74.665 62.2888 71.8216V63.5208L83.5985 89.6967C82.8309 91.2308 82.1091 92.8871 81.4343 94.6675ZM110.913 109.987V80.3279C115.544 82.2265 116.716 89.1848 113.085 92.54C113.085 92.54 122.185 91.5992 122.185 82.1898C122.185 74.7678 116.165 70.4796 110.913 69.4633V48.6714C110.952 46.2818 117.08 43.3475 119.71 48.2369C124.194 42.3799 117.732 30.8018 105.561 38.3424C93.4007 30.8018 86.9384 42.3799 91.4261 48.2369C94.056 43.3475 100.177 46.2818 100.215 48.6714V72.0063C97.0191 73.674 93.0243 76.4186 89.2227 80.9838L62.3275 48.3745C62.8354 46.0489 68.5649 43.5451 71.0821 48.2369C75.5698 42.3799 69.1115 30.8018 56.9436 38.3424C44.7722 30.8018 38.3139 42.3799 42.8016 48.2369C45.4315 43.3475 51.5562 46.2818 51.5949 48.6714V69.5353C46.4359 70.6717 40.6836 74.9386 40.6836 82.1898C40.6836 91.5997 49.7832 92.54 49.7832 92.54C46.2418 89.2741 47.2621 82.5929 51.5944 80.4908V109.987C51.5557 112.376 45.431 115.312 42.8011 110.425C38.3134 116.278 44.7717 127.856 56.9431 120.316C69.111 127.857 75.5693 116.278 71.0816 110.425C68.4517 115.312 62.331 112.376 62.2883 109.987V82.793C70.0111 88.0543 75.4179 98.5039 76.0658 104.564V138.938C76.0658 144.504 69.8984 148.511 67.2765 143.624C62.7848 149.481 69.2431 159.934 81.4145 152.394C93.5784 159.934 100.037 149.481 95.549 143.624C92.9231 148.511 86.7597 144.043 86.7597 138.938V105.057C86.9071 102.788 87.7993 99.8012 89.2769 96.6773L100.208 110.111C99.9747 112.474 94.0128 115.235 91.4256 110.426C86.9379 116.279 93.4002 127.857 105.56 120.317C117.732 127.857 124.193 116.279 119.71 110.426C117.08 115.312 110.952 112.376 110.913 109.987Z" fill="#FF5910"/>
<path d="M129.963 111.153H129.388V108.93H129.379L128.569 111.153H128.016L127.229 108.93H127.22V111.153H126.649V108.359H127.639L128.283 110.187H128.302L128.974 108.359H129.963M126.134 108.856H125.291V111.153H124.721V108.856H123.879V108.359H126.134V108.856H126.134Z" fill="#FF5910"/>
<path d="M232.006 40.3347C228.093 40.3658 215.219 40.4615 213.741 40.4717C208.782 46.7853 202.627 60.969 196.086 76.0932C181.966 108.763 171.964 129.962 161.97 127.075C160.451 126.637 159.357 125.598 158.816 124.074C158.538 123.306 158.422 122.439 158.422 121.507C158.422 116.99 161.26 110.904 163.789 106.46C159.988 107.819 156.005 109.258 155.428 109.469C150.417 115.129 145.949 124.829 145.949 132.265C145.949 133.346 146.038 134.376 146.239 135.339C146.903 138.532 148.604 140.7 151.421 141.977C155.706 143.914 159.986 144.004 164.513 142.243C180.58 136.012 193.346 108.791 196.869 100.594C198.79 96.1397 199.513 94.4611 201.351 95.0018C202.371 95.2954 202.703 95.9545 202.703 97.0617C202.703 97.8342 202.542 98.8279 202.341 100.079C202.341 100.079 202.075 101.73 202.075 101.761C199.84 114.929 194.939 132.823 190.577 141.666H204.433C206.992 138.169 210.703 132.089 214.998 124.993C220.014 116.707 225.703 107.309 230.786 100.161C235.539 93.4613 236.148 92.6077 237.843 93.6273C239.521 94.6418 239.052 95.5592 235.324 102.913C228.701 113.249 226.4 127.58 230.062 135.527C231.797 139.276 234.711 141.459 238.671 142.004C246.206 142.854 252.871 136.749 254.241 135.06L255.65 133.322L257.01 135.1C258.271 136.748 259.787 138.086 261.749 139.317C266.693 142.191 283.381 144.001 295.49 131.471L295.683 131.206L297.751 129.974L298.756 129.516L299.513 131.439C299.513 131.439 299.893 132.387 300.068 132.743C301.984 137.965 305.893 139.857 308.823 140.532C314.688 141.876 321.685 139.647 326.67 134.843L327.724 133.829L328.915 134.674C332.005 136.868 335.613 139.191 338.909 139.784C358.442 143.265 365.877 127.01 366.67 122.797C367.164 120.202 367.362 117.869 367.362 115.732C367.362 110.412 366.11 106.326 364.972 102.608C364.086 99.7137 363.258 97.0225 363.258 94.2878C363.258 92.2948 363.927 90.2342 365.101 88.0917C362.531 86.7631 357.687 84.2826 356.781 83.8192C353.675 85.2405 341.205 100.996 333.671 110.534C320.456 127.266 320.308 127.194 318.511 126.313L317.022 124.575C316.26 122.294 317.859 118.61 318.873 116.617C318.873 116.617 336.07 80.0864 336.044 80.1577L336.881 78.1059C336.881 78.1059 367.251 77.6379 369.415 77.607C370.002 76.1496 372.207 70.7782 373.422 67.8222C368.942 67.8942 341.758 68.313 341.758 68.313C341.758 68.313 348.78 53.5559 350.593 49.7656C346.72 49.8017 336.49 49.8871 334.821 49.9026C333.967 51.6947 326.042 68.4659 326.042 68.4659C326.042 68.4659 311.021 68.7248 309.136 68.7555C308.482 70.0739 305.824 75.5 304.284 78.6208C308.337 78.4613 321.311 77.961 321.311 77.961C321.311 77.961 308.387 106.036 308.356 106.108C303.392 115.697 290.873 131.708 275.469 130.884C272.266 130.709 268.288 129.107 267.495 122.443L267.286 120.64L269.088 120.48C286.314 118.966 293.449 112.611 296.173 108.965C300.504 103.161 301.205 97.4024 298.104 93.1692C294.463 88.1843 286.515 86.7508 278.342 89.5883C263.32 94.8001 251.698 111.921 253.47 126.215L253.575 127.068L252.971 127.672C252.497 128.146 250.013 130.496 247.443 130.239C246.284 130.12 245.305 129.511 244.578 128.404C243.708 126.967 243.299 125.025 243.299 122.651C243.299 107.541 259.848 74.7602 278.567 40.4795H258.499C249.677 49.5793 238.61 67.9125 229.675 82.7648C229.675 82.7648 221.88 95.5146 221.653 95.8647C219.711 98.8104 219.057 99.7998 217.517 99.0993C216.75 98.7543 216.439 98.2911 216.439 97.498C216.439 96.6689 216.781 95.4819 217.276 93.7L221.162 77.9931C224.412 64.2277 228.085 49.1051 232.009 40.3355L232.006 40.3347ZM284.752 95.6167C286.369 95.676 287.799 96.2723 288.775 97.395C289.429 98.152 289.893 99.2013 289.893 100.453C289.893 101.75 289.389 103.269 288.091 104.886C283.899 110.134 275.025 113.09 270.75 112.812L268.699 112.683L269.133 110.68C270.05 106.498 274.213 100.26 279.61 97.057C281.332 96.0322 283.135 95.5575 284.752 95.6167ZM352.351 97.4111L353.365 107.332C353.859 111.396 354.387 115.595 353.743 121.028C353.393 123.963 351.478 128.226 348.11 130.651C345.803 132.304 343.124 132.867 340.353 132.285C338.412 131.873 336.756 130.279 336.153 128.23C336.004 127.73 335.88 127.079 335.88 126.306C335.88 124.705 336.737 122.483 338.704 120.022C338.199 119.486 336.773 117.962 336.773 117.962L337.497 116.811C341.22 110.786 344.311 107.073 347.298 103.478L349.647 100.613L352.351 97.4111Z" fill="#FF5910"/>
<path d="M478.313 116.05C475.613 116.05 473.229 115.517 471.163 114.45C469.129 113.35 467.546 111.817 466.413 109.85C465.279 107.883 464.713 105.6 464.713 103V93C464.713 90.4667 465.279 88.2333 466.413 86.3C467.546 84.3333 469.129 82.8167 471.163 81.75C473.229 80.65 475.613 80.1 478.313 80.1C481.013 80.1 483.396 80.65 485.463 81.75C487.529 82.8167 489.129 84.3333 490.263 86.3C491.396 88.2333 491.963 90.4667 491.963 93V103C491.963 105.6 491.396 107.883 490.263 109.85C489.129 111.817 487.529 113.35 485.463 114.45C483.396 115.517 481.013 116.05 478.313 116.05ZM478.313 108.95C479.913 108.95 481.196 108.433 482.163 107.4C483.163 106.367 483.663 104.983 483.663 103.25V92.9C483.663 91.2 483.163 89.8333 482.163 88.8C481.196 87.7333 479.913 87.2 478.313 87.2C476.746 87.2 475.463 87.7333 474.463 88.8C473.496 89.8333 473.013 91.2 473.013 92.9V103.25C473.013 104.983 473.496 106.367 474.463 107.4C475.463 108.433 476.746 108.95 478.313 108.95ZM523.717 80.5C525.984 80.5 527.984 80.9667 529.717 81.9C531.484 82.8333 532.834 84.15 533.767 85.85C534.734 87.5167 535.217 89.45 535.217 91.65C535.217 93.8167 534.717 95.7333 533.717 97.4C532.751 99.0667 531.367 100.35 529.567 101.25C527.767 102.15 525.684 102.6 523.317 102.6H517.217C517.051 102.6 516.967 102.683 516.967 102.85V114.9C516.967 115.067 516.901 115.217 516.767 115.35C516.667 115.45 516.534 115.5 516.367 115.5H509.267C509.101 115.5 508.951 115.45 508.817 115.35C508.717 115.217 508.667 115.067 508.667 114.9V81.1C508.667 80.9333 508.717 80.8 508.817 80.7C508.951 80.5667 509.101 80.5 509.267 80.5H523.717ZM522.367 96C523.734 96 524.834 95.6167 525.667 94.85C526.534 94.0833 526.967 93.0833 526.967 91.85C526.967 90.5833 526.534 89.5667 525.667 88.8C524.834 88 523.734 87.6 522.367 87.6H517.217C517.051 87.6 516.967 87.6833 516.967 87.85V95.75C516.967 95.9167 517.051 96 517.217 96H522.367ZM576.05 87C576.05 87.1667 575.983 87.3167 575.85 87.45C575.75 87.55 575.617 87.6 575.45 87.6H559.75C559.583 87.6 559.5 87.6833 559.5 87.85V94C559.5 94.1667 559.583 94.25 559.75 94.25H569.8C569.967 94.25 570.1 94.3167 570.2 94.45C570.333 94.55 570.4 94.6833 570.4 94.85V100.7C570.4 100.867 570.333 101.017 570.2 101.15C570.1 101.25 569.967 101.3 569.8 101.3H559.75C559.583 101.3 559.5 101.383 559.5 101.55V108.15C559.5 108.317 559.583 108.4 559.75 108.4H575.45C575.617 108.4 575.75 108.467 575.85 108.6C575.983 108.7 576.05 108.833 576.05 109V114.9C576.05 115.067 575.983 115.217 575.85 115.35C575.75 115.45 575.617 115.5 575.45 115.5H551.8C551.633 115.5 551.483 115.45 551.35 115.35C551.25 115.217 551.2 115.067 551.2 114.9V81.1C551.2 80.9333 551.25 80.8 551.35 80.7C551.483 80.5667 551.633 80.5 551.8 80.5H575.45C575.617 80.5 575.75 80.5667 575.85 80.7C575.983 80.8 576.05 80.9333 576.05 81.1V87ZM611.307 115.5C610.974 115.5 610.741 115.35 610.607 115.05L604.707 101.75C604.641 101.617 604.541 101.55 604.407 101.55H601.107C600.941 101.55 600.857 101.633 600.857 101.8V114.9C600.857 115.067 600.791 115.217 600.657 115.35C600.557 115.45 600.424 115.5 600.257 115.5H593.157C592.991 115.5 592.841 115.45 592.707 115.35C592.607 115.217 592.557 115.067 592.557 114.9V81.1C592.557 80.9333 592.607 80.8 592.707 80.7C592.841 80.5667 592.991 80.5 593.157 80.5H608.007C610.207 80.5 612.141 80.95 613.807 81.85C615.474 82.75 616.757 84.0333 617.657 85.7C618.591 87.3333 619.057 89.2167 619.057 91.35C619.057 93.5833 618.507 95.5167 617.407 97.15C616.307 98.7833 614.774 99.9667 612.807 100.7C612.641 100.767 612.591 100.883 612.657 101.05L619.257 114.8C619.324 114.933 619.357 115.033 619.357 115.1C619.357 115.367 619.174 115.5 618.807 115.5H611.307ZM601.107 87.6C600.941 87.6 600.857 87.6833 600.857 87.85V94.95C600.857 95.1167 600.941 95.2 601.107 95.2H606.657C607.891 95.2 608.891 94.8667 609.657 94.2C610.424 93.5 610.807 92.5833 610.807 91.45C610.807 90.2833 610.424 89.35 609.657 88.65C608.891 87.95 607.891 87.6 606.657 87.6H601.107ZM658.962 115.5C658.595 115.5 658.362 115.333 658.262 115L656.962 110.55C656.895 110.417 656.812 110.35 656.712 110.35H645.312C645.212 110.35 645.129 110.417 645.062 110.55L643.762 115C643.662 115.333 643.429 115.5 643.062 115.5H635.412C635.212 115.5 635.062 115.45 634.962 115.35C634.862 115.217 634.845 115.033 634.912 114.8L645.612 81C645.712 80.6667 645.929 80.5 646.262 80.5H655.712C656.045 80.5 656.262 80.6667 656.362 81L667.112 114.8C667.145 114.867 667.162 114.95 667.162 115.05C667.162 115.35 666.979 115.5 666.612 115.5H658.962ZM647.062 103.65C647.029 103.85 647.095 103.95 647.262 103.95H654.712C654.912 103.95 654.979 103.85 654.912 103.65L651.112 90.8C651.079 90.6667 651.029 90.6167 650.962 90.65C650.895 90.65 650.845 90.7 650.812 90.8L647.062 103.65ZM703.99 80.5C704.157 80.5 704.29 80.5667 704.39 80.7C704.524 80.8 704.59 80.9333 704.59 81.1V87.05C704.59 87.2167 704.524 87.3667 704.39 87.5C704.29 87.6 704.157 87.65 703.99 87.65H695.24C695.074 87.65 694.99 87.7333 694.99 87.9V114.9C694.99 115.067 694.924 115.217 694.79 115.35C694.69 115.45 694.557 115.5 694.39 115.5H687.29C687.124 115.5 686.974 115.45 686.84 115.35C686.74 115.217 686.69 115.067 686.69 114.9V87.9C686.69 87.7333 686.607 87.65 686.44 87.65H677.99C677.824 87.65 677.674 87.6 677.54 87.5C677.44 87.3667 677.39 87.2167 677.39 87.05V81.1C677.39 80.9333 677.44 80.8 677.54 80.7C677.674 80.5667 677.824 80.5 677.99 80.5H703.99ZM721.282 115.5C721.116 115.5 720.966 115.45 720.832 115.35C720.732 115.217 720.682 115.067 720.682 114.9V81.1C720.682 80.9333 720.732 80.8 720.832 80.7C720.966 80.5667 721.116 80.5 721.282 80.5H728.382C728.549 80.5 728.682 80.5667 728.782 80.7C728.916 80.8 728.982 80.9333 728.982 81.1V114.9C728.982 115.067 728.916 115.217 728.782 115.35C728.682 115.45 728.549 115.5 728.382 115.5H721.282ZM759.465 116.05C756.765 116.05 754.382 115.517 752.315 114.45C750.282 113.35 748.698 111.817 747.565 109.85C746.432 107.883 745.865 105.6 745.865 103V93C745.865 90.4667 746.432 88.2333 747.565 86.3C748.698 84.3333 750.282 82.8167 752.315 81.75C754.382 80.65 756.765 80.1 759.465 80.1C762.165 80.1 764.548 80.65 766.615 81.75C768.682 82.8167 770.282 84.3333 771.415 86.3C772.548 88.2333 773.115 90.4667 773.115 93V103C773.115 105.6 772.548 107.883 771.415 109.85C770.282 111.817 768.682 113.35 766.615 114.45C764.548 115.517 762.165 116.05 759.465 116.05ZM759.465 108.95C761.065 108.95 762.348 108.433 763.315 107.4C764.315 106.367 764.815 104.983 764.815 103.25V92.9C764.815 91.2 764.315 89.8333 763.315 88.8C762.348 87.7333 761.065 87.2 759.465 87.2C757.898 87.2 756.615 87.7333 755.615 88.8C754.648 89.8333 754.165 91.2 754.165 92.9V103.25C754.165 104.983 754.648 106.367 755.615 107.4C756.615 108.433 757.898 108.95 759.465 108.95ZM809.82 81.1C809.82 80.9333 809.87 80.8 809.97 80.7C810.103 80.5667 810.253 80.5 810.42 80.5H817.52C817.686 80.5 817.82 80.5667 817.92 80.7C818.053 80.8 818.12 80.9333 818.12 81.1V114.9C818.12 115.067 818.053 115.217 817.92 115.35C817.82 115.45 817.686 115.5 817.52 115.5H810.72C810.386 115.5 810.153 115.367 810.02 115.1L798.52 96C798.453 95.9 798.386 95.8667 798.32 95.9C798.253 95.9 798.22 95.9667 798.22 96.1L798.27 114.9C798.27 115.067 798.203 115.217 798.07 115.35C797.97 115.45 797.836 115.5 797.67 115.5H790.57C790.403 115.5 790.253 115.45 790.12 115.35C790.02 115.217 789.97 115.067 789.97 114.9V81.1C789.97 80.9333 790.02 80.8 790.12 80.7C790.253 80.5667 790.403 80.5 790.57 80.5H797.42C797.753 80.5 797.986 80.6333 798.12 80.9L809.57 99.95C809.636 100.05 809.703 100.1 809.77 100.1C809.836 100.067 809.87 99.9833 809.87 99.85L809.82 81.1ZM848.275 115.9C845.508 115.9 843.092 115.467 841.025 114.6C838.992 113.7 837.408 112.433 836.275 110.8C835.175 109.133 834.625 107.217 834.625 105.05V104.1C834.625 103.933 834.675 103.8 834.775 103.7C834.908 103.567 835.058 103.5 835.225 103.5H842.175C842.342 103.5 842.475 103.567 842.575 103.7C842.708 103.8 842.775 103.933 842.775 104.1V104.7C842.775 105.8 843.325 106.767 844.425 107.6C845.525 108.4 847.008 108.8 848.875 108.8C850.342 108.8 851.425 108.483 852.125 107.85C852.825 107.217 853.175 106.483 853.175 105.65C853.175 104.983 852.958 104.45 852.525 104.05C852.125 103.617 851.575 103.267 850.875 103C850.175 102.7 849.092 102.3 847.625 101.8C847.425 101.7 847.225 101.633 847.025 101.6C846.825 101.533 846.642 101.467 846.475 101.4C844.308 100.7 842.425 99.95 840.825 99.15C839.225 98.3167 837.858 97.1833 836.725 95.75C835.592 94.2833 835.025 92.4833 835.025 90.35C835.025 88.2833 835.558 86.4833 836.625 84.95C837.725 83.3833 839.242 82.1833 841.175 81.35C843.108 80.5167 845.292 80.1 847.725 80.1C850.292 80.1 852.592 80.5667 854.625 81.5C856.692 82.4333 858.308 83.75 859.475 85.45C860.642 87.15 861.225 89.1 861.225 91.3V92C861.225 92.1667 861.158 92.3167 861.025 92.45C860.925 92.55 860.792 92.6 860.625 92.6H853.675C853.508 92.6 853.358 92.55 853.225 92.45C853.125 92.3167 853.075 92.1667 853.075 92V91.65C853.075 90.4833 852.558 89.45 851.525 88.55C850.492 87.65 849.108 87.2 847.375 87.2C846.075 87.2 845.058 87.4667 844.325 88C843.592 88.5333 843.225 89.2833 843.225 90.25C843.225 90.9833 843.458 91.6 843.925 92.1C844.392 92.5667 845.108 93.0167 846.075 93.45C847.075 93.85 848.592 94.3833 850.625 95.05C852.958 95.85 854.775 96.55 856.075 97.15C857.375 97.75 858.592 98.7333 859.725 100.1C860.892 101.433 861.475 103.2 861.475 105.4C861.475 107.567 860.925 109.433 859.825 111C858.725 112.567 857.175 113.783 855.175 114.65C853.208 115.483 850.908 115.9 848.275 115.9ZM876.907 115.5C876.74 115.5 876.59 115.45 876.457 115.35C876.357 115.217 876.307 115.067 876.307 114.9V109.9C876.307 109.733 876.357 109.6 876.457 109.5C876.59 109.367 876.74 109.3 876.907 109.3H901.057C901.223 109.3 901.357 109.367 901.457 109.5C901.59 109.6 901.657 109.733 901.657 109.9V114.9C901.657 115.067 901.59 115.217 901.457 115.35C901.357 115.45 901.223 115.5 901.057 115.5H876.907Z" fill="#FF5910"/>
<defs>
<filter id="filter0_b_408_156" x="-14" y="-15" width="975" height="220" filterUnits="userSpaceOnUse" color-interpolation-filters="sRGB">
<feFlood flood-opacity="0" result="BackgroundImageFix"/>
<feGaussianBlur in="BackgroundImageFix" stdDeviation="7.5"/>
<feComposite in2="SourceAlpha" operator="in" result="effect1_backgroundBlur_408_156"/>
<feBlend mode="normal" in="SourceGraphic" in2="effect1_backgroundBlur_408_156" result="shape"/>
</filter>
<filter id="filter1_b_408_156" x="-14.4219" y="-14.5" width="451.789" height="220" filterUnits="userSpaceOnUse" color-interpolation-filters="sRGB">
<feFlood flood-opacity="0" result="BackgroundImageFix"/>
<feGaussianBlur in="BackgroundImageFix" stdDeviation="7.5"/>
<feComposite in2="SourceAlpha" operator="in" result="effect1_backgroundBlur_408_156"/>
<feBlend mode="normal" in="SourceGraphic" in2="effect1_backgroundBlur_408_156" result="shape"/>
</filter>
</defs>
</svg>
