<svg width="832" height="191" viewBox="0 0 832 191" fill="none" xmlns="http://www.w3.org/2000/svg">
<g filter="url(#filter0_b_299_10579)">
<rect x="0.578125" y="0.5" width="830.867" height="190" rx="25" fill="black" fill-opacity="0.85"/>
</g>
<g filter="url(#filter1_b_299_10579)">
<rect x="0.578125" y="0.5" width="421.787" height="190" rx="25" fill="#002D72" fill-opacity="0.77"/>
</g>
<path d="M100.215 83.0472V94.319L94.9482 87.9247C96.5305 86.0802 98.3035 84.4105 100.215 83.0472ZM81.4343 94.6675C76.1865 80.8344 67.9016 74.665 62.2888 71.8216V63.5208L83.5985 89.6967C82.8309 91.2308 82.1091 92.8871 81.4343 94.6675ZM110.913 109.987V80.3279C115.544 82.2265 116.716 89.1848 113.085 92.54C113.085 92.54 122.185 91.5992 122.185 82.1898C122.185 74.7678 116.165 70.4796 110.913 69.4633V48.6714C110.952 46.2818 117.08 43.3475 119.71 48.2369C124.194 42.3799 117.732 30.8018 105.561 38.3424C93.4007 30.8018 86.9384 42.3799 91.4261 48.2369C94.056 43.3475 100.177 46.2818 100.215 48.6714V72.0063C97.0191 73.674 93.0243 76.4186 89.2227 80.9838L62.3275 48.3745C62.8354 46.0489 68.5649 43.5451 71.0821 48.2369C75.5698 42.3799 69.1115 30.8018 56.9436 38.3424C44.7722 30.8018 38.3139 42.3799 42.8016 48.2369C45.4315 43.3475 51.5562 46.2818 51.5949 48.6714V69.5353C46.4359 70.6717 40.6836 74.9386 40.6836 82.1898C40.6836 91.5997 49.7832 92.54 49.7832 92.54C46.2418 89.2741 47.2621 82.5929 51.5944 80.4908V109.987C51.5557 112.376 45.431 115.312 42.8011 110.425C38.3134 116.278 44.7717 127.856 56.9431 120.316C69.111 127.857 75.5693 116.278 71.0816 110.425C68.4517 115.312 62.331 112.376 62.2883 109.987V82.793C70.0111 88.0543 75.4179 98.5039 76.0658 104.564V138.938C76.0658 144.504 69.8984 148.511 67.2765 143.624C62.7848 149.481 69.2431 159.934 81.4145 152.394C93.5784 159.934 100.037 149.481 95.549 143.624C92.9231 148.511 86.7597 144.043 86.7597 138.938V105.057C86.9071 102.788 87.7993 99.8012 89.2769 96.6773L100.208 110.111C99.9747 112.474 94.0128 115.235 91.4256 110.426C86.9379 116.279 93.4002 127.857 105.56 120.317C117.732 127.857 124.193 116.279 119.71 110.426C117.08 115.312 110.952 112.376 110.913 109.987Z" fill="#FF5910"/>
<path d="M129.962 111.153H129.387V108.93H129.377L128.567 111.153H128.014L127.227 108.93H127.218V111.153H126.647V108.359H127.637L128.281 110.187H128.3L128.972 108.359H129.962M126.132 108.856H125.29V111.153H124.719V108.856H123.877V108.359H126.133V108.856H126.132Z" fill="#FF5910"/>
<path d="M232.006 40.3347C228.093 40.3658 215.219 40.4615 213.741 40.4717C208.782 46.7853 202.627 60.969 196.086 76.0932C181.966 108.763 171.964 129.962 161.97 127.075C160.451 126.637 159.357 125.598 158.816 124.074C158.538 123.306 158.422 122.439 158.422 121.507C158.422 116.99 161.26 110.904 163.789 106.46C159.988 107.819 156.005 109.258 155.428 109.469C150.417 115.129 145.949 124.829 145.949 132.265C145.949 133.346 146.038 134.376 146.239 135.339C146.903 138.532 148.604 140.7 151.421 141.977C155.706 143.914 159.986 144.004 164.513 142.243C180.58 136.012 193.346 108.791 196.869 100.594C198.79 96.1397 199.513 94.4611 201.351 95.0018C202.371 95.2954 202.703 95.9545 202.703 97.0617C202.703 97.8342 202.542 98.8279 202.341 100.079C202.341 100.079 202.075 101.73 202.075 101.761C199.84 114.929 194.939 132.823 190.577 141.666H204.433C206.992 138.169 210.703 132.089 214.998 124.993C220.014 116.707 225.703 107.309 230.786 100.161C235.539 93.4613 236.148 92.6077 237.843 93.6273C239.521 94.6418 239.052 95.5592 235.324 102.913C228.701 113.249 226.4 127.58 230.062 135.527C231.797 139.276 234.711 141.459 238.671 142.004C246.206 142.854 252.871 136.749 254.241 135.06L255.65 133.322L257.01 135.1C258.271 136.748 259.787 138.086 261.749 139.317C266.693 142.191 283.381 144.001 295.49 131.471L295.683 131.206L297.751 129.974L298.756 129.516L299.513 131.439C299.513 131.439 299.893 132.387 300.068 132.743C301.984 137.965 305.893 139.857 308.823 140.532C314.688 141.876 321.685 139.647 326.67 134.843L327.724 133.829L328.915 134.674C332.005 136.868 335.613 139.191 338.909 139.784C358.442 143.265 365.877 127.01 366.67 122.797C367.164 120.202 367.362 117.869 367.362 115.732C367.362 110.412 366.11 106.326 364.972 102.608C364.086 99.7137 363.258 97.0225 363.258 94.2878C363.258 92.2948 363.927 90.2342 365.101 88.0917C362.531 86.7631 357.687 84.2826 356.781 83.8192C353.675 85.2405 341.205 100.996 333.671 110.534C320.456 127.266 320.308 127.194 318.511 126.313L317.022 124.575C316.26 122.294 317.859 118.61 318.873 116.617C318.873 116.617 336.07 80.0864 336.044 80.1577L336.881 78.1059C336.881 78.1059 367.251 77.6379 369.415 77.607C370.002 76.1496 372.207 70.7782 373.422 67.8222C368.942 67.8942 341.758 68.313 341.758 68.313C341.758 68.313 348.78 53.5559 350.593 49.7656C346.72 49.8017 336.49 49.8871 334.821 49.9026C333.967 51.6947 326.042 68.4659 326.042 68.4659C326.042 68.4659 311.021 68.7248 309.136 68.7555C308.482 70.0739 305.824 75.5 304.284 78.6208C308.337 78.4613 321.311 77.961 321.311 77.961C321.311 77.961 308.387 106.036 308.356 106.108C303.392 115.697 290.873 131.708 275.469 130.884C272.266 130.709 268.288 129.107 267.495 122.443L267.286 120.64L269.088 120.48C286.314 118.966 293.449 112.611 296.173 108.965C300.504 103.161 301.205 97.4024 298.104 93.1692C294.463 88.1843 286.515 86.7508 278.342 89.5883C263.32 94.8001 251.698 111.921 253.47 126.215L253.575 127.068L252.971 127.672C252.497 128.146 250.013 130.496 247.443 130.239C246.284 130.12 245.305 129.511 244.578 128.404C243.708 126.967 243.299 125.025 243.299 122.651C243.299 107.541 259.848 74.7602 278.567 40.4795H258.499C249.677 49.5793 238.61 67.9125 229.675 82.7648C229.675 82.7648 221.88 95.5146 221.653 95.8647C219.711 98.8104 219.057 99.7998 217.517 99.0993C216.75 98.7543 216.439 98.2911 216.439 97.498C216.439 96.6689 216.781 95.4819 217.276 93.7L221.162 77.9931C224.412 64.2277 228.085 49.1051 232.009 40.3355L232.006 40.3347ZM284.752 95.6167C286.369 95.676 287.799 96.2723 288.775 97.395C289.429 98.152 289.893 99.2013 289.893 100.453C289.893 101.75 289.389 103.269 288.091 104.886C283.899 110.134 275.025 113.09 270.75 112.812L268.699 112.683L269.133 110.68C270.05 106.498 274.213 100.26 279.61 97.057C281.332 96.0322 283.135 95.5575 284.752 95.6167ZM352.351 97.4111L353.365 107.332C353.859 111.396 354.387 115.595 353.743 121.028C353.393 123.963 351.478 128.226 348.11 130.651C345.803 132.304 343.124 132.867 340.353 132.285C338.412 131.873 336.756 130.279 336.153 128.23C336.004 127.73 335.88 127.079 335.88 126.306C335.88 124.705 336.737 122.483 338.704 120.022C338.199 119.486 336.773 117.962 336.773 117.962L337.497 116.811C341.22 110.786 344.311 107.073 347.298 103.478L349.647 100.613L352.351 97.4111Z" fill="#FF5910"/>
<path d="M480.164 80.5C482.431 80.5 484.431 80.9667 486.164 81.9C487.931 82.8333 489.281 84.15 490.214 85.85C491.181 87.5167 491.664 89.45 491.664 91.65C491.664 93.8167 491.164 95.7333 490.164 97.4C489.198 99.0667 487.814 100.35 486.014 101.25C484.214 102.15 482.131 102.6 479.764 102.6H473.664C473.498 102.6 473.414 102.683 473.414 102.85V114.9C473.414 115.067 473.348 115.217 473.214 115.35C473.114 115.45 472.981 115.5 472.814 115.5H465.714C465.548 115.5 465.398 115.45 465.264 115.35C465.164 115.217 465.114 115.067 465.114 114.9V81.1C465.114 80.9333 465.164 80.8 465.264 80.7C465.398 80.5667 465.548 80.5 465.714 80.5H480.164ZM478.814 96C480.181 96 481.281 95.6167 482.114 94.85C482.981 94.0833 483.414 93.0833 483.414 91.85C483.414 90.5833 482.981 89.5667 482.114 88.8C481.281 88 480.181 87.6 478.814 87.6H473.664C473.498 87.6 473.414 87.6833 473.414 87.85V95.75C473.414 95.9167 473.498 96 473.664 96H478.814ZM527.079 115.5C526.713 115.5 526.479 115.333 526.379 115L525.079 110.55C525.013 110.417 524.929 110.35 524.829 110.35H513.429C513.329 110.35 513.246 110.417 513.179 110.55L511.879 115C511.779 115.333 511.546 115.5 511.179 115.5H503.529C503.329 115.5 503.179 115.45 503.079 115.35C502.979 115.217 502.963 115.033 503.029 114.8L513.729 81C513.829 80.6667 514.046 80.5 514.379 80.5H523.829C524.163 80.5 524.379 80.6667 524.479 81L535.229 114.8C535.263 114.867 535.279 114.95 535.279 115.05C535.279 115.35 535.096 115.5 534.729 115.5H527.079ZM515.179 103.65C515.146 103.85 515.213 103.95 515.379 103.95H522.829C523.029 103.95 523.096 103.85 523.029 103.65L519.229 90.8C519.196 90.6667 519.146 90.6167 519.079 90.65C519.013 90.65 518.963 90.7 518.929 90.8L515.179 103.65ZM570.196 115.5C569.863 115.5 569.629 115.35 569.496 115.05L563.596 101.75C563.529 101.617 563.429 101.55 563.296 101.55H559.996C559.829 101.55 559.746 101.633 559.746 101.8V114.9C559.746 115.067 559.679 115.217 559.546 115.35C559.446 115.45 559.313 115.5 559.146 115.5H552.046C551.879 115.5 551.729 115.45 551.596 115.35C551.496 115.217 551.446 115.067 551.446 114.9V81.1C551.446 80.9333 551.496 80.8 551.596 80.7C551.729 80.5667 551.879 80.5 552.046 80.5H566.896C569.096 80.5 571.029 80.95 572.696 81.85C574.363 82.75 575.646 84.0333 576.546 85.7C577.479 87.3333 577.946 89.2167 577.946 91.35C577.946 93.5833 577.396 95.5167 576.296 97.15C575.196 98.7833 573.663 99.9667 571.696 100.7C571.529 100.767 571.479 100.883 571.546 101.05L578.146 114.8C578.213 114.933 578.246 115.033 578.246 115.1C578.246 115.367 578.063 115.5 577.696 115.5H570.196ZM559.996 87.6C559.829 87.6 559.746 87.6833 559.746 87.85V94.95C559.746 95.1167 559.829 95.2 559.996 95.2H565.546C566.779 95.2 567.779 94.8667 568.546 94.2C569.313 93.5 569.696 92.5833 569.696 91.45C569.696 90.2833 569.313 89.35 568.546 88.65C567.779 87.95 566.779 87.6 565.546 87.6H559.996ZM595.259 115.5C595.092 115.5 594.942 115.45 594.809 115.35C594.709 115.217 594.659 115.067 594.659 114.9V81.1C594.659 80.9333 594.709 80.8 594.809 80.7C594.942 80.5667 595.092 80.5 595.259 80.5H602.359C602.526 80.5 602.659 80.5667 602.759 80.7C602.892 80.8 602.959 80.9333 602.959 81.1V94.1C602.959 94.2 602.992 94.2667 603.059 94.3C603.126 94.3 603.192 94.2667 603.259 94.2L613.359 80.85C613.559 80.6167 613.792 80.5 614.059 80.5H622.159C622.492 80.5 622.659 80.6167 622.659 80.85C622.659 80.95 622.609 81.0833 622.509 81.25L611.709 95.7C611.642 95.8333 611.626 95.95 611.659 96.05L622.959 114.8C623.026 115 623.059 115.117 623.059 115.15C623.059 115.383 622.892 115.5 622.559 115.5H614.609C614.242 115.5 613.992 115.367 613.859 115.1L606.009 101.75C605.909 101.55 605.792 101.55 605.659 101.75L603.059 105.3C602.992 105.433 602.959 105.533 602.959 105.6V114.9C602.959 115.067 602.892 115.217 602.759 115.35C602.659 115.45 602.526 115.5 602.359 115.5H595.259ZM639.302 115.5C639.135 115.5 638.985 115.45 638.852 115.35C638.752 115.217 638.702 115.067 638.702 114.9V81.1C638.702 80.9333 638.752 80.8 638.852 80.7C638.985 80.5667 639.135 80.5 639.302 80.5H646.402C646.569 80.5 646.702 80.5667 646.802 80.7C646.935 80.8 647.002 80.9333 647.002 81.1V114.9C647.002 115.067 646.935 115.217 646.802 115.35C646.702 115.45 646.569 115.5 646.402 115.5H639.302ZM684.284 81.1C684.284 80.9333 684.334 80.8 684.434 80.7C684.568 80.5667 684.718 80.5 684.884 80.5H691.984C692.151 80.5 692.284 80.5667 692.384 80.7C692.518 80.8 692.584 80.9333 692.584 81.1V114.9C692.584 115.067 692.518 115.217 692.384 115.35C692.284 115.45 692.151 115.5 691.984 115.5H685.184C684.851 115.5 684.618 115.367 684.484 115.1L672.984 96C672.918 95.9 672.851 95.8667 672.784 95.9C672.718 95.9 672.684 95.9667 672.684 96.1L672.734 114.9C672.734 115.067 672.668 115.217 672.534 115.35C672.434 115.45 672.301 115.5 672.134 115.5H665.034C664.868 115.5 664.718 115.45 664.584 115.35C664.484 115.217 664.434 115.067 664.434 114.9V81.1C664.434 80.9333 664.484 80.8 664.584 80.7C664.718 80.5667 664.868 80.5 665.034 80.5H671.884C672.218 80.5 672.451 80.6333 672.584 80.9L684.034 99.95C684.101 100.05 684.168 100.1 684.234 100.1C684.301 100.067 684.334 99.9833 684.334 99.85L684.284 81.1ZM722.89 115.9C720.223 115.9 717.873 115.367 715.84 114.3C713.84 113.233 712.273 111.733 711.14 109.8C710.04 107.867 709.49 105.633 709.49 103.1V92.85C709.49 90.3167 710.04 88.1 711.14 86.2C712.273 84.2667 713.84 82.7667 715.84 81.7C717.873 80.6333 720.223 80.1 722.89 80.1C725.523 80.1 727.857 80.6167 729.89 81.65C731.923 82.65 733.49 84.0333 734.59 85.8C735.723 87.5667 736.29 89.5167 736.29 91.65V91.9C736.29 92.0667 736.223 92.2167 736.09 92.35C735.99 92.45 735.857 92.5 735.69 92.5H728.59C728.423 92.5 728.273 92.45 728.14 92.35C728.04 92.2167 727.99 92.0667 727.99 91.9C727.99 90.6 727.523 89.5 726.59 88.6C725.69 87.6667 724.457 87.2 722.89 87.2C721.357 87.2 720.123 87.7 719.19 88.7C718.257 89.7 717.79 91 717.79 92.6V103.35C717.79 104.95 718.307 106.25 719.34 107.25C720.373 108.25 721.673 108.75 723.24 108.75C724.707 108.75 725.89 108.367 726.79 107.6C727.69 106.8 728.14 105.7 728.14 104.3V102.9C728.14 102.733 728.057 102.65 727.89 102.65H722.89C722.723 102.65 722.573 102.6 722.44 102.5C722.34 102.367 722.29 102.217 722.29 102.05V96.55C722.29 96.3833 722.34 96.25 722.44 96.15C722.573 96.0167 722.723 95.95 722.89 95.95H735.69C735.857 95.95 735.99 96.0167 736.09 96.15C736.223 96.25 736.29 96.3833 736.29 96.55V103.35C736.29 105.85 735.723 108.05 734.59 109.95C733.49 111.85 731.923 113.317 729.89 114.35C727.89 115.383 725.557 115.9 722.89 115.9ZM752.055 115.5C751.888 115.5 751.738 115.45 751.605 115.35C751.505 115.217 751.455 115.067 751.455 114.9V109.9C751.455 109.733 751.505 109.6 751.605 109.5C751.738 109.367 751.888 109.3 752.055 109.3H776.205C776.372 109.3 776.505 109.367 776.605 109.5C776.738 109.6 776.805 109.733 776.805 109.9V114.9C776.805 115.067 776.738 115.217 776.605 115.35C776.505 115.45 776.372 115.5 776.205 115.5H752.055Z" fill="#FF5910"/>
<defs>
<filter id="filter0_b_299_10579" x="-14.4219" y="-14.5" width="860.867" height="220" filterUnits="userSpaceOnUse" color-interpolation-filters="sRGB">
<feFlood flood-opacity="0" result="BackgroundImageFix"/>
<feGaussianBlur in="BackgroundImageFix" stdDeviation="7.5"/>
<feComposite in2="SourceAlpha" operator="in" result="effect1_backgroundBlur_299_10579"/>
<feBlend mode="normal" in="SourceGraphic" in2="effect1_backgroundBlur_299_10579" result="shape"/>
</filter>
<filter id="filter1_b_299_10579" x="-14.4219" y="-14.5" width="451.787" height="220" filterUnits="userSpaceOnUse" color-interpolation-filters="sRGB">
<feFlood flood-opacity="0" result="BackgroundImageFix"/>
<feGaussianBlur in="BackgroundImageFix" stdDeviation="7.5"/>
<feComposite in2="SourceAlpha" operator="in" result="effect1_backgroundBlur_299_10579"/>
<feBlend mode="normal" in="SourceGraphic" in2="effect1_backgroundBlur_299_10579" result="shape"/>
</filter>
</defs>
</svg>
