<svg width="37" height="32" viewBox="0 0 37 32" fill="none" xmlns="http://www.w3.org/2000/svg">
<path d="M0.753906 4.94611C0.753906 3.76213 1.22424 2.62665 2.06143 1.78946C2.89863 0.952265 4.03411 0.481934 5.21808 0.481934H32.0031C33.1871 0.481934 34.3226 0.952265 35.1598 1.78946C35.997 2.62665 36.4673 3.76213 36.4673 4.94611V27.267C36.4673 28.4509 35.997 29.5864 35.1598 30.4236C34.3226 31.2608 33.1871 31.7311 32.0031 31.7311H5.21808C4.03411 31.7311 2.89863 31.2608 2.06143 30.4236C1.22424 29.5864 0.753906 28.4509 0.753906 27.267V4.94611ZM2.98599 25.0349V27.267C2.98599 27.859 3.22116 28.4267 3.63976 28.8453C4.05835 29.2639 4.62609 29.4991 5.21808 29.4991H32.0031C32.5951 29.4991 33.1629 29.2639 33.5815 28.8453C34 28.4267 34.2352 27.859 34.2352 27.267V19.4547L25.8046 15.1088C25.5953 15.0039 25.3583 14.9676 25.1272 15.0048C24.896 15.0421 24.6825 15.1511 24.5167 15.3164L16.2357 23.5974L10.2983 19.6422C10.0839 19.4994 9.82681 19.4353 9.57051 19.4605C9.31422 19.4857 9.07453 19.5988 8.8921 19.7806L2.98599 25.0349ZM14.1464 10.5263C14.1464 9.63835 13.7937 8.78673 13.1658 8.15884C12.5379 7.53094 11.6863 7.17819 10.7983 7.17819C9.91032 7.17819 9.05871 7.53094 8.43081 8.15884C7.80292 8.78673 7.45017 9.63835 7.45017 10.5263C7.45017 11.4143 7.80292 12.2659 8.43081 12.8938C9.05871 13.5217 9.91032 13.8745 10.7983 13.8745C11.6863 13.8745 12.5379 13.5217 13.1658 12.8938C13.7937 12.2659 14.1464 11.4143 14.1464 10.5263Z" fill="#FF5910"/>
</svg>
