<svg width="859" height="191" viewBox="0 0 859 191" fill="none" xmlns="http://www.w3.org/2000/svg">
<g filter="url(#filter0_b_260_45)">
<rect x="1" y="1" width="858" height="190" rx="25" fill="black" fill-opacity="0.85"/>
</g>
<g filter="url(#filter1_b_260_45)">
<rect x="0.578125" y="0.5" width="421.787" height="190" rx="25" fill="#002D72" fill-opacity="0.77"/>
</g>
<path d="M100.215 83.0472V94.319L94.9482 87.9247C96.5305 86.0802 98.3035 84.4105 100.215 83.0472ZM81.4343 94.6675C76.1865 80.8344 67.9016 74.665 62.2888 71.8216V63.5208L83.5985 89.6967C82.8309 91.2308 82.1091 92.8871 81.4343 94.6675ZM110.913 109.987V80.3279C115.544 82.2265 116.716 89.1848 113.085 92.54C113.085 92.54 122.185 91.5992 122.185 82.1898C122.185 74.7678 116.165 70.4796 110.913 69.4633V48.6714C110.952 46.2818 117.08 43.3475 119.71 48.2369C124.194 42.3799 117.732 30.8018 105.561 38.3424C93.4007 30.8018 86.9384 42.3799 91.4261 48.2369C94.056 43.3475 100.177 46.2818 100.215 48.6714V72.0063C97.0191 73.674 93.0243 76.4186 89.2227 80.9838L62.3275 48.3745C62.8354 46.0489 68.5649 43.5451 71.0821 48.2369C75.5698 42.3799 69.1115 30.8018 56.9436 38.3424C44.7722 30.8018 38.3139 42.3799 42.8016 48.2369C45.4315 43.3475 51.5562 46.2818 51.5949 48.6714V69.5353C46.4359 70.6717 40.6836 74.9386 40.6836 82.1898C40.6836 91.5997 49.7832 92.54 49.7832 92.54C46.2418 89.2741 47.2621 82.5929 51.5944 80.4908V109.987C51.5557 112.376 45.431 115.312 42.8011 110.425C38.3134 116.278 44.7717 127.856 56.9431 120.316C69.111 127.857 75.5693 116.278 71.0816 110.425C68.4517 115.312 62.331 112.376 62.2883 109.987V82.793C70.0111 88.0543 75.4179 98.5039 76.0658 104.564V138.938C76.0658 144.504 69.8984 148.511 67.2765 143.624C62.7848 149.481 69.2431 159.934 81.4145 152.394C93.5784 159.934 100.037 149.481 95.549 143.624C92.9231 148.511 86.7597 144.043 86.7597 138.938V105.057C86.9071 102.788 87.7993 99.8012 89.2769 96.6773L100.208 110.111C99.9747 112.474 94.0128 115.235 91.4256 110.426C86.9379 116.279 93.4002 127.857 105.56 120.317C117.732 127.857 124.193 116.279 119.71 110.426C117.08 115.312 110.952 112.376 110.913 109.987Z" fill="#FF5910"/>
<path d="M129.963 111.153H129.388V108.93H129.379L128.569 111.153H128.016L127.229 108.93H127.22V111.153H126.649V108.359H127.639L128.283 110.187H128.302L128.974 108.359H129.963M126.134 108.856H125.291V111.153H124.721V108.856H123.879V108.359H126.134V108.856H126.134Z" fill="#FF5910"/>
<path d="M232.006 40.3347C228.093 40.3658 215.219 40.4615 213.741 40.4717C208.782 46.7853 202.627 60.969 196.086 76.0932C181.966 108.763 171.964 129.962 161.97 127.075C160.451 126.637 159.357 125.598 158.816 124.074C158.538 123.306 158.422 122.439 158.422 121.507C158.422 116.99 161.26 110.904 163.789 106.46C159.988 107.819 156.005 109.258 155.428 109.469C150.417 115.129 145.949 124.829 145.949 132.265C145.949 133.346 146.038 134.376 146.239 135.339C146.903 138.532 148.604 140.7 151.421 141.977C155.706 143.914 159.986 144.004 164.513 142.243C180.58 136.012 193.346 108.791 196.869 100.594C198.79 96.1397 199.513 94.4611 201.351 95.0018C202.371 95.2954 202.703 95.9545 202.703 97.0617C202.703 97.8342 202.542 98.8279 202.341 100.079C202.341 100.079 202.075 101.73 202.075 101.761C199.84 114.929 194.939 132.823 190.577 141.666H204.433C206.992 138.169 210.703 132.089 214.998 124.993C220.014 116.707 225.703 107.309 230.786 100.161C235.539 93.4613 236.148 92.6077 237.843 93.6273C239.521 94.6418 239.052 95.5592 235.324 102.913C228.701 113.249 226.4 127.58 230.062 135.527C231.797 139.276 234.711 141.459 238.671 142.004C246.206 142.854 252.871 136.749 254.241 135.06L255.65 133.322L257.01 135.1C258.271 136.748 259.787 138.086 261.749 139.317C266.693 142.191 283.381 144.001 295.49 131.471L295.683 131.206L297.751 129.974L298.756 129.516L299.513 131.439C299.513 131.439 299.893 132.387 300.068 132.743C301.984 137.965 305.893 139.857 308.823 140.532C314.688 141.876 321.685 139.647 326.67 134.843L327.724 133.829L328.915 134.674C332.005 136.868 335.613 139.191 338.909 139.784C358.442 143.265 365.877 127.01 366.67 122.797C367.164 120.202 367.362 117.869 367.362 115.732C367.362 110.412 366.11 106.326 364.972 102.608C364.086 99.7137 363.258 97.0225 363.258 94.2878C363.258 92.2948 363.927 90.2342 365.101 88.0917C362.531 86.7631 357.687 84.2826 356.781 83.8192C353.675 85.2405 341.205 100.996 333.671 110.534C320.456 127.266 320.308 127.194 318.511 126.313L317.022 124.575C316.26 122.294 317.859 118.61 318.873 116.617C318.873 116.617 336.07 80.0864 336.044 80.1577L336.881 78.1059C336.881 78.1059 367.251 77.6379 369.415 77.607C370.002 76.1496 372.207 70.7782 373.422 67.8222C368.942 67.8942 341.758 68.313 341.758 68.313C341.758 68.313 348.78 53.5559 350.593 49.7656C346.72 49.8017 336.49 49.8871 334.821 49.9026C333.967 51.6947 326.042 68.4659 326.042 68.4659C326.042 68.4659 311.021 68.7248 309.136 68.7555C308.482 70.0739 305.824 75.5 304.284 78.6208C308.337 78.4613 321.311 77.961 321.311 77.961C321.311 77.961 308.387 106.036 308.356 106.108C303.392 115.697 290.873 131.708 275.469 130.884C272.266 130.709 268.288 129.107 267.495 122.443L267.286 120.64L269.088 120.48C286.314 118.966 293.449 112.611 296.173 108.965C300.504 103.161 301.205 97.4024 298.104 93.1692C294.463 88.1843 286.515 86.7508 278.342 89.5883C263.32 94.8001 251.698 111.921 253.47 126.215L253.575 127.068L252.971 127.672C252.497 128.146 250.013 130.496 247.443 130.239C246.284 130.12 245.305 129.511 244.578 128.404C243.708 126.967 243.299 125.025 243.299 122.651C243.299 107.541 259.848 74.7602 278.567 40.4795H258.499C249.677 49.5793 238.61 67.9125 229.675 82.7648C229.675 82.7648 221.88 95.5146 221.653 95.8647C219.711 98.8104 219.057 99.7998 217.517 99.0993C216.75 98.7543 216.439 98.2911 216.439 97.498C216.439 96.6689 216.781 95.4819 217.276 93.7L221.162 77.9931C224.412 64.2277 228.085 49.1051 232.009 40.3355L232.006 40.3347ZM284.752 95.6167C286.369 95.676 287.799 96.2723 288.775 97.395C289.429 98.152 289.893 99.2013 289.893 100.453C289.893 101.75 289.389 103.269 288.091 104.886C283.899 110.134 275.025 113.09 270.75 112.812L268.699 112.683L269.133 110.68C270.05 106.498 274.213 100.26 279.61 97.057C281.332 96.0322 283.135 95.5575 284.752 95.6167ZM352.351 97.4111L353.365 107.332C353.859 111.396 354.387 115.595 353.743 121.028C353.393 123.963 351.478 128.226 348.11 130.651C345.803 132.304 343.124 132.867 340.353 132.285C338.412 131.873 336.756 130.279 336.153 128.23C336.004 127.73 335.88 127.079 335.88 126.306C335.88 124.705 336.737 122.483 338.704 120.022C338.199 119.486 336.773 117.962 336.773 117.962L337.497 116.811C341.22 110.786 344.311 107.073 347.298 103.478L349.647 100.613L352.351 97.4111Z" fill="#FF5910"/>
<path d="M477.963 115.9C475.196 115.9 472.779 115.467 470.713 114.6C468.679 113.7 467.096 112.433 465.963 110.8C464.863 109.133 464.313 107.217 464.313 105.05V104.1C464.313 103.933 464.363 103.8 464.462 103.7C464.596 103.567 464.746 103.5 464.913 103.5H471.863C472.029 103.5 472.163 103.567 472.263 103.7C472.396 103.8 472.463 103.933 472.463 104.1V104.7C472.463 105.8 473.013 106.767 474.113 107.6C475.213 108.4 476.696 108.8 478.563 108.8C480.029 108.8 481.113 108.483 481.813 107.85C482.513 107.217 482.863 106.483 482.863 105.65C482.863 104.983 482.646 104.45 482.213 104.05C481.813 103.617 481.263 103.267 480.563 103C479.863 102.7 478.779 102.3 477.313 101.8C477.113 101.7 476.913 101.633 476.713 101.6C476.513 101.533 476.329 101.467 476.163 101.4C473.996 100.7 472.113 99.95 470.513 99.15C468.913 98.3167 467.546 97.1833 466.413 95.75C465.279 94.2833 464.713 92.4833 464.713 90.35C464.713 88.2833 465.246 86.4833 466.313 84.95C467.413 83.3833 468.929 82.1833 470.863 81.35C472.796 80.5167 474.979 80.1 477.413 80.1C479.979 80.1 482.279 80.5667 484.313 81.5C486.379 82.4333 487.996 83.75 489.163 85.45C490.329 87.15 490.913 89.1 490.913 91.3V92C490.913 92.1667 490.846 92.3167 490.713 92.45C490.613 92.55 490.479 92.6 490.313 92.6H483.363C483.196 92.6 483.046 92.55 482.913 92.45C482.813 92.3167 482.763 92.1667 482.763 92V91.65C482.763 90.4833 482.246 89.45 481.213 88.55C480.179 87.65 478.796 87.2 477.063 87.2C475.763 87.2 474.746 87.4667 474.013 88C473.279 88.5333 472.913 89.2833 472.913 90.25C472.913 90.9833 473.146 91.6 473.613 92.1C474.079 92.5667 474.796 93.0167 475.763 93.45C476.763 93.85 478.279 94.3833 480.313 95.05C482.646 95.85 484.463 96.55 485.763 97.15C487.063 97.75 488.279 98.7333 489.413 100.1C490.579 101.433 491.163 103.2 491.163 105.4C491.163 107.567 490.613 109.433 489.513 111C488.413 112.567 486.863 113.783 484.863 114.65C482.896 115.483 480.596 115.9 477.963 115.9ZM532.544 87C532.544 87.1667 532.477 87.3167 532.344 87.45C532.244 87.55 532.111 87.6 531.944 87.6H516.244C516.077 87.6 515.994 87.6833 515.994 87.85V94C515.994 94.1667 516.077 94.25 516.244 94.25H526.294C526.461 94.25 526.594 94.3167 526.694 94.45C526.827 94.55 526.894 94.6833 526.894 94.85V100.7C526.894 100.867 526.827 101.017 526.694 101.15C526.594 101.25 526.461 101.3 526.294 101.3H516.244C516.077 101.3 515.994 101.383 515.994 101.55V108.15C515.994 108.317 516.077 108.4 516.244 108.4H531.944C532.111 108.4 532.244 108.467 532.344 108.6C532.477 108.7 532.544 108.833 532.544 109V114.9C532.544 115.067 532.477 115.217 532.344 115.35C532.244 115.45 532.111 115.5 531.944 115.5H508.294C508.127 115.5 507.977 115.45 507.844 115.35C507.744 115.217 507.694 115.067 507.694 114.9V81.1C507.694 80.9333 507.744 80.8 507.844 80.7C507.977 80.5667 508.127 80.5 508.294 80.5H531.944C532.111 80.5 532.244 80.5667 532.344 80.7C532.477 80.8 532.544 80.9333 532.544 81.1V87ZM561.902 115.9C559.235 115.9 556.885 115.383 554.852 114.35C552.852 113.317 551.285 111.85 550.152 109.95C549.052 108.05 548.502 105.85 548.502 103.35V92.55C548.502 90.0833 549.052 87.9167 550.152 86.05C551.285 84.15 552.852 82.6833 554.852 81.65C556.885 80.6167 559.235 80.1 561.902 80.1C564.568 80.1 566.902 80.6 568.902 81.6C570.935 82.5667 572.502 83.95 573.602 85.75C574.735 87.5167 575.302 89.5667 575.302 91.9C575.302 92.0667 575.235 92.2 575.102 92.3C575.002 92.4 574.868 92.45 574.702 92.45L567.602 92.9C567.202 92.9 567.002 92.7167 567.002 92.35C567.002 90.7833 566.535 89.5333 565.602 88.6C564.668 87.6667 563.435 87.2 561.902 87.2C560.368 87.2 559.135 87.6833 558.202 88.65C557.268 89.5833 556.802 90.8167 556.802 92.35V103.7C556.802 105.233 557.268 106.467 558.202 107.4C559.135 108.333 560.368 108.8 561.902 108.8C563.435 108.8 564.668 108.333 565.602 107.4C566.535 106.467 567.002 105.233 567.002 103.7C567.002 103.333 567.202 103.15 567.602 103.15L574.702 103.5C574.868 103.5 575.002 103.55 575.102 103.65C575.235 103.75 575.302 103.867 575.302 104C575.302 106.367 574.735 108.45 573.602 110.25C572.502 112.05 570.935 113.45 568.902 114.45C566.902 115.417 564.568 115.9 561.902 115.9ZM605.17 115.9C602.537 115.9 600.204 115.4 598.17 114.4C596.17 113.367 594.604 111.917 593.47 110.05C592.37 108.183 591.82 106.033 591.82 103.6V81.1C591.82 80.9333 591.87 80.8 591.97 80.7C592.104 80.5667 592.254 80.5 592.42 80.5H599.52C599.687 80.5 599.82 80.5667 599.92 80.7C600.054 80.8 600.12 80.9333 600.12 81.1V103.6C600.12 105.167 600.57 106.433 601.47 107.4C602.404 108.333 603.637 108.8 605.17 108.8C606.67 108.8 607.87 108.333 608.77 107.4C609.704 106.433 610.17 105.167 610.17 103.6V81.1C610.17 80.9333 610.22 80.8 610.32 80.7C610.454 80.5667 610.604 80.5 610.77 80.5H617.87C618.037 80.5 618.17 80.5667 618.27 80.7C618.404 80.8 618.47 80.9333 618.47 81.1V103.6C618.47 106.033 617.92 108.183 616.82 110.05C615.72 111.917 614.154 113.367 612.12 114.4C610.12 115.4 607.804 115.9 605.17 115.9ZM654.423 115.5C654.089 115.5 653.856 115.35 653.723 115.05L647.823 101.75C647.756 101.617 647.656 101.55 647.523 101.55H644.223C644.056 101.55 643.973 101.633 643.973 101.8V114.9C643.973 115.067 643.906 115.217 643.773 115.35C643.673 115.45 643.539 115.5 643.373 115.5H636.273C636.106 115.5 635.956 115.45 635.823 115.35C635.723 115.217 635.673 115.067 635.673 114.9V81.1C635.673 80.9333 635.723 80.8 635.823 80.7C635.956 80.5667 636.106 80.5 636.273 80.5H651.123C653.323 80.5 655.256 80.95 656.923 81.85C658.589 82.75 659.873 84.0333 660.773 85.7C661.706 87.3333 662.173 89.2167 662.173 91.35C662.173 93.5833 661.623 95.5167 660.523 97.15C659.423 98.7833 657.889 99.9667 655.923 100.7C655.756 100.767 655.706 100.883 655.773 101.05L662.373 114.8C662.439 114.933 662.473 115.033 662.473 115.1C662.473 115.367 662.289 115.5 661.923 115.5H654.423ZM644.223 87.6C644.056 87.6 643.973 87.6833 643.973 87.85V94.95C643.973 95.1167 644.056 95.2 644.223 95.2H649.773C651.006 95.2 652.006 94.8667 652.773 94.2C653.539 93.5 653.923 92.5833 653.923 91.45C653.923 90.2833 653.539 89.35 652.773 88.65C652.006 87.95 651.006 87.6 649.773 87.6H644.223ZM679.486 115.5C679.319 115.5 679.169 115.45 679.036 115.35C678.936 115.217 678.886 115.067 678.886 114.9V81.1C678.886 80.9333 678.936 80.8 679.036 80.7C679.169 80.5667 679.319 80.5 679.486 80.5H686.586C686.752 80.5 686.886 80.5667 686.986 80.7C687.119 80.8 687.186 80.9333 687.186 81.1V114.9C687.186 115.067 687.119 115.217 686.986 115.35C686.886 115.45 686.752 115.5 686.586 115.5H679.486ZM729.918 80.5C730.085 80.5 730.218 80.5667 730.318 80.7C730.451 80.8 730.518 80.9333 730.518 81.1V87.05C730.518 87.2167 730.451 87.3667 730.318 87.5C730.218 87.6 730.085 87.65 729.918 87.65H721.168C721.001 87.65 720.918 87.7333 720.918 87.9V114.9C720.918 115.067 720.851 115.217 720.718 115.35C720.618 115.45 720.485 115.5 720.318 115.5H713.218C713.051 115.5 712.901 115.45 712.768 115.35C712.668 115.217 712.618 115.067 712.618 114.9V87.9C712.618 87.7333 712.535 87.65 712.368 87.65H703.918C703.751 87.65 703.601 87.6 703.468 87.5C703.368 87.3667 703.318 87.2167 703.318 87.05V81.1C703.318 80.9333 703.368 80.8 703.468 80.7C703.601 80.5667 703.751 80.5 703.918 80.5H729.918ZM756.46 115.4C756.293 115.4 756.143 115.35 756.01 115.25C755.91 115.117 755.86 114.967 755.86 114.8V102.95C755.86 102.817 755.843 102.717 755.81 102.65L745.56 81.2C745.493 81.0667 745.46 80.9667 745.46 80.9C745.46 80.6333 745.643 80.5 746.01 80.5H753.71C754.043 80.5 754.277 80.65 754.41 80.95L759.86 93.6C759.96 93.8 760.06 93.8 760.16 93.6L765.66 80.95C765.793 80.65 766.027 80.5 766.36 80.5H774.11C774.343 80.5 774.493 80.5667 774.56 80.7C774.66 80.8 774.66 80.9667 774.56 81.2L764.16 102.65C764.127 102.717 764.11 102.817 764.11 102.95V114.8C764.11 114.967 764.043 115.117 763.91 115.25C763.81 115.35 763.677 115.4 763.51 115.4H756.46ZM789.748 115.5C789.582 115.5 789.432 115.45 789.298 115.35C789.198 115.217 789.148 115.067 789.148 114.9V109.9C789.148 109.733 789.198 109.6 789.298 109.5C789.432 109.367 789.582 109.3 789.748 109.3H813.898C814.065 109.3 814.198 109.367 814.298 109.5C814.432 109.6 814.498 109.733 814.498 109.9V114.9C814.498 115.067 814.432 115.217 814.298 115.35C814.198 115.45 814.065 115.5 813.898 115.5H789.748Z" fill="#FF5910"/>
<defs>
<filter id="filter0_b_260_45" x="-14" y="-14" width="888" height="220" filterUnits="userSpaceOnUse" color-interpolation-filters="sRGB">
<feFlood flood-opacity="0" result="BackgroundImageFix"/>
<feGaussianBlur in="BackgroundImageFix" stdDeviation="7.5"/>
<feComposite in2="SourceAlpha" operator="in" result="effect1_backgroundBlur_260_45"/>
<feBlend mode="normal" in="SourceGraphic" in2="effect1_backgroundBlur_260_45" result="shape"/>
</filter>
<filter id="filter1_b_260_45" x="-14.4219" y="-14.5" width="451.789" height="220" filterUnits="userSpaceOnUse" color-interpolation-filters="sRGB">
<feFlood flood-opacity="0" result="BackgroundImageFix"/>
<feGaussianBlur in="BackgroundImageFix" stdDeviation="7.5"/>
<feComposite in2="SourceAlpha" operator="in" result="effect1_backgroundBlur_260_45"/>
<feBlend mode="normal" in="SourceGraphic" in2="effect1_backgroundBlur_260_45" result="shape"/>
</filter>
</defs>
</svg>
