<svg width="37" height="27" viewBox="0 0 37 27" fill="none" xmlns="http://www.w3.org/2000/svg">
<path d="M34.9717 4.28368L27.9066 8.18822V2.79886C27.9066 2.21545 27.6703 1.65594 27.2497 1.24341C26.8291 0.830878 26.2586 0.599121 25.6638 0.599121H5.47793C4.28824 0.599121 3.14727 1.06264 2.30603 1.8877C1.46479 2.71276 0.992188 3.83178 0.992188 4.9986V22.5965C0.992188 23.7633 1.46479 24.8823 2.30603 25.7074C3.14727 26.5325 4.28824 26.996 5.47793 26.996H25.6638C26.2586 26.996 26.8291 26.7642 27.2497 26.3517C27.6703 25.9392 27.9066 25.3797 27.9066 24.7962V19.3849L34.9717 23.2894C35.1529 23.4056 35.3622 23.4729 35.5784 23.4846C35.7945 23.4963 36.0101 23.452 36.2033 23.3562C36.3965 23.2603 36.5605 23.1163 36.679 22.9385C36.7975 22.7608 36.8661 22.5556 36.8781 22.3435V5.21857C36.8643 5.00749 36.7943 4.80364 36.6751 4.62737C36.5559 4.4511 36.3916 4.30856 36.1987 4.21396C36.0058 4.11937 35.791 4.07603 35.5757 4.08826C35.3604 4.10049 35.1521 4.16787 34.9717 4.28368Z" fill="#FF5910"/>
</svg>
