<svg width="59" height="59" viewBox="0 0 59 59" fill="none" xmlns="http://www.w3.org/2000/svg">
<path fill-rule="evenodd" clip-rule="evenodd" d="M9.85714 7.89286H49.1429C49.6638 7.89286 50.1634 8.09981 50.5318 8.46818C50.9002 8.83656 51.1071 9.33618 51.1071 9.85714V49.1429C51.1071 49.6638 50.9002 50.1634 50.5318 50.5318C50.1634 50.9002 49.6638 51.1071 49.1429 51.1071H9.85714C9.33618 51.1071 8.83656 50.9002 8.46818 50.5318C8.09981 50.1634 7.89286 49.6638 7.89286 49.1429V9.85714C7.89286 9.33618 8.09981 8.83656 8.46818 8.46818C8.83656 8.09981 9.33618 7.89286 9.85714 7.89286ZM2 9.85714C2 7.7733 2.8278 5.7748 4.3013 4.3013C5.7748 2.8278 7.7733 2 9.85714 2H49.1429C51.2267 2 53.2252 2.8278 54.6987 4.3013C56.1722 5.7748 57 7.7733 57 9.85714V49.1429C57 51.2267 56.1722 53.2252 54.6987 54.6987C53.2252 56.1722 51.2267 57 49.1429 57H9.85714C7.7733 57 5.7748 56.1722 4.3013 54.6987C2.8278 53.2252 2 51.2267 2 49.1429V9.85714ZM39.455 26.2471C39.9865 26.6071 40.4217 27.0918 40.7226 27.6589C41.0234 28.2259 41.1807 28.8581 41.1807 29.5C41.1807 30.1419 41.0234 30.7741 40.7226 31.3411C40.4217 31.9082 39.9865 32.3929 39.455 32.7529L27.7714 40.6611C27.1804 41.0606 26.4918 41.2916 25.7794 41.3293C25.067 41.3671 24.3578 41.2102 23.7279 40.8754C23.0979 40.5407 22.571 40.0407 22.2037 39.4292C21.8364 38.8177 21.6425 38.1177 21.6429 37.4043V21.5957C21.6425 20.8823 21.8364 20.1823 22.2037 19.5708C22.571 18.9593 23.0979 18.4593 23.7279 18.1246C24.3578 17.7898 25.067 17.6329 25.7794 17.6707C26.4918 17.7084 27.1804 17.9394 27.7714 18.3389L39.455 26.2471Z" fill="#FF5910" stroke="#1F1F1F" stroke-width="3"/>
</svg>
